<svg xmlns="http://www.w3.org/2000/svg" xmlns:xlink="http://www.w3.org/1999/xlink" width="113" height="113" viewBox="0 0 113 113">
  <defs>
    <filter id="Trazado_982547" x="0" y="0" width="113" height="113" filterUnits="userSpaceOnUse">
      <feOffset dy="3" input="SourceAlpha"/>
      <feGaussianBlur stdDeviation="3" result="blur"/>
      <feFlood flood-opacity="0.161"/>
      <feComposite operator="in" in2="blur"/>
      <feComposite in="SourceGraphic"/>
    </filter>
  </defs>
  <g id="Grupo_1223026" data-name="Grupo 1223026" transform="translate(-14392 -3005.678)">
    <g id="Grupo_1222886" data-name="Grupo 1222886" transform="translate(13575 -8060.852)">
      <g id="Grupo_1222661" data-name="Grupo 1222661">
        <g id="Grupo_1222485" data-name="Grupo 1222485" transform="translate(826 11072.529)">
          <g id="Grupo_1208010" data-name="Grupo 1208010" transform="translate(0 0)">
            <g id="Grupo_1202142" data-name="Grupo 1202142" transform="translate(0 0)">
              <g id="Grupo_1201923" data-name="Grupo 1201923">
                <g id="Grupo_1176928" data-name="Grupo 1176928" transform="translate(0)">
                  <g id="Grupo_1172322" data-name="Grupo 1172322">
                    <g id="Grupo_1164700" data-name="Grupo 1164700">
                      <g id="Grupo_1160931" data-name="Grupo 1160931">
                        <g id="Grupo_1160749" data-name="Grupo 1160749">
                          <g id="Grupo_1158891" data-name="Grupo 1158891">
                            <g id="Grupo_1157406" data-name="Grupo 1157406">
                              <g id="Grupo_1155793" data-name="Grupo 1155793">
                                <g id="Grupo_1154704" data-name="Grupo 1154704">
                                  <g id="Grupo_1150790" data-name="Grupo 1150790">
                                    <g id="Grupo_1154214" data-name="Grupo 1154214" transform="translate(0)">
                                      <g id="Grupo_1152583" data-name="Grupo 1152583">
                                        <g id="Grupo_1146973" data-name="Grupo 1146973">
                                          <g id="Grupo_1146954" data-name="Grupo 1146954">
                                            <g transform="matrix(1, 0, 0, 1, -9, -6)" filter="url(#Trazado_982547)">
                                              <g id="Trazado_982547-2" data-name="Trazado 982547" transform="translate(9 6)" fill="#f2f4f0">
                                                <path d="M 47.5 93.49984741210938 C 41.28938674926758 93.49984741210938 35.26533508300781 92.2838134765625 29.59519958496094 89.88556671142578 C 24.11773300170898 87.56878662109375 19.19814682006836 84.25181579589844 14.97310638427734 80.02677917480469 C 10.74805355072021 75.80173492431641 7.431079864501953 70.88216400146484 5.114306449890137 65.40470886230469 C 2.716039896011353 59.73457717895508 1.50001335144043 53.71053695678711 1.50001335144043 47.49992370605469 C 1.50001335144043 41.28931045532227 2.716039896011353 35.2652702331543 5.114306449890137 29.59513664245605 C 7.431079864501953 24.11768341064453 10.74805355072021 19.19811058044434 14.97310638427734 14.97307014465332 C 19.19814682006836 10.74803066253662 24.11773300170898 7.431056976318359 29.59519958496094 5.114283561706543 C 35.26533508300781 2.716030359268188 41.28938674926758 1.500003695487976 47.5 1.500003695487976 C 53.71062850952148 1.500003695487976 59.73466491699219 2.716030359268188 65.40481567382812 5.114283561706543 C 70.88227844238281 7.431056976318359 75.80186462402344 10.74803066253662 80.02690887451172 14.97307014465332 C 84.25196075439453 19.19811058044434 87.56893157958984 24.11768341064453 89.88570404052734 29.59513664245605 C 92.28397369384766 35.2652702331543 93.5 41.28931045532227 93.5 47.49992370605469 C 93.5 53.71053695678711 92.28397369384766 59.73457717895508 89.88570404052734 65.40470886230469 C 87.56893157958984 70.88216400146484 84.25196075439453 75.80173492431641 80.02690887451172 80.02677917480469 C 75.80186462402344 84.25181579589844 70.88227844238281 87.56878662109375 65.40481567382812 89.88556671142578 C 59.73466491699219 92.2838134765625 53.71062850952148 93.49984741210938 47.5 93.49984741210938 Z" stroke="none"/>
                                                <path d="M 47.5 3 C 41.49121475219727 3 35.66376876831055 4.176155090332031 30.17951965332031 6.495803833007812 C 24.88084411621094 8.7369384765625 20.12152099609375 11.94596862792969 16.03375244140625 16.03372192382812 C 11.94598388671875 20.12149047851562 8.736953735351562 24.88081359863281 6.495796203613281 30.17947387695312 C 4.176155090332031 35.6637077331543 3 41.49115371704102 3 47.49992370605469 C 3 53.50869369506836 4.176155090332031 59.33613967895508 6.495796203613281 64.82037353515625 C 8.736953735351562 70.11903381347656 11.94598388671875 74.87835693359375 16.03375244140625 78.96612548828125 C 20.12152099609375 83.05387878417969 24.88084411621094 86.26290893554688 30.17951965332031 88.50404357910156 C 35.66376876831055 90.82369232177734 41.49121475219727 91.99984741210938 47.5 91.99984741210938 C 53.50878524780273 91.99984741210938 59.33623123168945 90.82369232177734 64.82049560546875 88.50404357910156 C 70.11915588378906 86.26290893554688 74.87847900390625 83.05387878417969 78.96624755859375 78.96612548828125 C 83.05401611328125 74.87835693359375 86.26304626464844 70.11903381347656 88.50418090820312 64.82037353515625 C 90.82382965087891 59.33613967895508 91.99998474121094 53.50869369506836 91.99998474121094 47.49992370605469 C 91.99998474121094 41.49115371704102 90.82382965087891 35.6637077331543 88.50418090820312 30.17947387695312 C 86.26304626464844 24.88081359863281 83.05401611328125 20.12149047851562 78.96624755859375 16.03372192382812 C 74.87847900390625 11.94596862792969 70.11915588378906 8.7369384765625 64.82049560546875 6.495803833007812 C 59.33623123168945 4.176155090332031 53.50878524780273 3 47.5 3 M 47.5 0 C 73.7335205078125 0 94.99998474121094 21.26644897460938 94.99998474121094 47.49992370605469 C 94.99998474121094 73.7333984375 73.7335205078125 94.99984741210938 47.5 94.99984741210938 C 21.26649475097656 94.99984741210938 0 73.7333984375 0 47.49992370605469 C 0 21.26644897460938 21.26649475097656 0 47.5 0 Z" stroke="none" fill="#899e78"/>
                                              </g>
                                            </g>
                                          </g>
                                        </g>
                                      </g>
                                    </g>
                                  </g>
                                </g>
                              </g>
                            </g>
                          </g>
                        </g>
                      </g>
                    </g>
                  </g>
                </g>
              </g>
            </g>
          </g>
        </g>
      </g>
    </g>
    <g id="Layer_20" data-name="Layer 20" transform="translate(14415 3027.179)">
      <path id="Trazado_1176831" data-name="Trazado 1176831" d="M58,20a4,4,0,0,1,4,4V42a4,4,0,0,1-4,4Z" fill="#9d958c"/>
      <path id="Trazado_1176832" data-name="Trazado 1176832" d="M16,26,58,8V58L16,40Z" fill="#9d958c"/>
      <path id="Trazado_1176833" data-name="Trazado 1176833" d="M16,37.7A27.322,27.322,0,0,0,27,40,26.753,26.753,0,0,0,54,13.5a26.182,26.182,0,0,0-.264-3.673L16,26Z" fill="#c4bfba"/>
      <circle id="Elipse_14689" data-name="Elipse 14689" cx="15.984" cy="15.984" r="15.984" transform="translate(17.032 2)" fill="#eeebe7"/>
      <path id="Trazado_1176834" data-name="Trazado 1176834" d="M17,17.984a15.943,15.943,0,0,0,.63,4.407A14.032,14.032,0,0,0,28.5,28C37.06,28,44,19.27,44,8.5c0-.735-.039-1.457-.1-2.171A15.966,15.966,0,0,0,17,17.984Z" fill="#fafaf8"/>
      <path id="Trazado_1176835" data-name="Trazado 1176835" d="M31,52h4v6H31Z" fill="#9d958c"/>
      <path id="Trazado_1176836" data-name="Trazado 1176836" d="M18,40.857V62H31V46.429Z" fill="#4f4b46"/>
      <path id="Trazado_1176837" data-name="Trazado 1176837" d="M18,48h4V58H18Z" fill="#9d958c"/>
      <path id="Trazado_1176838" data-name="Trazado 1176838" d="M52,55.429,58,58V8l-6,2.571Z" fill="#4f4b46"/>
      <path id="Trazado_1176839" data-name="Trazado 1176839" d="M2,22H8V44H2Z" fill="#9d958c"/>
      <path id="Trazado_1176840" data-name="Trazado 1176840" d="M8,22l8,4V40L8,44Z" fill="#4f4b46"/>
      <path id="Trazado_1176841" data-name="Trazado 1176841" d="M36.232,15.282h3.536V28.717H36.232Z" transform="translate(-4.426 33.314) rotate(-45)" fill="#bf8859"/>
      <path id="Trazado_1176842" data-name="Trazado 1176842" d="M26.05,11.464h9.9v7.071h-9.9Z" transform="translate(-1.527 26.314) rotate(-45)" fill="#bf8859"/>
      <path id="Trazado_1176843" data-name="Trazado 1176843" d="M23.879,15.05h4.243v9.9H23.879Z" transform="translate(-6.527 24.243) rotate(-45)" fill="#bf8859"/>
      <path id="Trazado_1176844" data-name="Trazado 1176844" d="M33.879,5.05h4.243v9.9H33.879Z" transform="translate(3.473 28.385) rotate(-45)" fill="#bf8859"/>
      <g id="Grupo_1223025" data-name="Grupo 1223025">
        <path id="Trazado_1176845" data-name="Trazado 1176845" d="M8,44H2V22H8l8,4V40Z" fill="none" stroke="#000" stroke-linejoin="round" stroke-width="2"/>
        <path id="Trazado_1176846" data-name="Trazado 1176846" d="M18,41V62H31V46" fill="none" stroke="#000" stroke-linejoin="round" stroke-width="2"/>
        <path id="Trazado_1176847" data-name="Trazado 1176847" d="M47.959,12.3,58,8V58L16,40" fill="none" stroke="#000" stroke-linejoin="round" stroke-width="2"/>
        <path id="Trazado_1176848" data-name="Trazado 1176848" d="M16,26l2.6-1.113" fill="none" stroke="#000" stroke-linejoin="round" stroke-width="2"/>
        <path id="Trazado_1176849" data-name="Trazado 1176849" d="M58,20a4,4,0,0,1,4,4V42a4,4,0,0,1-4,4" fill="none" stroke="#000" stroke-linejoin="round" stroke-width="2"/>
        <path id="Trazado_1176850" data-name="Trazado 1176850" d="M52,11V55" fill="none" stroke="#000" stroke-linejoin="round" stroke-width="2"/>
        <path id="Trazado_1176851" data-name="Trazado 1176851" d="M31,58h4V52H31" fill="none" stroke="#000" stroke-linejoin="round" stroke-width="2"/>
        <path id="Trazado_1176852" data-name="Trazado 1176852" d="M18,58h4V48H18" fill="none" stroke="#000" stroke-linejoin="round" stroke-width="2"/>
        <path id="Trazado_1176853" data-name="Trazado 1176853" d="M23.879,15.05h4.243v9.9H23.879Z" transform="translate(-6.527 24.243) rotate(-45)" fill="none" stroke="#000" stroke-linejoin="round" stroke-width="2"/>
        <path id="Trazado_1176854" data-name="Trazado 1176854" d="M33.879,5.05h4.243v9.9H33.879Z" transform="translate(3.473 28.385) rotate(-45)" fill="none" stroke="#000" stroke-linejoin="round" stroke-width="2"/>
        <path id="Trazado_1176855" data-name="Trazado 1176855" d="M25,16l7-7" fill="none" stroke="#000" stroke-linejoin="round" stroke-width="2"/>
        <path id="Trazado_1176856" data-name="Trazado 1176856" d="M30,21l7-7" fill="none" stroke="#000" stroke-linejoin="round" stroke-width="2"/>
        <path id="Trazado_1176857" data-name="Trazado 1176857" d="M32,18.5,41.5,28,44,25.5,34.5,16" fill="none" stroke="#000" stroke-linejoin="round" stroke-width="2"/>
        <circle id="Elipse_14690" data-name="Elipse 14690" cx="15.984" cy="15.984" r="15.984" transform="translate(17.032 2)" fill="none" stroke="#000" stroke-linejoin="round" stroke-width="2"/>
        <path id="Trazado_1176858" data-name="Trazado 1176858" d="M8,22V44" fill="none" stroke="#000" stroke-linejoin="round" stroke-width="2"/>
      </g>
    </g>
  </g>
</svg>
