<svg xmlns="http://www.w3.org/2000/svg" xmlns:xlink="http://www.w3.org/1999/xlink" width="113" height="113" viewBox="0 0 113 113">
  <defs>
    <filter id="Trazado_982547" x="0" y="0" width="113" height="113" filterUnits="userSpaceOnUse">
      <feOffset dy="3" input="SourceAlpha"/>
      <feGaussianBlur stdDeviation="3" result="blur"/>
      <feFlood flood-opacity="0.161"/>
      <feComposite operator="in" in2="blur"/>
      <feComposite in="SourceGraphic"/>
    </filter>
  </defs>
  <g id="Grupo_1223045" data-name="Grupo 1223045" transform="translate(-14392.5 -3383)">
    <g id="Grupo_1222888" data-name="Grupo 1222888" transform="translate(13575.5 -7683.529)">
      <g id="Grupo_1222661" data-name="Grupo 1222661">
        <g id="Grupo_1222485" data-name="Grupo 1222485" transform="translate(826 11072.529)">
          <g id="Grupo_1208010" data-name="Grupo 1208010" transform="translate(0 0)">
            <g id="Grupo_1202142" data-name="Grupo 1202142" transform="translate(0 0)">
              <g id="Grupo_1201923" data-name="Grupo 1201923">
                <g id="Grupo_1176928" data-name="Grupo 1176928" transform="translate(0)">
                  <g id="Grupo_1172322" data-name="Grupo 1172322">
                    <g id="Grupo_1164700" data-name="Grupo 1164700">
                      <g id="Grupo_1160931" data-name="Grupo 1160931">
                        <g id="Grupo_1160749" data-name="Grupo 1160749">
                          <g id="Grupo_1158891" data-name="Grupo 1158891">
                            <g id="Grupo_1157406" data-name="Grupo 1157406">
                              <g id="Grupo_1155793" data-name="Grupo 1155793">
                                <g id="Grupo_1154704" data-name="Grupo 1154704">
                                  <g id="Grupo_1150790" data-name="Grupo 1150790">
                                    <g id="Grupo_1154214" data-name="Grupo 1154214" transform="translate(0)">
                                      <g id="Grupo_1152583" data-name="Grupo 1152583">
                                        <g id="Grupo_1146973" data-name="Grupo 1146973">
                                          <g id="Grupo_1146954" data-name="Grupo 1146954">
                                            <g transform="matrix(1, 0, 0, 1, -9, -6)" filter="url(#Trazado_982547)">
                                              <g id="Trazado_982547-2" data-name="Trazado 982547" transform="translate(9 6)" fill="#f2f4f0">
                                                <path d="M 47.5 93.49984741210938 C 41.28938674926758 93.49984741210938 35.26533508300781 92.2838134765625 29.59519958496094 89.88556671142578 C 24.11773300170898 87.56878662109375 19.19814682006836 84.25181579589844 14.97310638427734 80.02677917480469 C 10.74805355072021 75.80173492431641 7.431079864501953 70.88216400146484 5.114306449890137 65.40470886230469 C 2.716039896011353 59.73457717895508 1.50001335144043 53.71053695678711 1.50001335144043 47.49992370605469 C 1.50001335144043 41.28931045532227 2.716039896011353 35.2652702331543 5.114306449890137 29.59513664245605 C 7.431079864501953 24.11768341064453 10.74805355072021 19.19811058044434 14.97310638427734 14.97307014465332 C 19.19814682006836 10.74803066253662 24.11773300170898 7.431056976318359 29.59519958496094 5.114283561706543 C 35.26533508300781 2.716030359268188 41.28938674926758 1.500003695487976 47.5 1.500003695487976 C 53.71062850952148 1.500003695487976 59.73466491699219 2.716030359268188 65.40481567382812 5.114283561706543 C 70.88227844238281 7.431056976318359 75.80186462402344 10.74803066253662 80.02690887451172 14.97307014465332 C 84.25196075439453 19.19811058044434 87.56893157958984 24.11768341064453 89.88570404052734 29.59513664245605 C 92.28397369384766 35.2652702331543 93.5 41.28931045532227 93.5 47.49992370605469 C 93.5 53.71053695678711 92.28397369384766 59.73457717895508 89.88570404052734 65.40470886230469 C 87.56893157958984 70.88216400146484 84.25196075439453 75.80173492431641 80.02690887451172 80.02677917480469 C 75.80186462402344 84.25181579589844 70.88227844238281 87.56878662109375 65.40481567382812 89.88556671142578 C 59.73466491699219 92.2838134765625 53.71062850952148 93.49984741210938 47.5 93.49984741210938 Z" stroke="none"/>
                                                <path d="M 47.5 3 C 41.49121475219727 3 35.66376876831055 4.176155090332031 30.17951965332031 6.495803833007812 C 24.88084411621094 8.7369384765625 20.12152099609375 11.94596862792969 16.03375244140625 16.03372192382812 C 11.94598388671875 20.12149047851562 8.736953735351562 24.88081359863281 6.495796203613281 30.17947387695312 C 4.176155090332031 35.6637077331543 3 41.49115371704102 3 47.49992370605469 C 3 53.50869369506836 4.176155090332031 59.33613967895508 6.495796203613281 64.82037353515625 C 8.736953735351562 70.11903381347656 11.94598388671875 74.87835693359375 16.03375244140625 78.96612548828125 C 20.12152099609375 83.05387878417969 24.88084411621094 86.26290893554688 30.17951965332031 88.50404357910156 C 35.66376876831055 90.82369232177734 41.49121475219727 91.99984741210938 47.5 91.99984741210938 C 53.50878524780273 91.99984741210938 59.33623123168945 90.82369232177734 64.82049560546875 88.50404357910156 C 70.11915588378906 86.26290893554688 74.87847900390625 83.05387878417969 78.96624755859375 78.96612548828125 C 83.05401611328125 74.87835693359375 86.26304626464844 70.11903381347656 88.50418090820312 64.82037353515625 C 90.82382965087891 59.33613967895508 91.99998474121094 53.50869369506836 91.99998474121094 47.49992370605469 C 91.99998474121094 41.49115371704102 90.82382965087891 35.6637077331543 88.50418090820312 30.17947387695312 C 86.26304626464844 24.88081359863281 83.05401611328125 20.12149047851562 78.96624755859375 16.03372192382812 C 74.87847900390625 11.94596862792969 70.11915588378906 8.7369384765625 64.82049560546875 6.495803833007812 C 59.33623123168945 4.176155090332031 53.50878524780273 3 47.5 3 M 47.5 0 C 73.7335205078125 0 94.99998474121094 21.26644897460938 94.99998474121094 47.49992370605469 C 94.99998474121094 73.7333984375 73.7335205078125 94.99984741210938 47.5 94.99984741210938 C 21.26649475097656 94.99984741210938 0 73.7333984375 0 47.49992370605469 C 0 21.26644897460938 21.26649475097656 0 47.5 0 Z" stroke="none" fill="#899e78"/>
                                              </g>
                                            </g>
                                          </g>
                                        </g>
                                      </g>
                                    </g>
                                  </g>
                                </g>
                              </g>
                            </g>
                          </g>
                        </g>
                      </g>
                    </g>
                  </g>
                </g>
              </g>
            </g>
          </g>
        </g>
      </g>
    </g>
    <g id="regulations_11668177" transform="translate(14371.741 3404.837)">
      <g id="Grupo_1223044" data-name="Grupo 1223044" transform="translate(53.181 1.862)">
        <path id="Trazado_1176884" data-name="Trazado 1176884" d="M63.226,11.79h42.013a2.683,2.683,0,0,1,2.676,2.676V68.948a2.683,2.683,0,0,1-2.676,2.676H63.226a2.683,2.683,0,0,1-2.676-2.676V14.466A2.683,2.683,0,0,1,63.226,11.79Z" transform="translate(-60.55 -11.79)" fill="#eceaec" stroke="#eceaec" stroke-miterlimit="10" stroke-width="0.227" fill-rule="evenodd"/>
        <path id="Trazado_1176885" data-name="Trazado 1176885" d="M150.408,381a5.248,5.248,0,1,1-5.248,5.247A5.246,5.246,0,0,1,150.408,381Z" transform="translate(-134.953 -336.461)" fill="#98db7c" fill-rule="evenodd"/>
        <path id="Trazado_1176886" data-name="Trazado 1176886" d="M294.788,381a5.248,5.248,0,1,1-5.248,5.247A5.248,5.248,0,0,1,294.788,381Z" transform="translate(-261.916 -336.461)" fill="#ff5f7a" fill-rule="evenodd"/>
        <path id="Trazado_1176887" data-name="Trazado 1176887" d="M282.6,107.57a3.55,3.55,0,0,0,7.1,0Z" transform="translate(-255.813 -96.016)" fill="#ffd18d" fill-rule="evenodd"/>
        <path id="Trazado_1176888" data-name="Trazado 1176888" d="M179.339,107.57a3.55,3.55,0,0,1-7.1,0Z" transform="translate(-158.767 -96.016)" fill="#ffd18d" fill-rule="evenodd"/>
        <path id="Trazado_1176889" data-name="Trazado 1176889" d="M244.433,34.16a1.7,1.7,0,1,0,1.7,1.7A1.7,1.7,0,0,0,244.433,34.16Z" transform="translate(-220.753 -31.461)" fill="#ffd18d" fill-rule="evenodd"/>
      </g>
      <path id="Trazado_1176890" data-name="Trazado 1176890" d="M97.748.5H55.77a3.6,3.6,0,0,0-3.6,3.6V58.544a3.6,3.6,0,0,0,3.6,3.6H97.748a3.6,3.6,0,0,0,3.6-3.6V4.1a3.6,3.6,0,0,0-3.6-3.6ZM99.5,58.544a1.753,1.753,0,0,1-1.75,1.75H55.77a1.753,1.753,0,0,1-1.75-1.75V4.1a1.753,1.753,0,0,1,1.75-1.75H97.748A1.753,1.753,0,0,1,99.5,4.1ZM92.109,26.42a.924.924,0,0,1-.924.924H62.333a.924.924,0,0,1,0-1.848H91.185A.924.924,0,0,1,92.109,26.42Zm0,7.049a.924.924,0,0,1-.924.924H62.333a.924.924,0,1,1,0-1.848H91.185A.924.924,0,0,1,92.109,33.469Zm0,7.049a.924.924,0,0,1-.924.924H62.333a.924.924,0,0,1,0-1.848H91.185A.923.923,0,0,1,92.109,40.518ZM71.179,49.2a.925.925,0,0,1,0,1.308L68.53,53.153a.923.923,0,0,1-1.308,0L65.9,51.828a.925.925,0,1,1,1.309-1.306l.667.67L69.872,49.2a.924.924,0,0,1,1.308,0Zm-2.641-4.191a6.169,6.169,0,1,0,6.169,6.169A6.175,6.175,0,0,0,68.539,45.005Zm0,10.49a4.321,4.321,0,1,1,4.321-4.321A4.325,4.325,0,0,1,68.539,55.5ZM88.222,50.2l-.972.972.972.972a.925.925,0,1,1-1.308,1.308l-.972-.972-.972.972a.925.925,0,0,1-1.308-1.308l.972-.972-.972-.972a.925.925,0,0,1,1.308-1.308l.972.972.972-.972A.925.925,0,0,1,88.222,50.2Zm-2.28-5.2a6.169,6.169,0,1,0,6.167,6.169A6.176,6.176,0,0,0,85.942,45.005Zm0,10.49a4.321,4.321,0,1,1,4.317-4.321A4.326,4.326,0,0,1,85.942,55.5ZM70.106,17.682a4.478,4.478,0,0,0,4.472-4.474.924.924,0,0,0-.924-.924H73.07L71.36,6.754H74.3a2.64,2.64,0,0,0,1.533,1.533V18.506h-5.73a.924.924,0,0,0,0,1.848H83.413a.924.924,0,0,0,0-1.848H77.686V8.284A2.64,2.64,0,0,0,79.22,6.751h2.941l-1.709,5.53h-.584a.924.924,0,0,0-.924.924,4.472,4.472,0,1,0,8.944,0,.924.924,0,0,0-.924-.924h-.586L84.295,5.555a.924.924,0,0,0-.883-.651H79.218a2.624,2.624,0,0,0-4.915,0h-4.2a.924.924,0,0,0-.883.651l-2.077,6.728H66.56a.924.924,0,0,0-.924.924A4.476,4.476,0,0,0,70.106,17.682Zm0-1.849a2.628,2.628,0,0,1-2.455-1.7h4.909A2.626,2.626,0,0,1,70.106,15.832Zm13.306,0a2.628,2.628,0,0,1-2.455-1.7h4.909A2.624,2.624,0,0,1,83.412,15.832Zm1.025-3.55H82.384l1.028-3.323ZM76.76,5.047a.779.779,0,1,1-.777.78A.779.779,0,0,1,76.76,5.047ZM70.106,8.959l1.028,3.323H69.08Z" transform="translate(0 0)"/>
    </g>
  </g>
</svg>
