<svg xmlns="http://www.w3.org/2000/svg" xmlns:xlink="http://www.w3.org/1999/xlink" width="108" height="108" viewBox="0 0 108 108">
  <defs>
    <filter id="Trazado_904820" x="0" y="0" width="108" height="108" filterUnits="userSpaceOnUse">
      <feOffset dy="3" input="SourceAlpha"/>
      <feGaussianBlur stdDeviation="3" result="blur"/>
      <feFlood flood-opacity="0.161"/>
      <feComposite operator="in" in2="blur"/>
      <feComposite in="SourceGraphic"/>
    </filter>
  </defs>
  <g id="Grupo_1223122" data-name="Grupo 1223122" transform="translate(-200 -5734.385)">
    <g id="Grupo_1222923" data-name="Grupo 1222923" transform="translate(209 5740.385)">
      <g id="Grupo_1173585" data-name="Grupo 1173585" transform="translate(0 0)">
        <g id="Grupo_1173428" data-name="Grupo 1173428">
          <g id="Grupo_1171958" data-name="Grupo 1171958">
            <g id="Grupo_1167341" data-name="Grupo 1167341">
              <g id="Grupo_1166792" data-name="Grupo 1166792">
                <g transform="matrix(1, 0, 0, 1, -9, -6)" filter="url(#Trazado_904820)">
                  <g id="Trazado_904820-2" data-name="Trazado 904820" transform="translate(9 6)" fill="#f2f4f0">
                    <path d="M 44.99996948242188 88.49996948242188 C 39.12684631347656 88.49996948242188 33.43020629882812 87.35004425048828 28.06828117370605 85.08214569091797 C 22.88850784301758 82.89128112792969 18.23629379272461 79.75457000732422 14.2408447265625 75.75912475585938 C 10.24540710449219 71.763671875 7.108694553375244 67.1114501953125 4.917831897735596 61.93168640136719 C 2.649931907653809 56.56974792480469 1.500007033348083 50.87310791015625 1.500007033348083 44.99998474121094 C 1.500007033348083 39.12686157226562 2.649931907653809 33.43022155761719 4.917831897735596 28.06828498840332 C 7.108694553375244 22.88852310180664 10.24540710449219 18.23629760742188 14.2408447265625 14.24084758758545 C 18.23629379272461 10.24539756774902 22.88850784301758 7.108684539794922 28.06828117370605 4.917822360992432 C 33.43020629882812 2.649922132492065 39.12684631347656 1.49999725818634 44.99996948242188 1.49999725818634 C 50.87309265136719 1.49999725818634 56.56973266601562 2.649922132492065 61.93165588378906 4.917822360992432 C 67.11143493652344 7.108684539794922 71.76364135742188 10.24539756774902 75.75909423828125 14.24084758758545 C 79.75454711914062 18.23629760742188 82.89125823974609 22.88852310180664 85.08212280273438 28.06828498840332 C 87.35002136230469 33.43022155761719 88.49994659423828 39.12686157226562 88.49994659423828 44.99998474121094 C 88.49994659423828 50.87310791015625 87.35002136230469 56.56974792480469 85.08212280273438 61.93168640136719 C 82.89125823974609 67.1114501953125 79.75454711914062 71.763671875 75.75909423828125 75.75912475585938 C 71.76364135742188 79.75457000732422 67.11143493652344 82.89128112792969 61.93165588378906 85.08214569091797 C 56.56973266601562 87.35004425048828 50.87309265136719 88.49996948242188 44.99996948242188 88.49996948242188 Z" stroke="none"/>
                    <path d="M 44.99996948242188 3 C 39.32868194580078 3 33.82863998413086 4.110054016113281 28.65261077880859 6.299339294433594 C 23.65164184570312 8.414573669433594 19.15968322753906 11.44334411621094 15.30149841308594 15.301513671875 C 11.44332885742188 19.15968322753906 8.414566040039062 23.65164184570312 6.299324035644531 28.65261459350586 C 4.110054016113281 33.82865524291992 3 39.32869720458984 3 44.99998474121094 C 3 50.67127227783203 4.110054016113281 56.17131423950195 6.299324035644531 61.34735870361328 C 8.414566040039062 66.34832763671875 11.44332885742188 70.84028625488281 15.30149841308594 74.69845581054688 C 19.15968322753906 78.55662536621094 23.65164184570312 81.58539581298828 28.65261077880859 83.70063018798828 C 33.82863998413086 85.88991546630859 39.32868194580078 86.99996948242188 44.99996948242188 86.99996948242188 C 50.67125701904297 86.99996948242188 56.17129898071289 85.88991546630859 61.34732818603516 83.70063018798828 C 66.34829711914062 81.58539581298828 70.84025573730469 78.55662536621094 74.69844055175781 74.69845581054688 C 78.55661010742188 70.84028625488281 81.58537292480469 66.34832763671875 83.70061492919922 61.34735870361328 C 85.88988494873047 56.17131423950195 86.99993896484375 50.67127227783203 86.99993896484375 44.99998474121094 C 86.99993896484375 39.32869720458984 85.88988494873047 33.82865524291992 83.70061492919922 28.65261459350586 C 81.58537292480469 23.65164184570312 78.55661010742188 19.15968322753906 74.69844055175781 15.301513671875 C 70.84025573730469 11.44334411621094 66.34829711914062 8.414573669433594 61.34732818603516 6.299339294433594 C 56.17129898071289 4.110054016113281 50.67125701904297 3 44.99996948242188 3 M 44.99996948242188 0 C 69.85276794433594 0 89.99993896484375 20.14718627929688 89.99993896484375 44.99998474121094 C 89.99993896484375 69.852783203125 69.85276794433594 89.99996948242188 44.99996948242188 89.99996948242188 C 20.14717102050781 89.99996948242188 0 69.852783203125 0 44.99998474121094 C 0 20.14718627929688 20.14717102050781 0 44.99996948242188 0 Z" stroke="none" fill="#899e78"/>
                  </g>
                </g>
              </g>
            </g>
          </g>
        </g>
      </g>
    </g>
    <g id="lawyer_12308491_1_" data-name="lawyer_12308491 (1)" transform="translate(227 5755.458)">
      <path id="Trazado_1177028" data-name="Trazado 1177028" d="M55,52h7.193A3.6,3.6,0,0,1,55,52Z" transform="translate(-5.55 -5.247)" fill="#f7a539"/>
      <circle id="Elipse_14691" data-name="Elipse 14691" cx="2.248" cy="2.248" r="2.248" transform="translate(44.505 36.413)" fill="#f7a539"/>
      <path id="Trazado_1177029" data-name="Trazado 1177029" d="M53.193,59a3.592,3.592,0,0,1,3.6,3.6H46A3.6,3.6,0,0,1,49.6,59Z" transform="translate(-4.642 -5.954)" fill="#ae672b"/>
      <path id="Trazado_1177030" data-name="Trazado 1177030" d="M41,52h7.193A3.6,3.6,0,0,1,41,52Z" transform="translate(-4.137 -5.247)" fill="#f7a539"/>
      <path id="Trazado_1177031" data-name="Trazado 1177031" d="M47.23,42.7H43.184L34.193,40l3.6,4.5-1.8,2.7v5.395L27,60.679H44.083a3.6,3.6,0,0,1,3.6-3.6h1.8V44.945A2.249,2.249,0,0,1,47.23,42.7Zm-1.5,10.636a3.6,3.6,0,0,1-6.141-2.544H46.78A3.619,3.619,0,0,1,45.728,53.334Z" transform="translate(-2.725 -4.036)" fill="#666"/>
      <path id="Trazado_1177032" data-name="Trazado 1177032" d="M30.012,52.021,34.193,40l3.6,4.5-1.8,2.7v5.395L27,60.679Z" transform="translate(-2.725 -4.036)" fill="#999"/>
      <path id="Trazado_1177033" data-name="Trazado 1177033" d="M7.294,60.679H1V51.688c0-5.1,4.163-8.281,8.991-9.89L17.184,40l-3.6,4.5,1.8,2.7v5.395l8.991,8.092Z" transform="translate(-0.101 -4.036)" fill="#666"/>
      <path id="Trazado_1177034" data-name="Trazado 1177034" d="M22.777,52.021l3.012,8.658L16.8,52.587V47.193L15,44.5,18.6,40Z" transform="translate(-1.514 -4.036)" fill="#999"/>
      <path id="Trazado_1177035" data-name="Trazado 1177035" d="M26.662,45l3.012,7.525-3.012,8.658L23.65,52.525Z" transform="translate(-2.386 -4.541)" fill="#666"/>
      <path id="Trazado_1177036" data-name="Trazado 1177036" d="M34.193,40,30.012,52.021,27,44.5Z" transform="translate(-2.725 -4.036)" fill="#e6e6e6"/>
      <path id="Trazado_1177037" data-name="Trazado 1177037" d="M26.193,44.5l-3.012,7.525L19,40Z" transform="translate(-1.917 -4.036)" fill="#e6e6e6"/>
      <path id="Trazado_1177038" data-name="Trazado 1177038" d="M15.5,15.8v8.991a15.155,15.155,0,0,1-2.248-2.356A9.736,9.736,0,0,1,11,16.7a2.947,2.947,0,0,1,.656-2.023A2.092,2.092,0,0,1,13.248,14,2.131,2.131,0,0,1,15.5,15.8Z" transform="translate(-1.11 -1.413)" fill="#e09b8d"/>
      <path id="Trazado_1177039" data-name="Trazado 1177039" d="M33.385,33.55v5.8l-7.193,4.5L19,39.349v-5.8a9.822,9.822,0,0,0,7.193,3.1A10,10,0,0,0,33.385,33.55Z" transform="translate(-1.917 -3.385)" fill="#e09b8d"/>
      <path id="Trazado_1177040" data-name="Trazado 1177040" d="M41.839,14.674A2.947,2.947,0,0,1,42.5,16.7c0,4.5-4.5,8.092-4.5,8.092V15.8a1.682,1.682,0,0,1,.656-1.241A2.528,2.528,0,0,1,40.248,14,2.092,2.092,0,0,1,41.839,14.674Z" transform="translate(-3.835 -1.413)" fill="#e09b8d"/>
      <path id="Trazado_1177041" data-name="Trazado 1177041" d="M18.7,31.375A9.861,9.861,0,0,1,16,24.587V15.6h1.376a6.512,6.512,0,0,0,3.417-.971A6.638,6.638,0,0,0,23.193,12a6.511,6.511,0,0,0,5.817,3.6h6.77v8.991a9.861,9.861,0,0,1-2.7,6.788,10,10,0,0,1-7.193,3.1A9.822,9.822,0,0,1,18.7,31.375Z" transform="translate(-1.615 -1.211)" fill="#f4baa6"/>
      <path id="Trazado_1177042" data-name="Trazado 1177042" d="M13.248,12.688a2.092,2.092,0,0,0-1.591.674A2.947,2.947,0,0,0,11,15.385v-3.6A10.775,10.775,0,0,1,21.789,1h7.193A10.786,10.786,0,0,1,39.771,11.789v3.6a2.947,2.947,0,0,0-.656-2.023,2.092,2.092,0,0,0-1.591-.674,2.528,2.528,0,0,0-1.591.557,1.682,1.682,0,0,0-.656,1.241h-6.77a6.511,6.511,0,0,1-5.817-3.6,6.638,6.638,0,0,1-2.4,2.625,6.512,6.512,0,0,1-3.417.971H15.5A2.131,2.131,0,0,0,13.248,12.688Z" transform="translate(-1.11 -0.101)" fill="#ae672b"/>
      <g id="Grupo_1223121" data-name="Grupo 1223121" transform="translate(0)">
        <path id="Trazado_1177045" data-name="Trazado 1177045" d="M30.9,5.8a6.334,6.334,0,0,1,5.453,3.15.9.9,0,0,0,1.554-.9A8.14,8.14,0,0,0,30.9,4a.9.9,0,0,0,0,1.8Z" transform="translate(-3.027 -0.404)" fill="#252525"/>
        <path id="Trazado_1177046" data-name="Trazado 1177046" d="M11.9,59.8h3.6a.9.9,0,0,0,0-1.8H11.9a.9.9,0,0,0,0,1.8Z" transform="translate(-1.11 -5.853)" fill="#252525"/>
        <path id="Trazado_1177047" data-name="Trazado 1177047" d="M53.868,38.3a.848.848,0,0,0-.822-.534H49.753a3.139,3.139,0,0,0-2.1-2.1v-1.5a.9.9,0,0,0-1.8,0v1.5a3.139,3.139,0,0,0-2.1,2.1H40.591l-8.224-2.467V30.5a10.717,10.717,0,0,0,2.677-6.687c1.076-.953,4.516-4.324,4.516-8.523v-3.6A11.7,11.7,0,0,0,27.872,0H20.679A11.674,11.674,0,0,0,8.991,11.688v3.6a10.388,10.388,0,0,0,2.435,6.286,16.609,16.609,0,0,0,2.081,2.236A10.717,10.717,0,0,0,16.184,30.5v4.766L9.606,36.909C3.411,38.973,0,42.788,0,47.651v8.991a.9.9,0,0,0,.9.9H52.147a.9.9,0,0,0,.9-.9,4.491,4.491,0,0,0-4.5-4.5h-.9V41.66a3.139,3.139,0,0,0,2.1-2.1h1.91s-3.112,7.19-3.112,7.193a4.5,4.5,0,1,0,8.991,0S53.868,38.3,53.868,38.3Zm1.391,7.558H50.834l2.213-4.979Zm-17.013,0,2.213-4.979,2.213,4.979ZM43,47.652a2.7,2.7,0,0,1-5.087,0Zm-26.97-4.994L14.6,40.507l2.17-2.712,5.51,15.839L16.184,48.15V43.156a.9.9,0,0,0-.151-.5Zm8.243-8.492a10.8,10.8,0,0,0,6.294-2.031v3.331L24.275,39.4l-6.294-3.933V32.142A10.663,10.663,0,0,0,24.275,34.166ZM18.77,38.078l4.391,2.745-1.839,4.594Zm5.505,4.8,2.052,5.128-2.052,5.9-2.052-5.9Zm2.953,2.538-1.839-4.594,4.391-2.745ZM31.782,37.8l2.17,2.712-1.434,2.151a.9.9,0,0,0-.151.5v4.994l-6.094,5.484L31.782,37.8Zm3.282-16.566V14.385a.821.821,0,0,1,.329-.547,1.627,1.627,0,0,1,1.02-.352,1.208,1.208,0,0,1,.922.377,2.105,2.105,0,0,1,.426,1.421C37.761,17.7,36.262,19.874,35.064,21.229ZM13.681,4.691a9.83,9.83,0,0,1,7-2.892h7.193A10.176,10.176,0,0,1,37.762,12a5.414,5.414,0,0,0-1.349-.316,3.416,3.416,0,0,0-2.17.769,2.846,2.846,0,0,0-.783,1.029H27.4a5.584,5.584,0,0,1-5.013-3.1.9.9,0,0,0-.8-.5h0a.9.9,0,0,0-.8.492,5.732,5.732,0,0,1-2.071,2.267,5.614,5.614,0,0,1-2.945.838h-.672a3.253,3.253,0,0,0-2.952-1.8,5.586,5.586,0,0,0-1.349.3,10.552,10.552,0,0,1,2.892-7.3ZM10.789,15.285a2.1,2.1,0,0,1,.427-1.422,1.21,1.21,0,0,1,.922-.376c.782,0,1.349.538,1.349.9v6.851c-.207-.233-.42-.485-.635-.763A8.964,8.964,0,0,1,10.789,15.285Zm4.5,0h.477a7.412,7.412,0,0,0,3.893-1.108,7.529,7.529,0,0,0,1.92-1.721A7.36,7.36,0,0,0,27.4,15.285h5.871v8.092a8.982,8.982,0,0,1-2.475,6.2,9.123,9.123,0,0,1-6.516,2.794,8.991,8.991,0,0,1-8.991-8.991ZM1.8,47.652c0-5.434,5.248-7.995,8.309-9.018l4.609-1.152L12.784,39.9a.9.9,0,0,0-.046,1.061l1.647,2.471v5.122a.9.9,0,0,0,.3.668l7.249,6.525H8.092V50.35a.9.9,0,1,0-1.8,0v5.395H1.8V47.653ZM50.455,54.73a2.768,2.768,0,0,1,.638,1.014H42.411a2.7,2.7,0,0,1,2.544-1.8h3.6A2.706,2.706,0,0,1,50.455,54.73Zm-5.5-2.582a4.5,4.5,0,0,0-4.4,3.6H26.619l7.249-6.525a.9.9,0,0,0,.3-.668V43.429l1.647-2.471a.9.9,0,0,0-.046-1.061l-1.795-2.243,5.251,1.575s-3.259,7.521-3.259,7.524a4.5,4.5,0,1,0,8.991,0s-3.112-7.193-3.112-7.193h1.91a3.139,3.139,0,0,0,2.1,2.1V52.147Zm1.8-12.138A1.349,1.349,0,1,1,48.1,38.661,1.35,1.35,0,0,1,46.753,40.01Zm8.207,8.647A2.7,2.7,0,0,1,50.5,47.652H55.59a2.723,2.723,0,0,1-.63,1.005Z" transform="translate(0)" fill="#252525"/>
      </g>
    </g>
  </g>
</svg>
