<svg xmlns="http://www.w3.org/2000/svg" xmlns:xlink="http://www.w3.org/1999/xlink" width="108" height="108" viewBox="0 0 108 108">
  <defs>
    <filter id="Trazado_904820" x="0" y="0" width="108" height="108" filterUnits="userSpaceOnUse">
      <feOffset dy="3" input="SourceAlpha"/>
      <feGaussianBlur stdDeviation="3" result="blur"/>
      <feFlood flood-opacity="0.161"/>
      <feComposite operator="in" in2="blur"/>
      <feComposite in="SourceGraphic"/>
    </filter>
  </defs>
  <g id="Grupo_1222979" data-name="Grupo 1222979" transform="translate(-200 -1082.716)">
    <g id="Grupo_1222852" data-name="Grupo 1222852" transform="translate(209 1088.716)">
      <g id="Grupo_1173585" data-name="Grupo 1173585" transform="translate(0 0)">
        <g id="Grupo_1173428" data-name="Grupo 1173428">
          <g id="Grupo_1171958" data-name="Grupo 1171958">
            <g id="Grupo_1167341" data-name="Grupo 1167341">
              <g id="Grupo_1166792" data-name="Grupo 1166792">
                <g transform="matrix(1, 0, 0, 1, -9, -6)" filter="url(#Trazado_904820)">
                  <g id="Trazado_904820-2" data-name="Trazado 904820" transform="translate(9 6)" fill="#e7f2f8">
                    <path d="M 44.99996566772461 88.50004577636719 C 39.1268424987793 88.50004577636719 33.43020248413086 87.35012054443359 28.06827735900879 85.08220672607422 C 22.88851547241211 82.891357421875 18.23628997802734 79.75463104248047 14.24084091186523 75.75917816162109 C 10.24540328979492 71.76373291015625 7.108690738677979 67.11149597167969 4.91782808303833 61.93173217773438 C 2.649928092956543 56.56979370117188 1.500003218650818 50.87314224243164 1.500003218650818 45.00001907348633 C 1.500003218650818 39.12689590454102 2.649928092956543 33.43024444580078 4.91782808303833 28.06830596923828 C 7.108690738677979 22.88853073120117 10.24540328979492 18.23630714416504 14.24084091186523 14.24086952209473 C 18.23628997802734 10.2454195022583 22.88850402832031 7.108694076538086 28.06827735900879 4.917831420898438 C 33.43020248413086 2.649931669235229 39.1268424987793 1.500006556510925 44.99996566772461 1.500006556510925 C 50.87308883666992 1.500006556510925 56.56972885131836 2.649931669235229 61.9316520690918 4.917831420898438 C 67.11142730712891 7.108694076538086 71.76364135742188 10.2454195022583 75.75909423828125 14.24086952209473 C 79.75453186035156 18.23630714416504 82.89124298095703 22.88853073120117 85.08209991455078 28.06830596923828 C 87.35000610351562 33.43024444580078 88.49993133544922 39.12689590454102 88.49993133544922 45.00001907348633 C 88.49993133544922 50.87314224243164 87.35000610351562 56.56979370117188 85.08209991455078 61.93173217773438 C 82.89124298095703 67.11149597167969 79.75453186035156 71.76373291015625 75.75909423828125 75.75917816162109 C 71.76364135742188 79.75463104248047 67.11141204833984 82.891357421875 61.9316520690918 85.08220672607422 C 56.56972885131836 87.35012054443359 50.87308883666992 88.50004577636719 44.99996566772461 88.50004577636719 Z" stroke="none"/>
                    <path d="M 44.99996566772461 3.000007629394531 C 39.32867813110352 3.000007629394531 33.82863616943359 4.110061645507812 28.65260696411133 6.299346923828125 C 23.65163421630859 8.414573669433594 19.15968322753906 11.44334411621094 15.30149078369141 15.30152130126953 C 11.44332122802734 19.15969085693359 8.414566040039062 23.65166473388672 6.299324035644531 28.65263366699219 C 4.110054016113281 33.82867431640625 2.999992370605469 39.32873153686523 2.999992370605469 45.00001907348633 C 2.999992370605469 50.67130661010742 4.110054016113281 56.17136383056641 6.299324035644531 61.34738922119141 C 8.414566040039062 66.34837341308594 11.44332122802734 70.84033203125 15.30150604248047 74.69851684570312 C 19.15968322753906 78.55668640136719 23.65163421630859 81.58546447753906 28.65260696411133 83.70069122314453 C 33.82863616943359 85.88997650146484 39.32867813110352 87.00003051757812 44.99996566772461 87.00003051757812 C 50.6712532043457 87.00003051757812 56.17129516601562 85.88997650146484 61.34732055664062 83.70069122314453 C 66.34829711914062 81.58546447753906 70.84025573730469 78.55668640136719 74.69842529296875 74.69851684570312 C 78.55659484863281 70.84033203125 81.58536529541016 66.34837341308594 83.70059204101562 61.34740447998047 C 85.88986206054688 56.17136383056641 86.99992370605469 50.67130661010742 86.99992370605469 45.00001907348633 C 86.99992370605469 39.32873153686523 85.88986206054688 33.82867431640625 83.70059204101562 28.65263366699219 C 81.58536529541016 23.65166473388672 78.55659484863281 19.15969085693359 74.69842529296875 15.30152130126953 C 70.84025573730469 11.44334411621094 66.34829711914062 8.414573669433594 61.34732055664062 6.299346923828125 C 56.17129516601562 4.110061645507812 50.6712532043457 3.000007629394531 44.99996566772461 3.000007629394531 M 44.99996566772461 7.62939453125e-06 C 69.85276794433594 7.62939453125e-06 89.99992370605469 20.14719390869141 89.99992370605469 45.00001907348633 C 89.99992370605469 69.85282897949219 69.85276794433594 90.00003051757812 44.99996566772461 90.00003051757812 C 20.14716339111328 90.00003051757812 -7.62939453125e-06 69.85282897949219 -7.62939453125e-06 45.00001907348633 C -7.62939453125e-06 20.14719390869141 20.14716339111328 7.62939453125e-06 44.99996566772461 7.62939453125e-06 Z" stroke="none" fill="#248abf"/>
                  </g>
                </g>
              </g>
            </g>
          </g>
        </g>
      </g>
    </g>
    <g id="freedom_4394969_2_" data-name="freedom_4394969 (2)" transform="translate(178.389 1102.716)">
      <g id="Grupo_1222969" data-name="Grupo 1222969" transform="translate(72.975 33.781)">
        <path id="Trazado_1176709" data-name="Trazado 1176709" d="M219.3,289.094c-1.083,2.137-5.521,4.439-9.189,5.1l6.645,3.979,3.709-2.988c6.656.82,8.89-3.091,8.34-6.538-.351-2.175-.4-3.149.725-4.535a2.984,2.984,0,0,1,2.565-1.482l-1.956-1.876c-2.369-2.278-6.817-1.647-7.168,2.871-2.946-4.97-5.659-.058-9.97-4.672.34,5.128.725,7.618,4.761,9.55a8.623,8.623,0,0,0,1.537.587Z" transform="translate(-210.115 -278.958)" fill="#fff" fill-rule="evenodd"/>
      </g>
      <g id="Grupo_1222970" data-name="Grupo 1222970" transform="translate(55.291 11.001)">
        <path id="Trazado_1176710" data-name="Trazado 1176710" d="M64.079,104.756c0,5.595,4.174,5.029,4.029,11.563v5.56h6.773a17.883,17.883,0,0,1,17.877-17c.282,0,.567.007.846.021V96.071a2.986,2.986,0,0,1-5.971,0v1.249a3.412,3.412,0,0,1-6.824,0v-1.3a4.122,4.122,0,0,0,1.379-3.224,1.594,1.594,0,0,0-1.379-1.736,16.578,16.578,0,0,0-3.582-.213H65.908a1.836,1.836,0,0,0-1.829,1.832v12.081Z" transform="translate(-64.079 -90.843)" fill="#f2b394" fill-rule="evenodd"/>
      </g>
      <g id="Grupo_1222971" data-name="Grupo 1222971" transform="translate(58.378 1.211)">
        <path id="Trazado_1176711" data-name="Trazado 1176711" d="M89.573,13.4v6.387h6.821V13.4a3.41,3.41,0,0,0-6.821,0Z" transform="translate(-89.573 -9.999)" fill="#f2b394" fill-rule="evenodd"/>
      </g>
      <g id="Grupo_1222972" data-name="Grupo 1222972" transform="translate(65.199 1.211)">
        <path id="Trazado_1176712" data-name="Trazado 1176712" d="M145.9,13.4v6.387h3.238a16.579,16.579,0,0,1,3.582.213V13.4a3.41,3.41,0,0,0-6.821,0Z" transform="translate(-145.898 -9.999)" fill="#f2b394" fill-rule="evenodd"/>
      </g>
      <g id="Grupo_1222973" data-name="Grupo 1222973" transform="translate(72.019 1.211)">
        <path id="Trazado_1176713" data-name="Trazado 1176713" d="M202.223,13.4V20a1.594,1.594,0,0,1,1.379,1.736,4.122,4.122,0,0,1-1.379,3.224v1.3a3.412,3.412,0,0,0,6.824,0V13.4a3.412,3.412,0,0,0-6.824,0Z" transform="translate(-202.223 -9.999)" fill="#f2b394" fill-rule="evenodd"/>
      </g>
      <g id="Grupo_1222974" data-name="Grupo 1222974" transform="translate(78.844 4.133)">
        <path id="Trazado_1176714" data-name="Trazado 1176714" d="M258.576,37.115v9.114a2.986,2.986,0,0,0,5.971,0V37.115a2.986,2.986,0,0,0-5.971,0Z" transform="translate(-258.576 -34.134)" fill="#f2b394" fill-rule="evenodd"/>
      </g>
      <g id="Grupo_1222975" data-name="Grupo 1222975" transform="translate(56.728 42.037)">
        <path id="Trazado_1176715" data-name="Trazado 1176715" d="M75.946,349.724v4.151H86.284A17.783,17.783,0,0,1,85.29,348q0-.427.021-.854H78.538A2.6,2.6,0,0,0,75.946,349.724Z" transform="translate(-75.946 -347.141)" fill="#bfdbff" fill-rule="evenodd"/>
      </g>
      <g id="Grupo_1222976" data-name="Grupo 1222976" transform="translate(56.728 48.771)">
        <path id="Trazado_1176716" data-name="Trazado 1176716" d="M75.946,402.745v11.978h27.2a17.9,17.9,0,0,1-16.866-11.978Z" transform="translate(-75.946 -402.745)" fill="#80b6ff" fill-rule="evenodd"/>
      </g>
      <g id="Grupo_1222977" data-name="Grupo 1222977" transform="translate(66.072 25.037)">
        <path id="Trazado_1176717" data-name="Trazado 1176717" d="M171.007,206.755a17.883,17.883,0,0,0-17.877,17q-.021.427-.021.854a17.851,17.851,0,0,0,17.86,17.858h.072a17.855,17.855,0,0,0,.811-35.691C171.575,206.762,171.289,206.755,171.007,206.755Zm-8.1,8.744c4.311,4.614,7.024-.3,9.97,4.672.351-4.518,4.8-5.149,7.168-2.871L182,219.176a2.984,2.984,0,0,0-2.565,1.482c-1.124,1.386-1.076,2.36-.725,4.535.55,3.447-1.685,7.358-8.34,6.538l-3.709,2.988-6.645-3.979c3.668-.665,8.106-2.967,9.189-5.1a8.62,8.62,0,0,1-1.537-.587C163.63,223.117,163.245,220.627,162.9,215.5Z" transform="translate(-153.11 -206.755)" fill="#a0e5a5" fill-rule="evenodd"/>
      </g>
      <g id="Grupo_1222978" data-name="Grupo 1222978" transform="translate(54.08 0)">
        <path id="Trazado_1176718" data-name="Trazado 1176718" d="M102.773,40.131A19.069,19.069,0,0,0,86.026,23.995V7.114A4.194,4.194,0,0,0,79.891,3.4,4.623,4.623,0,0,0,72.02,1.5a4.619,4.619,0,0,0-6.821,0,4.621,4.621,0,0,0-8.032,3.11V9.79H57.12a3.045,3.045,0,0,0-3.04,3.043V24.914a8.821,8.821,0,0,0,2.169,5.966,7.521,7.521,0,0,1,1.861,5.571c0,.009,0,.018,0,.027v4.548a3.8,3.8,0,0,0-2.592,3.6V60.749a1.211,1.211,0,0,0,2.422,0V49.982h8.175A19.15,19.15,0,0,0,81.061,61.791a19.439,19.439,0,0,0,2.846.21,18.993,18.993,0,0,0,8.719-2.117,1.211,1.211,0,0,0-1.108-2.153A16.625,16.625,0,1,1,98.7,50.567a1.211,1.211,0,1,0,2.151,1.113,18.932,18.932,0,0,0,1.918-11.55ZM81.831,5.344A1.774,1.774,0,0,1,83.6,7.114v9.114a1.775,1.775,0,0,1-3.55,0V7.114a1.775,1.775,0,0,1,1.777-1.77Zm-6.4-2.923a2.2,2.2,0,0,1,2.2,2.192V17.477a2.2,2.2,0,0,1-4.4,0v-.8a5.354,5.354,0,0,0,1.379-3.732A2.726,2.726,0,0,0,73.23,10.4V4.614a2.2,2.2,0,0,1,2.2-2.192Zm-6.824,0a2.2,2.2,0,0,1,2.2,2.192V9.833c-.7-.042-1.484-.043-2.371-.043H66.41V4.614a2.2,2.2,0,0,1,2.2-2.192Zm-9.02,2.192a2.2,2.2,0,0,1,4.4,0V9.79h-4.4ZM57.939,47.56V44.62a1.378,1.378,0,0,1,1.381-1.372h5.453a19.135,19.135,0,0,0,.56,4.312H57.939ZM70.367,29.449a18.906,18.906,0,0,0-5.482,11.378H60.531V36.49a9.849,9.849,0,0,0-2.344-7.063A6.444,6.444,0,0,1,56.5,24.914V12.832a.628.628,0,0,1,.618-.621H68.437a14.977,14.977,0,0,1,3.349.2c.356.1.4.14.4.542,0,3.093-3.488,3.61-5.567,3.643h-.009c-.205,0-3.279,0-4.885,0a1.211,1.211,0,1,0,0,2.422c2.252,0,4.156,2.733,4.156,5.969a1.211,1.211,0,1,0,2.422,0,9.72,9.72,0,0,0-1.812-5.8c-.043-.058-.089-.113-.133-.169h.3a11.794,11.794,0,0,0,4.217-.76A4.623,4.623,0,0,0,79.482,19.7a4.191,4.191,0,0,0,4.123.325v3.851a19.053,19.053,0,0,0-13.238,5.572Z" transform="translate(-54.08 0)"/>
        <path id="Trazado_1176719" data-name="Trazado 1176719" d="M224.411,274.351a1.211,1.211,0,0,0-.263-1.377l-1.955-1.875a5.639,5.639,0,0,0-5.869-1.284,4.931,4.931,0,0,0-2.682,2.45,5.564,5.564,0,0,0-4.033-1.1,4.959,4.959,0,0,1-4.508-1.819,1.211,1.211,0,0,0-2.093.907c.348,5.248.773,8.325,5.447,10.562l.071.033a17.116,17.116,0,0,1-7.417,3.374,1.211,1.211,0,0,0-.406,2.23l6.645,3.979a1.211,1.211,0,0,0,1.382-.1l3.319-2.673c4.055.373,6.29-.959,7.46-2.172a6.738,6.738,0,0,0,1.706-5.816c-.332-2.06-.328-2.595.469-3.578.684-.841,1.037-1.084,1.514-1.04A1.212,1.212,0,0,0,224.411,274.351Zm-4.606.216c-1.481,1.826-1.338,3.276-.981,5.488a4.341,4.341,0,0,1-1.058,3.751c-1.2,1.243-3.253,1.725-5.938,1.394a1.211,1.211,0,0,0-.908.259l-3.052,2.458-3.478-2.082c2.676-.938,5.356-2.47,6.691-4.184a10.964,10.964,0,0,0,1.468.076,1.211,1.211,0,1,0,0-2.422,6.208,6.208,0,0,1-1.683-.156q-.04-.012-.081-.022a7.708,7.708,0,0,1-1.285-.5c-2.666-1.276-3.455-2.676-3.838-5.8a7.621,7.621,0,0,0,3.993.755c1.459-.028,2.347-.045,3.44,1.782a1.22,1.22,0,0,0,.1.174c.129.227.262.478.4.76a1.211,1.211,0,0,0,2.179-1.058c-.113-.233-.226-.452-.34-.659a2.921,2.921,0,0,1,1.752-2.505,3.252,3.252,0,0,1,3.33.767l.508.488A6.792,6.792,0,0,0,219.805,274.567Z" transform="translate(-182.43 -236.39)"/>
        <path id="Trazado_1176720" data-name="Trazado 1176720" d="M396.335,448.934a1.213,1.213,0,1,0,.54,1.628l0-.007A1.208,1.208,0,0,0,396.335,448.934Z" transform="translate(-353.348 -394.458)"/>
      </g>
    </g>
  </g>
</svg>
