<svg xmlns="http://www.w3.org/2000/svg" xmlns:xlink="http://www.w3.org/1999/xlink" width="108" height="108" viewBox="0 0 108 108">
  <defs>
    <filter id="Trazado_904820" x="0" y="0" width="108" height="108" filterUnits="userSpaceOnUse">
      <feOffset dy="3" input="SourceAlpha"/>
      <feGaussianBlur stdDeviation="3" result="blur"/>
      <feFlood flood-opacity="0.161"/>
      <feComposite operator="in" in2="blur"/>
      <feComposite in="SourceGraphic"/>
    </filter>
  </defs>
  <g id="Grupo_1222994" data-name="Grupo 1222994" transform="translate(-200 -1219)">
    <g id="Grupo_1222853" data-name="Grupo 1222853" transform="translate(209 1225)">
      <g id="Grupo_1173585" data-name="Grupo 1173585" transform="translate(0 0)">
        <g id="Grupo_1173428" data-name="Grupo 1173428">
          <g id="Grupo_1171958" data-name="Grupo 1171958">
            <g id="Grupo_1167341" data-name="Grupo 1167341">
              <g id="Grupo_1166792" data-name="Grupo 1166792">
                <g transform="matrix(1, 0, 0, 1, -9, -6)" filter="url(#Trazado_904820)">
                  <g id="Trazado_904820-2" data-name="Trazado 904820" transform="translate(9 6)" fill="#e7f2f8">
                    <path d="M 44.99996566772461 88.50004577636719 C 39.1268424987793 88.50004577636719 33.43020248413086 87.35012054443359 28.06827735900879 85.08220672607422 C 22.88851547241211 82.891357421875 18.23628997802734 79.75463104248047 14.24084091186523 75.75917816162109 C 10.24540328979492 71.76373291015625 7.108690738677979 67.11149597167969 4.91782808303833 61.93173217773438 C 2.649928092956543 56.56979370117188 1.500003218650818 50.87314224243164 1.500003218650818 45.00001907348633 C 1.500003218650818 39.12689590454102 2.649928092956543 33.43024444580078 4.91782808303833 28.06830596923828 C 7.108690738677979 22.88853073120117 10.24540328979492 18.23630714416504 14.24084091186523 14.24086952209473 C 18.23628997802734 10.2454195022583 22.88850402832031 7.108694076538086 28.06827735900879 4.917831420898438 C 33.43020248413086 2.649931669235229 39.1268424987793 1.500006556510925 44.99996566772461 1.500006556510925 C 50.87308883666992 1.500006556510925 56.56972885131836 2.649931669235229 61.9316520690918 4.917831420898438 C 67.11142730712891 7.108694076538086 71.76364135742188 10.2454195022583 75.75909423828125 14.24086952209473 C 79.75453186035156 18.23630714416504 82.89124298095703 22.88853073120117 85.08209991455078 28.06830596923828 C 87.35000610351562 33.43024444580078 88.49993133544922 39.12689590454102 88.49993133544922 45.00001907348633 C 88.49993133544922 50.87314224243164 87.35000610351562 56.56979370117188 85.08209991455078 61.93173217773438 C 82.89124298095703 67.11149597167969 79.75453186035156 71.76373291015625 75.75909423828125 75.75917816162109 C 71.76364135742188 79.75463104248047 67.11141204833984 82.891357421875 61.9316520690918 85.08220672607422 C 56.56972885131836 87.35012054443359 50.87308883666992 88.50004577636719 44.99996566772461 88.50004577636719 Z" stroke="none"/>
                    <path d="M 44.99996566772461 3.000007629394531 C 39.32867813110352 3.000007629394531 33.82863616943359 4.110061645507812 28.65260696411133 6.299346923828125 C 23.65163421630859 8.414573669433594 19.15968322753906 11.44334411621094 15.30149078369141 15.30152130126953 C 11.44332122802734 19.15969085693359 8.414566040039062 23.65166473388672 6.299324035644531 28.65263366699219 C 4.110054016113281 33.82867431640625 2.999992370605469 39.32873153686523 2.999992370605469 45.00001907348633 C 2.999992370605469 50.67130661010742 4.110054016113281 56.17136383056641 6.299324035644531 61.34738922119141 C 8.414566040039062 66.34837341308594 11.44332122802734 70.84033203125 15.30150604248047 74.69851684570312 C 19.15968322753906 78.55668640136719 23.65163421630859 81.58546447753906 28.65260696411133 83.70069122314453 C 33.82863616943359 85.88997650146484 39.32867813110352 87.00003051757812 44.99996566772461 87.00003051757812 C 50.6712532043457 87.00003051757812 56.17129516601562 85.88997650146484 61.34732055664062 83.70069122314453 C 66.34829711914062 81.58546447753906 70.84025573730469 78.55668640136719 74.69842529296875 74.69851684570312 C 78.55659484863281 70.84033203125 81.58536529541016 66.34837341308594 83.70059204101562 61.34740447998047 C 85.88986206054688 56.17136383056641 86.99992370605469 50.67130661010742 86.99992370605469 45.00001907348633 C 86.99992370605469 39.32873153686523 85.88986206054688 33.82867431640625 83.70059204101562 28.65263366699219 C 81.58536529541016 23.65166473388672 78.55659484863281 19.15969085693359 74.69842529296875 15.30152130126953 C 70.84025573730469 11.44334411621094 66.34829711914062 8.414573669433594 61.34732055664062 6.299346923828125 C 56.17129516601562 4.110061645507812 50.6712532043457 3.000007629394531 44.99996566772461 3.000007629394531 M 44.99996566772461 7.62939453125e-06 C 69.85276794433594 7.62939453125e-06 89.99992370605469 20.14719390869141 89.99992370605469 45.00001907348633 C 89.99992370605469 69.85282897949219 69.85276794433594 90.00003051757812 44.99996566772461 90.00003051757812 C 20.14716339111328 90.00003051757812 -7.62939453125e-06 69.85282897949219 -7.62939453125e-06 45.00001907348633 C -7.62939453125e-06 20.14719390869141 20.14716339111328 7.62939453125e-06 44.99996566772461 7.62939453125e-06 Z" stroke="none" fill="#248abf"/>
                  </g>
                </g>
              </g>
            </g>
          </g>
        </g>
      </g>
    </g>
    <g id="constitution_12352139" transform="translate(223.023 1240.025)">
      <g id="Grupo_1222980" data-name="Grupo 1222980" transform="translate(1.977 0.975)">
        <path id="Trazado_1176721" data-name="Trazado 1176721" d="M58.738,41.591a.6.6,0,0,0,.6-.6V38.531a.6.6,0,0,0-.6-.6H41.678a2.679,2.679,0,0,0-2.665-2.676H37.658a2.221,2.221,0,0,0-2.179-2.676L34.1,12.223H46.284l-3.658,9.868a2.063,2.063,0,0,0-1.581,2.157h-.96a.6.6,0,0,0-.6.6v.8a6.833,6.833,0,0,0,6.831,6.831h2.1a6.833,6.833,0,0,0,6.831-6.831v-.8c-.034-.824-1.027-.553-1.558-.6A2.027,2.027,0,0,0,52.1,22.092l-4.065-9.868h6.616a.6.6,0,0,0,.6-.6,3.768,3.768,0,0,0-3.76-3.771H41.915a5.637,5.637,0,0,0-5.6-3.737,4.128,4.128,0,0,0-8.016,0,5.627,5.627,0,0,0-5.6,3.737H13.123a3.768,3.768,0,0,0-3.76,3.771.6.6,0,0,0,.6.6h6.255l-3.7,9.857A2.047,2.047,0,0,0,10.8,24.259H9.962a.6.6,0,0,0-.6.6v.8a6.833,6.833,0,0,0,6.831,6.831h2.1a6.833,6.833,0,0,0,6.831-6.831v-.8a.6.6,0,0,0-.6-.6H23.443a2.028,2.028,0,0,0-1.457-2.111l-4.031-9.913H30.5L29.122,32.592a2.216,2.216,0,0,0-2.179,2.676H25.6a2.672,2.672,0,0,0-2.665,2.676H10.572A8.532,8.532,0,0,0,4.5,40.462C-.922,45.768,3,55.185,10.572,55.14h5.962v2.823a.609.609,0,0,0,1.05.406l2.3-2.586,2.258,2.54a.6.6,0,0,0,1.05-.4V55.151H58.738a.6.6,0,0,0,.6-.6V52.091a.6.6,0,0,0-.6-.6H56.017V41.6h2.721ZM42.253,24.056a.822.822,0,1,1,1.626.192H42.253Zm11.8,1.4a5.643,5.643,0,0,1-5.634,5.826h-2.1a5.643,5.643,0,0,1-5.634-5.826Zm-3.184-1.4a.822.822,0,1,1,1.626.192H50.868Zm-.011-1.829a2.056,2.056,0,0,0-1.2,2.032H45.076a2.067,2.067,0,0,0-1.219-2.044l3.319-8.942ZM12.005,24.056a.828.828,0,1,1,1.637.192H12.005Zm11.934,1.4a5.643,5.643,0,0,1-5.634,5.826h-2.1a5.643,5.643,0,0,1-5.634-5.826Zm-2.5-2.213a.851.851,0,0,1,.813,1H20.62A.858.858,0,0,1,21.445,23.243Zm-.711-1.061a2.035,2.035,0,0,0-1.31,2.066H14.839a2.061,2.061,0,0,0-1.118-1.987l3.387-9ZM10.651,11.027a2.564,2.564,0,0,1,2.484-1.965H23.149a.613.613,0,0,0,.587-.452,4.4,4.4,0,0,1,4.257-3.286c.5-.023,1.355.169,1.434-.542a2.918,2.918,0,0,1,5.8,0c.068.711.948.519,1.423.542A4.419,4.419,0,0,1,40.91,8.61a.616.616,0,0,0,.587.452H51.512A2.544,2.544,0,0,1,54,11.027Zm21.069,1.2H32.9l1.366,20.357H30.353ZM28.174,34.7a.93.93,0,0,1,.926-.926h6.447a.93.93,0,0,1,.926.926v.553h-8.3Zm-4.02,3.218a1.465,1.465,0,0,1,1.468-1.468H39.013a1.465,1.465,0,0,1,1.468,1.468ZM22,56.348l-1.513-1.694V52.091a.6.6,0,0,0-1.2,0v2.563L17.73,56.393V48.128H22ZM14.568,46.92a.6.6,0,0,0,0,1.2h1.965v1.106H11.768a.588.588,0,0,0-.6.6.6.6,0,0,0,.6.6h4.765v1.05H11.057c-7.192-.248-7.2-9.631,0-9.891H54.82v4.189h-21.2a.6.6,0,0,0-.6.6.6.6,0,0,0,.6.6h21.2V51.47H23.195V50.431h5.826a.6.6,0,0,0,.6-.6.6.6,0,0,0-.6-.6H23.195V48.128h1.976a.6.6,0,1,0,0-1.2h-10.6ZM58.14,52.678v1.265H23.195V52.678ZM11.057,40.394c-8.807.339-8.8,11.946,0,12.284h5.476v1.265H10.572A7.428,7.428,0,0,1,5.344,41.3a7.336,7.336,0,0,1,5.228-2.168H58.14v1.265Z" transform="translate(-1.977 -0.975)"/>
      </g>
      <g id="Grupo_1222981" data-name="Grupo 1222981" transform="translate(40.681 25.456)">
        <path id="Trazado_1176722" data-name="Trazado 1176722" d="M358.145,217.8a5.643,5.643,0,0,1-5.634,5.826h-2.1a5.643,5.643,0,0,1-5.634-5.826Z" transform="translate(-344.774 -217.8)" fill="#f8da79"/>
      </g>
      <g id="Grupo_1222982" data-name="Grupo 1222982" transform="translate(10.569 25.456)">
        <path id="Trazado_1176723" data-name="Trazado 1176723" d="M91.445,217.8a5.643,5.643,0,0,1-5.634,5.826h-2.1a5.643,5.643,0,0,1-5.634-5.826Z" transform="translate(-78.074 -217.8)" fill="#f8da79"/>
      </g>
      <g id="Grupo_1222983" data-name="Grupo 1222983" transform="translate(10.628 2.152)">
        <path id="Trazado_1176724" data-name="Trazado 1176724" d="M119.473,18.31H109.458a.613.613,0,0,1-.587-.452,4.57,4.57,0,0,0-5.081-3.286.609.609,0,0,1-.6-.542,2.922,2.922,0,0,0-5.815,0c-.079.711-.948.519-1.434.542a4.419,4.419,0,0,0-4.257,3.286.616.616,0,0,1-.587.452H81.084A2.544,2.544,0,0,0,78.6,20.275h43.334A2.519,2.519,0,0,0,119.473,18.31Zm-19.183.361a2.185,2.185,0,0,1,0-4.37A2.185,2.185,0,0,1,100.29,18.671Z" transform="translate(-78.6 -11.4)" fill="#f8da79"/>
      </g>
      <g id="Grupo_1222984" data-name="Grupo 1222984" transform="translate(28.174 33.778)">
        <path id="Trazado_1176725" data-name="Trazado 1176725" d="M242.287,292.426v.553H234v-.553a.93.93,0,0,1,.926-.926h6.447A.928.928,0,0,1,242.287,292.426Z" transform="translate(-234 -291.5)" fill="#f8da79"/>
      </g>
      <g id="Grupo_1222985" data-name="Grupo 1222985" transform="translate(24.154 36.453)">
        <path id="Trazado_1176726" data-name="Trazado 1176726" d="M214.726,316.668l-16.326.011a1.475,1.475,0,0,1,1.468-1.479h13.391A1.479,1.479,0,0,1,214.726,316.668Z" transform="translate(-198.4 -315.2)" fill="#f8da79"/>
      </g>
      <g id="Grupo_1222986" data-name="Grupo 1222986" transform="translate(17.73 48.117)">
        <path id="Trazado_1176727" data-name="Trazado 1176727" d="M145.768,418.5v8.231l-1.513-1.694v-2.563a.6.6,0,1,0-1.2,0v2.563l-1.558,1.739v-8.265h4.268Z" transform="translate(-141.5 -418.5)" fill="#f8da79"/>
      </g>
      <g id="Grupo_1222987" data-name="Grupo 1222987" transform="translate(5.659 41.591)">
        <path id="Trazado_1176728" data-name="Trazado 1176728" d="M62.545,364.889h21.2V360.7H39.986c-7.2.248-7.192,9.631,0,9.891h5.476v-1.05H40.7a.6.6,0,0,1-.6-.6.588.588,0,0,1,.6-.6h4.765v-1.106H43.5a.6.6,0,1,1,0-1.2H54.1a.6.6,0,0,1,0,1.2H52.123v1.106H57.95a.6.6,0,0,1,.6.6.6.6,0,0,1-.6.6H52.123v1.05H83.749v-4.505h-21.2A.6.6,0,0,1,62.545,364.889Zm7.531,2.778h8.762a.6.6,0,0,1,0,1.2H70.076A.6.6,0,0,1,70.076,367.666Zm-22.04-4.053a.6.6,0,0,1,0-1.2H67.863a.6.6,0,0,1,0,1.2Z" transform="translate(-34.587 -360.7)" fill="#e2f4f9"/>
      </g>
      <g id="Grupo_1222988" data-name="Grupo 1222988" transform="translate(30.353 12.223)">
        <path id="Trazado_1176729" data-name="Trazado 1176729" d="M257.218,120.957H253.3l1.366-20.357h1.186Z" transform="translate(-253.3 -100.6)" fill="#2c4d66"/>
      </g>
      <g id="Grupo_1222989" data-name="Grupo 1222989" transform="translate(23.195 52.678)">
        <path id="Trazado_1176730" data-name="Trazado 1176730" d="M189.9,458.9h34.945v1.265H189.9Z" transform="translate(-189.9 -458.9)" fill="#2c4d66"/>
      </g>
      <g id="Grupo_1222990" data-name="Grupo 1222990" transform="translate(3.179 39.129)">
        <path id="Trazado_1176731" data-name="Trazado 1176731" d="M67.586,338.9v1.265H20.5c-8.8.339-8.8,11.946,0,12.284H25.98v1.265H20.018a7.428,7.428,0,0,1-5.228-12.646,7.336,7.336,0,0,1,5.228-2.168Z" transform="translate(-12.625 -338.9)" fill="#2c4d66"/>
      </g>
      <g id="Grupo_1222991" data-name="Grupo 1222991" transform="translate(18.509 43.307)">
        <path id="Trazado_1176732" data-name="Trazado 1176732" d="M169.423,376.5a.6.6,0,0,1-.6.6H149a.6.6,0,0,1-.6-.6.6.6,0,0,1,.6-.6h19.827A.6.6,0,0,1,169.423,376.5Z" transform="translate(-148.4 -375.9)"/>
      </g>
      <g id="Grupo_1222992" data-name="Grupo 1222992" transform="translate(40.56 48.568)">
        <path id="Trazado_1176733" data-name="Trazado 1176733" d="M353.658,423.1a.6.6,0,0,1-.6.6H344.3a.6.6,0,0,1,0-1.2h8.762A.588.588,0,0,1,353.658,423.1Z" transform="translate(-343.7 -422.497)"/>
      </g>
      <g id="Grupo_1222993" data-name="Grupo 1222993" transform="translate(30.158 5.065)">
        <path id="Trazado_1176734" data-name="Trazado 1176734" d="M253.734,37.2a2.185,2.185,0,0,0,0,4.37A2.185,2.185,0,0,0,253.734,37.2Zm0,3.161a.982.982,0,0,1,0-1.965A.982.982,0,0,1,253.734,40.361Z" transform="translate(-251.575 -37.2)"/>
      </g>
    </g>
  </g>
</svg>
