<svg xmlns="http://www.w3.org/2000/svg" xmlns:xlink="http://www.w3.org/1999/xlink" width="113" height="113" viewBox="0 0 113 113">
  <defs>
    <filter id="Trazado_982547" x="0" y="0" width="113" height="113" filterUnits="userSpaceOnUse">
      <feOffset dy="3" input="SourceAlpha"/>
      <feGaussianBlur stdDeviation="3" result="blur"/>
      <feFlood flood-opacity="0.161"/>
      <feComposite operator="in" in2="blur"/>
      <feComposite in="SourceGraphic"/>
    </filter>
  </defs>
  <g id="Grupo_1222998" data-name="Grupo 1222998" transform="translate(-817 -2624.678)">
    <g id="Grupo_1222881" data-name="Grupo 1222881" transform="translate(0 -8441.852)">
      <g id="Grupo_1222661" data-name="Grupo 1222661">
        <g id="Grupo_1222485" data-name="Grupo 1222485" transform="translate(826 11072.529)">
          <g id="Grupo_1208010" data-name="Grupo 1208010" transform="translate(0 0)">
            <g id="Grupo_1202142" data-name="Grupo 1202142" transform="translate(0 0)">
              <g id="Grupo_1201923" data-name="Grupo 1201923">
                <g id="Grupo_1176928" data-name="Grupo 1176928" transform="translate(0)">
                  <g id="Grupo_1172322" data-name="Grupo 1172322">
                    <g id="Grupo_1164700" data-name="Grupo 1164700">
                      <g id="Grupo_1160931" data-name="Grupo 1160931">
                        <g id="Grupo_1160749" data-name="Grupo 1160749">
                          <g id="Grupo_1158891" data-name="Grupo 1158891">
                            <g id="Grupo_1157406" data-name="Grupo 1157406">
                              <g id="Grupo_1155793" data-name="Grupo 1155793">
                                <g id="Grupo_1154704" data-name="Grupo 1154704">
                                  <g id="Grupo_1150790" data-name="Grupo 1150790">
                                    <g id="Grupo_1154214" data-name="Grupo 1154214" transform="translate(0)">
                                      <g id="Grupo_1152583" data-name="Grupo 1152583">
                                        <g id="Grupo_1146973" data-name="Grupo 1146973">
                                          <g id="Grupo_1146954" data-name="Grupo 1146954">
                                            <g transform="matrix(1, 0, 0, 1, -9, -6)" filter="url(#Trazado_982547)">
                                              <g id="Trazado_982547-2" data-name="Trazado 982547" transform="translate(9 6)" fill="#f2f4f0">
                                                <path d="M 47.5 93.49984741210938 C 41.28938674926758 93.49984741210938 35.26533508300781 92.2838134765625 29.59519958496094 89.88556671142578 C 24.11773300170898 87.56878662109375 19.19814682006836 84.25181579589844 14.97310638427734 80.02677917480469 C 10.74805355072021 75.80173492431641 7.431079864501953 70.88216400146484 5.114306449890137 65.40470886230469 C 2.716039896011353 59.73457717895508 1.50001335144043 53.71053695678711 1.50001335144043 47.49992370605469 C 1.50001335144043 41.28931045532227 2.716039896011353 35.2652702331543 5.114306449890137 29.59513664245605 C 7.431079864501953 24.11768341064453 10.74805355072021 19.19811058044434 14.97310638427734 14.97307014465332 C 19.19814682006836 10.74803066253662 24.11773300170898 7.431056976318359 29.59519958496094 5.114283561706543 C 35.26533508300781 2.716030359268188 41.28938674926758 1.500003695487976 47.5 1.500003695487976 C 53.71062850952148 1.500003695487976 59.73466491699219 2.716030359268188 65.40481567382812 5.114283561706543 C 70.88227844238281 7.431056976318359 75.80186462402344 10.74803066253662 80.02690887451172 14.97307014465332 C 84.25196075439453 19.19811058044434 87.56893157958984 24.11768341064453 89.88570404052734 29.59513664245605 C 92.28397369384766 35.2652702331543 93.5 41.28931045532227 93.5 47.49992370605469 C 93.5 53.71053695678711 92.28397369384766 59.73457717895508 89.88570404052734 65.40470886230469 C 87.56893157958984 70.88216400146484 84.25196075439453 75.80173492431641 80.02690887451172 80.02677917480469 C 75.80186462402344 84.25181579589844 70.88227844238281 87.56878662109375 65.40481567382812 89.88556671142578 C 59.73466491699219 92.2838134765625 53.71062850952148 93.49984741210938 47.5 93.49984741210938 Z" stroke="none"/>
                                                <path d="M 47.5 3 C 41.49121475219727 3 35.66376876831055 4.176155090332031 30.17951965332031 6.495803833007812 C 24.88084411621094 8.7369384765625 20.12152099609375 11.94596862792969 16.03375244140625 16.03372192382812 C 11.94598388671875 20.12149047851562 8.736953735351562 24.88081359863281 6.495796203613281 30.17947387695312 C 4.176155090332031 35.6637077331543 3 41.49115371704102 3 47.49992370605469 C 3 53.50869369506836 4.176155090332031 59.33613967895508 6.495796203613281 64.82037353515625 C 8.736953735351562 70.11903381347656 11.94598388671875 74.87835693359375 16.03375244140625 78.96612548828125 C 20.12152099609375 83.05387878417969 24.88084411621094 86.26290893554688 30.17951965332031 88.50404357910156 C 35.66376876831055 90.82369232177734 41.49121475219727 91.99984741210938 47.5 91.99984741210938 C 53.50878524780273 91.99984741210938 59.33623123168945 90.82369232177734 64.82049560546875 88.50404357910156 C 70.11915588378906 86.26290893554688 74.87847900390625 83.05387878417969 78.96624755859375 78.96612548828125 C 83.05401611328125 74.87835693359375 86.26304626464844 70.11903381347656 88.50418090820312 64.82037353515625 C 90.82382965087891 59.33613967895508 91.99998474121094 53.50869369506836 91.99998474121094 47.49992370605469 C 91.99998474121094 41.49115371704102 90.82382965087891 35.6637077331543 88.50418090820312 30.17947387695312 C 86.26304626464844 24.88081359863281 83.05401611328125 20.12149047851562 78.96624755859375 16.03372192382812 C 74.87847900390625 11.94596862792969 70.11915588378906 8.7369384765625 64.82049560546875 6.495803833007812 C 59.33623123168945 4.176155090332031 53.50878524780273 3 47.5 3 M 47.5 0 C 73.7335205078125 0 94.99998474121094 21.26644897460938 94.99998474121094 47.49992370605469 C 94.99998474121094 73.7333984375 73.7335205078125 94.99984741210938 47.5 94.99984741210938 C 21.26649475097656 94.99984741210938 0 73.7333984375 0 47.49992370605469 C 0 21.26644897460938 21.26649475097656 0 47.5 0 Z" stroke="none" fill="#899e78"/>
                                              </g>
                                            </g>
                                          </g>
                                        </g>
                                      </g>
                                    </g>
                                  </g>
                                </g>
                              </g>
                            </g>
                          </g>
                        </g>
                      </g>
                    </g>
                  </g>
                </g>
              </g>
            </g>
          </g>
        </g>
      </g>
    </g>
    <g id="auction_2747451" transform="translate(822.152 2647.03)">
      <path id="Trazado_1176735" data-name="Trazado 1176735" d="M143.128,55.523,139.55,52.5H125.681l-2.872,3.026a2.152,2.152,0,0,0-2.152,2.152V70.222H145.28V57.675A2.152,2.152,0,0,0,143.128,55.523Z" transform="translate(-85.252 -46.099)" fill="#d77f4a"/>
      <path id="Trazado_1176736" data-name="Trazado 1176736" d="M120.658,179.4v12.348a2.152,2.152,0,0,0,2.152,2.152v1.49h20.273l.046-1.49a2.152,2.152,0,0,0,2.152-2.152V179.4Z" transform="translate(-85.252 -157.532)" fill="#d77f4a"/>
      <g id="Grupo_1222996" data-name="Grupo 1222996" transform="translate(25.459 0.914)">
        <path id="Trazado_1176737" data-name="Trazado 1176737" d="M143.888,7.5h-21.84a1.391,1.391,0,0,0-1.391,1.391V14.03H145.28V8.891A1.391,1.391,0,0,0,143.888,7.5Z" transform="translate(-110.711 -7.5)" fill="#e19974"/>
        <path id="Trazado_1176738" data-name="Trazado 1176738" d="M120.658,312.444v5.281a1.391,1.391,0,0,0,1.391,1.391h21.84a1.391,1.391,0,0,0,1.391-1.391v-5.281Z" transform="translate(-110.712 -275.278)" fill="#e19974"/>
        <g id="Grupo_1222995" data-name="Grupo 1222995" transform="translate(8.456 0)">
          <path id="Trazado_1176739" data-name="Trazado 1176739" d="M403.481,152.389l-1.758,1.1v5.973l1.758,1.566h7.273a.517.517,0,0,0,.517-.517v-7.608a.517.517,0,0,0-.517-.517h-7.273Z" transform="translate(-365.976 -134.73)" fill="#dc8758"/>
          <path id="Trazado_1176740" data-name="Trazado 1176740" d="M290.046,166.06H279.078v5.31h10.968l1.889-1.094V167.2Z" transform="translate(-258.279 -146.735)" fill="#dc8758"/>
          <path id="Trazado_1176741" data-name="Trazado 1176741" d="M127.172,8.891A1.391,1.391,0,0,1,128.563,7.5h-6.515a1.391,1.391,0,0,0-1.391,1.391V14.03h6.515V8.891Z" transform="translate(-119.166 -7.5)" fill="#dc8758"/>
          <path id="Trazado_1176742" data-name="Trazado 1176742" d="M135.208,42.636H109.247a.822.822,0,0,1-.822-.822v-2.37a1.623,1.623,0,0,1,1.623-1.623h24.359a1.623,1.623,0,0,1,1.623,1.623v2.37A.822.822,0,0,1,135.208,42.636Z" transform="translate(-108.425 -34.126)" fill="#dc8758"/>
        </g>
        <path id="Trazado_1176743" data-name="Trazado 1176743" d="M114.94,41.815v-2.37a1.623,1.623,0,0,1,1.623-1.623h-6.515a1.623,1.623,0,0,0-1.623,1.623v2.37a.822.822,0,0,0,.822.822h6.515A.822.822,0,0,1,114.94,41.815Z" transform="translate(-99.969 -34.126)" fill="#d77f4a"/>
        <path id="Trazado_1176744" data-name="Trazado 1176744" d="M135.208,298.364H109.247a.822.822,0,0,0-.822.822v2.37a1.623,1.623,0,0,0,1.623,1.623h24.359a1.623,1.623,0,0,0,1.623-1.623v-2.37A.822.822,0,0,0,135.208,298.364Z" transform="translate(-99.969 -262.914)" fill="#dc8758"/>
        <path id="Trazado_1176745" data-name="Trazado 1176745" d="M127.569,317.725v-5.281h-6.911v5.281a1.391,1.391,0,0,0,1.391,1.391h6.911A1.391,1.391,0,0,1,127.569,317.725Z" transform="translate(-110.712 -275.278)" fill="#dc8758"/>
        <path id="Trazado_1176746" data-name="Trazado 1176746" d="M115.337,301.556v-2.37a.822.822,0,0,1,.822-.822h-6.911a.822.822,0,0,0-.822.822v2.37a1.623,1.623,0,0,0,1.623,1.623h6.911A1.623,1.623,0,0,1,115.337,301.556Z" transform="translate(-99.97 -262.914)" fill="#d77f4a"/>
        <path id="Trazado_1176747" data-name="Trazado 1176747" d="M130.7,77.324h-7.9a2.152,2.152,0,0,0-2.152,2.152V92.023h7.9V79.476A2.152,2.152,0,0,1,130.7,77.324Z" transform="translate(-110.711 -68.814)" fill="#c86d36"/>
        <path id="Trazado_1176748" data-name="Trazado 1176748" d="M128.553,191.744V179.4h-7.9v12.348a2.152,2.152,0,0,0,2.152,2.152h7.9A2.152,2.152,0,0,1,128.553,191.744Z" transform="translate(-110.711 -158.446)" fill="#c86d36"/>
        <path id="Trazado_1176749" data-name="Trazado 1176749" d="M134.49,153.415H109.967a1.541,1.541,0,0,0-1.541,1.541v5.311a1.541,1.541,0,0,0,1.541,1.541H134.49a1.541,1.541,0,0,0,1.541-1.541v-5.311A1.541,1.541,0,0,0,134.49,153.415Z" transform="translate(-99.97 -135.631)" fill="#e19974"/>
        <path id="Trazado_1176750" data-name="Trazado 1176750" d="M116.421,160.268v-5.311a1.541,1.541,0,0,1,1.541-1.541h-8a1.541,1.541,0,0,0-1.541,1.541v5.311a1.541,1.541,0,0,0,1.541,1.541h8A1.541,1.541,0,0,1,116.421,160.268Z" transform="translate(-99.97 -135.632)" fill="#dc8758"/>
        <g id="XMLID_536_" transform="translate(40.222 17.659)">
          <path id="Trazado_1176751" data-name="Trazado 1176751" d="M374.806,160.787v.244h-1.588a1.556,1.556,0,0,1-1.1-.453l-1.21-1.211h-1.843v-5.31h1.843l1.21-1.211a1.557,1.557,0,0,1,1.1-.455h1.588v8.4Z" transform="translate(-369.068 -152.39)" fill="#e19974"/>
        </g>
        <path id="Trazado_1176752" data-name="Trazado 1176752" d="M116.752,415.974H86.578a1.569,1.569,0,0,0-1.569,1.569v6.768h33.312v-6.768A1.569,1.569,0,0,0,116.752,415.974Z" transform="translate(-79.407 -366.19)" fill="#e19974"/>
        <path id="Trazado_1176753" data-name="Trazado 1176753" d="M88.612,460.31v-4.029a1.946,1.946,0,0,0-1.946-1.946h-39a1.946,1.946,0,0,0-1.946,1.946v4.029Z" transform="translate(-44.91 -399.876)" fill="#dc8758"/>
        <path id="Trazado_1176754" data-name="Trazado 1176754" d="M94.22,415.974H86.578a1.569,1.569,0,0,0-1.569,1.569v6.768h7.642v-6.768A1.569,1.569,0,0,1,94.22,415.974Z" transform="translate(-79.407 -366.19)" fill="#dc8758"/>
        <path id="Trazado_1176755" data-name="Trazado 1176755" d="M55.312,454.335H47.67a1.946,1.946,0,0,0-1.946,1.946v4.029h7.642v-4.029A1.946,1.946,0,0,1,55.312,454.335Z" transform="translate(-44.91 -399.876)" fill="#d77f4a"/>
        <path id="Trazado_1176756" data-name="Trazado 1176756" d="M43.979,340.425l-1.269-4.139a.64.64,0,0,0-.944-.362,6.4,6.4,0,0,0-2.684,3.579.643.643,0,0,0,.543.846l4.081.408A.258.258,0,0,0,43.979,340.425Z" transform="translate(-39.048 -295.814)" fill="#fee45a"/>
        <path id="Trazado_1176757" data-name="Trazado 1176757" d="M381.093,313.032l1.27-4.139a.64.64,0,0,1,.944-.362,6.4,6.4,0,0,1,2.684,3.579.643.643,0,0,1-.543.846l-4.081.408A.258.258,0,0,1,381.093,313.032Z" transform="translate(-339.395 -271.759)" fill="#fee45a"/>
        <path id="Trazado_1176758" data-name="Trazado 1176758" d="M391.627,384.838l2.846,3.263a.64.64,0,0,0,1.009-.054,6.4,6.4,0,0,0,.992-4.362.643.643,0,0,0-.841-.551l-3.894,1.29A.258.258,0,0,0,391.627,384.838Z" transform="translate(-348.599 -337.323)" fill="#fee45a"/>
      </g>
      <g id="Grupo_1222997" data-name="Grupo 1222997" transform="translate(23.573 0)">
        <path id="Trazado_1176759" data-name="Trazado 1176759" d="M147.132,26.3h-6.876V19.488h6.876a.914.914,0,0,0,0-1.828h-9.377a2.449,2.449,0,0,0-1.743.722l-.943.943h-4.891a2.467,2.467,0,0,0-1.312-1.343V11.576a3.047,3.047,0,0,0-.262-1.238h.017A1.738,1.738,0,0,0,130.356,8.6V6.232a2.538,2.538,0,0,0-1.491-2.308V2.305A2.308,2.308,0,0,0,126.56,0H104.72a2.308,2.308,0,0,0-2.305,2.305V3.924a2.538,2.538,0,0,0-1.491,2.308V8.6a1.737,1.737,0,0,0,1.736,1.736h.017a3.047,3.047,0,0,0-.262,1.238v1.145a.914.914,0,1,0,1.828,0V11.576a1.239,1.239,0,0,1,1.238-1.238H125.8a1.239,1.239,0,0,1,1.238,1.238v6.208H104.243V16.616a.914.914,0,1,0-1.828,0v1.366a2.458,2.458,0,0,0-1.491,2.257V25.55a2.458,2.458,0,0,0,1.491,2.257v6.406a3.048,3.048,0,0,0,.262,1.238h-.017a1.738,1.738,0,0,0-1.736,1.736v2.37a2.538,2.538,0,0,0,1.491,2.308v1.5a2.308,2.308,0,0,0,2.305,2.305h21.84a2.308,2.308,0,0,0,2.305-2.305v-1.5a2.538,2.538,0,0,0,1.491-2.308v-2.37a1.738,1.738,0,0,0-1.736-1.736H128.6a3.046,3.046,0,0,0,.262-1.238V27.807a2.467,2.467,0,0,0,1.312-1.343h4.891l.943.943a2.449,2.449,0,0,0,1.743.722h9.377a.914.914,0,1,0,0-1.828ZM102.752,6.232a.709.709,0,0,1,.708-.708H127.82a.709.709,0,0,1,.708.708V8.51H102.752Zm1.491-3.927a.478.478,0,0,1,.477-.477h21.84a.478.478,0,0,1,.477.477V3.7H104.243Zm26.113,18.847h2.335v3.483h-2.335Zm-1.828,18.4a.709.709,0,0,1-.708.708H103.461a.709.709,0,0,1-.708-.708V37.278h25.776Zm-1.491,3.8a.478.478,0,0,1-.477.477H104.72a.478.478,0,0,1-.477-.477V42.092h22.794v1.268ZM105.481,35.45a1.239,1.239,0,0,1-1.238-1.238V28h15.919a.914.914,0,1,0,0-1.828H103.379a.627.627,0,0,1-.626-.627V20.238a.627.627,0,0,1,.626-.627H127.9a.627.627,0,0,1,.626.627v5.311a.627.627,0,0,1-.626.627h-3.844a.914.914,0,1,0,0,1.828h2.98v6.208A1.239,1.239,0,0,1,125.8,35.45ZM137.3,26.114,136.094,24.9a.914.914,0,0,0-.646-.268h-.928V21.153h.928a.914.914,0,0,0,.646-.268l1.211-1.211a.633.633,0,0,1,.451-.187h.673V26.3h-.673A.633.633,0,0,1,137.3,26.114Z" transform="translate(-91.497 0)"/>
        <path id="Trazado_1176760" data-name="Trazado 1176760" d="M71.419,419.157H70.075v-3.148a2.863,2.863,0,0,0-2.86-2.86H65.287v-2.192a2.486,2.486,0,0,0-2.483-2.483H42.35a.914.914,0,1,0,0,1.828H62.8a.656.656,0,0,1,.655.655v2.192H31.975v-2.192a.656.656,0,0,1,.655-.655h5.824a.914.914,0,1,0,0-1.828H32.63a2.486,2.486,0,0,0-2.483,2.483v2.192H28.219a2.863,2.863,0,0,0-2.86,2.86v3.148h-.872a.914.914,0,0,0,0,1.828H71.419a.914.914,0,1,0,0-1.828Zm-44.232-3.148a1.033,1.033,0,0,1,1.032-1.032h39a1.033,1.033,0,0,1,1.032,1.032v3.148H27.187Z" transform="translate(-23.573 -358.69)"/>
        <path id="Trazado_1176761" data-name="Trazado 1176761" d="M32.946,334.667l4.082.408c.039,0,.078.006.117.006a1.172,1.172,0,0,0,1.12-1.516h0L37,329.426a1.554,1.554,0,0,0-2.3-.872,7.317,7.317,0,0,0-3.071,4.067,1.557,1.557,0,0,0,1.319,2.046Zm2.409-4.355.873,2.846-2.752-.275A5.436,5.436,0,0,1,35.355,330.312Z" transform="translate(-30.574 -288.309)"/>
        <path id="Trazado_1176762" data-name="Trazado 1176762" d="M374.754,307.687c.039,0,.078,0,.117-.006l4.081-.408a1.557,1.557,0,0,0,1.319-2.046,7.316,7.316,0,0,0-3.071-4.067,1.554,1.554,0,0,0-2.3.872l-1.27,4.139h0a1.172,1.172,0,0,0,1.12,1.516Zm1.79-4.769a5.436,5.436,0,0,1,1.88,2.571l-2.753.275Z" transform="translate(-330.924 -264.253)"/>
        <path id="Trazado_1176763" data-name="Trazado 1176763" d="M390.1,375.849a1.545,1.545,0,0,0-1.336-.173l-3.894,1.29a1.172,1.172,0,0,0-.514,1.883l2.846,3.263a1.547,1.547,0,0,0,1.172.534l.094,0a1.536,1.536,0,0,0,1.186-.671,7.317,7.317,0,0,0,1.147-4.966A1.554,1.554,0,0,0,390.1,375.849Zm-1.761,4.786-1.957-2.243,2.626-.87A5.436,5.436,0,0,1,388.335,380.634Z" transform="translate(-340.127 -329.819)"/>
      </g>
    </g>
  </g>
</svg>
