<svg xmlns="http://www.w3.org/2000/svg" xmlns:xlink="http://www.w3.org/1999/xlink" width="113" height="113" viewBox="0 0 113 113">
  <defs>
    <filter id="Trazado_982547" x="0" y="0" width="113" height="113" filterUnits="userSpaceOnUse">
      <feOffset dy="3" input="SourceAlpha"/>
      <feGaussianBlur stdDeviation="3" result="blur"/>
      <feFlood flood-opacity="0.161"/>
      <feComposite operator="in" in2="blur"/>
      <feComposite in="SourceGraphic"/>
    </filter>
  </defs>
  <g id="Grupo_1223005" data-name="Grupo 1223005" transform="translate(-14061 -2624.678)">
    <g id="Grupo_1222883" data-name="Grupo 1222883" transform="translate(13244 -8441.852)">
      <g id="Grupo_1222661" data-name="Grupo 1222661">
        <g id="Grupo_1222485" data-name="Grupo 1222485" transform="translate(826 11072.529)">
          <g id="Grupo_1208010" data-name="Grupo 1208010" transform="translate(0 0)">
            <g id="Grupo_1202142" data-name="Grupo 1202142" transform="translate(0 0)">
              <g id="Grupo_1201923" data-name="Grupo 1201923">
                <g id="Grupo_1176928" data-name="Grupo 1176928" transform="translate(0)">
                  <g id="Grupo_1172322" data-name="Grupo 1172322">
                    <g id="Grupo_1164700" data-name="Grupo 1164700">
                      <g id="Grupo_1160931" data-name="Grupo 1160931">
                        <g id="Grupo_1160749" data-name="Grupo 1160749">
                          <g id="Grupo_1158891" data-name="Grupo 1158891">
                            <g id="Grupo_1157406" data-name="Grupo 1157406">
                              <g id="Grupo_1155793" data-name="Grupo 1155793">
                                <g id="Grupo_1154704" data-name="Grupo 1154704">
                                  <g id="Grupo_1150790" data-name="Grupo 1150790">
                                    <g id="Grupo_1154214" data-name="Grupo 1154214" transform="translate(0)">
                                      <g id="Grupo_1152583" data-name="Grupo 1152583">
                                        <g id="Grupo_1146973" data-name="Grupo 1146973">
                                          <g id="Grupo_1146954" data-name="Grupo 1146954">
                                            <g transform="matrix(1, 0, 0, 1, -9, -6)" filter="url(#Trazado_982547)">
                                              <g id="Trazado_982547-2" data-name="Trazado 982547" transform="translate(9 6)" fill="#f2f4f0">
                                                <path d="M 47.5 93.49984741210938 C 41.28938674926758 93.49984741210938 35.26533508300781 92.2838134765625 29.59519958496094 89.88556671142578 C 24.11773300170898 87.56878662109375 19.19814682006836 84.25181579589844 14.97310638427734 80.02677917480469 C 10.74805355072021 75.80173492431641 7.431079864501953 70.88216400146484 5.114306449890137 65.40470886230469 C 2.716039896011353 59.73457717895508 1.50001335144043 53.71053695678711 1.50001335144043 47.49992370605469 C 1.50001335144043 41.28931045532227 2.716039896011353 35.2652702331543 5.114306449890137 29.59513664245605 C 7.431079864501953 24.11768341064453 10.74805355072021 19.19811058044434 14.97310638427734 14.97307014465332 C 19.19814682006836 10.74803066253662 24.11773300170898 7.431056976318359 29.59519958496094 5.114283561706543 C 35.26533508300781 2.716030359268188 41.28938674926758 1.500003695487976 47.5 1.500003695487976 C 53.71062850952148 1.500003695487976 59.73466491699219 2.716030359268188 65.40481567382812 5.114283561706543 C 70.88227844238281 7.431056976318359 75.80186462402344 10.74803066253662 80.02690887451172 14.97307014465332 C 84.25196075439453 19.19811058044434 87.56893157958984 24.11768341064453 89.88570404052734 29.59513664245605 C 92.28397369384766 35.2652702331543 93.5 41.28931045532227 93.5 47.49992370605469 C 93.5 53.71053695678711 92.28397369384766 59.73457717895508 89.88570404052734 65.40470886230469 C 87.56893157958984 70.88216400146484 84.25196075439453 75.80173492431641 80.02690887451172 80.02677917480469 C 75.80186462402344 84.25181579589844 70.88227844238281 87.56878662109375 65.40481567382812 89.88556671142578 C 59.73466491699219 92.2838134765625 53.71062850952148 93.49984741210938 47.5 93.49984741210938 Z" stroke="none"/>
                                                <path d="M 47.5 3 C 41.49121475219727 3 35.66376876831055 4.176155090332031 30.17951965332031 6.495803833007812 C 24.88084411621094 8.7369384765625 20.12152099609375 11.94596862792969 16.03375244140625 16.03372192382812 C 11.94598388671875 20.12149047851562 8.736953735351562 24.88081359863281 6.495796203613281 30.17947387695312 C 4.176155090332031 35.6637077331543 3 41.49115371704102 3 47.49992370605469 C 3 53.50869369506836 4.176155090332031 59.33613967895508 6.495796203613281 64.82037353515625 C 8.736953735351562 70.11903381347656 11.94598388671875 74.87835693359375 16.03375244140625 78.96612548828125 C 20.12152099609375 83.05387878417969 24.88084411621094 86.26290893554688 30.17951965332031 88.50404357910156 C 35.66376876831055 90.82369232177734 41.49121475219727 91.99984741210938 47.5 91.99984741210938 C 53.50878524780273 91.99984741210938 59.33623123168945 90.82369232177734 64.82049560546875 88.50404357910156 C 70.11915588378906 86.26290893554688 74.87847900390625 83.05387878417969 78.96624755859375 78.96612548828125 C 83.05401611328125 74.87835693359375 86.26304626464844 70.11903381347656 88.50418090820312 64.82037353515625 C 90.82382965087891 59.33613967895508 91.99998474121094 53.50869369506836 91.99998474121094 47.49992370605469 C 91.99998474121094 41.49115371704102 90.82382965087891 35.6637077331543 88.50418090820312 30.17947387695312 C 86.26304626464844 24.88081359863281 83.05401611328125 20.12149047851562 78.96624755859375 16.03372192382812 C 74.87847900390625 11.94596862792969 70.11915588378906 8.7369384765625 64.82049560546875 6.495803833007812 C 59.33623123168945 4.176155090332031 53.50878524780273 3 47.5 3 M 47.5 0 C 73.7335205078125 0 94.99998474121094 21.26644897460938 94.99998474121094 47.49992370605469 C 94.99998474121094 73.7333984375 73.7335205078125 94.99984741210938 47.5 94.99984741210938 C 21.26649475097656 94.99984741210938 0 73.7333984375 0 47.49992370605469 C 0 21.26644897460938 21.26649475097656 0 47.5 0 Z" stroke="none" fill="#899e78"/>
                                              </g>
                                            </g>
                                          </g>
                                        </g>
                                      </g>
                                    </g>
                                  </g>
                                </g>
                              </g>
                            </g>
                          </g>
                        </g>
                      </g>
                    </g>
                  </g>
                </g>
              </g>
            </g>
          </g>
        </g>
      </g>
    </g>
    <g id="contract_2328259" transform="translate(14087 2646)">
      <g id="Grupo_1223003" data-name="Grupo 1223003">
        <g id="Grupo_1223001" data-name="Grupo 1223001">
          <path id="Trazado_1176764" data-name="Trazado 1176764" d="M17,44h8l-4-4Z" fill="#e6e9ed"/>
          <path id="Trazado_1176765" data-name="Trazado 1176765" d="M49,18V3a1,1,0,0,0-1-1H16v8H8V44H33a1,1,0,0,1,1,1v.38l3.6-3.06A9.988,9.988,0,0,1,44,40h2V30H40v1a1,1,0,0,1-1,1H37a1,1,0,0,1-1-1V17a1,1,0,0,1,1-1h2a1,1,0,0,1,1,1v1Z" fill="#e6e9ed"/>
        </g>
        <path id="Trazado_1176766" data-name="Trazado 1176766" d="M16,2v8H8Z" fill="#fcd770"/>
        <path id="Trazado_1176767" data-name="Trazado 1176767" d="M25,34.75V44l-4-4-4,4V34.75a7.025,7.025,0,0,0,8,0Z" fill="#fcd770"/>
        <path id="Trazado_1176768" data-name="Trazado 1176768" d="M28,29a7,7,0,1,1-7-7A6.989,6.989,0,0,1,28,29Z" fill="#ff826e"/>
        <circle id="Elipse_14688" data-name="Elipse 14688" cx="3" cy="3" r="3" transform="translate(18 26)" fill="#fc6e51"/>
        <path id="Trazado_1176769" data-name="Trazado 1176769" d="M34,45V59a1,1,0,0,1-1,1H2V44H33A1,1,0,0,1,34,45Z" fill="#b4dd7f"/>
        <g id="Grupo_1223002" data-name="Grupo 1223002">
          <path id="Trazado_1176770" data-name="Trazado 1176770" d="M58,48a2.006,2.006,0,0,1,2,2,2.015,2.015,0,0,1-2,2H50a2.006,2.006,0,0,1-2-2,2.015,2.015,0,0,1,2-2h8Z" fill="#f0d0b4"/>
          <path id="Trazado_1176771" data-name="Trazado 1176771" d="M58,56a2.006,2.006,0,0,1,2,2,2.015,2.015,0,0,1-2,2H54a2.006,2.006,0,0,1-2-2,2.015,2.015,0,0,1,2-2Z" fill="#f0d0b4"/>
          <path id="Trazado_1176772" data-name="Trazado 1176772" d="M58,52a2.006,2.006,0,0,1,2,2,2.015,2.015,0,0,1-2,2H52a2.006,2.006,0,0,1-2-2,2.015,2.015,0,0,1,2-2Z" fill="#f0d0b4"/>
          <path id="Trazado_1176773" data-name="Trazado 1176773" d="M53,44h5a2.006,2.006,0,0,1,2,2,2.015,2.015,0,0,1-2,2H52a2.006,2.006,0,0,1-2-2,2.015,2.015,0,0,1,2-2Z" fill="#f0d0b4"/>
          <path id="Trazado_1176774" data-name="Trazado 1176774" d="M46,44.52V60H43.58a10.926,10.926,0,0,1-4.89-1.16A8.081,8.081,0,0,0,35.11,58H34V45.38l3.6-3.06A9.988,9.988,0,0,1,44,40H55a1,1,0,0,1,1,1,3,3,0,0,1-3,3H47.47A2.332,2.332,0,0,0,46,44.52Z" fill="#f0d0b4"/>
        </g>
        <path id="Trazado_1176775" data-name="Trazado 1176775" d="M46,60V44.52A2.332,2.332,0,0,1,47.47,44H52a2.015,2.015,0,0,0-2,2,2.006,2.006,0,0,0,2,2H50a2.015,2.015,0,0,0-2,2,2.006,2.006,0,0,0,2,2h2a2.015,2.015,0,0,0-2,2,2.006,2.006,0,0,0,2,2v4a2.006,2.006,0,0,1-2,2H48A2.006,2.006,0,0,1,46,60Z" fill="#cf9e76"/>
        <path id="Trazado_1176776" data-name="Trazado 1176776" d="M46,30h6V40H46Z" fill="#cf9e76"/>
        <path id="Trazado_1176777" data-name="Trazado 1176777" d="M58,18V30H40V18H58Z" fill="#d3a06c"/>
        <path id="Trazado_1176778" data-name="Trazado 1176778" d="M40,30v1a1,1,0,0,1-1,1H37a1,1,0,0,1-1-1V17a1,1,0,0,1,1-1h2a1,1,0,0,1,1,1V30Z" fill="#b27946"/>
        <path id="Trazado_1176779" data-name="Trazado 1176779" d="M62,17V31a1,1,0,0,1-1,1H59a1,1,0,0,1-1-1V17a1,1,0,0,1,1-1h2A1,1,0,0,1,62,17Z" fill="#b27946"/>
      </g>
      <g id="Grupo_1223004" data-name="Grupo 1223004">
        <path id="Trazado_1176780" data-name="Trazado 1176780" d="M61,15H59a2,2,0,0,0-2,2H50V3a2,2,0,0,0-2-2H15.586L7,9.586V43H1V61H33a2,2,0,0,0,2-2h.111a7.024,7.024,0,0,1,3.13.739A12.011,12.011,0,0,0,43.583,61h1.6A3,3,0,0,0,48,63h2a2.994,2.994,0,0,0,2.884-2.22A2.984,2.984,0,0,0,54,61h4a2.987,2.987,0,0,0,2.22-5,2.954,2.954,0,0,0,0-4,2.954,2.954,0,0,0,0-4A2.987,2.987,0,0,0,58,43H56.444A3.959,3.959,0,0,0,57,41a2,2,0,0,0-2-2H53V31h4a2,2,0,0,0,2,2h2a2,2,0,0,0,2-2V17A2,2,0,0,0,61,15ZM15,4.414V9H10.414ZM33,59H3V45H33ZM21,35a6,6,0,1,1,6-6A6.006,6.006,0,0,1,21,35Zm0,2a7.945,7.945,0,0,0,3-.589v5.175l-3-3-3,3V36.411A7.945,7.945,0,0,0,21,37Zm1.586,6H19.414L21,41.414ZM26,43V35.235a8,8,0,1,0-10,0V43H9V11h8V3H48V17H41a2,2,0,0,0-2-2H37a2,2,0,0,0-2,2V31a2,2,0,0,0,2,2h2a2,2,0,0,0,2-2h4v8H44a11.027,11.027,0,0,0-7.05,2.556l-2.475,2.1A1.988,1.988,0,0,0,33,43ZM39,17V31H37V17ZM51,60a1,1,0,0,1-1,1H48a1,1,0,0,1-1-1V45.093A1.363,1.363,0,0,1,47.472,45h1.7a2.973,2.973,0,0,0,.049,2.116,2.983,2.983,0,0,0,0,5.768A2.973,2.973,0,0,0,51,56.816Zm8-10a1,1,0,0,1-1,1H50a1,1,0,0,1,0-2h8A1,1,0,0,1,59,50Zm0,4a1,1,0,0,1-1,1H52a1,1,0,0,1,0-2h6A1,1,0,0,1,59,54Zm-1,5H54a1,1,0,0,1,0-2h4a1,1,0,0,1,0,2Zm1-13a1,1,0,0,1-1,1H52a1,1,0,0,1,0-2h6A1,1,0,0,1,59,46Zm-6-3H47.472a3.361,3.361,0,0,0-3.025,1.87A3.832,3.832,0,0,1,41,47v2a5.812,5.812,0,0,0,4-1.592V59H43.583a9.992,9.992,0,0,1-4.447-1.05A9.05,9.05,0,0,0,35.111,57H35V45.841l3.238-2.755A9.021,9.021,0,0,1,44,41H55A2,2,0,0,1,53,43Zm-2-4H47V31h4Zm2-10H41V19H57V29Zm8,2H59V17h2Z"/>
        <path id="Trazado_1176781" data-name="Trazado 1176781" d="M21,25a4,4,0,1,0,4,4A4,4,0,0,0,21,25Zm0,6a2,2,0,1,1,2-2A2,2,0,0,1,21,31Z"/>
        <path id="Trazado_1176782" data-name="Trazado 1176782" d="M19,5h6V7H19Z"/>
        <path id="Trazado_1176783" data-name="Trazado 1176783" d="M27,5H44V7H27Z"/>
        <path id="Trazado_1176784" data-name="Trazado 1176784" d="M19,9H44v2H19Z"/>
        <path id="Trazado_1176785" data-name="Trazado 1176785" d="M13,13h8v2H13Z"/>
        <path id="Trazado_1176786" data-name="Trazado 1176786" d="M23,13h8v2H23Z"/>
        <path id="Trazado_1176787" data-name="Trazado 1176787" d="M13,17h8v2H13Z"/>
        <path id="Trazado_1176788" data-name="Trazado 1176788" d="M23,17h8v2H23Z"/>
      </g>
    </g>
  </g>
</svg>
