<svg xmlns="http://www.w3.org/2000/svg" xmlns:xlink="http://www.w3.org/1999/xlink" width="108" height="108" viewBox="0 0 108 108">
  <defs>
    <filter id="Trazado_904820" x="0" y="0" width="108" height="108" filterUnits="userSpaceOnUse">
      <feOffset dy="3" input="SourceAlpha"/>
      <feGaussianBlur stdDeviation="3" result="blur"/>
      <feFlood flood-opacity="0.161"/>
      <feComposite operator="in" in2="blur"/>
      <feComposite in="SourceGraphic"/>
    </filter>
  </defs>
  <g id="Grupo_1222963" data-name="Grupo 1222963" transform="translate(-620 -321)">
    <g id="Grupo_1174741" data-name="Grupo 1174741" transform="translate(629 327)">
      <g id="Grupo_1173585" data-name="Grupo 1173585" transform="translate(0 0)">
        <g id="Grupo_1173428" data-name="Grupo 1173428">
          <g id="Grupo_1171958" data-name="Grupo 1171958">
            <g id="Grupo_1167341" data-name="Grupo 1167341">
              <g id="Grupo_1166792" data-name="Grupo 1166792">
                <g transform="matrix(1, 0, 0, 1, -9, -6)" filter="url(#Trazado_904820)">
                  <g id="Trazado_904820-2" data-name="Trazado 904820" transform="translate(9 6)" fill="#fcf5f0">
                    <path d="M 44.99999618530273 88.50004577636719 C 39.12687301635742 88.50004577636719 33.43022155761719 87.35012054443359 28.06829643249512 85.08220672607422 C 22.88852119445801 82.89134216308594 18.23629570007324 79.75463104248047 14.24084663391113 75.75917816162109 C 10.24540901184082 71.76371765136719 7.108683586120605 67.11149597167969 4.917821407318115 61.93173217773438 C 2.649921178817749 56.56979370117188 1.499996185302734 50.87314224243164 1.499996185302734 45.00001907348633 C 1.499996185302734 39.12689590454102 2.649921178817749 33.43024444580078 4.917821407318115 28.06830596923828 C 7.108683586120605 22.88853073120117 10.24540901184082 18.23631858825684 14.24084663391113 14.24086952209473 C 18.23629570007324 10.2454195022583 22.88852119445801 7.108694076538086 28.06829643249512 4.917831420898438 C 33.43022155761719 2.649931669235229 39.12687301635742 1.500006556510925 44.99999618530273 1.500006556510925 C 50.87311935424805 1.500006556510925 56.56977081298828 2.649931669235229 61.93169784545898 4.917831420898438 C 67.11147308349609 7.108694076538086 71.76369476318359 10.2454195022583 75.75914764404297 14.24086952209473 C 79.75458526611328 18.23631858825684 82.89131164550781 22.88853073120117 85.08216857910156 28.06830596923828 C 87.35007476806641 33.43024444580078 88.5 39.12689590454102 88.5 45.00001907348633 C 88.5 50.87314224243164 87.35007476806641 56.56979370117188 85.08216857910156 61.93173217773438 C 82.89131164550781 67.11149597167969 79.75458526611328 71.76371765136719 75.75914764404297 75.75917816162109 C 71.76369476318359 79.75463104248047 67.11147308349609 82.89134216308594 61.93169784545898 85.08220672607422 C 56.56977081298828 87.35012054443359 50.87311935424805 88.50004577636719 44.99999618530273 88.50004577636719 Z" stroke="none"/>
                    <path d="M 44.99999618530273 3.000007629394531 C 39.32870864868164 3.000007629394531 33.82865142822266 4.110061645507812 28.65262603759766 6.299346923828125 C 23.65165710449219 8.414573669433594 19.15968322753906 11.44334411621094 15.301513671875 15.30152130126953 C 11.44333648681641 19.15969085693359 8.414566040039062 23.65166473388672 6.299339294433594 28.65263366699219 C 4.110054016113281 33.82867431640625 2.999992370605469 39.32873153686523 2.999992370605469 45.00001907348633 C 2.999992370605469 50.67130661010742 4.110054016113281 56.17136383056641 6.299339294433594 61.34738922119141 C 8.414566040039062 66.34837341308594 11.44333648681641 70.84033203125 15.301513671875 74.69850158691406 C 19.15968322753906 78.55668640136719 23.65165710449219 81.58546447753906 28.65262603759766 83.70069122314453 C 33.82865142822266 85.88997650146484 39.32870864868164 87.00003051757812 44.99999618530273 87.00003051757812 C 50.67128372192383 87.00003051757812 56.17134094238281 85.88997650146484 61.34736633300781 83.70069122314453 C 66.34834289550781 81.58546447753906 70.84030914306641 78.55668640136719 74.69847869873047 74.69850158691406 C 78.55665588378906 70.84033203125 81.58542633056641 66.34837341308594 83.70065307617188 61.34738922119141 C 85.88993835449219 56.17136383056641 87 50.67130661010742 87 45.00001907348633 C 87 39.32873153686523 85.88993835449219 33.82867431640625 83.70065307617188 28.65263366699219 C 81.58542633056641 23.65166473388672 78.55665588378906 19.15969085693359 74.69847869873047 15.30152130126953 C 70.84030914306641 11.44334411621094 66.34834289550781 8.414573669433594 61.34736633300781 6.299346923828125 C 56.17134094238281 4.110061645507812 50.67128372192383 3.000007629394531 44.99999618530273 3.000007629394531 M 44.99999618530273 7.62939453125e-06 C 69.85281372070312 7.62939453125e-06 90 20.14719390869141 90 45.00001907348633 C 90 69.85282897949219 69.85281372070312 90.00003051757812 44.99999618530273 90.00003051757812 C 20.14717864990234 90.00003051757812 -7.62939453125e-06 69.85282897949219 -7.62939453125e-06 45.00001907348633 C -7.62939453125e-06 20.14719390869141 20.14717864990234 7.62939453125e-06 44.99999618530273 7.62939453125e-06 Z" stroke="none" fill="#eca675"/>
                  </g>
                </g>
              </g>
            </g>
          </g>
        </g>
      </g>
    </g>
    <g id="constitution_1846216" transform="translate(587.967 342.775)">
      <path id="Trazado_1176559" data-name="Trazado 1176559" d="M111.894,472.435H73.459a1.83,1.83,0,0,0,0,3.66h38.435v-3.66Z" transform="translate(-6.644 -418.502)" fill="#dad8db"/>
      <path id="Trazado_1176560" data-name="Trazado 1176560" d="M113.724,24.447a.915.915,0,0,0-.915-.915H73.459a1.83,1.83,0,0,0-1.83,1.83V40h42.1Z" transform="translate(-6.644 -20.846)" fill="#f7cd27"/>
      <path id="Trazado_1176561" data-name="Trazado 1176561" d="M71.629,167.823h42.1v18.3h-42.1Z" transform="translate(-6.644 -148.664)" fill="#3965f6"/>
      <path id="Trazado_1176562" data-name="Trazado 1176562" d="M0,0H2.745V18.3H0Z" transform="translate(67.731 37.461) rotate(180)" fill="#1640cc"/>
      <path id="Trazado_1176563" data-name="Trazado 1176563" d="M280.963,236.526a2.979,2.979,0,0,1,2.217,1.083.865.865,0,0,0,1.255.021l1.482-1.482a1.83,1.83,0,0,0,.536-1.294v-2.9l-6.406,2.746Z" transform="translate(-191.27 -205.471)" fill="#f6d190"/>
      <path id="Trazado_1176564" data-name="Trazado 1176564" d="M287.859,197.95l-.407,2.441a.915.915,0,0,1-.542.691l-5.946,2.548-.915-.915,6.3-5.6A.915.915,0,0,1,287.859,197.95Z" transform="translate(-191.271 -174.406)" fill="#ffe09f"/>
      <path id="Trazado_1176565" data-name="Trazado 1176565" d="M181.329,236.526a2.979,2.979,0,0,0-2.217,1.083.865.865,0,0,1-1.255.021l-1.482-1.482a1.83,1.83,0,0,1-.536-1.294v-2.9l6.406,2.746Z" transform="translate(-98.956 -205.471)" fill="#f6d190"/>
      <path id="Trazado_1176566" data-name="Trazado 1176566" d="M163.433,197.95l.407,2.441a.915.915,0,0,0,.542.691l5.946,2.548.915-.915-6.3-5.6A.915.915,0,0,0,163.433,197.95Z" transform="translate(-87.956 -174.406)" fill="#ffe09f"/>
      <path id="Trazado_1176567" data-name="Trazado 1176567" d="M113.724,328.145H73.459a1.83,1.83,0,0,0-1.83,1.83v16.472a1.83,1.83,0,0,1,1.83-1.83h39.35a.915.915,0,0,0,.915-.915Z" transform="translate(-6.644 -290.684)" fill="#f2303f"/>
      <circle id="Elipse_14687" data-name="Elipse 14687" cx="1.83" cy="1.83" r="1.83" transform="translate(84.203 16.413)" fill="#f6d190"/>
      <path id="Trazado_1176568" data-name="Trazado 1176568" d="M74.374,337.3v-9.151H71.629v18.3a1.83,1.83,0,0,1,1.83-1.83h39.35a.915.915,0,0,0,.915-.915v-1.83H78.95A4.576,4.576,0,0,1,74.374,337.3Z" transform="translate(-6.644 -290.684)" fill="#d81625"/>
      <path id="Trazado_1176569" data-name="Trazado 1176569" d="M73.459,23.532h.986V40H71.629V25.362a1.83,1.83,0,0,1,1.83-1.83Z" transform="translate(-6.644 -20.846)" fill="#c5a10d"/>
      <path id="Trazado_1176570" data-name="Trazado 1176570" d="M231.257,239.968h-7.321v4.576a2.745,2.745,0,0,0,2.745,2.745h1.83a2.745,2.745,0,0,0,2.745-2.745v-4.576Z" transform="translate(-141.564 -212.573)" fill="#e5646e"/>
      <path id="Trazado_1176571" data-name="Trazado 1176571" d="M109.185,20.312l-2.745-1.83-2.745,1.83V8.415a.915.915,0,0,1,.915-.915h3.661a.915.915,0,0,1,.915.915v11.9Z" transform="translate(-35.048 -6.644)" fill="#e5646e"/>
      <path id="Trazado_1176572" data-name="Trazado 1176572" d="M104.609,7.5a.915.915,0,0,0-.915.915v11.9l2.745-1.83V7.5Z" transform="translate(-35.048 -6.644)" fill="#db4655"/>
      <path id="Trazado_1176573" data-name="Trazado 1176573" d="M106.165,1.83H77.8a.856.856,0,1,0,0,1.712h28.368a.059.059,0,0,1,.059.059V18.3h-14.7a.856.856,0,0,0,0,1.712h14.7V36.6H94.269a.856.856,0,0,0,0,1.712h11.955v14.7a.059.059,0,0,1-.059.059H103.42a.856.856,0,0,0,0,1.712h.974v1.948H66.815a.974.974,0,1,1,0-1.948H99.759a.856.856,0,1,0,0-1.712H66.815a2.671,2.671,0,0,0-.974.184V38.317H77.8a.856.856,0,1,0,0-1.712H65.841V20.015h14.7a.856.856,0,1,0,0-1.712h-14.7V4.517a.975.975,0,0,1,.974-.974h.974V13.668a.856.856,0,0,0,1.331.712l2.27-1.514,2.271,1.514a.856.856,0,0,0,1.331-.712V1.771A1.773,1.773,0,0,0,73.221,0H69.561a1.773,1.773,0,0,0-1.771,1.771V1.83h-.974a2.689,2.689,0,0,0-2.686,2.686V55.763a2.689,2.689,0,0,0,2.686,2.686H107.08a.856.856,0,0,0,0-1.712h-.974V54.789h.059a1.773,1.773,0,0,0,1.771-1.771V3.6a1.773,1.773,0,0,0-1.771-1.771Zm-36.6-.118h3.661a.059.059,0,0,1,.059.059v10.3l-1.414-.943a.856.856,0,0,0-.95,0l-1.414.943V1.771A.059.059,0,0,1,69.561,1.712Z" transform="translate(0 0)"/>
      <path id="Trazado_1176574" data-name="Trazado 1176574" d="M249.356,256.516a.856.856,0,0,0-.856.856v1.83a.856.856,0,0,0,1.712,0v-1.83A.856.856,0,0,0,249.356,256.516Z" transform="translate(-163.323 -227.232)"/>
      <path id="Trazado_1176575" data-name="Trazado 1176575" d="M171.266,186.083h.7a.856.856,0,1,0,0-1.712h-.7a2.672,2.672,0,0,0-2.4,1.485L167.39,188.8l-1.474-2.947a2.672,2.672,0,0,0-2.4-1.485h-.7a.856.856,0,0,0,0,1.712h.7a.969.969,0,0,1,.871.538l1.62,3.24h-1.953l-5.1-4.464A1.8,1.8,0,0,0,156,187.045l.4,2.4a1.763,1.763,0,0,0,.986,1.307v1.948a2.669,2.669,0,0,0,.787,1.9l2.209,2.209a.854.854,0,0,0,.6.249.871.871,0,0,0,.134-.01.861.861,0,0,0,.63-.456,3.024,3.024,0,0,1,1.13-1.145,3.578,3.578,0,0,0,.519,1.71l-.651.651a2.669,2.669,0,0,0-.787,1.9v1.072a.856.856,0,1,0,1.712,0v-1.072a.968.968,0,0,1,.285-.689l.651-.651a3.58,3.58,0,0,0,1.868.523h.059v1.56L164,202.99a.856.856,0,1,0,1.211,1.211l1.325-1.325v2.484a.856.856,0,1,0,1.712,0v-2.508l1.535,1.563a.856.856,0,1,0,1.221-1.2l-2.756-2.806v-1.514h.059a3.581,3.581,0,0,0,1.868-.523l.651.651a.968.968,0,0,1,.285.689v1.072a.856.856,0,1,0,1.712,0v-1.072a2.669,2.669,0,0,0-.787-1.9l-.651-.651a3.578,3.578,0,0,0,.519-1.71,3.021,3.021,0,0,1,1.127,1.141.856.856,0,0,0,1.371.223l2.209-2.209a2.669,2.669,0,0,0,.787-1.9v-1.948a1.762,1.762,0,0,0,.986-1.307l.4-2.405a1.8,1.8,0,0,0-2.954-1.647l-5.1,4.464h-1.953l1.62-3.24A.969.969,0,0,1,171.266,186.083Zm-13.54.593a.094.094,0,0,1,.045-.014.074.074,0,0,1,.05.024l5.051,4.42v.143l-4.752-2.037a.058.058,0,0,1-.035-.044l-.4-2.405A.07.07,0,0,1,157.727,186.677Zm3.15,8.213-1.5-1.5a.968.968,0,0,1-.285-.689v-1.212l3.778,1.619v.515A4.021,4.021,0,0,0,160.876,194.89Zm14.523-1.5-1.5,1.5a4.021,4.021,0,0,0-2-1.262v-.515l3.778-1.619v1.212A.968.968,0,0,1,175.4,193.394Zm1.558-6.707a.074.074,0,0,1,.05-.024.094.094,0,0,1,.045.014.07.07,0,0,1,.042.087l-.4,2.405a.059.059,0,0,1-.035.044l-4.752,2.037v-.143Zm-6.763,8.607a1.891,1.891,0,0,1-1.889,1.889h-1.83a1.891,1.891,0,0,1-1.889-1.889v-3.719h5.609v3.719Z" transform="translate(-81.357 -163.323)"/>
      <path id="Trazado_1176576" data-name="Trazado 1176576" d="M235.154,141.647a2.686,2.686,0,1,0-2.686-2.687A2.689,2.689,0,0,0,235.154,141.647Zm0-3.661a.974.974,0,1,1-.974.974A.975.975,0,0,1,235.154,137.986Z" transform="translate(-149.122 -120.717)"/>
      <path id="Trazado_1176577" data-name="Trazado 1176577" d="M194.539,393.647a.856.856,0,0,0-.856-.856H177.211a.856.856,0,1,0,0,1.712h16.472A.856.856,0,0,0,194.539,393.647Z" transform="translate(-99.414 -347.95)"/>
      <path id="Trazado_1176578" data-name="Trazado 1176578" d="M194.539,97.049a.856.856,0,0,0-.856-.856H177.211a.856.856,0,1,0,0,1.712h16.472A.856.856,0,0,0,194.539,97.049Z" transform="translate(-99.414 -85.212)"/>
      <path id="Trazado_1176579" data-name="Trazado 1176579" d="M209.275,424.855a.856.856,0,0,0,0,1.712h9.151a.856.856,0,0,0,0-1.712Z" transform="translate(-127.818 -376.354)"/>
    </g>
  </g>
</svg>
