<svg xmlns="http://www.w3.org/2000/svg" xmlns:xlink="http://www.w3.org/1999/xlink" width="103" height="103" viewBox="0 0 103 103">
  <defs>
    <filter id="Trazado_982547" x="0" y="0" width="103" height="103" filterUnits="userSpaceOnUse">
      <feOffset dy="3" input="SourceAlpha"/>
      <feGaussianBlur stdDeviation="3" result="blur"/>
      <feFlood flood-opacity="0.161"/>
      <feComposite operator="in" in2="blur"/>
      <feComposite in="SourceGraphic"/>
    </filter>
  </defs>
  <g id="Grupo_1222962" data-name="Grupo 1222962" transform="translate(-1138.12 -2008)">
    <g id="Grupo_1222805" data-name="Grupo 1222805" transform="translate(941.12 300.583)">
      <g id="Grupo_1201889" data-name="Grupo 1201889" transform="translate(206 1713.417)">
        <g id="Grupo_1201680" data-name="Grupo 1201680">
          <g id="Grupo_1201330" data-name="Grupo 1201330">
            <g id="Grupo_1172010" data-name="Grupo 1172010">
              <g id="Grupo_1171046" data-name="Grupo 1171046">
                <g id="Grupo_1148525" data-name="Grupo 1148525">
                  <g transform="matrix(1, 0, 0, 1, -9, -6)" filter="url(#Trazado_982547)">
                    <g id="Trazado_982547-2" data-name="Trazado 982547" transform="translate(9 6)" fill="#f2f4f0">
                      <path d="M 42.5 83.5 C 36.96437835693359 83.5 31.59512901306152 82.41617584228516 26.54141235351562 80.27863311767578 C 21.65934181213379 78.21369171142578 17.27447128295898 75.25723266601562 13.50862312316895 71.49137878417969 C 9.742764472961426 67.72553253173828 6.786305904388428 63.34066009521484 4.721364498138428 58.45858764648438 C 2.583823442459106 53.40486907958984 1.5 48.03562164306641 1.5 42.5 C 1.5 36.96437835693359 2.583823442459106 31.59512901306152 4.721364498138428 26.54141235351562 C 6.786305904388428 21.65934181213379 9.742764472961426 17.27448272705078 13.50862312316895 13.50862312316895 C 17.27447128295898 9.742776870727539 21.65934181213379 6.786305904388428 26.54141235351562 4.721364498138428 C 31.59512901306152 2.583823442459106 36.96437835693359 1.5 42.5 1.5 C 48.03562164306641 1.5 53.40486907958984 2.583823442459106 58.45858764648438 4.721364498138428 C 63.34066009521484 6.786305904388428 67.72553253173828 9.742776870727539 71.49137878417969 13.50862312316895 C 75.25723266601562 17.27448272705078 78.21369171142578 21.65934181213379 80.27863311767578 26.54141235351562 C 82.41617584228516 31.59512901306152 83.5 36.96437835693359 83.5 42.5 C 83.5 48.03562164306641 82.41617584228516 53.40486907958984 80.27863311767578 58.45858764648438 C 78.21369171142578 63.34066009521484 75.25723266601562 67.72553253173828 71.49137878417969 71.49137878417969 C 67.72553253173828 75.25723266601562 63.34066009521484 78.21369171142578 58.45858764648438 80.27863311767578 C 53.40486907958984 82.41617584228516 48.03562164306641 83.5 42.5 83.5 Z" stroke="none"/>
                      <path d="M 42.5 3 C 37.16621398925781 3 31.99356079101562 4.043960571289062 27.125732421875 6.102882385253906 C 22.42246627807617 8.092185974121094 18.19785308837891 10.94070434570312 14.56928253173828 14.56928253173828 C 10.94070434570312 18.19785308837891 8.092185974121094 22.42246627807617 6.102882385253906 27.125732421875 C 4.043960571289062 31.99356079101562 3 37.16621398925781 3 42.5 C 3 47.83378601074219 4.043960571289062 53.00643920898438 6.102882385253906 57.87425231933594 C 8.092185974121094 62.57753372192383 10.94070434570312 66.80213165283203 14.56928253173828 70.43071746826172 C 18.19786834716797 74.05929565429688 22.42246627807617 76.90781402587891 27.125732421875 78.89711761474609 C 31.99356079101562 80.95603942871094 37.16621398925781 82 42.5 82 C 47.83378601074219 82 53.00642395019531 80.95603942871094 57.87425231933594 78.89711761474609 C 62.57753372192383 76.90781402587891 66.80213165283203 74.05929565429688 70.43071746826172 70.43071746826172 C 74.05929565429688 66.80213165283203 76.90781402587891 62.57753372192383 78.89711761474609 57.87425231933594 C 80.95603942871094 53.00642395019531 82 47.83378601074219 82 42.5 C 82 37.16621398925781 80.95603942871094 31.99356079101562 78.89711761474609 27.125732421875 C 76.90781402587891 22.42246627807617 74.05929565429688 18.19786834716797 70.43071746826172 14.56928253173828 C 66.80213165283203 10.94070434570312 62.57753372192383 8.092185974121094 57.87425231933594 6.102882385253906 C 53.00643920898438 4.043960571289062 47.83378601074219 3 42.5 3 M 42.5 0 C 65.97209167480469 0 85 19.02789306640625 85 42.5 C 85 65.97209167480469 65.97209167480469 85 42.5 85 C 19.02789306640625 85 0 65.97209167480469 0 42.5 C 0 19.02789306640625 19.02789306640625 0 42.5 0 Z" stroke="none" fill="#899e78"/>
                    </g>
                  </g>
                </g>
              </g>
            </g>
          </g>
        </g>
      </g>
    </g>
    <g id="regulation_16873690" transform="translate(1160.034 2012.251)">
      <g id="Shadow" transform="translate(0.462 17.041)">
        <g id="Grupo_1222961" data-name="Grupo 1222961" transform="translate(0 0)">
          <g id="Grupo_1222957" data-name="Grupo 1222957">
            <circle id="Elipse_14686" data-name="Elipse 14686" cx="13.949" cy="13.949" r="13.949" transform="translate(7.324 7.324)" fill="#ffd15b"/>
            <g id="Grupo_1222955" data-name="Grupo 1222955" transform="translate(19.898 12.316)">
              <path id="Trazado_1176538" data-name="Trazado 1176538" d="M177.541,139.271a1.376,1.376,0,0,1-1.375-1.376v-9.373a1.376,1.376,0,1,1,2.751,0v9.373A1.376,1.376,0,0,1,177.541,139.271Z" transform="translate(-176.166 -127.146)" fill="#fd4755"/>
              <path id="Trazado_1176539" data-name="Trazado 1176539" d="M177.541,254.846a1.375,1.375,0,0,1-1.375-1.376v-.817a1.376,1.376,0,1,1,2.751,0v.817a1.375,1.375,0,0,1-1.376,1.376Z" transform="translate(-176.166 -236.932)" fill="#fd4755"/>
            </g>
            <g id="Grupo_1222956" data-name="Grupo 1222956">
              <path id="Trazado_1176540" data-name="Trazado 1176540" d="M46.388,39.258l-4.2-1.8A17.4,17.4,0,0,0,40.343,33l1.695-4.244a21.369,21.369,0,0,0-3.671-3.67l-4.244,1.695a17.45,17.45,0,0,0-4.453-1.848l-1.8-4.2a21.352,21.352,0,0,0-5.191,0l-1.8,4.2a17.434,17.434,0,0,0-4.453,1.848l-4.244-1.695a21.368,21.368,0,0,0-3.67,3.67L10.2,33a17.419,17.419,0,0,0-1.847,4.453l-4.2,1.8a21.365,21.365,0,0,0,0,5.191l4.2,1.8A17.42,17.42,0,0,0,10.2,50.7L8.508,54.948a21.341,21.341,0,0,0,3.67,3.67l4.244-1.695a17.374,17.374,0,0,0,4.453,1.846l1.8,4.2a21.384,21.384,0,0,0,5.191,0l1.8-4.2a17.388,17.388,0,0,0,4.453-1.846l4.244,1.695a21.349,21.349,0,0,0,3.671-3.67L40.343,50.7a17.4,17.4,0,0,0,1.848-4.453l4.2-1.8a21.357,21.357,0,0,0,0-5.191ZM25.273,54.482A12.629,12.629,0,1,1,37.9,41.853,12.629,12.629,0,0,1,25.273,54.482Z" transform="translate(-4 -20.58)" fill="#3a313a"/>
            </g>
          </g>
          <g id="Grupo_1222960" data-name="Grupo 1222960" transform="translate(10.855 24.361)">
            <g id="Grupo_1222959" data-name="Grupo 1222959" transform="translate(8.148)">
              <path id="Trazado_1176541" data-name="Trazado 1176541" d="M288.954,328.323a2.205,2.205,0,0,1-2.808,1.358l-24.127-8.4a2.205,2.205,0,0,1-1.358-2.808l.061-.173a2.205,2.205,0,0,1,2.808-1.358l24.127,8.4a2.206,2.206,0,0,1,1.358,2.808Z" transform="translate(-249.893 -306.946)" fill="#935b50"/>
              <path id="Trazado_1176542" data-name="Trazado 1176542" d="M0,0H10.894V15.622H0Z" transform="translate(7.767 2.121) rotate(19.214)" fill="#935b50"/>
              <g id="Grupo_1222958" data-name="Grupo 1222958">
                <path id="Trazado_1176543" data-name="Trazado 1176543" d="M228.334,237.953a1.614,1.614,0,0,1-1.932,1.177l-12.647-4.4a1.779,1.779,0,0,1,1.148-3.3l12.647,4.4a1.615,1.615,0,0,1,.784,2.121Z" transform="translate(-207.721 -231.364)" fill="#3a313a"/>
                <path id="Trazado_1176544" data-name="Trazado 1176544" d="M183.906,365.615a1.615,1.615,0,0,0-.784-2.121l-12.647-4.4a1.779,1.779,0,0,0-1.148,3.3l12.647,4.4a1.615,1.615,0,0,0,1.932-1.177Z" transform="translate(-168.428 -344.272)" fill="#3a313a"/>
              </g>
            </g>
            <path id="Trazado_1176545" data-name="Trazado 1176545" d="M125.681,433.757v-2.389a5.161,5.161,0,0,0-5.146-5.146H103.07a5.161,5.161,0,0,0-5.146,5.146v2.389Z" transform="translate(-97.924 -403.702)" fill="#ffd15b"/>
          </g>
        </g>
      </g>
      <g id="Base" transform="translate(2.238 17.345)">
        <path id="Trazado_1176546" data-name="Trazado 1176546" d="M105.75,121.188A11.589,11.589,0,1,1,117.338,109.6a11.481,11.481,0,0,1-.755,4.114L111,111.772a2.243,2.243,0,0,0-.739-.125,2.753,2.753,0,0,0-2.517,1.942,3.054,3.054,0,0,0-.167,1.2,2.415,2.415,0,0,0-4.248,1.573v.817a2.416,2.416,0,1,0,4.831,0s0-.844,0-.858a2.252,2.252,0,0,0,1.008.711l.2.068-1.344,3.861A11.65,11.65,0,0,1,105.75,121.188Zm0-21.586a2.419,2.419,0,0,0-2.416,2.416v9.373a2.416,2.416,0,1,0,4.831,0v-9.373A2.419,2.419,0,0,0,105.75,99.6Z" transform="translate(-85.517 -89.366)" fill="#fee45a"/>
        <path id="Trazado_1176547" data-name="Trazado 1176547" d="M191.867,139.823a.336.336,0,0,1-.335-.335v-9.373a.335.335,0,1,1,.671,0v9.373A.336.336,0,0,1,191.867,139.823Z" transform="translate(-171.634 -117.463)" fill="#fe646f"/>
        <path id="Trazado_1176548" data-name="Trazado 1176548" d="M191.867,255.4a.336.336,0,0,1-.335-.336v-.817a.335.335,0,0,1,.671,0v.817A.336.336,0,0,1,191.867,255.4Z" transform="translate(-171.634 -227.25)" fill="#fe646f"/>
        <path id="Trazado_1176549" data-name="Trazado 1176549" d="M36.157,59.953a1.034,1.034,0,0,0-.695-.6,16.336,16.336,0,0,1-4.187-1.736,1.04,1.04,0,0,0-.914-.069L26.683,59.02a20.327,20.327,0,0,1-2.658-2.658l1.469-3.679a1.046,1.046,0,0,0-.07-.913,16.369,16.369,0,0,1-1.736-4.187,1.046,1.046,0,0,0-.6-.694l-3.639-1.562c-.058-.625-.087-1.256-.087-1.879s.029-1.255.087-1.88L23.092,40a1.046,1.046,0,0,0,.6-.695,16.381,16.381,0,0,1,1.737-4.187,1.047,1.047,0,0,0,.069-.913L24.025,30.53a20.355,20.355,0,0,1,2.658-2.658l3.68,1.469a1.041,1.041,0,0,0,.913-.069,16.4,16.4,0,0,1,4.187-1.738,1.034,1.034,0,0,0,.694-.6L37.719,23.3c.63-.058,1.26-.088,1.88-.088s1.25.029,1.88.088l1.562,3.638a1.034,1.034,0,0,0,.694.6,16.417,16.417,0,0,1,4.187,1.738,1.041,1.041,0,0,0,.913.069l3.679-1.469a20.356,20.356,0,0,1,2.658,2.658L53.7,34.21a1.047,1.047,0,0,0,.07.914A16.365,16.365,0,0,1,55.51,39.31a1.035,1.035,0,0,0,.6.694l3.638,1.562c.058.628.088,1.259.088,1.88s-.03,1.25-.088,1.879l-3.638,1.562a1.034,1.034,0,0,0-.6.694,16.26,16.26,0,0,1-.5,1.572l-2.616-.91a13.548,13.548,0,0,0,.87-4.8A13.666,13.666,0,1,0,41.1,57.033l-1.186,3.408-.2-.068a2.244,2.244,0,0,0-.739-.125,2.637,2.637,0,0,0-2.167,1.234Z" transform="translate(-19.366 -23.213)" fill="#685e68"/>
        <path id="Trazado_1176550" data-name="Trazado 1176550" d="M327.832,308.884l.053.133q-.083.1-.169.2Z" transform="translate(-292.079 -275.868)" fill="#685e68"/>
        <path id="Trazado_1176551" data-name="Trazado 1176551" d="M334.814,340.47a1.162,1.162,0,0,1-.383-.065l-20.518-7.14.827-2.375,20.517,7.14a1.166,1.166,0,0,1,.717,1.483l-.06.173A1.166,1.166,0,0,1,334.814,340.47Z" transform="translate(-279.871 -295.331)" fill="#ab695d"/>
        <path id="Trazado_1176552" data-name="Trazado 1176552" d="M0,0H10.05V8.814H0Z" transform="translate(34.148 31.295) rotate(109.214)" fill="#ab695d"/>
        <path id="Trazado_1176553" data-name="Trazado 1176553" d="M241.113,239.751a.163.163,0,0,1-.055-.009l-12.647-4.4c-.153-.053-.285-.39-.143-.8.119-.341.374-.545.552-.545a.166.166,0,0,1,.055.009l12.647,4.4c.153.053.285.39.143.8C241.546,239.547,241.291,239.751,241.113,239.751Z" transform="translate(-204.071 -209.638)" fill="#685e68"/>
        <path id="Trazado_1176554" data-name="Trazado 1176554" d="M196.463,367.345,183.982,363c-.153-.053-.285-.39-.143-.8.119-.341.374-.545.553-.545a.162.162,0,0,1,.055.009l12.647,4.4c.153.053.285.39.143.8a.936.936,0,0,1-.355.478h-.418Z" transform="translate(-164.777 -322.544)" fill="#685e68"/>
        <path id="Trazado_1176555" data-name="Trazado 1176555" d="M113.29,434.311v-1.349a4.111,4.111,0,0,1,4.106-4.106h17.465a4.111,4.111,0,0,1,4.106,4.106v1.349Z" transform="translate(-102.435 -381.975)" fill="#fee45a"/>
      </g>
      <g id="Outline" transform="translate(0 16.578)">
        <path id="Trazado_1176556" data-name="Trazado 1176556" d="M174,123.146a1.84,1.84,0,0,0-1.838,1.838v9.373a1.838,1.838,0,1,0,3.676,0v-9.373A1.84,1.84,0,0,0,174,123.146Zm.914,11.211a.913.913,0,1,1-1.827,0v-9.373a.913.913,0,1,1,1.827,0Z" transform="translate(-152.268 -110.83)"/>
        <path id="Trazado_1176557" data-name="Trazado 1176557" d="M174,247.277a1.84,1.84,0,0,0-1.838,1.838v.817a1.838,1.838,0,1,0,3.676,0v-.817A1.84,1.84,0,0,0,174,247.277Zm.914,2.655a.913.913,0,1,1-1.827,0v-.817a.913.913,0,1,1,1.827,0Z" transform="translate(-152.268 -220.615)"/>
        <path id="Trazado_1176558" data-name="Trazado 1176558" d="M.162,35.662a21.836,21.836,0,0,0,0,5.3.462.462,0,0,0,.277.369l3.991,1.713A17.879,17.879,0,0,0,6.152,47.2L4.541,51.237a.462.462,0,0,0,.065.456,21.82,21.82,0,0,0,3.75,3.75.462.462,0,0,0,.456.065L12.847,53.9A17.838,17.838,0,0,0,17,55.619l1.714,3.992a.463.463,0,0,0,.369.277c.421.051.844.089,1.265.116l9.928,3.455H16.463a5.615,5.615,0,0,0-5.608,5.608v2.389a.462.462,0,0,0,.462.462H39.075a.462.462,0,0,0,.462-.462V69.067a5.617,5.617,0,0,0-4.508-5.5,2.56,2.56,0,0,0,.352-.672,2.074,2.074,0,0,0-1.068-2.71l-.742-.258.934-2.685,21.063,7.33a2.665,2.665,0,0,0,3.4-1.642l.06-.174a2.671,2.671,0,0,0-1.643-3.4L38.077,52.643q.407-.464.788-.949a.462.462,0,0,0,.065-.456l-.623-1.559a1.684,1.684,0,0,0,.237.018,2.177,2.177,0,0,0,1.971-1.554,2.074,2.074,0,0,0-1.068-2.71l-1.086-.378a17.815,17.815,0,0,0,.681-2.007l3.991-1.713a.462.462,0,0,0,.277-.369,21.8,21.8,0,0,0,0-5.3.462.462,0,0,0-.277-.369L39.042,33.58a17.871,17.871,0,0,0-1.724-4.154L38.93,25.39a.462.462,0,0,0-.065-.456,21.847,21.847,0,0,0-3.75-3.75.462.462,0,0,0-.456-.065l-4.035,1.611a17.914,17.914,0,0,0-4.153-1.724l-1.714-3.991a.462.462,0,0,0-.369-.277,21.815,21.815,0,0,0-5.3,0,.462.462,0,0,0-.369.277L17,21.007a17.9,17.9,0,0,0-4.154,1.724L8.812,21.12a.462.462,0,0,0-.456.065,21.825,21.825,0,0,0-3.75,3.75.462.462,0,0,0-.065.456l1.611,4.035A17.88,17.88,0,0,0,4.429,33.58L.438,35.294a.462.462,0,0,0-.277.369Zm.887.375L5,34.341a.462.462,0,0,0,.265-.309,16.961,16.961,0,0,1,1.8-4.335.462.462,0,0,0,.031-.406l-1.6-4a20.906,20.906,0,0,1,3.219-3.219l4,1.6a.463.463,0,0,0,.406-.031,16.977,16.977,0,0,1,4.335-1.8.463.463,0,0,0,.309-.265l1.7-3.951a20.839,20.839,0,0,1,4.553,0l1.7,3.951a.462.462,0,0,0,.308.265,16.994,16.994,0,0,1,4.335,1.8.463.463,0,0,0,.406.031l4-1.6A20.918,20.918,0,0,1,37.972,25.3l-1.6,4a.462.462,0,0,0,.031.406,16.951,16.951,0,0,1,1.8,4.335.463.463,0,0,0,.265.309l3.951,1.7a20.846,20.846,0,0,1,0,4.552l-3.951,1.7a.463.463,0,0,0-.265.309,16.859,16.859,0,0,1-.719,2.155l-3.714-1.292A13.082,13.082,0,1,0,24.1,51.191l-1.689,4.853-.742-.258a1.665,1.665,0,0,0-.549-.092,2.177,2.177,0,0,0-1.971,1.554,2.521,2.521,0,0,0-.137.705l-1.247-2.9a.463.463,0,0,0-.309-.265,16.916,16.916,0,0,1-4.335-1.8.462.462,0,0,0-.406-.031l-4,1.6A20.888,20.888,0,0,1,5.5,51.331l1.6-4a.462.462,0,0,0-.031-.406,16.952,16.952,0,0,1-1.8-4.335A.462.462,0,0,0,5,42.286l-3.951-1.7a20.893,20.893,0,0,1,0-4.552Zm38.593,11.8a1.278,1.278,0,0,1-1.1.933.743.743,0,0,1-.245-.041l-12.646-4.4a1.163,1.163,0,0,1-.5-1.533,1.278,1.278,0,0,1,1.1-.933.743.743,0,0,1,.245.041l12.646,4.4A1.163,1.163,0,0,1,39.642,47.839ZM58.151,62.453l-.061.174A1.74,1.74,0,0,1,55.872,63.7L34.808,56.37,36.015,52.9l21.063,7.33A1.745,1.745,0,0,1,58.151,62.453Zm-23.644.14a1.426,1.426,0,0,1-.767.866h-.65L20.518,59.084a1.163,1.163,0,0,1-.5-1.533,1.278,1.278,0,0,1,1.1-.933.744.744,0,0,1,.245.041l12.647,4.4A1.163,1.163,0,0,1,34.508,62.593Zm4.1,8.4H11.78V69.068a4.689,4.689,0,0,1,4.684-4.684H33.928a4.689,4.689,0,0,1,4.684,4.684v1.927ZM25.349,45.2l.742.258-1.64,4.714A12.172,12.172,0,1,1,32.9,43.153l-6.1-2.122a1.665,1.665,0,0,0-.549-.092,2.177,2.177,0,0,0-1.971,1.554,2.074,2.074,0,0,0,1.068,2.71ZM23.281,56.348l3.683-10.583,9.416,3.277L32.7,59.624Zm13.037-4.317.9-2.586.753,1.886c-.27.336-.551.663-.841.982Z" transform="translate(0 -16.578)"/>
      </g>
    </g>
  </g>
</svg>
