<svg xmlns="http://www.w3.org/2000/svg" xmlns:xlink="http://www.w3.org/1999/xlink" width="103" height="103" viewBox="0 0 103 103">
  <defs>
    <filter id="Trazado_982547" x="0" y="0" width="103" height="103" filterUnits="userSpaceOnUse">
      <feOffset dy="3" input="SourceAlpha"/>
      <feGaussianBlur stdDeviation="3" result="blur"/>
      <feFlood flood-opacity="0.161"/>
      <feComposite operator="in" in2="blur"/>
      <feComposite in="SourceGraphic"/>
    </filter>
  </defs>
  <g id="Grupo_1222952" data-name="Grupo 1222952" transform="translate(-509.13 -2008)">
    <g id="Grupo_1222803" data-name="Grupo 1222803" transform="translate(312.13 300.583)">
      <g id="Grupo_1201889" data-name="Grupo 1201889" transform="translate(206 1713.417)">
        <g id="Grupo_1201680" data-name="Grupo 1201680">
          <g id="Grupo_1201330" data-name="Grupo 1201330">
            <g id="Grupo_1172010" data-name="Grupo 1172010">
              <g id="Grupo_1171046" data-name="Grupo 1171046">
                <g id="Grupo_1148525" data-name="Grupo 1148525">
                  <g transform="matrix(1, 0, 0, 1, -9, -6)" filter="url(#Trazado_982547)">
                    <g id="Trazado_982547-2" data-name="Trazado 982547" transform="translate(9 6)" fill="#f2f4f0">
                      <path d="M 42.5 83.5 C 36.96437835693359 83.5 31.59512901306152 82.41617584228516 26.54141235351562 80.27863311767578 C 21.65934181213379 78.21369171142578 17.27447128295898 75.25723266601562 13.50862312316895 71.49137878417969 C 9.742764472961426 67.72553253173828 6.786305904388428 63.34066009521484 4.721364498138428 58.45858764648438 C 2.583823442459106 53.40486907958984 1.5 48.03562164306641 1.5 42.5 C 1.5 36.96437835693359 2.583823442459106 31.59512901306152 4.721364498138428 26.54141235351562 C 6.786305904388428 21.65934181213379 9.742764472961426 17.27448272705078 13.50862312316895 13.50862312316895 C 17.27447128295898 9.742776870727539 21.65934181213379 6.786305904388428 26.54141235351562 4.721364498138428 C 31.59512901306152 2.583823442459106 36.96437835693359 1.5 42.5 1.5 C 48.03562164306641 1.5 53.40486907958984 2.583823442459106 58.45858764648438 4.721364498138428 C 63.34066009521484 6.786305904388428 67.72553253173828 9.742776870727539 71.49137878417969 13.50862312316895 C 75.25723266601562 17.27448272705078 78.21369171142578 21.65934181213379 80.27863311767578 26.54141235351562 C 82.41617584228516 31.59512901306152 83.5 36.96437835693359 83.5 42.5 C 83.5 48.03562164306641 82.41617584228516 53.40486907958984 80.27863311767578 58.45858764648438 C 78.21369171142578 63.34066009521484 75.25723266601562 67.72553253173828 71.49137878417969 71.49137878417969 C 67.72553253173828 75.25723266601562 63.34066009521484 78.21369171142578 58.45858764648438 80.27863311767578 C 53.40486907958984 82.41617584228516 48.03562164306641 83.5 42.5 83.5 Z" stroke="none"/>
                      <path d="M 42.5 3 C 37.16621398925781 3 31.99356079101562 4.043960571289062 27.125732421875 6.102882385253906 C 22.42246627807617 8.092185974121094 18.19785308837891 10.94070434570312 14.56928253173828 14.56928253173828 C 10.94070434570312 18.19785308837891 8.092185974121094 22.42246627807617 6.102882385253906 27.125732421875 C 4.043960571289062 31.99356079101562 3 37.16621398925781 3 42.5 C 3 47.83378601074219 4.043960571289062 53.00643920898438 6.102882385253906 57.87425231933594 C 8.092185974121094 62.57753372192383 10.94070434570312 66.80213165283203 14.56928253173828 70.43071746826172 C 18.19786834716797 74.05929565429688 22.42246627807617 76.90781402587891 27.125732421875 78.89711761474609 C 31.99356079101562 80.95603942871094 37.16621398925781 82 42.5 82 C 47.83378601074219 82 53.00642395019531 80.95603942871094 57.87425231933594 78.89711761474609 C 62.57753372192383 76.90781402587891 66.80213165283203 74.05929565429688 70.43071746826172 70.43071746826172 C 74.05929565429688 66.80213165283203 76.90781402587891 62.57753372192383 78.89711761474609 57.87425231933594 C 80.95603942871094 53.00642395019531 82 47.83378601074219 82 42.5 C 82 37.16621398925781 80.95603942871094 31.99356079101562 78.89711761474609 27.125732421875 C 76.90781402587891 22.42246627807617 74.05929565429688 18.19786834716797 70.43071746826172 14.56928253173828 C 66.80213165283203 10.94070434570312 62.57753372192383 8.092185974121094 57.87425231933594 6.102882385253906 C 53.00643920898438 4.043960571289062 47.83378601074219 3 42.5 3 M 42.5 0 C 65.97209167480469 0 85 19.02789306640625 85 42.5 C 85 65.97209167480469 65.97209167480469 85 42.5 85 C 19.02789306640625 85 0 65.97209167480469 0 42.5 C 0 19.02789306640625 19.02789306640625 0 42.5 0 Z" stroke="none" fill="#899e78"/>
                    </g>
                  </g>
                </g>
              </g>
            </g>
          </g>
        </g>
      </g>
    </g>
    <g id="ask_10236289" transform="translate(530.138 2023.4)">
      <g id="Grupo_1222949" data-name="Grupo 1222949" transform="translate(2 2.1)">
        <path id="Trazado_1176509" data-name="Trazado 1176509" d="M31.537,10.464C29.331,7.339,32.915,2.1,32.915,2.1s3.584,5.239,1.379,8.364" transform="translate(-4.332 -2.1)" fill="#64c4f6" stroke="#101f2d" stroke-linecap="round" stroke-linejoin="round" stroke-miterlimit="10" stroke-width="2"/>
        <path id="Trazado_1176510" data-name="Trazado 1176510" d="M10.2,12.907s1.838.551,6.158-1.654c5.331-2.757,11.581-1.838,13.419.827" transform="translate(-2.663 -2.705)" fill="none" stroke="#101f2d" stroke-linecap="round" stroke-linejoin="round" stroke-miterlimit="10" stroke-width="2"/>
        <path id="Trazado_1176511" data-name="Trazado 1176511" d="M29.593,16.2H10.2" transform="translate(-2.663 -3.241)" fill="none" stroke="#101f2d" stroke-linecap="round" stroke-linejoin="round" stroke-miterlimit="10" stroke-width="2"/>
        <path id="Trazado_1176512" data-name="Trazado 1176512" d="M46.7,32.284,53.961,16.2" transform="translate(-5.617 -3.241)" fill="none" stroke="#101f2d" stroke-linecap="round" stroke-linejoin="round" stroke-miterlimit="10" stroke-width="2"/>
        <path id="Trazado_1176513" data-name="Trazado 1176513" d="M54.6,16.2l7.169,16.084" transform="translate(-6.256 -3.241)" fill="none" stroke="#101f2d" stroke-linecap="round" stroke-linejoin="round" stroke-miterlimit="10" stroke-width="2"/>
        <path id="Trazado_1176514" data-name="Trazado 1176514" d="M54.777,12.907s-1.838.551-6.158-1.654C43.288,8.5,37.038,9.415,35.2,12.08" transform="translate(-4.686 -2.705)" fill="none" stroke="#101f2d" stroke-linecap="round" stroke-linejoin="round" stroke-miterlimit="10" stroke-width="2"/>
        <path id="Trazado_1176515" data-name="Trazado 1176515" d="M35.4,16.2H54.793" transform="translate(-4.702 -3.241)" fill="none" stroke="#101f2d" stroke-linecap="round" stroke-linejoin="round" stroke-miterlimit="10" stroke-width="2"/>
        <path id="Trazado_1176516" data-name="Trazado 1176516" d="M57.534,14.417A3.217,3.217,0,1,1,54.317,11.2a3.256,3.256,0,0,1,3.217,3.217Z" transform="translate(-5.973 -2.836)" fill="#ef6561" stroke="#101f2d" stroke-linecap="round" stroke-linejoin="round" stroke-miterlimit="10" stroke-width="2"/>
        <path id="Trazado_1176517" data-name="Trazado 1176517" d="M18.993,32.468,12.1,16.2" transform="translate(-2.817 -3.241)" fill="none" stroke="#101f2d" stroke-linecap="round" stroke-linejoin="round" stroke-miterlimit="10" stroke-width="2"/>
        <path id="Trazado_1176518" data-name="Trazado 1176518" d="M11.42,16.2,3.7,32.192" transform="translate(-2.138 -3.241)" fill="none" stroke="#101f2d" stroke-linecap="round" stroke-linejoin="round" stroke-miterlimit="10" stroke-width="2"/>
        <circle id="Elipse_14682" data-name="Elipse 14682" cx="3.217" cy="3.217" r="3.217" transform="translate(6.066 8.364)" fill="#64c4f6" stroke="#101f2d" stroke-linecap="round" stroke-linejoin="round" stroke-miterlimit="10" stroke-width="2"/>
        <path id="Trazado_1176519" data-name="Trazado 1176519" d="M30,44.024l1.287-26.562A1.631,1.631,0,0,1,32.941,15.9,1.69,1.69,0,0,1,34.6,17.462L35.79,44.484" transform="translate(-4.265 -3.217)" fill="none" stroke="#101f2d" stroke-linecap="round" stroke-linejoin="round" stroke-miterlimit="10" stroke-width="2"/>
        <path id="Trazado_1176520" data-name="Trazado 1176520" d="M27.7,51.455a5.055,5.055,0,1,1,10.11,0" transform="translate(-4.079 -5.684)" fill="none" stroke="#101f2d" stroke-linecap="round" stroke-linejoin="round" stroke-miterlimit="10" stroke-width="2"/>
        <path id="Trazado_1176521" data-name="Trazado 1176521" d="M50.8,63.431H12.2V60.949A2.864,2.864,0,0,1,15.049,58.1h32.9A2.864,2.864,0,0,1,50.8,60.949Z" transform="translate(-2.825 -6.631)" fill="#64c4f6" stroke="#101f2d" stroke-linecap="round" stroke-linejoin="round" stroke-miterlimit="10" stroke-width="2"/>
        <path id="Trazado_1176522" data-name="Trazado 1176522" d="M46.192,57.731H17.7V55.249A2.864,2.864,0,0,1,20.549,52.4H43.435a2.864,2.864,0,0,1,2.849,2.849Z" transform="translate(-3.27 -6.17)" fill="none" stroke="#101f2d" stroke-linecap="round" stroke-linejoin="round" stroke-miterlimit="10" stroke-width="2"/>
        <path id="Trazado_1176523" data-name="Trazado 1176523" d="M37.223,13.712A4.412,4.412,0,1,1,32.812,9.3a4.413,4.413,0,0,1,4.412,4.412Z" transform="translate(-4.136 -2.683)" fill="#ef6561" stroke="#101f2d" stroke-linecap="round" stroke-linejoin="round" stroke-miterlimit="10" stroke-width="2"/>
        <g id="Grupo_1222948" data-name="Grupo 1222948" transform="translate(0 22.885)">
          <path id="Trazado_1176524" data-name="Trazado 1176524" d="M11.1,27A9.12,9.12,0,0,0,2,36.1,8.707,8.707,0,0,0,3.471,40.97L2.735,45.2l4.6-.827A8.99,8.99,0,0,0,11.1,45.2a9.12,9.12,0,0,0,9.1-9.1A9.241,9.241,0,0,0,11.1,27Z" transform="translate(-2 -27)" fill="#ef6561" stroke="#101f2d" stroke-linecap="round" stroke-linejoin="round" stroke-miterlimit="10" stroke-width="2"/>
          <g id="Grupo_1222947" data-name="Grupo 1222947" transform="translate(5.055 4.963)">
            <path id="Trazado_1176525" data-name="Trazado 1176525" d="M7.5,32.4h4.044" transform="translate(-7.5 -32.4)" fill="none" stroke="#101f2d" stroke-linecap="round" stroke-linejoin="round" stroke-miterlimit="10" stroke-width="2"/>
            <path id="Trazado_1176526" data-name="Trazado 1176526" d="M7.5,36.9h8" transform="translate(-7.5 -32.764)" fill="none" stroke="#101f2d" stroke-linecap="round" stroke-linejoin="round" stroke-miterlimit="10" stroke-width="2"/>
            <path id="Trazado_1176527" data-name="Trazado 1176527" d="M7.5,41.4h8" transform="translate(-7.5 -33.128)" fill="none" stroke="#101f2d" stroke-linecap="round" stroke-linejoin="round" stroke-miterlimit="10" stroke-width="2"/>
          </g>
        </g>
      </g>
      <g id="Grupo_1222950" data-name="Grupo 1222950" transform="translate(40.786 24.985)">
        <path id="Trazado_1176528" data-name="Trazado 1176528" d="M53.3,27a9.12,9.12,0,0,0-9.1,9.1,8.707,8.707,0,0,0,1.471,4.871L44.935,45.2l4.6-.827A8.99,8.99,0,0,0,53.3,45.2a9.1,9.1,0,1,0,0-18.2Z" transform="translate(-44.2 -27)" fill="#64c4f6" stroke="#101f2d" stroke-linecap="round" stroke-linejoin="round" stroke-miterlimit="10" stroke-width="2"/>
      </g>
      <g id="Grupo_1222951" data-name="Grupo 1222951" transform="translate(47.219 28.754)">
        <path id="Trazado_1176529" data-name="Trazado 1176529" d="M51.2,33.857A2.765,2.765,0,0,1,53.957,31.1a2.827,2.827,0,0,1,2.757,2.757,2.608,2.608,0,0,1-1.654,2.482,1.816,1.816,0,0,0-1.1,1.654v.46" transform="translate(-51.2 -31.1)" fill="none" stroke="#101f2d" stroke-linecap="round" stroke-linejoin="round" stroke-miterlimit="10" stroke-width="2"/>
        <path id="Trazado_1176530" data-name="Trazado 1176530" d="M54.1,41.7v.827" transform="translate(-51.435 -31.958)" fill="none" stroke="#101f2d" stroke-linecap="round" stroke-linejoin="round" stroke-miterlimit="10" stroke-width="2"/>
      </g>
    </g>
  </g>
</svg>
