<svg xmlns="http://www.w3.org/2000/svg" xmlns:xlink="http://www.w3.org/1999/xlink" width="103" height="103" viewBox="0 0 103 103">
  <defs>
    <filter id="Trazado_982547" x="0" y="0" width="103" height="103" filterUnits="userSpaceOnUse">
      <feOffset dy="3" input="SourceAlpha"/>
      <feGaussianBlur stdDeviation="3" result="blur"/>
      <feFlood flood-opacity="0.161"/>
      <feComposite operator="in" in2="blur"/>
      <feComposite in="SourceGraphic"/>
    </filter>
  </defs>
  <g id="Grupo_1222954" data-name="Grupo 1222954" transform="translate(-824.13 -2008)">
    <g id="Grupo_1222804" data-name="Grupo 1222804" transform="translate(627.13 300.583)">
      <g id="Grupo_1201889" data-name="Grupo 1201889" transform="translate(206 1713.417)">
        <g id="Grupo_1201680" data-name="Grupo 1201680">
          <g id="Grupo_1201330" data-name="Grupo 1201330">
            <g id="Grupo_1172010" data-name="Grupo 1172010">
              <g id="Grupo_1171046" data-name="Grupo 1171046">
                <g id="Grupo_1148525" data-name="Grupo 1148525">
                  <g transform="matrix(1, 0, 0, 1, -9, -6)" filter="url(#Trazado_982547)">
                    <g id="Trazado_982547-2" data-name="Trazado 982547" transform="translate(9 6)" fill="#f2f4f0">
                      <path d="M 42.5 83.5 C 36.96437835693359 83.5 31.59512901306152 82.41617584228516 26.54141235351562 80.27863311767578 C 21.65934181213379 78.21369171142578 17.27447128295898 75.25723266601562 13.50862312316895 71.49137878417969 C 9.742764472961426 67.72553253173828 6.786305904388428 63.34066009521484 4.721364498138428 58.45858764648438 C 2.583823442459106 53.40486907958984 1.5 48.03562164306641 1.5 42.5 C 1.5 36.96437835693359 2.583823442459106 31.59512901306152 4.721364498138428 26.54141235351562 C 6.786305904388428 21.65934181213379 9.742764472961426 17.27448272705078 13.50862312316895 13.50862312316895 C 17.27447128295898 9.742776870727539 21.65934181213379 6.786305904388428 26.54141235351562 4.721364498138428 C 31.59512901306152 2.583823442459106 36.96437835693359 1.5 42.5 1.5 C 48.03562164306641 1.5 53.40486907958984 2.583823442459106 58.45858764648438 4.721364498138428 C 63.34066009521484 6.786305904388428 67.72553253173828 9.742776870727539 71.49137878417969 13.50862312316895 C 75.25723266601562 17.27448272705078 78.21369171142578 21.65934181213379 80.27863311767578 26.54141235351562 C 82.41617584228516 31.59512901306152 83.5 36.96437835693359 83.5 42.5 C 83.5 48.03562164306641 82.41617584228516 53.40486907958984 80.27863311767578 58.45858764648438 C 78.21369171142578 63.34066009521484 75.25723266601562 67.72553253173828 71.49137878417969 71.49137878417969 C 67.72553253173828 75.25723266601562 63.34066009521484 78.21369171142578 58.45858764648438 80.27863311767578 C 53.40486907958984 82.41617584228516 48.03562164306641 83.5 42.5 83.5 Z" stroke="none"/>
                      <path d="M 42.5 3 C 37.16621398925781 3 31.99356079101562 4.043960571289062 27.125732421875 6.102882385253906 C 22.42246627807617 8.092185974121094 18.19785308837891 10.94070434570312 14.56928253173828 14.56928253173828 C 10.94070434570312 18.19785308837891 8.092185974121094 22.42246627807617 6.102882385253906 27.125732421875 C 4.043960571289062 31.99356079101562 3 37.16621398925781 3 42.5 C 3 47.83378601074219 4.043960571289062 53.00643920898438 6.102882385253906 57.87425231933594 C 8.092185974121094 62.57753372192383 10.94070434570312 66.80213165283203 14.56928253173828 70.43071746826172 C 18.19786834716797 74.05929565429688 22.42246627807617 76.90781402587891 27.125732421875 78.89711761474609 C 31.99356079101562 80.95603942871094 37.16621398925781 82 42.5 82 C 47.83378601074219 82 53.00642395019531 80.95603942871094 57.87425231933594 78.89711761474609 C 62.57753372192383 76.90781402587891 66.80213165283203 74.05929565429688 70.43071746826172 70.43071746826172 C 74.05929565429688 66.80213165283203 76.90781402587891 62.57753372192383 78.89711761474609 57.87425231933594 C 80.95603942871094 53.00642395019531 82 47.83378601074219 82 42.5 C 82 37.16621398925781 80.95603942871094 31.99356079101562 78.89711761474609 27.125732421875 C 76.90781402587891 22.42246627807617 74.05929565429688 18.19786834716797 70.43071746826172 14.56928253173828 C 66.80213165283203 10.94070434570312 62.57753372192383 8.092185974121094 57.87425231933594 6.102882385253906 C 53.00643920898438 4.043960571289062 47.83378601074219 3 42.5 3 M 42.5 0 C 65.97209167480469 0 85 19.02789306640625 85 42.5 C 85 65.97209167480469 65.97209167480469 85 42.5 85 C 19.02789306640625 85 0 65.97209167480469 0 42.5 C 0 19.02789306640625 19.02789306640625 0 42.5 0 Z" stroke="none" fill="#899e78"/>
                    </g>
                  </g>
                </g>
              </g>
            </g>
          </g>
        </g>
      </g>
    </g>
    <g id="censure_17977766" transform="translate(844.753 2025.05)">
      <path id="Trazado_1176531" data-name="Trazado 1176531" d="M122.593,455.651h21.671a2.539,2.539,0,0,1,2.252,1.3l2.094,3.627H118.247l2.094-3.627a2.54,2.54,0,0,1,2.252-1.3Z" transform="translate(-102.55 -402.2)" fill="#9b827a" fill-rule="evenodd"/>
      <path id="Trazado_1176532" data-name="Trazado 1176532" d="M224.26,102.095,226.5,58.309h2.513l2.242,43.786Z" transform="translate(-196.88 -48.644)" fill="#c9b0a9" fill-rule="evenodd"/>
      <g id="Grupo_1222953" data-name="Grupo 1222953" transform="translate(3.534 4.523)">
        <circle id="Elipse_14683" data-name="Elipse 14683" cx="3.435" cy="3.435" r="3.435" transform="translate(23.909 0)" fill="#ffd987"/>
        <path id="Trazado_1176533" data-name="Trazado 1176533" d="M383.608,167.107a7.464,7.464,0,1,1-14.929,0Z" transform="translate(-328.919 -149.975)" fill="#ffd987" fill-rule="evenodd"/>
        <path id="Trazado_1176534" data-name="Trazado 1176534" d="M22.8,167.107a7.464,7.464,0,0,1-14.928,0Z" transform="translate(-7.871 -149.975)" fill="#ffd987" fill-rule="evenodd"/>
        <circle id="Elipse_14684" data-name="Elipse 14684" cx="2.056" cy="2.056" r="2.056" transform="translate(4.781 6.153) rotate(-67.486)" fill="#ffd987"/>
        <circle id="Elipse_14685" data-name="Elipse 14685" cx="2.056" cy="2.056" r="2.056" transform="translate(45.168 2.984)" fill="#ffd987"/>
      </g>
      <path id="Trazado_1176535" data-name="Trazado 1176535" d="M162,186.9H141.814a2.792,2.792,0,0,1-2.418-4.187l10.091-17.478a2.792,2.792,0,0,1,4.835,0l10.091,17.478A2.792,2.792,0,0,1,162,186.9Z" transform="translate(-121.026 -142.546)" fill="#ff879b" fill-rule="evenodd"/>
      <path id="Trazado_1176536" data-name="Trazado 1176536" d="M241.769,214.212l.491,8.073a.843.843,0,0,0,.842.792h.376a.843.843,0,0,0,.842-.792l.491-8.073a.984.984,0,0,0-.982-1.044h-1.078a.984.984,0,0,0-.982,1.044Zm1.521,10.981a1.575,1.575,0,1,1-1.575,1.575A1.575,1.575,0,0,1,243.29,225.193Z" transform="translate(-212.412 -186.438)" fill="#fff" fill-rule="evenodd"/>
      <path id="Trazado_1176537" data-name="Trazado 1176537" d="M50.35,41.163a11.708,11.708,0,0,1-2.771,7.577l.636-.061a.881.881,0,1,1,.169,1.754l-3.192.307a.715.715,0,0,1-.084,0,.881.881,0,0,1-.873-1l.427-3.071a.881.881,0,1,1,1.746.241l-.08.574A9.979,9.979,0,0,0,44.352,33a.882.882,0,0,1,1.016-1.441A11.763,11.763,0,0,1,50.35,41.163ZM16.563,50.741l-3.191-.307a.881.881,0,0,1,.168-1.754l.636.061a11.742,11.742,0,0,1,2.21-17.177A.882.882,0,0,1,17.4,33a9.979,9.979,0,0,0-1.976,14.483l-.079-.574a.881.881,0,1,1,1.746-.241l.427,3.071a.881.881,0,0,1-.874,1,.738.738,0,0,1-.084,0Zm14.315-11.1a.694.694,0,1,1-.694.693A.694.694,0,0,1,30.877,39.637Zm0,3.15A2.457,2.457,0,1,0,28.42,40.33,2.46,2.46,0,0,0,30.877,42.787Zm-.614-15.143a.076.076,0,0,1,.075-.032h1.078a.1.1,0,0,1,.1.108l-.489,8.037h-.3l-.489-8.037a.077.077,0,0,1,.028-.076Zm-1.788.183.491,8.073a1.726,1.726,0,0,0,1.721,1.62h.377a1.726,1.726,0,0,0,1.721-1.62l.491-8.073a1.864,1.864,0,0,0-1.862-1.978H30.339a1.864,1.864,0,0,0-1.863,1.978ZM19.132,40.609a1.91,1.91,0,0,0,1.654,2.865H40.968a1.91,1.91,0,0,0,1.654-2.865L32.531,23.131a1.909,1.909,0,0,0-3.308,0ZM17.605,43.4a3.59,3.59,0,0,0,3.181,1.836H40.968a3.673,3.673,0,0,0,3.181-5.51L34.059,22.25a3.674,3.674,0,0,0-6.363,0L17.605,39.727a3.592,3.592,0,0,0,0,3.674ZM50.757,28.064a6.246,6.246,0,0,1-6.174-5.356h12.35A6.246,6.246,0,0,1,50.757,28.064Zm-.22-15.993c.072.007.146.01.22.01s.149,0,.222-.01l4.237,8.874H46.3l4.237-8.874Zm.22-3.265A.756.756,0,1,1,50,9.562a.757.757,0,0,1,.756-.756ZM30.877,10.512a2.554,2.554,0,1,1,2.554-2.553A2.557,2.557,0,0,1,30.877,10.512ZM6.539,20.945l4.237-8.874q.109.01.222.01c.074,0,.148,0,.221-.01l4.237,8.874ZM11,28.064a6.246,6.246,0,0,1-6.175-5.356h12.35A6.246,6.246,0,0,1,11,28.064ZM11,8.806a.756.756,0,1,1-.756.756A.757.757,0,0,1,11,8.806ZM57.876,20.945h-.706l-4.6-9.635A2.518,2.518,0,1,0,48.4,8.68H45.975a6.916,6.916,0,0,1-2.756-.523l-1.03-.424a8.723,8.723,0,0,0-3.427-.656H35.1a4.317,4.317,0,0,0-8.452,0h-3.66a8.724,8.724,0,0,0-3.427.656l-1.029.424a6.915,6.915,0,0,1-2.756.523H13.357a2.519,2.519,0,1,0-4.171,2.63l-4.6,9.635H3.879A.882.882,0,0,0,3,21.827a8,8,0,1,0,16,0,.882.882,0,0,0-.881-.881h-.707l-4.6-9.635a2.527,2.527,0,0,0,.549-.867h2.422a8.731,8.731,0,0,0,3.427-.656l1.029-.424a6.914,6.914,0,0,1,2.756-.523h3.66a4.326,4.326,0,0,0,1.986,2.807l-.391,7.626a.881.881,0,0,0,.835.926h.046a.881.881,0,0,0,.879-.836l.365-7.119a4.146,4.146,0,0,0,1.012,0l.364,7.119a.881.881,0,0,0,.879.836h.046a.882.882,0,0,0,.836-.926l-.392-7.626A4.327,4.327,0,0,0,35.1,8.84h3.66a6.912,6.912,0,0,1,2.756.523l1.029.424a8.732,8.732,0,0,0,3.427.656H48.4a2.528,2.528,0,0,0,.549.867l-4.6,9.635h-.706a.882.882,0,0,0-.881.881,8,8,0,1,0,16,0,.882.882,0,0,0-.881-.881ZM17.223,57.5l1.331-2.3a1.658,1.658,0,0,1,1.488-.859H41.713a1.658,1.658,0,0,1,1.488.859l1.331,2.3H17.223Zm27.5-3.186a3.4,3.4,0,0,0-3.015-1.741h-6.5l-.3-5.941a.882.882,0,1,0-1.761.09l.3,5.85H28.306l.3-5.85a.882.882,0,1,0-1.761-.09l-.3,5.941h-6.5a3.4,3.4,0,0,0-3.015,1.741l-2.093,3.627a.882.882,0,0,0,.763,1.322H46.058a.882.882,0,0,0,.764-1.322L44.728,54.31Z" fill-rule="evenodd"/>
    </g>
  </g>
</svg>
