<svg xmlns="http://www.w3.org/2000/svg" xmlns:xlink="http://www.w3.org/1999/xlink" width="108" height="108" viewBox="0 0 108 108">
  <defs>
    <filter id="Trazado_904820" x="0" y="0" width="108" height="108" filterUnits="userSpaceOnUse">
      <feOffset dy="3" input="SourceAlpha"/>
      <feGaussianBlur stdDeviation="3" result="blur"/>
      <feFlood flood-opacity="0.161"/>
      <feComposite operator="in" in2="blur"/>
      <feComposite in="SourceGraphic"/>
    </filter>
  </defs>
  <g id="Grupo_1174741" data-name="Grupo 1174741" transform="translate(9 6)">
    <g id="Grupo_1173585" data-name="Grupo 1173585" transform="translate(0 0)">
      <g id="Grupo_1173428" data-name="Grupo 1173428">
        <g id="Grupo_1171958" data-name="Grupo 1171958">
          <g id="Grupo_1167341" data-name="Grupo 1167341">
            <g id="Grupo_1166792" data-name="Grupo 1166792">
              <g transform="matrix(1, 0, 0, 1, -9, -6)" filter="url(#Trazado_904820)">
                <g id="Trazado_904820-2" data-name="Trazado 904820" transform="translate(9 6)" fill="#e7f2f8">
                  <path d="M 44.99996566772461 88.50004577636719 C 39.1268424987793 88.50004577636719 33.43020248413086 87.35012054443359 28.06827735900879 85.08220672607422 C 22.88851547241211 82.891357421875 18.23628997802734 79.75463104248047 14.24084091186523 75.75917816162109 C 10.24540328979492 71.76373291015625 7.108690738677979 67.11149597167969 4.91782808303833 61.93173217773438 C 2.649928092956543 56.56979370117188 1.500003218650818 50.87314224243164 1.500003218650818 45.00001907348633 C 1.500003218650818 39.12689590454102 2.649928092956543 33.43024444580078 4.91782808303833 28.06830596923828 C 7.108690738677979 22.88853073120117 10.24540328979492 18.23630714416504 14.24084091186523 14.24086952209473 C 18.23628997802734 10.2454195022583 22.88850402832031 7.108694076538086 28.06827735900879 4.917831420898438 C 33.43020248413086 2.649931669235229 39.1268424987793 1.500006556510925 44.99996566772461 1.500006556510925 C 50.87308883666992 1.500006556510925 56.56972885131836 2.649931669235229 61.9316520690918 4.917831420898438 C 67.11142730712891 7.108694076538086 71.76364135742188 10.2454195022583 75.75909423828125 14.24086952209473 C 79.75453186035156 18.23630714416504 82.89124298095703 22.88853073120117 85.08209991455078 28.06830596923828 C 87.35000610351562 33.43024444580078 88.49993133544922 39.12689590454102 88.49993133544922 45.00001907348633 C 88.49993133544922 50.87314224243164 87.35000610351562 56.56979370117188 85.08209991455078 61.93173217773438 C 82.89124298095703 67.11149597167969 79.75453186035156 71.76373291015625 75.75909423828125 75.75917816162109 C 71.76364135742188 79.75463104248047 67.11141204833984 82.891357421875 61.9316520690918 85.08220672607422 C 56.56972885131836 87.35012054443359 50.87308883666992 88.50004577636719 44.99996566772461 88.50004577636719 Z" stroke="none"/>
                  <path d="M 44.99996566772461 3.000007629394531 C 39.32867813110352 3.000007629394531 33.82863616943359 4.110061645507812 28.65260696411133 6.299346923828125 C 23.65163421630859 8.414573669433594 19.15968322753906 11.44334411621094 15.30149078369141 15.30152130126953 C 11.44332122802734 19.15969085693359 8.414566040039062 23.65166473388672 6.299324035644531 28.65263366699219 C 4.110054016113281 33.82867431640625 2.999992370605469 39.32873153686523 2.999992370605469 45.00001907348633 C 2.999992370605469 50.67130661010742 4.110054016113281 56.17136383056641 6.299324035644531 61.34738922119141 C 8.414566040039062 66.34837341308594 11.44332122802734 70.84033203125 15.30150604248047 74.69851684570312 C 19.15968322753906 78.55668640136719 23.65163421630859 81.58546447753906 28.65260696411133 83.70069122314453 C 33.82863616943359 85.88997650146484 39.32867813110352 87.00003051757812 44.99996566772461 87.00003051757812 C 50.6712532043457 87.00003051757812 56.17129516601562 85.88997650146484 61.34732055664062 83.70069122314453 C 66.34829711914062 81.58546447753906 70.84025573730469 78.55668640136719 74.69842529296875 74.69851684570312 C 78.55659484863281 70.84033203125 81.58536529541016 66.34837341308594 83.70059204101562 61.34740447998047 C 85.88986206054688 56.17136383056641 86.99992370605469 50.67130661010742 86.99992370605469 45.00001907348633 C 86.99992370605469 39.32873153686523 85.88986206054688 33.82867431640625 83.70059204101562 28.65263366699219 C 81.58536529541016 23.65166473388672 78.55659484863281 19.15969085693359 74.69842529296875 15.30152130126953 C 70.84025573730469 11.44334411621094 66.34829711914062 8.414573669433594 61.34732055664062 6.299346923828125 C 56.17129516601562 4.110061645507812 50.6712532043457 3.000007629394531 44.99996566772461 3.000007629394531 M 44.99996566772461 7.62939453125e-06 C 69.85276794433594 7.62939453125e-06 89.99992370605469 20.14719390869141 89.99992370605469 45.00001907348633 C 89.99992370605469 69.85282897949219 69.85276794433594 90.00003051757812 44.99996566772461 90.00003051757812 C 20.14716339111328 90.00003051757812 -7.62939453125e-06 69.85282897949219 -7.62939453125e-06 45.00001907348633 C -7.62939453125e-06 20.14719390869141 20.14716339111328 7.62939453125e-06 44.99996566772461 7.62939453125e-06 Z" stroke="none" fill="#248abf"/>
                </g>
              </g>
            </g>
          </g>
        </g>
      </g>
    </g>
    <g id="legislation_12249980_1_" data-name="legislation_12249980 (1)" transform="translate(-5.882 11.048)">
      <g id="Grupo_1222585" data-name="Grupo 1222585" transform="translate(25.748 28.562)">
        <path id="Trazado_1175563" data-name="Trazado 1175563" d="M58.574,212.522a7.206,7.206,0,1,0,14.412,0Z" transform="translate(-58.574 -212.522)" fill="#f5b000" fill-rule="evenodd"/>
        <path id="Trazado_1175564" data-name="Trazado 1175564" d="M80.911,219.654a7.207,7.207,0,0,0,6.177-7.133H74.733a7.207,7.207,0,0,0,6.178,7.133Z" transform="translate(-72.676 -212.521)" fill="#ffbd1c" fill-rule="evenodd"/>
      </g>
      <path id="Trazado_1175565" data-name="Trazado 1175565" d="M241.806,63.772h3.614V93.328h-3.614Z" transform="translate(-192.732 -54.146)" fill="#e3a76f"/>
      <circle id="Elipse_14648" data-name="Elipse 14648" cx="3.422" cy="3.422" r="3.422" transform="translate(46.418 8.053) rotate(-67.486)" fill="#f5b000"/>
      <path id="Trazado_1175566" data-name="Trazado 1175566" d="M245.913,10.962a3.423,3.423,0,1,1-2.513,3.3A3.424,3.424,0,0,1,245.913,10.962Z" transform="translate(-194.123 -8.058)" fill="#ffbd1c" fill-rule="evenodd"/>
      <path id="Trazado_1175567" data-name="Trazado 1175567" d="M127.54,413.627h42.5" transform="translate(-93.012 -359.464)" fill="none" stroke="#000" stroke-linejoin="round" stroke-width="12"/>
      <g id="Grupo_1222586" data-name="Grupo 1222586" transform="translate(21.724 42.84)">
        <path id="Trazado_1175568" data-name="Trazado 1175568" d="M36.016,339.776H84.5a.776.776,0,0,0,.773-.773v-2.228A.776.776,0,0,0,84.5,336H36.016v-7.549H84.5a.776.776,0,0,0,.773-.773v-2.228a.775.775,0,0,0-.773-.773h-53.7a3.854,3.854,0,0,0-3.843,3.843v7.412a3.854,3.854,0,0,0,3.843,3.843h5.21Z" transform="translate(-26.963 -324.678)" fill="#34ba82" fill-rule="evenodd"/>
        <path id="Trazado_1175569" data-name="Trazado 1175569" d="M54.342,339.776h48.487A.776.776,0,0,0,103.6,339v-2.228a.776.776,0,0,0-.773-.773H54.342v-7.549h48.487a.776.776,0,0,0,.773-.773v-2.228a.775.775,0,0,0-.773-.773H51.806a3.854,3.854,0,0,0-3.843,3.843v7.412a3.854,3.854,0,0,0,3.843,3.843h2.536Z" transform="translate(-45.29 -324.678)" fill="#4ac994" fill-rule="evenodd"/>
        <path id="Trazado_1175570" data-name="Trazado 1175570" d="M67.046,361.876h47.6v-7.549h-50.2a1.927,1.927,0,0,0-1.921,1.922v3.706a1.927,1.927,0,0,0,1.921,1.922Z" transform="translate(-57.994 -350.553)" fill="#f3f5fb" fill-rule="evenodd"/>
      </g>
      <path id="Trazado_1175571" data-name="Trazado 1175571" d="M163.1,377.977h39.319V379.5H163.1Z" transform="translate(-124.043 -328.352)" fill="#cdd4de"/>
      <path id="Trazado_1175572" data-name="Trazado 1175572" d="M165.912,276.577h22.937v-4.133a2.891,2.891,0,0,1-2.883-2.883H168.795a2.891,2.891,0,0,1-2.883,2.883Z" transform="translate(-126.5 -233.737)" fill="#c78b56" fill-rule="evenodd"/>
      <path id="Trazado_1175573" data-name="Trazado 1175573" d="M185.787,276.577h20.406v-4.133a2.891,2.891,0,0,1-2.883-2.883H188.67c0,1.586-1.584,4.649-2.883,4.506Z" transform="translate(-143.844 -233.737)" fill="#d09561" fill-rule="evenodd"/>
      <path id="Trazado_1175574" data-name="Trazado 1175574" d="M150.2,63.772v3.614H114.057V63.772H150.2Z" transform="translate(-81.246 -54.146)" fill="#ecba78" fill-rule="evenodd"/>
      <path id="Trazado_1175575" data-name="Trazado 1175575" d="M241.806,92.16h1.807v22.583h-1.807Z" transform="translate(-192.732 -78.92)" fill="#d09561"/>
      <g id="Grupo_1222587" data-name="Grupo 1222587" transform="translate(62.029 28.562)">
        <path id="Trazado_1175576" data-name="Trazado 1175576" d="M343.573,212.522a7.206,7.206,0,0,0,14.412,0H343.573Z" transform="translate(-343.573 -212.522)" fill="#f5b000" fill-rule="evenodd"/>
        <path id="Trazado_1175577" data-name="Trazado 1175577" d="M365.912,219.654a7.207,7.207,0,0,0,6.177-7.133H359.734a7.207,7.207,0,0,0,6.177,7.133Z" transform="translate(-357.677 -212.521)" fill="#ffbd1c" fill-rule="evenodd"/>
      </g>
      <path id="Trazado_1175578" data-name="Trazado 1175578" d="M114.057,63.772h1.807v3.614h-1.807Z" transform="translate(-81.246 -54.146)" fill="#e3a76f"/>
      <path id="Trazado_1175579" data-name="Trazado 1175579" d="M106.353,377.977H98.076v15.788l4.139-3.813,4.139,3.813Z" transform="translate(-67.299 -328.352)" fill="#fd7a6e" fill-rule="evenodd"/>
      <path id="Trazado_1175580" data-name="Trazado 1175580" d="M102.215,377.977H98.076v15.788l4.139-3.813Z" transform="translate(-67.299 -328.352)" fill="#fb695b" fill-rule="evenodd"/>
      <path id="Trazado_1175581" data-name="Trazado 1175581" d="M78.372,47.834h-50.2a2.689,2.689,0,0,0-2.685,2.685v3.706a2.688,2.688,0,0,0,2.685,2.685h1.841v2.247H25.567a3.082,3.082,0,0,1-3.079-3.079V48.666a3.082,3.082,0,0,1,3.079-3.079h53.7a.013.013,0,0,1,.01.01v2.228a.013.013,0,0,1-.01.01h-.891Zm.891,9.076H39.817v2.247H79.263a.013.013,0,0,0,.01-.01V56.92a.013.013,0,0,0-.01-.01Zm-1.655-3.774H39.817v2.247H77.608V53.136ZM39.054,51.608H77.609V49.362H28.172a1.159,1.159,0,0,0-1.158,1.158v3.706a1.159,1.159,0,0,0,1.158,1.157h1.841V52.372a.764.764,0,0,1,.764-.764h8.277ZM38.29,65.654V53.136H31.54V65.654L34.4,63.021a.765.765,0,0,1,1.035,0Zm1.886-24.281a3.659,3.659,0,0,0,2.8-2.8h15.8a3.659,3.659,0,0,0,2.8,2.8V44.06H40.176ZM51.924,15.988V37.043H49.838V15.988ZM33.575,14.46V12.373H68.186V14.46H33.575Zm5.491,15.1H26.556l6.255-12.617Zm-6.255,7.486a6.732,6.732,0,0,1-6.679-5.959H39.49a6.732,6.732,0,0,1-6.679,5.959ZM50.881,5.529a2.659,2.659,0,1,1-2.659,2.659,2.662,2.662,0,0,1,2.659-2.659ZM75.205,29.56H62.7L68.95,16.943ZM68.95,37.047a6.73,6.73,0,0,1-6.678-5.959H75.629a6.732,6.732,0,0,1-6.68,5.959ZM79.263,49.362A1.54,1.54,0,0,0,80.8,47.825V45.6a1.539,1.539,0,0,0-1.538-1.537H63.113V40.69a.764.764,0,0,0-.764-.764,2.121,2.121,0,0,1-2.119-2.119.764.764,0,0,0-.764-.764H53.452V15.988H67.719l-6.939,14h0a.755.755,0,0,0-.08.339,8.25,8.25,0,1,0,16.5,0,.755.755,0,0,0-.08-.339h0l-7.406-14.94V11.61a.763.763,0,0,0-.764-.764H54.112a4.187,4.187,0,1,0-6.463,0H32.811a.764.764,0,0,0-.764.764v3.435L24.64,29.985h0a.764.764,0,0,0-.08.339,8.25,8.25,0,0,0,16.5,0,.755.755,0,0,0-.08-.339h0l-6.939-14H48.31V37.043H42.295a.764.764,0,0,0-.764.764,2.121,2.121,0,0,1-2.119,2.119.764.764,0,0,0-.764.764v3.37H25.567a4.612,4.612,0,0,0-4.607,4.606v7.412a4.612,4.612,0,0,0,4.607,4.607h4.446V67.4a.764.764,0,0,0,1.281.562l3.621-3.336,3.621,3.336a.764.764,0,0,0,1.281-.562V60.685H79.263A1.539,1.539,0,0,0,80.8,59.148V56.92a1.54,1.54,0,0,0-1.538-1.537h-.127V49.361h.127Z" transform="translate(0 -1.983)" fill="#242222" fill-rule="evenodd"/>
    </g>
  </g>
</svg>
