<svg xmlns="http://www.w3.org/2000/svg" width="295" height="109.869" viewBox="0 0 295 109.869">
  <g id="Grupo_1222280" data-name="Grupo 1222280" transform="translate(-1125 -3433.633)">
    <g id="Grupo_1222206" data-name="Grupo 1222206">
      <rect id="Rect치ngulo_421164" data-name="Rect치ngulo 421164" width="295" height="57" transform="translate(1125 3463)" fill="#4a5641"/>
      <rect id="Rect치ngulo_421165" data-name="Rect치ngulo 421165" width="221" height="77" transform="translate(1162 3453)" fill="#899e78"/>
    </g>
    <g id="legislation_12249980" transform="translate(1200.04 3431.905)">
      <g id="Grupo_1222277" data-name="Grupo 1222277" transform="translate(29.123 47.474)">
        <path id="Trazado_1174328" data-name="Trazado 1174328" d="M58.574,212.522a12.284,12.284,0,1,0,24.569,0Z" transform="translate(-58.574 -212.522)" fill="#f5b000" fill-rule="evenodd"/>
        <path id="Trazado_1174329" data-name="Trazado 1174329" d="M85.264,224.68A12.287,12.287,0,0,0,95.8,212.521H74.733A12.287,12.287,0,0,0,85.264,224.68Z" transform="translate(-71.226 -212.521)" fill="#ffbd1c" fill-rule="evenodd"/>
      </g>
      <path id="Trazado_1174330" data-name="Trazado 1174330" d="M241.806,63.772h6.161v50.386h-6.161Z" transform="translate(-172.919 -48.579)" fill="#e3a76f"/>
      <circle id="Elipse_14596" data-name="Elipse 14596" cx="5.834" cy="5.834" r="5.834" transform="translate(64.36 12.51) rotate(-67.486)" fill="#f5b000"/>
      <path id="Trazado_1174331" data-name="Trazado 1174331" d="M247.685,10.962a5.836,5.836,0,0,1,0,11.252,5.836,5.836,0,0,1,0-11.252Z" transform="translate(-174.167 -7.23)" fill="#ffbd1c" fill-rule="evenodd"/>
      <path id="Trazado_1174332" data-name="Trazado 1174332" d="M127.54,413.627H200" transform="translate(-83.45 -322.51)" fill="none" stroke="#000" stroke-linejoin="round" stroke-width="12"/>
      <g id="Grupo_1222278" data-name="Grupo 1222278" transform="translate(22.263 71.814)">
        <path id="Trazado_1174333" data-name="Trazado 1174333" d="M42.4,350.416h82.659a1.322,1.322,0,0,0,1.318-1.318v-3.8a1.322,1.322,0,0,0-1.318-1.318H42.4V331.113h82.659a1.322,1.322,0,0,0,1.318-1.318V326a1.322,1.322,0,0,0-1.318-1.318H33.514a6.57,6.57,0,0,0-6.551,6.551v12.636a6.571,6.571,0,0,0,6.551,6.551H42.4Z" transform="translate(-26.963 -324.678)" fill="#34ba82" fill-rule="evenodd"/>
        <path id="Trazado_1174334" data-name="Trazado 1174334" d="M58.838,350.416H141.5a1.322,1.322,0,0,0,1.318-1.318v-3.8a1.322,1.322,0,0,0-1.318-1.318H58.838V331.113H141.5a1.322,1.322,0,0,0,1.318-1.318V326a1.322,1.322,0,0,0-1.318-1.318H54.514a6.57,6.57,0,0,0-6.551,6.551v12.636a6.57,6.57,0,0,0,6.551,6.551h4.324Z" transform="translate(-43.406 -324.678)" fill="#4ac994" fill-rule="evenodd"/>
        <path id="Trazado_1174335" data-name="Trazado 1174335" d="M70.236,367.2h81.139V354.327H65.8A3.285,3.285,0,0,0,62.52,357.6v6.318A3.285,3.285,0,0,0,65.8,367.2Z" transform="translate(-54.804 -347.893)" fill="#f3f5fb" fill-rule="evenodd"/>
      </g>
      <path id="Trazado_1174336" data-name="Trazado 1174336" d="M163.1,377.977h67.029v2.6H163.1Z" transform="translate(-111.291 -294.596)" fill="#cdd4de"/>
      <path id="Trazado_1174337" data-name="Trazado 1174337" d="M165.912,281.522h39.1v-7.047a4.929,4.929,0,0,1-4.915-4.915H170.827a4.929,4.929,0,0,1-4.915,4.915Z" transform="translate(-113.495 -209.709)" fill="#c78b56" fill-rule="evenodd"/>
      <path id="Trazado_1174338" data-name="Trazado 1174338" d="M185.787,281.522h34.788v-7.047a4.929,4.929,0,0,1-4.915-4.915H190.7c0,2.7-2.7,7.926-4.915,7.682Z" transform="translate(-129.057 -209.709)" fill="#d09561" fill-rule="evenodd"/>
      <path id="Trazado_1174339" data-name="Trazado 1174339" d="M175.665,63.772v6.161H114.057V63.772h61.608Z" transform="translate(-72.893 -48.579)" fill="#ecba78" fill-rule="evenodd"/>
      <path id="Trazado_1174340" data-name="Trazado 1174340" d="M241.806,92.16h3.08v38.5h-3.08Z" transform="translate(-172.919 -70.807)" fill="#d09561"/>
      <g id="Grupo_1222279" data-name="Grupo 1222279" transform="translate(90.972 47.474)">
        <path id="Trazado_1174341" data-name="Trazado 1174341" d="M343.573,212.522a12.284,12.284,0,1,0,24.569,0H343.573Z" transform="translate(-343.573 -212.522)" fill="#f5b000" fill-rule="evenodd"/>
        <path id="Trazado_1174342" data-name="Trazado 1174342" d="M370.265,224.68A12.287,12.287,0,0,0,380.8,212.521H359.734a12.287,12.287,0,0,0,10.531,12.159Z" transform="translate(-356.227 -212.521)" fill="#ffbd1c" fill-rule="evenodd"/>
      </g>
      <path id="Trazado_1174343" data-name="Trazado 1174343" d="M114.057,63.772h3.08v6.161h-3.08Z" transform="translate(-72.893 -48.579)" fill="#e3a76f"/>
      <path id="Trazado_1174344" data-name="Trazado 1174344" d="M112.186,377.977H98.076v26.915l7.055-6.5,7.055,6.5Z" transform="translate(-60.381 -294.596)" fill="#fd7a6e" fill-rule="evenodd"/>
      <path id="Trazado_1174345" data-name="Trazado 1174345" d="M105.131,377.977H98.076v26.915l7.055-6.5Z" transform="translate(-60.381 -294.596)" fill="#fb695b" fill-rule="evenodd"/>
      <path id="Trazado_1174346" data-name="Trazado 1174346" d="M118.834,78.726H33.254A4.583,4.583,0,0,0,28.676,83.3v6.318A4.583,4.583,0,0,0,33.254,94.2h3.138v3.83H28.814a5.255,5.255,0,0,1-5.249-5.249V80.144a5.255,5.255,0,0,1,5.249-5.249h91.539a.021.021,0,0,1,.017.016v3.8a.023.023,0,0,1-.017.016h-1.519ZM120.353,94.2H53.107v3.83h67.246a.023.023,0,0,0,.017-.016v-3.8a.023.023,0,0,0-.017-.016Zm-2.821-6.435H53.107v3.83h64.424v-3.83Zm-65.727-2.6h65.727V81.33H33.254A1.976,1.976,0,0,0,31.28,83.3v6.318a1.976,1.976,0,0,0,1.974,1.973h3.138V86.462a1.3,1.3,0,0,1,1.3-1.3H51.805ZM50.5,109.1V87.764H39V109.1l4.871-4.488a1.3,1.3,0,0,1,1.765,0Zm3.216-41.393A6.237,6.237,0,0,0,58.5,62.933H85.438a6.238,6.238,0,0,0,4.778,4.778v4.58h-36.5ZM73.746,24.435V60.33H70.189V24.435Zm-31.281-2.6V18.274h59v3.557h-59Zm9.361,25.743H30.5l10.662-21.51ZM41.163,60.336A11.476,11.476,0,0,1,29.777,50.178H52.549A11.476,11.476,0,0,1,41.163,60.336Zm30.8-53.73a4.533,4.533,0,1,1-4.532,4.532A4.538,4.538,0,0,1,71.967,6.605Zm41.468,40.969H92.109l10.662-21.51ZM102.771,60.336A11.474,11.474,0,0,1,91.385,50.178h22.772a11.477,11.477,0,0,1-11.387,10.158ZM120.353,81.33a2.625,2.625,0,0,0,2.622-2.62v-3.8a2.624,2.624,0,0,0-2.622-2.62H92.82V66.546a1.3,1.3,0,0,0-1.3-1.3,3.616,3.616,0,0,1-3.612-3.612,1.3,1.3,0,0,0-1.3-1.3H76.35V24.435h24.322L88.843,48.3h0a1.288,1.288,0,0,0-.137.577,14.064,14.064,0,1,0,28.127,0,1.288,1.288,0,0,0-.137-.577h0L104.072,22.828V16.972a1.3,1.3,0,0,0-1.3-1.3H77.476a7.138,7.138,0,1,0-11.017,0h-25.3a1.3,1.3,0,0,0-1.3,1.3v5.856L27.234,48.3h0a1.3,1.3,0,0,0-.137.577,14.064,14.064,0,1,0,28.128,0,1.288,1.288,0,0,0-.137-.577h0L43.261,24.435H67.584V60.33H57.331a1.3,1.3,0,0,0-1.3,1.3,3.616,3.616,0,0,1-3.612,3.612,1.3,1.3,0,0,0-1.3,1.3v5.745h-22.3a7.862,7.862,0,0,0-7.854,7.853V92.78a7.862,7.862,0,0,0,7.854,7.853h7.579v11.442a1.3,1.3,0,0,0,2.184.958l6.173-5.688,6.173,5.688a1.3,1.3,0,0,0,2.184-.958V100.633h67.246a2.624,2.624,0,0,0,2.622-2.62v-3.8a2.625,2.625,0,0,0-2.622-2.62h-.217V81.329h.217Z" transform="translate(0 -1.78)" fill="#242222" fill-rule="evenodd"/>
    </g>
  </g>
</svg>
