<svg xmlns="http://www.w3.org/2000/svg" xmlns:xlink="http://www.w3.org/1999/xlink" width="113" height="113" viewBox="0 0 113 113">
  <defs>
    <filter id="Trazado_982547" x="0" y="0" width="113" height="113" filterUnits="userSpaceOnUse">
      <feOffset dy="3" input="SourceAlpha"/>
      <feGaussianBlur stdDeviation="3" result="blur"/>
      <feFlood flood-opacity="0.161"/>
      <feComposite operator="in" in2="blur"/>
      <feComposite in="SourceGraphic"/>
    </filter>
  </defs>
  <g id="Grupo_1223007" data-name="Grupo 1223007" transform="translate(-14392 -2624.678)">
    <g id="Grupo_1222884" data-name="Grupo 1222884" transform="translate(13575 -8441.852)">
      <g id="Grupo_1222661" data-name="Grupo 1222661">
        <g id="Grupo_1222485" data-name="Grupo 1222485" transform="translate(826 11072.529)">
          <g id="Grupo_1208010" data-name="Grupo 1208010" transform="translate(0 0)">
            <g id="Grupo_1202142" data-name="Grupo 1202142" transform="translate(0 0)">
              <g id="Grupo_1201923" data-name="Grupo 1201923">
                <g id="Grupo_1176928" data-name="Grupo 1176928" transform="translate(0)">
                  <g id="Grupo_1172322" data-name="Grupo 1172322">
                    <g id="Grupo_1164700" data-name="Grupo 1164700">
                      <g id="Grupo_1160931" data-name="Grupo 1160931">
                        <g id="Grupo_1160749" data-name="Grupo 1160749">
                          <g id="Grupo_1158891" data-name="Grupo 1158891">
                            <g id="Grupo_1157406" data-name="Grupo 1157406">
                              <g id="Grupo_1155793" data-name="Grupo 1155793">
                                <g id="Grupo_1154704" data-name="Grupo 1154704">
                                  <g id="Grupo_1150790" data-name="Grupo 1150790">
                                    <g id="Grupo_1154214" data-name="Grupo 1154214" transform="translate(0)">
                                      <g id="Grupo_1152583" data-name="Grupo 1152583">
                                        <g id="Grupo_1146973" data-name="Grupo 1146973">
                                          <g id="Grupo_1146954" data-name="Grupo 1146954">
                                            <g transform="matrix(1, 0, 0, 1, -9, -6)" filter="url(#Trazado_982547)">
                                              <g id="Trazado_982547-2" data-name="Trazado 982547" transform="translate(9 6)" fill="#f2f4f0">
                                                <path d="M 47.5 93.49984741210938 C 41.28938674926758 93.49984741210938 35.26533508300781 92.2838134765625 29.59519958496094 89.88556671142578 C 24.11773300170898 87.56878662109375 19.19814682006836 84.25181579589844 14.97310638427734 80.02677917480469 C 10.74805355072021 75.80173492431641 7.431079864501953 70.88216400146484 5.114306449890137 65.40470886230469 C 2.716039896011353 59.73457717895508 1.50001335144043 53.71053695678711 1.50001335144043 47.49992370605469 C 1.50001335144043 41.28931045532227 2.716039896011353 35.2652702331543 5.114306449890137 29.59513664245605 C 7.431079864501953 24.11768341064453 10.74805355072021 19.19811058044434 14.97310638427734 14.97307014465332 C 19.19814682006836 10.74803066253662 24.11773300170898 7.431056976318359 29.59519958496094 5.114283561706543 C 35.26533508300781 2.716030359268188 41.28938674926758 1.500003695487976 47.5 1.500003695487976 C 53.71062850952148 1.500003695487976 59.73466491699219 2.716030359268188 65.40481567382812 5.114283561706543 C 70.88227844238281 7.431056976318359 75.80186462402344 10.74803066253662 80.02690887451172 14.97307014465332 C 84.25196075439453 19.19811058044434 87.56893157958984 24.11768341064453 89.88570404052734 29.59513664245605 C 92.28397369384766 35.2652702331543 93.5 41.28931045532227 93.5 47.49992370605469 C 93.5 53.71053695678711 92.28397369384766 59.73457717895508 89.88570404052734 65.40470886230469 C 87.56893157958984 70.88216400146484 84.25196075439453 75.80173492431641 80.02690887451172 80.02677917480469 C 75.80186462402344 84.25181579589844 70.88227844238281 87.56878662109375 65.40481567382812 89.88556671142578 C 59.73466491699219 92.2838134765625 53.71062850952148 93.49984741210938 47.5 93.49984741210938 Z" stroke="none"/>
                                                <path d="M 47.5 3 C 41.49121475219727 3 35.66376876831055 4.176155090332031 30.17951965332031 6.495803833007812 C 24.88084411621094 8.7369384765625 20.12152099609375 11.94596862792969 16.03375244140625 16.03372192382812 C 11.94598388671875 20.12149047851562 8.736953735351562 24.88081359863281 6.495796203613281 30.17947387695312 C 4.176155090332031 35.6637077331543 3 41.49115371704102 3 47.49992370605469 C 3 53.50869369506836 4.176155090332031 59.33613967895508 6.495796203613281 64.82037353515625 C 8.736953735351562 70.11903381347656 11.94598388671875 74.87835693359375 16.03375244140625 78.96612548828125 C 20.12152099609375 83.05387878417969 24.88084411621094 86.26290893554688 30.17951965332031 88.50404357910156 C 35.66376876831055 90.82369232177734 41.49121475219727 91.99984741210938 47.5 91.99984741210938 C 53.50878524780273 91.99984741210938 59.33623123168945 90.82369232177734 64.82049560546875 88.50404357910156 C 70.11915588378906 86.26290893554688 74.87847900390625 83.05387878417969 78.96624755859375 78.96612548828125 C 83.05401611328125 74.87835693359375 86.26304626464844 70.11903381347656 88.50418090820312 64.82037353515625 C 90.82382965087891 59.33613967895508 91.99998474121094 53.50869369506836 91.99998474121094 47.49992370605469 C 91.99998474121094 41.49115371704102 90.82382965087891 35.6637077331543 88.50418090820312 30.17947387695312 C 86.26304626464844 24.88081359863281 83.05401611328125 20.12149047851562 78.96624755859375 16.03372192382812 C 74.87847900390625 11.94596862792969 70.11915588378906 8.7369384765625 64.82049560546875 6.495803833007812 C 59.33623123168945 4.176155090332031 53.50878524780273 3 47.5 3 M 47.5 0 C 73.7335205078125 0 94.99998474121094 21.26644897460938 94.99998474121094 47.49992370605469 C 94.99998474121094 73.7333984375 73.7335205078125 94.99984741210938 47.5 94.99984741210938 C 21.26649475097656 94.99984741210938 0 73.7333984375 0 47.49992370605469 C 0 21.26644897460938 21.26649475097656 0 47.5 0 Z" stroke="none" fill="#899e78"/>
                                              </g>
                                            </g>
                                          </g>
                                        </g>
                                      </g>
                                    </g>
                                  </g>
                                </g>
                              </g>
                            </g>
                          </g>
                        </g>
                      </g>
                    </g>
                  </g>
                </g>
              </g>
            </g>
          </g>
        </g>
      </g>
    </g>
    <g id="justice_3852237" transform="translate(14412.979 2647.581)">
      <path id="Trazado_1176789" data-name="Trazado 1176789" d="M51.336,49.548V44.885a8.141,8.141,0,0,0,5.088-7.549V24.615a2.544,2.544,0,0,0-5.088,0V22.58a2.544,2.544,0,1,0-5.088,0V20.544a2.544,2.544,0,1,0-5.088,0V22.58a2.544,2.544,0,1,0-5.088,0v2.544A4.071,4.071,0,0,0,32,29.194v8.141a8.141,8.141,0,0,0,5.088,7.55v4.662Z" transform="translate(0.551 0.301)" fill="#fbe1ca"/>
      <g id="Grupo_1223006" data-name="Grupo 1223006" transform="translate(36.622 22.88)">
        <path id="Trazado_1176790" data-name="Trazado 1176790" d="M50.027,24.5v7.124A1.527,1.527,0,0,1,48.5,33.15v2.035a3.562,3.562,0,0,0,3.562-3.562V24.5Z" transform="translate(-35.779 -22.465)" fill="#f2b9a1"/>
        <path id="Trazado_1176791" data-name="Trazado 1176791" d="M38.035,35.267v-.113a3.526,3.526,0,0,0,.509.041,3.562,3.562,0,0,0,3.562-3.562v-.866A3.554,3.554,0,0,0,40.58,24H36v2.035h4.58a1.527,1.527,0,1,1,0,3.053H37.018A1.018,1.018,0,0,0,36,30.106v6.106a1.018,1.018,0,0,0,1.018,1.018,5.1,5.1,0,0,1,5.088,5.088h2.035A7.135,7.135,0,0,0,38.035,35.267Zm2.035-4.143v.509a1.518,1.518,0,0,1-2.035,1.436V31.124Z" transform="translate(-36 -22.473)" fill="#f2b9a1"/>
        <path id="Trazado_1176792" data-name="Trazado 1176792" d="M45.027,31.659A1.527,1.527,0,0,1,43.5,33.186v2.035a3.562,3.562,0,0,0,3.562-3.562V22.5H45.027Z" transform="translate(-35.867 -22.5)" fill="#f2b9a1"/>
      </g>
      <path id="Trazado_1176793" data-name="Trazado 1176793" d="M35,49H53.318V62.23H35Z" transform="translate(0.604 0.849)" fill="#f0ae42"/>
      <path id="Trazado_1176794" data-name="Trazado 1176794" d="M35,53H49.248v9.159H35Z" transform="translate(0.604 0.919)" fill="#f9d266"/>
      <path id="Trazado_1176795" data-name="Trazado 1176795" d="M41,2h6.106L46.088,14.212H42.018Z" transform="translate(0.71 0.018)" fill="#f0ae42"/>
      <path id="Trazado_1176796" data-name="Trazado 1176796" d="M58.141,6l4.071,4.07-9.159,8.142L50,15.159Z" transform="translate(0.869 0.088)" fill="#f9d266"/>
      <path id="Trazado_1176797" data-name="Trazado 1176797" d="M30.071,6,26,10.071l9.159,8.141,3.053-3.053Z" transform="translate(0.445 0.088)" fill="#f3a748"/>
      <path id="Trazado_1176798" data-name="Trazado 1176798" d="M14.212,38.424,20.318,42.5V36.79a12.212,12.212,0,1,0-6.106,1.634Z" transform="translate(0.02 0.23)" fill="#c18e59"/>
      <path id="Trazado_1176799" data-name="Trazado 1176799" d="M22.282,23.07V21.034H15.159V19H13.124v2.034H6v2.035H8.035v4.071H7.018v2.035h4.071V27.141H10.071V23.071h3.053V33.248H11.088v2.035h6.106V33.248H15.159V23.07h3.053v4.072H17.194v2.035h4.071V27.141H20.248V23.07Z" transform="translate(0.091 0.318)" fill="#f0ae42"/>
      <path id="Trazado_1176800" data-name="Trazado 1176800" d="M53.9,21.071a3.524,3.524,0,0,0-1.709.456A3.509,3.509,0,0,0,47.1,19.491a3.538,3.538,0,0,0-6.759,0,3.524,3.524,0,0,0-1.709-.456A3.562,3.562,0,0,0,35.071,22.6v1.628A5.1,5.1,0,0,0,31,29.212v8.141a9.119,9.119,0,0,0,5.088,8.208v2.987H35.071a1.018,1.018,0,0,0-1.018,1.018V62.8a1.018,1.018,0,0,0,1.018,1.018H53.389A1.018,1.018,0,0,0,54.407,62.8V49.566a1.018,1.018,0,0,0-1.018-1.018H52.371V45.561a9.119,9.119,0,0,0,5.088-8.208V24.633A3.562,3.562,0,0,0,53.9,21.071Zm-5.088,0A1.527,1.527,0,0,1,50.336,22.6v9.159a1.527,1.527,0,1,1-3.053,0V22.6a1.527,1.527,0,0,1,1.527-1.527Zm-6.615-.509a1.527,1.527,0,1,1,3.053,0V31.756a1.527,1.527,0,1,1-3.053,0V30.89a3.541,3.541,0,0,0,0-6.411ZM40.159,31.756a1.527,1.527,0,0,1-1.527,1.527,1.506,1.506,0,0,1-.509-.092V31.248h2.035ZM38.633,21.071A1.527,1.527,0,0,1,40.159,22.6v1.527H37.106V22.6A1.527,1.527,0,0,1,38.633,21.071ZM52.371,61.778H36.088V50.583H52.371Zm-1.4-17.818a1.018,1.018,0,0,0-.636.942v3.645H38.124V44.9a1.018,1.018,0,0,0-.636-.942,7.1,7.1,0,0,1-4.452-6.607V29.212a3.053,3.053,0,0,1,3.053-3.053h4.58a1.527,1.527,0,1,1,0,3.053H37.106a1.018,1.018,0,0,0-1.018,1.018v6.106a1.018,1.018,0,0,0,1.018,1.018,5.1,5.1,0,0,1,5.088,5.088H44.23a7.135,7.135,0,0,0-6.106-7.052v-.113a3.49,3.49,0,0,0,3.053-1.036,3.545,3.545,0,0,0,5.088,0,3.545,3.545,0,0,0,5.088,0,3.507,3.507,0,0,0,4.071.72v2.393a7.1,7.1,0,0,1-4.452,6.607Zm4.452-12.2a1.527,1.527,0,1,1-3.053,0V24.633a1.527,1.527,0,1,1,3.053,0Z" transform="translate(0.533 0.283)"/>
      <path id="Trazado_1176801" data-name="Trazado 1176801" d="M42.035,15.248h4.071a1.018,1.018,0,0,0,1.018-.933L48.142,2.1A1.018,1.018,0,0,0,47.124,1H41.018A1.018,1.018,0,0,0,40,2.1l1.018,12.212A1.018,1.018,0,0,0,42.035,15.248ZM46.018,3.035,45.17,13.212h-2.2L42.124,3.035Z" transform="translate(0.692 0)"/>
      <path id="Trazado_1176802" data-name="Trazado 1176802" d="M62.949,9.368,58.879,5.3A1,1,0,0,0,58.13,5a1.018,1.018,0,0,0-.731.341L49.257,14.5a1.018,1.018,0,0,0,.041,1.4l3.053,3.053a1.018,1.018,0,0,0,1.4.042l9.159-8.141a1.018,1.018,0,0,0,.044-1.481Zm-9.838,7.464-1.7-1.7L58.2,7.5l2.544,2.544Z" transform="translate(0.851 0.071)"/>
      <path id="Trazado_1176803" data-name="Trazado 1176803" d="M34.5,18.991a1.018,1.018,0,0,0,1.4-.042L38.949,15.9a1.018,1.018,0,0,0,.041-1.4L30.849,5.341a1.018,1.018,0,0,0-1.48-.043L25.3,9.369a1.018,1.018,0,0,0,.044,1.481ZM30.045,7.5l6.787,7.633-1.7,1.7L27.5,10.045Z" transform="translate(0.427 0.071)"/>
      <path id="Trazado_1176804" data-name="Trazado 1176804" d="M14.233,13a13.231,13.231,0,0,0-.314,26.46l5.856,3.9a1.018,1.018,0,0,0,1.582-.85V37.38A13.23,13.23,0,0,0,14.233,13Zm5.6,22.927a1.018,1.018,0,0,0-.509.881v3.8L14.8,37.6a1.024,1.024,0,0,0-.565-.171,11.189,11.189,0,1,1,5.6-1.5Z" transform="translate(0 0.212)"/>
      <path id="Trazado_1176805" data-name="Trazado 1176805" d="M15.159,19H13.124v2.034H6v2.035H8.035v4.071H7.018v2.035h4.071V27.141H10.071V23.071h3.053V33.248H11.088v2.035h6.106V33.248H15.159V23.07h3.053v4.072H17.194v2.035h4.071V27.141H20.248V23.07h2.034V21.034H15.159Z" transform="translate(0.091 0.318)"/>
    </g>
  </g>
</svg>
