<svg xmlns="http://www.w3.org/2000/svg" xmlns:xlink="http://www.w3.org/1999/xlink" width="113" height="113" viewBox="0 0 113 113">
  <defs>
    <filter id="Trazado_982547" x="0" y="0" width="113" height="113" filterUnits="userSpaceOnUse">
      <feOffset dy="3" input="SourceAlpha"/>
      <feGaussianBlur stdDeviation="3" result="blur"/>
      <feFlood flood-opacity="0.161"/>
      <feComposite operator="in" in2="blur"/>
      <feComposite in="SourceGraphic"/>
    </filter>
  </defs>
  <g id="Grupo_1223043" data-name="Grupo 1223043" transform="translate(-14061 -3382.678)">
    <g id="Grupo_1222887" data-name="Grupo 1222887" transform="translate(13244 -7683.852)">
      <g id="Grupo_1222661" data-name="Grupo 1222661">
        <g id="Grupo_1222485" data-name="Grupo 1222485" transform="translate(826 11072.529)">
          <g id="Grupo_1208010" data-name="Grupo 1208010" transform="translate(0 0)">
            <g id="Grupo_1202142" data-name="Grupo 1202142" transform="translate(0 0)">
              <g id="Grupo_1201923" data-name="Grupo 1201923">
                <g id="Grupo_1176928" data-name="Grupo 1176928" transform="translate(0)">
                  <g id="Grupo_1172322" data-name="Grupo 1172322">
                    <g id="Grupo_1164700" data-name="Grupo 1164700">
                      <g id="Grupo_1160931" data-name="Grupo 1160931">
                        <g id="Grupo_1160749" data-name="Grupo 1160749">
                          <g id="Grupo_1158891" data-name="Grupo 1158891">
                            <g id="Grupo_1157406" data-name="Grupo 1157406">
                              <g id="Grupo_1155793" data-name="Grupo 1155793">
                                <g id="Grupo_1154704" data-name="Grupo 1154704">
                                  <g id="Grupo_1150790" data-name="Grupo 1150790">
                                    <g id="Grupo_1154214" data-name="Grupo 1154214" transform="translate(0)">
                                      <g id="Grupo_1152583" data-name="Grupo 1152583">
                                        <g id="Grupo_1146973" data-name="Grupo 1146973">
                                          <g id="Grupo_1146954" data-name="Grupo 1146954">
                                            <g transform="matrix(1, 0, 0, 1, -9, -6)" filter="url(#Trazado_982547)">
                                              <g id="Trazado_982547-2" data-name="Trazado 982547" transform="translate(9 6)" fill="#f2f4f0">
                                                <path d="M 47.5 93.49984741210938 C 41.28938674926758 93.49984741210938 35.26533508300781 92.2838134765625 29.59519958496094 89.88556671142578 C 24.11773300170898 87.56878662109375 19.19814682006836 84.25181579589844 14.97310638427734 80.02677917480469 C 10.74805355072021 75.80173492431641 7.431079864501953 70.88216400146484 5.114306449890137 65.40470886230469 C 2.716039896011353 59.73457717895508 1.50001335144043 53.71053695678711 1.50001335144043 47.49992370605469 C 1.50001335144043 41.28931045532227 2.716039896011353 35.2652702331543 5.114306449890137 29.59513664245605 C 7.431079864501953 24.11768341064453 10.74805355072021 19.19811058044434 14.97310638427734 14.97307014465332 C 19.19814682006836 10.74803066253662 24.11773300170898 7.431056976318359 29.59519958496094 5.114283561706543 C 35.26533508300781 2.716030359268188 41.28938674926758 1.500003695487976 47.5 1.500003695487976 C 53.71062850952148 1.500003695487976 59.73466491699219 2.716030359268188 65.40481567382812 5.114283561706543 C 70.88227844238281 7.431056976318359 75.80186462402344 10.74803066253662 80.02690887451172 14.97307014465332 C 84.25196075439453 19.19811058044434 87.56893157958984 24.11768341064453 89.88570404052734 29.59513664245605 C 92.28397369384766 35.2652702331543 93.5 41.28931045532227 93.5 47.49992370605469 C 93.5 53.71053695678711 92.28397369384766 59.73457717895508 89.88570404052734 65.40470886230469 C 87.56893157958984 70.88216400146484 84.25196075439453 75.80173492431641 80.02690887451172 80.02677917480469 C 75.80186462402344 84.25181579589844 70.88227844238281 87.56878662109375 65.40481567382812 89.88556671142578 C 59.73466491699219 92.2838134765625 53.71062850952148 93.49984741210938 47.5 93.49984741210938 Z" stroke="none"/>
                                                <path d="M 47.5 3 C 41.49121475219727 3 35.66376876831055 4.176155090332031 30.17951965332031 6.495803833007812 C 24.88084411621094 8.7369384765625 20.12152099609375 11.94596862792969 16.03375244140625 16.03372192382812 C 11.94598388671875 20.12149047851562 8.736953735351562 24.88081359863281 6.495796203613281 30.17947387695312 C 4.176155090332031 35.6637077331543 3 41.49115371704102 3 47.49992370605469 C 3 53.50869369506836 4.176155090332031 59.33613967895508 6.495796203613281 64.82037353515625 C 8.736953735351562 70.11903381347656 11.94598388671875 74.87835693359375 16.03375244140625 78.96612548828125 C 20.12152099609375 83.05387878417969 24.88084411621094 86.26290893554688 30.17951965332031 88.50404357910156 C 35.66376876831055 90.82369232177734 41.49121475219727 91.99984741210938 47.5 91.99984741210938 C 53.50878524780273 91.99984741210938 59.33623123168945 90.82369232177734 64.82049560546875 88.50404357910156 C 70.11915588378906 86.26290893554688 74.87847900390625 83.05387878417969 78.96624755859375 78.96612548828125 C 83.05401611328125 74.87835693359375 86.26304626464844 70.11903381347656 88.50418090820312 64.82037353515625 C 90.82382965087891 59.33613967895508 91.99998474121094 53.50869369506836 91.99998474121094 47.49992370605469 C 91.99998474121094 41.49115371704102 90.82382965087891 35.6637077331543 88.50418090820312 30.17947387695312 C 86.26304626464844 24.88081359863281 83.05401611328125 20.12149047851562 78.96624755859375 16.03372192382812 C 74.87847900390625 11.94596862792969 70.11915588378906 8.7369384765625 64.82049560546875 6.495803833007812 C 59.33623123168945 4.176155090332031 53.50878524780273 3 47.5 3 M 47.5 0 C 73.7335205078125 0 94.99998474121094 21.26644897460938 94.99998474121094 47.49992370605469 C 94.99998474121094 73.7333984375 73.7335205078125 94.99984741210938 47.5 94.99984741210938 C 21.26649475097656 94.99984741210938 0 73.7333984375 0 47.49992370605469 C 0 21.26644897460938 21.26649475097656 0 47.5 0 Z" stroke="none" fill="#899e78"/>
                                              </g>
                                            </g>
                                          </g>
                                        </g>
                                      </g>
                                    </g>
                                  </g>
                                </g>
                              </g>
                            </g>
                          </g>
                        </g>
                      </g>
                    </g>
                  </g>
                </g>
              </g>
            </g>
          </g>
        </g>
      </g>
    </g>
    <g id="contract_2861234_1_" data-name="contract_2861234 (1)" transform="translate(14082 3406)">
      <g id="Grupo_1223041" data-name="Grupo 1223041">
        <g id="Grupo_1223027" data-name="Grupo 1223027">
          <path id="Trazado_1176859" data-name="Trazado 1176859" d="M24,12V26H2V12Z" fill="#b4dd7f"/>
        </g>
        <g id="Grupo_1223028" data-name="Grupo 1223028">
          <path id="Trazado_1176860" data-name="Trazado 1176860" d="M62,51V61a1,1,0,0,1-1,1H19a1,1,0,0,1-1-1V58H49.46a2.1,2.1,0,0,0,.56-.08,1.791,1.791,0,0,0,.45-.19Z" fill="#ffeaa7"/>
        </g>
        <g id="Grupo_1223029" data-name="Grupo 1223029">
          <path id="Trazado_1176861" data-name="Trazado 1176861" d="M39,12a3,3,0,0,0,3-3,1,1,0,0,0-1-1l.18-.18A2.793,2.793,0,0,0,42,5.84a2.738,2.738,0,0,0-.47-1.54l-.94-1.41A1.981,1.981,0,0,0,38.93,2H62V51H58.24A9.474,9.474,0,0,1,54,50l-3.98,7.92a2.1,2.1,0,0,1-.56.08H18V26h6l.42.21A16.931,16.931,0,0,0,32,28H30a4,4,0,0,0-4,4v1a1,1,0,0,0,1,1H45a1,1,0,0,0,1-1V32a4,4,0,0,0-4-4h4a2.006,2.006,0,0,0,2-2,2.015,2.015,0,0,0-2-2h2a2.015,2.015,0,0,0,2-2,2.006,2.006,0,0,0-2-2,2.015,2.015,0,0,0,2-2,2.006,2.006,0,0,0-2-2,2.015,2.015,0,0,0,2-2,2.006,2.006,0,0,0-2-2H42a1.955,1.955,0,0,0-1.41.59,2.258,2.258,0,0,0-.25.29Z" fill="#e6e9ed"/>
        </g>
        <g id="Grupo_1223030" data-name="Grupo 1223030">
          <path id="Trazado_1176862" data-name="Trazado 1176862" d="M62,51,50.47,57.73a1.79,1.79,0,0,1-.45.19L54,50a9.474,9.474,0,0,0,4.24,1Z" fill="#b4dd7f"/>
        </g>
        <g id="Grupo_1223031" data-name="Grupo 1223031">
          <path id="Trazado_1176863" data-name="Trazado 1176863" d="M47.2,38.07a4.093,4.093,0,0,1,1.16,7.16l-1.3.98A2.629,2.629,0,0,0,46,48.32,3.687,3.687,0,0,1,42.32,52H41.1a2.64,2.64,0,0,0-1.87.77,4.184,4.184,0,0,1-5.28.53l-1.12-.75a3.319,3.319,0,0,0-3.66,0l-1.2.81A3.837,3.837,0,0,1,22,50.16V50.1a3.576,3.576,0,0,1,.61-2.01l.92-1.39A2.738,2.738,0,0,0,24,45.16a2.793,2.793,0,0,0-.82-1.98l-.35-.35A2.837,2.837,0,0,1,22,40.82v-.04A2.774,2.774,0,0,1,24.78,38h3.99A6.312,6.312,0,0,0,28,41c0,3.87,3.58,7,8,7s8-3.13,8-7a6.312,6.312,0,0,0-.77-3H47Z" fill="#ffc729"/>
        </g>
        <g id="Grupo_1223032" data-name="Grupo 1223032">
          <path id="Trazado_1176864" data-name="Trazado 1176864" d="M29.43,37H42.57a6.65,6.65,0,0,1,.66,1A6.312,6.312,0,0,1,44,41c0,3.87-3.58,7-8,7s-8-3.13-8-7a6.312,6.312,0,0,1,.77-3A6.65,6.65,0,0,1,29.43,37Z" fill="#fcd770"/>
        </g>
        <g id="Grupo_1223033" data-name="Grupo 1223033">
          <path id="Trazado_1176865" data-name="Trazado 1176865" d="M41.53,4.3A2.738,2.738,0,0,1,42,5.84a2.793,2.793,0,0,1-.82,1.98L41,8H33.66a13.183,13.183,0,0,0-2.44.22l-.4-.4A2.793,2.793,0,0,1,30,5.84a2.738,2.738,0,0,1,.47-1.54l.94-1.41A1.981,1.981,0,0,1,33.07,2h5.86a1.981,1.981,0,0,1,1.66.89Z" fill="#b27946"/>
        </g>
        <g id="Grupo_1223034" data-name="Grupo 1223034">
          <path id="Trazado_1176866" data-name="Trazado 1176866" d="M40,14a2.006,2.006,0,0,0,2,2,2.015,2.015,0,0,0-2,2,2.006,2.006,0,0,0,2,2,2.015,2.015,0,0,0-2,2,2.006,2.006,0,0,0,2,2,2.015,2.015,0,0,0-2,2,2.006,2.006,0,0,0,2,2H32V14.96a4.887,4.887,0,0,0,1.34-1.64A2.389,2.389,0,0,1,35.47,12H39l1.34.88A1.974,1.974,0,0,0,40,14Z" fill="#cf9e76"/>
        </g>
        <g id="Grupo_1223035" data-name="Grupo 1223035">
          <path id="Trazado_1176867" data-name="Trazado 1176867" d="M46,32v1a1,1,0,0,1-1,1H27a1,1,0,0,1-1-1V32a4,4,0,0,1,4-4H42A4,4,0,0,1,46,32Z" fill="#aab2bd"/>
        </g>
        <g id="Grupo_1223036" data-name="Grupo 1223036">
          <path id="Trazado_1176868" data-name="Trazado 1176868" d="M48,16a2.006,2.006,0,0,1,2,2,2.015,2.015,0,0,1-2,2H42a2.006,2.006,0,0,1-2-2,2.015,2.015,0,0,1,2-2Z" fill="#f0d0b4"/>
        </g>
        <g id="Grupo_1223037" data-name="Grupo 1223037">
          <path id="Trazado_1176869" data-name="Trazado 1176869" d="M47.41,24.59A1.955,1.955,0,0,1,48,26a2.006,2.006,0,0,1-2,2H42a2.006,2.006,0,0,1-2-2,2.015,2.015,0,0,1,2-2h4A1.955,1.955,0,0,1,47.41,24.59Z" fill="#f0d0b4"/>
        </g>
        <g id="Grupo_1223038" data-name="Grupo 1223038">
          <path id="Trazado_1176870" data-name="Trazado 1176870" d="M48,20a2.006,2.006,0,0,1,2,2,2.015,2.015,0,0,1-2,2H42a2.006,2.006,0,0,1-2-2,2.015,2.015,0,0,1,2-2Z" fill="#f0d0b4"/>
        </g>
        <g id="Grupo_1223039" data-name="Grupo 1223039">
          <path id="Trazado_1176871" data-name="Trazado 1176871" d="M42,12h6a2.006,2.006,0,0,1,2,2,2.015,2.015,0,0,1-2,2H42a2.006,2.006,0,0,1-2-2,1.974,1.974,0,0,1,.34-1.12,2.258,2.258,0,0,1,.25-.29A1.955,1.955,0,0,1,42,12Z" fill="#f0d0b4"/>
        </g>
        <g id="Grupo_1223040" data-name="Grupo 1223040">
          <path id="Trazado_1176872" data-name="Trazado 1176872" d="M32,14.96V28a16.931,16.931,0,0,1-7.58-1.79L24,26V12a13.622,13.622,0,0,1,7.22-3.78A13.183,13.183,0,0,1,33.66,8H41a1,1,0,0,1,1,1,3,3,0,0,1-3,3H35.47a2.389,2.389,0,0,0-2.13,1.32A4.887,4.887,0,0,1,32,14.96Z" fill="#f0d0b4"/>
        </g>
      </g>
      <g id="Grupo_1223042" data-name="Grupo 1223042">
        <path id="Trazado_1176873" data-name="Trazado 1176873" d="M61,1V50H58.236a8.508,8.508,0,0,1-3.789-.9l-.893-.446L49.367,57H19V27h4.764l.211.1a17.814,17.814,0,0,0,2.8,1.11A4.97,4.97,0,0,0,25,32v1a2,2,0,0,0,2,2H45a2,2,0,0,0,2-2V32a4.98,4.98,0,0,0-1-3h0a2.99,2.99,0,0,0,2.78-4.116A2.973,2.973,0,0,0,50.22,20a2.954,2.954,0,0,0,0-4A2.987,2.987,0,0,0,48,11H42.444A3.959,3.959,0,0,0,43,9a1.983,1.983,0,0,0-.5-1.308,3.733,3.733,0,0,0-.137-3.949l-.938-1.407A3,3,0,0,0,38.93,1H33.07a3,3,0,0,0-2.5,1.336l-.938,1.407a3.727,3.727,0,0,0-.18,3.869A14.543,14.543,0,0,0,23.594,11H1V27H17V61a2,2,0,0,0,2,2H61a2,2,0,0,0,2-2V1ZM33.657,9H41a2,2,0,0,1-2,2H35.472a3.361,3.361,0,0,0-3.025,1.87A3.832,3.832,0,0,1,29,15v2a5.863,5.863,0,0,0,2-.362v10.3a16,16,0,0,1-6-1.569V12.441A12.561,12.561,0,0,1,33.657,9ZM49,18a1,1,0,0,1-1,1H42a1,1,0,0,1,0-2h6A1,1,0,0,1,49,18Zm-9.22-2a2.954,2.954,0,0,0,0,4,2.954,2.954,0,0,0,0,4,2.908,2.908,0,0,0-.6,3H33V15.408a5.843,5.843,0,0,0,1.236-1.644A1.373,1.373,0,0,1,35.472,13H39c.065,0,.126-.016.19-.019A2.913,2.913,0,0,0,39.78,16ZM45,33H27V32a3,3,0,0,1,3-3H42a3,3,0,0,1,3,3Zm1-6H42a1,1,0,0,1,0-2h4a1,1,0,0,1,0,2Zm2-4H42a1,1,0,0,1,0-2h6a1,1,0,0,1,0,2Zm1-9a1,1,0,0,1-1,1H42a1,1,0,0,1,0-2h6A1,1,0,0,1,49,14ZM31.524,7.11A1.791,1.791,0,0,1,31.3,4.852l.938-1.407A1,1,0,0,1,33.07,3h5.859a1,1,0,0,1,.832.445L40.7,4.852a1.788,1.788,0,0,1,.3.993A1.765,1.765,0,0,1,40.566,7h-6.91a14.81,14.81,0,0,0-2.081.162ZM3,13H23V25H3ZM54.467,51.3a10.544,10.544,0,0,0,3.769.7H58.3l-5.92,3.454ZM19,61V59H49.459a3,3,0,0,0,1.512-.409L61,52.741V61Z"/>
        <path id="Trazado_1176874" data-name="Trazado 1176874" d="M28.652,36.376A7.369,7.369,0,0,0,27,41c0,4.411,4.038,8,9,8s9-3.589,9-8a7.369,7.369,0,0,0-1.652-4.624l-1.564,1.246A5.388,5.388,0,0,1,43,41c0,3.309-3.14,6-7,6s-7-2.691-7-6a5.383,5.383,0,0,1,1.216-3.377Z"/>
        <path id="Trazado_1176875" data-name="Trazado 1176875" d="M21.777,47.531A4.667,4.667,0,0,0,21,50.162,4.838,4.838,0,0,0,25.837,55h0a4.82,4.82,0,0,0,2.683-.813l1.2-.8a2.34,2.34,0,0,1,2.555,0l1.114.743a5.183,5.183,0,0,0,6.542-.648A1.655,1.655,0,0,1,41.095,53h1.227A4.684,4.684,0,0,0,47,48.322a1.653,1.653,0,0,1,.658-1.316l1.3-.978a5.1,5.1,0,0,0-1.446-8.91l-.2-.066-.633,1.9.2.066a3.1,3.1,0,0,1,.879,5.414l-1.3.978A3.663,3.663,0,0,0,45,48.322,2.681,2.681,0,0,1,42.322,51H41.095a3.673,3.673,0,0,0-2.577,1.067,3.266,3.266,0,0,1-4.018.4l-1.114-.743a4.372,4.372,0,0,0-4.773,0l-1.2.8A2.828,2.828,0,0,1,25.838,53h0a2.818,2.818,0,0,1-2.006-.831A2.862,2.862,0,0,1,23,50.1a2.61,2.61,0,0,1,.441-1.455l.923-1.384a3.789,3.789,0,0,0-.474-4.781l-.354-.354A1.856,1.856,0,0,1,23,40.775,1.775,1.775,0,0,1,24.776,39H26V37H24.776A3.777,3.777,0,0,0,21,40.82a3.811,3.811,0,0,0,1.122,2.716l.354.354a1.789,1.789,0,0,1,.224,2.257Z"/>
        <path id="Trazado_1176876" data-name="Trazado 1176876" d="M31,39h8v2H31Z"/>
        <path id="Trazado_1176877" data-name="Trazado 1176877" d="M35,43h4v2H35Z"/>
        <path id="Trazado_1176878" data-name="Trazado 1176878" d="M51,27h8v2H51Z"/>
        <path id="Trazado_1176879" data-name="Trazado 1176879" d="M53,23h6v2H53Z"/>
        <path id="Trazado_1176880" data-name="Trazado 1176880" d="M53,19h6v2H53Z"/>
        <path id="Trazado_1176881" data-name="Trazado 1176881" d="M53,15h6v2H53Z"/>
        <path id="Trazado_1176882" data-name="Trazado 1176882" d="M53,11h6v2H53Z"/>
        <path id="Trazado_1176883" data-name="Trazado 1176883" d="M51,7h8V9H51Z"/>
      </g>
    </g>
  </g>
</svg>
