<svg xmlns="http://www.w3.org/2000/svg" xmlns:xlink="http://www.w3.org/1999/xlink" width="400" height="310.083" viewBox="0 0 400 310.083">
  <defs>
    <clipPath id="clip-path">
      <rect id="Rectángulo_421411" data-name="Rectángulo 421411" width="400" height="310.083" transform="translate(180 3916.475)" fill="#27454a" stroke="#707070" stroke-width="1" opacity="0.38"/>
    </clipPath>
    <clipPath id="clip-path-2">
      <rect id="Rectángulo_421476" data-name="Rectángulo 421476" width="311.154" height="362.32" fill="none"/>
    </clipPath>
    <clipPath id="clip-path-3">
      <rect id="Rectángulo_421445" data-name="Rectángulo 421445" width="311.154" height="311.154" fill="none"/>
    </clipPath>
    <clipPath id="clip-path-4">
      <rect id="Rectángulo_421442" data-name="Rectángulo 421442" width="35.559" height="13.846" fill="none"/>
    </clipPath>
    <clipPath id="clip-path-6">
      <path id="Trazado_1176932" data-name="Trazado 1176932" d="M53.369,223.4c-16.227,6.355-13.079,70.563-13.079,70.563h60.774s.45-42.156-3.1-56.815c-2.777-11.453-15.393-16.7-28.281-16.7A45.415,45.415,0,0,0,53.369,223.4" transform="translate(-40.044 -220.448)" fill="none"/>
    </clipPath>
    <clipPath id="clip-path-7">
      <rect id="Rectángulo_421446" data-name="Rectángulo 421446" width="87.777" height="62.635" fill="none"/>
    </clipPath>
    <clipPath id="clip-path-9">
      <rect id="Rectángulo_421447" data-name="Rectángulo 421447" width="48.379" height="113.945" fill="none"/>
    </clipPath>
    <clipPath id="clip-path-10">
      <rect id="Rectángulo_421448" data-name="Rectángulo 421448" width="99.196" height="11.805" fill="none"/>
    </clipPath>
    <clipPath id="clip-path-11">
      <path id="Trazado_1176961" data-name="Trazado 1176961" d="M300.246,152.356c-5.308,7.406-13.269,57.089-13.269,57.089l93.641,1.782s-9.857-52.38-13.269-57.7-26.159-9.65-28.914-10.716c0,0-32.882,2.136-38.19,9.541" transform="translate(-286.977 -142.815)" fill="none"/>
    </clipPath>
    <clipPath id="clip-path-12">
      <rect id="Rectángulo_421450" data-name="Rectángulo 421450" width="67.344" height="41.501" fill="none"/>
    </clipPath>
    <clipPath id="clip-path-14">
      <rect id="Rectángulo_421453" data-name="Rectángulo 421453" width="28.65" height="5.374" fill="none"/>
    </clipPath>
    <clipPath id="clip-path-15">
      <rect id="Rectángulo_421456" data-name="Rectángulo 421456" width="13.324" height="4.99" fill="none"/>
    </clipPath>
    <clipPath id="clip-path-16">
      <rect id="Rectángulo_421460" data-name="Rectángulo 421460" width="4.004" height="5.595" fill="none"/>
    </clipPath>
    <clipPath id="clip-path-18">
      <rect id="Rectángulo_421463" data-name="Rectángulo 421463" width="29.265" height="1.276" fill="none"/>
    </clipPath>
    <clipPath id="clip-path-19">
      <rect id="Rectángulo_421464" data-name="Rectángulo 421464" width="20.984" height="1.276" fill="none"/>
    </clipPath>
    <clipPath id="clip-path-20">
      <rect id="Rectángulo_421465" data-name="Rectángulo 421465" width="59.835" height="164.538" fill="none"/>
    </clipPath>
    <clipPath id="clip-path-21">
      <rect id="Rectángulo_421466" data-name="Rectángulo 421466" width="124.15" height="22.752" fill="none"/>
    </clipPath>
    <clipPath id="clip-path-22">
      <rect id="Rectángulo_421467" data-name="Rectángulo 421467" width="30.18" height="30.181" fill="none"/>
    </clipPath>
    <clipPath id="clip-path-23">
      <rect id="Rectángulo_421468" data-name="Rectángulo 421468" width="94.522" height="16.79" fill="none"/>
    </clipPath>
    <clipPath id="clip-path-24">
      <rect id="Rectángulo_421469" data-name="Rectángulo 421469" width="11.195" height="22.913" fill="none"/>
    </clipPath>
  </defs>
  <g id="Enmascarar_grupo_1211512" data-name="Enmascarar grupo 1211512" transform="translate(-180 -3916.475)" clip-path="url(#clip-path)">
    <g id="Grupo_1222889" data-name="Grupo 1222889" transform="translate(180 3915.407)">
      <rect id="Rectángulo_421362" data-name="Rectángulo 421362" width="304" height="310.083" fill="#bca78f" opacity="0.52"/>
    </g>
    <g id="Grupo_1223120" data-name="Grupo 1223120" transform="translate(228 3915.429)">
      <g id="Grupo_1223119" data-name="Grupo 1223119" clip-path="url(#clip-path-2)">
        <g id="Grupo_1223053" data-name="Grupo 1223053" transform="translate(0 0.001)">
          <g id="Grupo_1223052" data-name="Grupo 1223052" clip-path="url(#clip-path-3)">
            <path id="Trazado_1176891" data-name="Trazado 1176891" d="M474.312,484.941c20.825-21.364,11.625-50.113,11.625-50.113S467.1,458.6,474.312,484.941" transform="translate(-178.523 -164.232)" fill="#7f7d2a"/>
            <path id="Trazado_1176892" data-name="Trazado 1176892" d="M475.309,484.941c11.077-32.448,11.625-50.113,11.625-50.113s-5.622,19.526-11.625,50.113" transform="translate(-179.521 -164.232)" fill="#a2a34a"/>
            <path id="Trazado_1176893" data-name="Trazado 1176893" d="M461.153,476.989c17.425-31.545-2.485-62.09-2.485-62.09s-14.332,33.713,2.485,62.09" transform="translate(-171.085 -156.705)" fill="#6b671f"/>
            <path id="Trazado_1176894" data-name="Trazado 1176894" d="M464.6,476.989c2.526-41.338-2.485-62.09-2.485-62.09s-.3,24.541,2.485,62.09" transform="translate(-174.535 -156.705)" fill="#a2a34a"/>
            <path id="Trazado_1176895" data-name="Trazado 1176895" d="M448.925,484.36c3.97-29.569-20.563-47.156-20.563-47.156s-.934,30.313,20.563,47.156" transform="translate(-161.787 -165.129)" fill="#7f7d2a"/>
            <path id="Trazado_1176896" data-name="Trazado 1176896" d="M448.929,484.36c-10.465-32.651-20.563-47.156-20.563-47.156s7.135,19.025,20.563,47.156" transform="translate(-161.791 -165.129)" fill="#a2a34a"/>
            <path id="Trazado_1176897" data-name="Trazado 1176897" d="M228.822,371.307H212.181l5.174-258.274,3.147-.148,3.146.148Z" transform="translate(-80.139 -42.636)" fill="#d6b094"/>
            <path id="Trazado_1176898" data-name="Trazado 1176898" d="M201.928,101.615h-8.065l-3.507,5.961s-18.585,3.212-27.35,3.886v4.483h25.6s8.065-2.758,13.325-2.758Z" transform="translate(-61.566 -38.38)" fill="#d6b094"/>
            <path id="Trazado_1176899" data-name="Trazado 1176899" d="M168.412,164.378,154.079,122.1l-14.333,42.28-1.179-.4,15.512-45.756,15.512,45.756Z" transform="translate(-52.336 -44.652)" fill="#d6b094"/>
            <path id="Trazado_1176900" data-name="Trazado 1176900" d="M170.394,195.813c-.2,11.819-11.967,13.846-18.557,13.846s-18.353-2.027-18.557-13.846Z" transform="translate(-50.339 -73.958)" fill="#d6b094"/>
            <g id="Grupo_1223048" data-name="Grupo 1223048" transform="translate(82.939 121.852)" opacity="0.3" style="mix-blend-mode: multiply;isolation: isolate">
              <g id="Grupo_1223047" data-name="Grupo 1223047">
                <g id="Grupo_1223046" data-name="Grupo 1223046" clip-path="url(#clip-path-4)">
                  <path id="Trazado_1176901" data-name="Trazado 1176901" d="M168.836,202.124c-3.441,6.279-11.824,7.53-17,7.53-6.59,0-18.352-2.022-18.557-13.846h6.5c2.993,7.312,12.073,8.719,17.568,8.719a26.191,26.191,0,0,0,11.494-2.4" transform="translate(-133.277 -195.808)" fill="#d6b094"/>
                </g>
              </g>
            </g>
            <path id="Trazado_1176902" data-name="Trazado 1176902" d="M132.226,192.07h37.8a1.484,1.484,0,1,1,0,2.967h-37.8a1.484,1.484,0,1,1,0-2.967" transform="translate(-49.38 -72.544)" fill="#d6b094"/>
            <path id="Trazado_1176903" data-name="Trazado 1176903" d="M165.561,118.145a5.26,5.26,0,1,1-5.26-5.26,5.26,5.26,0,0,1,5.26,5.26" transform="translate(-58.558 -42.636)" fill="#d6b094"/>
            <path id="Trazado_1176904" data-name="Trazado 1176904" d="M164.447,119.864a2.426,2.426,0,1,1-2.426-2.426,2.426,2.426,0,0,1,2.426,2.426" transform="translate(-60.277 -44.356)" fill="#d6b094"/>
            <path id="Trazado_1176905" data-name="Trazado 1176905" d="M225.551,101.615h8.065l3.507,5.961s18.585,3.212,27.35,3.886v4.483h-25.6s-8.065-2.758-13.325-2.758Z" transform="translate(-85.189 -38.38)" fill="#d6b094"/>
            <path id="Trazado_1176906" data-name="Trazado 1176906" d="M292.527,164.378,278.194,122.1l-14.333,42.28-1.179-.4,15.512-45.756,15.512,45.756Z" transform="translate(-99.213 -44.652)" fill="#d6b094"/>
            <path id="Trazado_1176907" data-name="Trazado 1176907" d="M257.789,194.46c.2,11.819,11.967,13.846,18.557,13.846S294.7,206.279,294.9,194.46Z" transform="translate(-97.365 -73.447)" fill="#d6b094"/>
            <g id="Grupo_1223051" data-name="Grupo 1223051" transform="translate(160.424 121.013)" opacity="0.3" style="mix-blend-mode: multiply;isolation: isolate">
              <g id="Grupo_1223050" data-name="Grupo 1223050">
                <g id="Grupo_1223049" data-name="Grupo 1223049" clip-path="url(#clip-path-4)">
                  <path id="Trazado_1176908" data-name="Trazado 1176908" d="M293.348,200.776c-3.441,6.279-11.824,7.53-17,7.53-6.59,0-18.352-2.022-18.557-13.846h6.5c2.993,7.312,12.073,8.719,17.568,8.719a26.191,26.191,0,0,0,11.494-2.4" transform="translate(-257.789 -194.46)" fill="#d6b094"/>
                </g>
              </g>
            </g>
            <path id="Trazado_1176909" data-name="Trazado 1176909" d="M294.137,192.07h-37.8a1.484,1.484,0,0,0,0,2.967h37.8a1.484,1.484,0,1,0,0-2.967" transform="translate(-96.258 -72.544)" fill="#d6b094"/>
            <path id="Trazado_1176910" data-name="Trazado 1176910" d="M279.157,118.145a5.26,5.26,0,1,0,5.26-5.26,5.26,5.26,0,0,0-5.26,5.26" transform="translate(-105.436 -42.636)" fill="#d6b094"/>
            <path id="Trazado_1176911" data-name="Trazado 1176911" d="M283.71,119.864a2.426,2.426,0,1,0,2.426-2.426,2.427,2.427,0,0,0-2.426,2.426" transform="translate(-107.155 -44.356)" fill="#d6b094"/>
            <path id="Trazado_1176912" data-name="Trazado 1176912" d="M229.061,89.863a8.929,8.929,0,1,1-8.929-8.929,8.929,8.929,0,0,1,8.929,8.929" transform="translate(-79.77 -30.569)" fill="#d6b094"/>
            <path id="Trazado_1176913" data-name="Trazado 1176913" d="M227.17,92.782a4.118,4.118,0,1,1-4.118-4.118,4.118,4.118,0,0,1,4.118,4.118" transform="translate(-82.689 -33.488)" fill="#d6b094"/>
            <path id="Trazado_1176914" data-name="Trazado 1176914" d="M256.018,428.316c20.825-21.364,11.625-50.113,11.625-50.113s-18.831,23.773-11.625,50.113" transform="translate(-96.075 -142.845)" fill="#7f7d2a"/>
            <path id="Trazado_1176915" data-name="Trazado 1176915" d="M257.015,428.316C268.092,395.868,268.64,378.2,268.64,378.2s-5.622,19.526-11.625,50.113" transform="translate(-97.073 -142.845)" fill="#a2a34a"/>
            <path id="Trazado_1176916" data-name="Trazado 1176916" d="M242.859,420.364c17.425-31.545-2.486-62.09-2.486-62.09s-14.332,33.713,2.486,62.09" transform="translate(-88.637 -135.318)" fill="#6b671f"/>
            <path id="Trazado_1176917" data-name="Trazado 1176917" d="M246.309,420.364c2.526-41.338-2.486-62.09-2.486-62.09s-.3,24.541,2.486,62.09" transform="translate(-92.086 -135.318)" fill="#a2a34a"/>
            <path id="Trazado_1176918" data-name="Trazado 1176918" d="M230.631,427.734c3.971-29.569-20.562-47.156-20.562-47.156s-.934,30.313,20.562,47.156" transform="translate(-79.339 -143.742)" fill="#7f7d2a"/>
            <path id="Trazado_1176919" data-name="Trazado 1176919" d="M230.634,427.734c-10.465-32.651-20.562-47.156-20.562-47.156s7.135,19.025,20.562,47.156" transform="translate(-79.343 -143.742)" fill="#a2a34a"/>
            <rect id="Rectángulo_421444" data-name="Rectángulo 421444" width="29.555" height="50.047" transform="translate(139.408 277.034)" fill="#215681"/>
            <path id="Trazado_1176920" data-name="Trazado 1176920" d="M199.354,239.606c.986-2.034,2.243-11.228,4.232-10.756s.576,5.008.576,5.008,6.309-7.827,7.665-7.17-.357,3.276-.357,3.276,3.238-3.587,4.476-2.5-2.278,3.863-2.278,3.863,2.928-2.077,3.652-1.233-2.371,4.544-2.371,4.544,1.557-2.842,2.966-1.187-8.865,14.665-11.883,14.205-6.677-8.048-6.677-8.048" transform="translate(-75.295 -85.605)" fill="#fca388"/>
            <path id="Trazado_1176921" data-name="Trazado 1176921" d="M217.449,231.113a12.908,12.908,0,0,0-3.079,4.431" transform="translate(-80.966 -87.29)" fill="#fca388"/>
            <path id="Trazado_1176922" data-name="Trazado 1176922" d="M217.449,231.113a12.908,12.908,0,0,0-3.079,4.431" transform="translate(-80.966 -87.29)" fill="none" stroke="#d16247" stroke-linecap="round" stroke-miterlimit="10" stroke-width="1"/>
            <path id="Trazado_1176923" data-name="Trazado 1176923" d="M220.272,234.164a17.018,17.018,0,0,0-3.428,4.931" transform="translate(-81.9 -88.443)" fill="#fca388"/>
            <path id="Trazado_1176924" data-name="Trazado 1176924" d="M220.272,234.164a17.018,17.018,0,0,0-3.428,4.931" transform="translate(-81.9 -88.443)" fill="none" stroke="#d16247" stroke-linecap="round" stroke-miterlimit="10" stroke-width="1"/>
            <path id="Trazado_1176925" data-name="Trazado 1176925" d="M223.2,237.925a11.119,11.119,0,0,0-3.879,4.425" transform="translate(-82.835 -89.863)" fill="#fca388"/>
            <path id="Trazado_1176926" data-name="Trazado 1176926" d="M223.2,237.925a11.119,11.119,0,0,0-3.879,4.425" transform="translate(-82.835 -89.863)" fill="none" stroke="#d16247" stroke-linecap="round" stroke-miterlimit="10" stroke-width="1"/>
            <path id="Trazado_1176927" data-name="Trazado 1176927" d="M207.079,238.234a8.037,8.037,0,0,1,.038,4.8" transform="translate(-78.212 -89.98)" fill="#fca388"/>
            <path id="Trazado_1176928" data-name="Trazado 1176928" d="M207.079,238.234a8.037,8.037,0,0,1,.038,4.8" transform="translate(-78.212 -89.98)" fill="none" stroke="#d16247" stroke-linecap="round" stroke-miterlimit="10" stroke-width="1"/>
            <path id="Trazado_1176929" data-name="Trazado 1176929" d="M95.866,218.169s23.121,4.076,27.115,8.57l13.711,26.136,23.951-19.549,9.272,12.406S148.15,282.6,132.891,285.221s-21.243-4.235-21.243-4.235" transform="translate(-36.208 -82.401)" fill="#7f7d2a"/>
            <path id="Trazado_1176930" data-name="Trazado 1176930" d="M97.96,237.145c3.553,14.658,3.1,56.815,3.1,56.815H40.29S37.141,229.752,53.369,223.4s40.6-2.729,44.591,13.748" transform="translate(-15.124 -83.262)" fill="#7f7d2a"/>
          </g>
        </g>
        <g id="Grupo_1223058" data-name="Grupo 1223058" transform="translate(24.919 137.186)">
          <g id="Grupo_1223057" data-name="Grupo 1223057" clip-path="url(#clip-path-6)">
            <g id="Grupo_1223056" data-name="Grupo 1223056" transform="translate(-19.794 10.876)" opacity="0.57" style="mix-blend-mode: multiply;isolation: isolate">
              <g id="Grupo_1223055" data-name="Grupo 1223055">
                <g id="Grupo_1223054" data-name="Grupo 1223054" clip-path="url(#clip-path-7)">
                  <path id="Trazado_1176931" data-name="Trazado 1176931" d="M43.338,237.925c1.085,27.019,27.881,47.084,42.821,43.6s8.452,15.7,8.452,15.7L40.353,300.56,8.236,281.528Z" transform="translate(-8.236 -237.925)" fill="#215681"/>
                </g>
              </g>
            </g>
          </g>
        </g>
        <g id="Grupo_1223066" data-name="Grupo 1223066" transform="translate(0 0.001)">
          <g id="Grupo_1223065" data-name="Grupo 1223065" clip-path="url(#clip-path-3)">
            <path id="Trazado_1176933" data-name="Trazado 1176933" d="M94.56,307.71c6.866,1.907,13.184,1.956,15.573,7.094s.507,8.783.507,8.783l-18.784-1.308Z" transform="translate(-34.693 -116.22)" fill="#fca388"/>
            <path id="Trazado_1176934" data-name="Trazado 1176934" d="M64.536,218.937s-27.122,2.128-31.076,10.817-10.377,47.563-8.4,52.833,47.645,3.788,47.645,3.788l1.709-13.729-28.105-7.519,3.837-28.3" transform="translate(-9.326 -82.692)" fill="#7f7d2a"/>
            <path id="Trazado_1176935" data-name="Trazado 1176935" d="M70.239,219.323l13.452,10.493L94.077,220.9s-3.733-8.843-23.838-1.578" transform="translate(-26.529 -81.755)" fill="#fff"/>
            <path id="Trazado_1176936" data-name="Trazado 1176936" d="M81.262,201.765,80.551,211.8a4.551,4.551,0,0,0,9.074.715l.935-10.753Z" transform="translate(-30.419 -76.206)" fill="#f4876e"/>
            <path id="Trazado_1176937" data-name="Trazado 1176937" d="M105.791,167.953c3.075,12.072-1.262,20.658-3.687,23.359-6.458,7.192-19.269,4.4-25.414-3.4-5.427-6.888-8.748-21.963,3.009-28.131s22.984-4.037,26.093,8.168" transform="translate(-27.099 -59.084)" fill="#fca388"/>
            <path id="Trazado_1176938" data-name="Trazado 1176938" d="M108.807,200.751c-3.379-.861-5.668-.136-6.322.482s0,3.016,2.67,3.179,3.652-3.662,3.652-3.662" transform="translate(-38.619 -75.674)" fill="#d16247"/>
            <path id="Trazado_1176939" data-name="Trazado 1176939" d="M91.548,153.4c.954,11.033-17.771,8.054-17.771,8.054s.573,7.307-2.608,9.71l.2,6.331s-2.724-4.407-4.846-2.648,5.229,9.918,5.229,9.918L71.931,186S57.09,184.249,55.7,173.913s5.062-13.747,5.062-13.747a12.922,12.922,0,0,1,7.148-14.575c11.071-5.669,19.666-1.77,27.462,1.717s10.271.833,10.271.833,1.394,11.254-6.272,13.622c0,0-3.489-6.442-7.821-8.364" transform="translate(-20.962 -53.906)" fill="#491a10"/>
            <path id="Trazado_1176940" data-name="Trazado 1176940" d="M102.007,182.968a4.6,4.6,0,1,1-5.454-3.534A4.6,4.6,0,0,1,102.007,182.968Z" transform="translate(-35.094 -67.733)" fill="none" stroke="#fff" stroke-miterlimit="10" stroke-width="1"/>
            <path id="Trazado_1176941" data-name="Trazado 1176941" d="M122.922,178.5a4.6,4.6,0,1,1-5.454-3.533A4.6,4.6,0,0,1,122.922,178.5Z" transform="translate(-42.993 -66.046)" fill="none" stroke="#fff" stroke-miterlimit="10" stroke-width="1"/>
            <path id="Trazado_1176942" data-name="Trazado 1176942" d="M107.524,184.631a6.392,6.392,0,0,1,4.028-.86" transform="translate(-40.611 -69.395)" fill="none" stroke="#fff" stroke-miterlimit="10" stroke-width="1"/>
            <path id="Trazado_1176943" data-name="Trazado 1176943" d="M84.453,188.26l-12.483.166a1.556,1.556,0,0,0-1.511,1.28l-.22,1.22" transform="translate(-26.529 -71.105)" fill="none" stroke="#fff" stroke-miterlimit="10" stroke-width="1"/>
            <path id="Trazado_1176944" data-name="Trazado 1176944" d="M75.356,194.079c-6.22-6.7-9.518,1.724-5.343,6.084s9.06,4.09,8.113-.342" transform="translate(-25.74 -72.359)" fill="#fca388"/>
            <path id="Trazado_1176945" data-name="Trazado 1176945" d="M95.858,174.757c-.732-1.884-7.944.4-7.024,2.678s7.543-1.341,7.024-2.678" transform="translate(-33.521 -65.742)" fill="#491a10"/>
            <path id="Trazado_1176946" data-name="Trazado 1176946" d="M112.044,171.644c-.134-2.014,5.8-2.644,5.94-.192s-5.845,1.62-5.94.192" transform="translate(-42.317 -64.155)" fill="#491a10"/>
            <path id="Trazado_1176947" data-name="Trazado 1176947" d="M101.723,184.994c.237,1.109-.19,2.14-.954,2.3s-1.574-.6-1.812-1.713.19-2.14.954-2.3,1.574.6,1.812,1.713" transform="translate(-37.351 -69.217)" fill="#491a10"/>
            <path id="Trazado_1176948" data-name="Trazado 1176948" d="M119.5,181.2c.237,1.109-.19,2.14-.954,2.3s-1.574-.6-1.812-1.713.19-2.14.954-2.3,1.575.6,1.812,1.713" transform="translate(-44.065 -67.783)" fill="#491a10"/>
            <path id="Trazado_1176949" data-name="Trazado 1176949" d="M113.846,187.975c.627,1.866,3.18,2.02,2.48,3.57a3.86,3.86,0,0,1-2.691,1.874" transform="translate(-42.919 -70.997)" fill="#fca388"/>
            <path id="Trazado_1176950" data-name="Trazado 1176950" d="M113.846,187.975c.627,1.866,3.18,2.02,2.48,3.57a3.86,3.86,0,0,1-2.691,1.874" transform="translate(-42.919 -70.997)" fill="none" stroke="#d16247" stroke-linecap="round" stroke-miterlimit="10" stroke-width="1"/>
            <path id="Trazado_1176951" data-name="Trazado 1176951" d="M75.573,197.7c-3.154-2.45-4.913-.677-3.909,1.328" transform="translate(-26.96 -74.22)" fill="#fca388"/>
            <path id="Trazado_1176952" data-name="Trazado 1176952" d="M75.573,197.7c-3.154-2.45-4.913-.677-3.909,1.328" transform="translate(-26.96 -74.22)" fill="none" stroke="#d16247" stroke-linecap="round" stroke-miterlimit="10" stroke-width="1"/>
            <path id="Trazado_1176953" data-name="Trazado 1176953" d="M75.492,197.139c-2.066,1.016-.623,3.926,1.691,4.37" transform="translate(-28.137 -74.459)" fill="#fca388"/>
            <path id="Trazado_1176954" data-name="Trazado 1176954" d="M75.492,197.139c-2.066,1.016-.623,3.926,1.691,4.37" transform="translate(-28.137 -74.459)" fill="none" stroke="#d16247" stroke-linecap="round" stroke-miterlimit="10" stroke-width="1"/>
            <path id="Trazado_1176955" data-name="Trazado 1176955" d="M129.6,336.874l-.921,11.805-7.941,102.139H39.266L31.326,348.679,30.4,336.874Z" transform="translate(-11.484 -127.236)" fill="#af4700"/>
            <path id="Trazado_1176956" data-name="Trazado 1176956" d="M131.265,332.738H22.837a.249.249,0,0,1-.249-.248v-6.325a.249.249,0,0,1,.249-.249H131.265a.248.248,0,0,1,.248.249v6.325a.248.248,0,0,1-.248.248" transform="translate(-8.531 -123.097)" fill="#cc6017"/>
            <g id="Grupo_1223061" data-name="Grupo 1223061" transform="translate(69.738 209.639)" opacity="0.55" style="mix-blend-mode: multiply;isolation: isolate">
              <g id="Grupo_1223060" data-name="Grupo 1223060">
                <g id="Grupo_1223059" data-name="Grupo 1223059" clip-path="url(#clip-path-9)">
                  <path id="Trazado_1176957" data-name="Trazado 1176957" d="M160.443,336.874l-.921,11.805-7.941,102.139H112.065V336.874Z" transform="translate(-112.064 -336.874)" fill="#8e3900"/>
                </g>
              </g>
            </g>
            <g id="Grupo_1223064" data-name="Grupo 1223064" transform="translate(18.921 209.639)" opacity="0.55" style="mix-blend-mode: multiply;isolation: isolate">
              <g id="Grupo_1223063" data-name="Grupo 1223063">
                <g id="Grupo_1223062" data-name="Grupo 1223062" clip-path="url(#clip-path-10)">
                  <path id="Trazado_1176958" data-name="Trazado 1176958" d="M129.6,336.874l-.921,11.805H31.326L30.4,336.874Z" transform="translate(-30.405 -336.874)" fill="#8e3900"/>
                </g>
              </g>
            </g>
            <path id="Trazado_1176959" data-name="Trazado 1176959" d="M338.436,142.815c2.754,1.067,25.5,5.4,28.914,10.716s13.269,57.7,13.269,57.7l-93.641-1.782s7.961-49.683,13.269-57.089,38.19-9.542,38.19-9.542" transform="translate(-108.389 -53.941)" fill="#215681"/>
          </g>
        </g>
        <g id="Grupo_1223071" data-name="Grupo 1223071" transform="translate(178.588 88.875)">
          <g id="Grupo_1223070" data-name="Grupo 1223070" clip-path="url(#clip-path-11)">
            <g id="Grupo_1223069" data-name="Grupo 1223069" transform="translate(11.291 24.307)" opacity="0.57" style="mix-blend-mode: multiply;isolation: isolate">
              <g id="Grupo_1223068" data-name="Grupo 1223068">
                <g id="Grupo_1223067" data-name="Grupo 1223067" clip-path="url(#clip-path-12)">
                  <path id="Trazado_1176960" data-name="Trazado 1176960" d="M372.465,213.272l-8.11-31.4s1.7,27.166-10.681,30.581-35.846-1.047-35.846-1.047-2.313-30.013-2.01-27.879-12.93,28.793-10.369,33.391,48.661,6.455,48.661,6.455Z" transform="translate(-305.121 -181.875)" fill="#215681"/>
                </g>
              </g>
            </g>
          </g>
        </g>
        <g id="Grupo_1223118" data-name="Grupo 1223118" transform="translate(0 0.001)">
          <g id="Grupo_1223117" data-name="Grupo 1223117" clip-path="url(#clip-path-3)">
            <path id="Trazado_1176962" data-name="Trazado 1176962" d="M322.759,140.923c-6.168.508-14.1,2.642-16.387,5.7s-3.68,8.473-3.68,8.473l32.991,17.238s39.289-18.011,39.845-19.25-2.5-8.175-7.784-10.129-22.732-4.567-28.6-4.345-16.383,2.316-16.383,2.316" transform="translate(-114.324 -52.346)" fill="#fff"/>
            <path id="Trazado_1176963" data-name="Trazado 1176963" d="M338.77,144.547c-2.53,8.674,11.2,17.71,11.2,17.71s16.131-8.565,17.349-14.819-19.517-8.674-28.553-2.891" transform="translate(-127.833 -53.355)" fill="#f8efe0"/>
            <path id="Trazado_1176964" data-name="Trazado 1176964" d="M362.548,130.5l.73,10.316a4.677,4.677,0,0,1-9.325.736l-.961-11.052Z" transform="translate(-133.322 -49.291)" fill="#f4876e"/>
            <path id="Trazado_1176965" data-name="Trazado 1176965" d="M315.906,98.473c-.5,12.792,5.7,20.491,8.719,22.684,8.035,5.842,20.311.291,24.813-8.868,3.976-8.088,4.079-23.951-9.061-27.626s-23.966.876-24.47,13.81" transform="translate(-119.305 -31.513)" fill="#fca388"/>
            <path id="Trazado_1176966" data-name="Trazado 1176966" d="M341.667,79.972a32.988,32.988,0,0,1-18.685.712s-7.081,6.272-12.657,5.059-7.362-10.635,1.7-16.019c0,0-8.007-6.345,4.278-10s25.338-4.23,33.425,3.654,5.2,11.729,5.2,11.729,5.191,2.188,3.077,9.939S346.818,102.8,346.818,102.8l-1.4-9.478-2.939,2.788s-2.365-10.369-.817-16.135" transform="translate(-115.456 -21.585)" fill="#491a10"/>
            <path id="Trazado_1176967" data-name="Trazado 1176967" d="M366.37,116.211c4.812-8.073,9.936-.311,6.676,4.968s-8.228,6.054-8.228,1.4" transform="translate(-137.789 -42.575)" fill="#fca388"/>
            <path id="Trazado_1176968" data-name="Trazado 1176968" d="M342.385,101.478c.331-2.05,8.069-1.307,7.634,1.184s-7.869.271-7.634-1.184" transform="translate(-129.314 -37.88)" fill="#491a10"/>
            <path id="Trazado_1176969" data-name="Trazado 1176969" d="M326.266,104.315c-.3-2.052-6.4-1.412-6.011,1.082s6.222.374,6.011-1.082" transform="translate(-120.951 -38.937)" fill="#491a10"/>
            <path id="Trazado_1176970" data-name="Trazado 1176970" d="M341.431,112.539c0,1.166.65,2.11,1.453,2.11s1.453-.945,1.453-2.11-.651-2.11-1.453-2.11-1.453.945-1.453,2.11" transform="translate(-128.956 -41.709)" fill="#491a10"/>
            <path id="Trazado_1176971" data-name="Trazado 1176971" d="M322.752,112.539c0,1.166.65,2.11,1.453,2.11s1.453-.945,1.453-2.11-.651-2.11-1.453-2.11-1.453.945-1.453,2.11" transform="translate(-121.901 -41.709)" fill="#491a10"/>
            <path id="Trazado_1176972" data-name="Trazado 1176972" d="M330.061,118.018c-.23,2.009-2.762,2.713-1.726,4.12a3.965,3.965,0,0,0,3.107,1.306" transform="translate(-123.916 -44.575)" fill="#fca388"/>
            <path id="Trazado_1176973" data-name="Trazado 1176973" d="M330.061,118.018c-.23,2.009-2.762,2.713-1.726,4.12a3.965,3.965,0,0,0,3.107,1.306" transform="translate(-123.916 -44.575)" fill="none" stroke="#d16247" stroke-linecap="round" stroke-miterlimit="10" stroke-width="1"/>
            <path id="Trazado_1176974" data-name="Trazado 1176974" d="M332.184,129.192a13.32,13.32,0,0,0,8.661-1.966s.347,3.975-2.316,5.013-6.344-3.046-6.344-3.046" transform="translate(-125.463 -48.053)" fill="#d16247"/>
            <path id="Trazado_1176975" data-name="Trazado 1176975" d="M369.54,119.713c2.644-3.14,4.792-1.735,4.214.5" transform="translate(-139.573 -44.526)" fill="#fca388"/>
            <path id="Trazado_1176976" data-name="Trazado 1176976" d="M369.54,119.713c2.644-3.14,4.792-1.735,4.214.5" transform="translate(-139.573 -44.526)" fill="none" stroke="#d16247" stroke-linecap="round" stroke-miterlimit="10" stroke-width="1"/>
            <path id="Trazado_1176977" data-name="Trazado 1176977" d="M370.832,119.1c2.294.577,1.469,3.812-.762,4.756" transform="translate(-139.773 -44.983)" fill="#fca388"/>
            <path id="Trazado_1176978" data-name="Trazado 1176978" d="M370.832,119.1c2.294.577,1.469,3.812-.762,4.756" transform="translate(-139.773 -44.983)" fill="none" stroke="#d16247" stroke-linecap="round" stroke-miterlimit="10" stroke-width="1"/>
            <rect id="Rectángulo_421451" data-name="Rectángulo 421451" width="28.651" height="9.523" transform="translate(167.922 129.319)" fill="#af4700"/>
            <g id="Grupo_1223074" data-name="Grupo 1223074" transform="translate(167.922 133.468)" opacity="0.55" style="mix-blend-mode: multiply;isolation: isolate">
              <g id="Grupo_1223073" data-name="Grupo 1223073">
                <g id="Grupo_1223072" data-name="Grupo 1223072" clip-path="url(#clip-path-14)">
                  <rect id="Rectángulo_421452" data-name="Rectángulo 421452" width="28.651" height="5.375" transform="translate(-0.001 -0.001)" fill="#8e3900"/>
                </g>
              </g>
            </g>
            <rect id="Rectángulo_421454" data-name="Rectángulo 421454" width="13.324" height="9.523" transform="translate(175.585 129.319)" fill="#ea9b1c"/>
            <g id="Grupo_1223077" data-name="Grupo 1223077" transform="translate(175.585 133.853)" opacity="0.3" style="mix-blend-mode: multiply;isolation: isolate">
              <g id="Grupo_1223076" data-name="Grupo 1223076">
                <g id="Grupo_1223075" data-name="Grupo 1223075" clip-path="url(#clip-path-15)">
                  <rect id="Rectángulo_421455" data-name="Rectángulo 421455" width="13.324" height="4.99" fill="#af4700"/>
                </g>
              </g>
            </g>
            <rect id="Rectángulo_421457" data-name="Rectángulo 421457" width="4.004" height="12.272" transform="translate(163.918 127.944)" fill="#ea9b1c"/>
            <rect id="Rectángulo_421458" data-name="Rectángulo 421458" width="4.004" height="12.272" transform="translate(196.573 127.944)" fill="#ea9b1c"/>
            <g id="Grupo_1223080" data-name="Grupo 1223080" transform="translate(163.918 134.622)" opacity="0.3" style="mix-blend-mode: multiply;isolation: isolate">
              <g id="Grupo_1223079" data-name="Grupo 1223079">
                <g id="Grupo_1223078" data-name="Grupo 1223078" clip-path="url(#clip-path-16)">
                  <rect id="Rectángulo_421459" data-name="Rectángulo 421459" width="4.004" height="5.595" fill="#af4700"/>
                </g>
              </g>
            </g>
            <g id="Grupo_1223083" data-name="Grupo 1223083" transform="translate(196.573 134.622)" opacity="0.3" style="mix-blend-mode: multiply;isolation: isolate">
              <g id="Grupo_1223082" data-name="Grupo 1223082">
                <g id="Grupo_1223081" data-name="Grupo 1223081" clip-path="url(#clip-path-16)">
                  <rect id="Rectángulo_421461" data-name="Rectángulo 421461" width="4.004" height="5.595" fill="#af4700"/>
                </g>
              </g>
            </g>
            <path id="Trazado_1176979" data-name="Trazado 1176979" d="M434.136,220.218v.666H404.87v-.666a2.368,2.368,0,0,1,.078-.61c.4-1.462,2.187-2.564,4.339-2.564H429.71c2.152,0,3.949,1.1,4.348,2.564a2.4,2.4,0,0,1,.078.61" transform="translate(-152.916 -81.977)" fill="#ea9b1c"/>
            <g id="Grupo_1223086" data-name="Grupo 1223086" transform="translate(251.954 137.631)" opacity="0.3" style="mix-blend-mode: multiply;isolation: isolate">
              <g id="Grupo_1223085" data-name="Grupo 1223085">
                <g id="Grupo_1223084" data-name="Grupo 1223084" clip-path="url(#clip-path-18)">
                  <path id="Trazado_1176980" data-name="Trazado 1176980" d="M434.136,221.774v.666H404.87v-.666a2.368,2.368,0,0,1,.078-.61h29.11a2.4,2.4,0,0,1,.078.61" transform="translate(-404.871 -221.164)" fill="#af4700"/>
                </g>
              </g>
            </g>
            <path id="Trazado_1176981" data-name="Trazado 1176981" d="M432.508,214.048v.666H411.524v-.666a3.265,3.265,0,0,1,.056-.61,3.172,3.172,0,0,1,3.112-2.564h14.643a3.179,3.179,0,0,1,3.118,2.564,3.271,3.271,0,0,1,.056.61" transform="translate(-155.43 -79.646)" fill="#ea9b1c"/>
            <g id="Grupo_1223089" data-name="Grupo 1223089" transform="translate(256.095 133.792)" opacity="0.3" style="mix-blend-mode: multiply;isolation: isolate">
              <g id="Grupo_1223088" data-name="Grupo 1223088">
                <g id="Grupo_1223087" data-name="Grupo 1223087" clip-path="url(#clip-path-19)">
                  <path id="Trazado_1176982" data-name="Trazado 1176982" d="M432.508,215.6v.666H411.524V215.6a3.266,3.266,0,0,1,.056-.61h20.872a3.271,3.271,0,0,1,.056.61" transform="translate(-411.525 -214.994)" fill="#af4700"/>
                </g>
              </g>
            </g>
            <path id="Trazado_1176983" data-name="Trazado 1176983" d="M386.636,235.193H253.066a1.377,1.377,0,0,1-1.377-1.377v-9.329a1.376,1.376,0,0,1,1.377-1.377H386.636a1.377,1.377,0,0,1,1.377,1.377v9.329a1.377,1.377,0,0,1-1.377,1.377" transform="translate(-95.061 -84.268)" fill="#cc6017"/>
            <path id="Trazado_1176984" data-name="Trazado 1176984" d="M385.619,242.524l-1.531,22.752-9.559,141.786H272.558L263,265.276l-1.531-22.752Z" transform="translate(-98.755 -91.6)" fill="#af4700"/>
            <g id="Grupo_1223092" data-name="Grupo 1223092" transform="translate(227.029 150.924)" opacity="0.55" style="mix-blend-mode: multiply;isolation: isolate">
              <g id="Grupo_1223091" data-name="Grupo 1223091">
                <g id="Grupo_1223090" data-name="Grupo 1223090" clip-path="url(#clip-path-20)">
                  <path id="Trazado_1176985" data-name="Trazado 1176985" d="M424.653,242.524l-1.531,22.752-9.559,141.786H364.818V242.524Z" transform="translate(-364.818 -242.524)" fill="#8e3900"/>
                </g>
              </g>
            </g>
            <g id="Grupo_1223095" data-name="Grupo 1223095" transform="translate(162.713 150.924)" opacity="0.55" style="mix-blend-mode: multiply;isolation: isolate">
              <g id="Grupo_1223094" data-name="Grupo 1223094">
                <g id="Grupo_1223093" data-name="Grupo 1223093" clip-path="url(#clip-path-21)">
                  <path id="Trazado_1176986" data-name="Trazado 1176986" d="M385.619,242.524l-1.531,22.752H263l-1.531-22.752Z" transform="translate(-261.468 -242.524)" fill="#8e3900"/>
                </g>
              </g>
            </g>
            <path id="Trazado_1176987" data-name="Trazado 1176987" d="M412.118,336.972A23.322,23.322,0,1,1,388.8,313.65a23.322,23.322,0,0,1,23.322,23.322" transform="translate(-138.037 -118.464)" fill="#cc6017"/>
            <path id="Trazado_1176988" data-name="Trazado 1176988" d="M405.964,336.972a23.322,23.322,0,1,1-23.322-23.322,23.322,23.322,0,0,1,23.322,23.322" transform="translate(-135.713 -118.464)" fill="#ea9b1c"/>
            <path id="Trazado_1176989" data-name="Trazado 1176989" d="M403.751,340.388A17.692,17.692,0,1,1,386.059,322.7a17.692,17.692,0,0,1,17.692,17.692" transform="translate(-139.13 -121.881)" fill="#cc6017"/>
            <g id="Grupo_1223098" data-name="Grupo 1223098" transform="translate(231.839 203.417)" opacity="0.52" style="mix-blend-mode: multiply;isolation: isolate">
              <g id="Grupo_1223097" data-name="Grupo 1223097">
                <g id="Grupo_1223096" data-name="Grupo 1223096" clip-path="url(#clip-path-22)">
                  <path id="Trazado_1176990" data-name="Trazado 1176990" d="M402.728,341.967a15.09,15.09,0,1,1-15.09-15.09,15.091,15.091,0,0,1,15.09,15.09" transform="translate(-372.548 -326.877)" fill="#cc6017"/>
                </g>
              </g>
            </g>
            <path id="Trazado_1176991" data-name="Trazado 1176991" d="M305.767,412.191H394.96a5.331,5.331,0,0,0,5.331-5.331V394.614a5.331,5.331,0,0,0-5.331-5.331H305.767Z" transform="translate(-115.486 -147.03)" fill="#7f7d2a"/>
            <path id="Trazado_1176992" data-name="Trazado 1176992" d="M400.291,394.611v12.247a5.332,5.332,0,0,1-5.333,5.333H305.769V389.278h89.189a5.332,5.332,0,0,1,5.333,5.333" transform="translate(-115.487 -147.028)" fill="#7f7d2a"/>
            <g id="Grupo_1223101" data-name="Grupo 1223101" transform="translate(190.282 248.373)" opacity="0.3" style="mix-blend-mode: multiply;isolation: isolate">
              <g id="Grupo_1223100" data-name="Grupo 1223100">
                <g id="Grupo_1223099" data-name="Grupo 1223099" clip-path="url(#clip-path-23)">
                  <path id="Trazado_1176993" data-name="Trazado 1176993" d="M400.291,399.118v11.457a5.332,5.332,0,0,1-5.333,5.333H305.769V404.451h89.189a5.332,5.332,0,0,0,5.333-5.333" transform="translate(-305.769 -399.118)" fill="#7f7d2a"/>
                </g>
              </g>
            </g>
            <g id="Grupo_1223104" data-name="Grupo 1223104" transform="translate(264.797 242.25)" opacity="0.5" style="mix-blend-mode: overlay;isolation: isolate">
              <g id="Grupo_1223103" data-name="Grupo 1223103">
                <g id="Grupo_1223102" data-name="Grupo 1223102" clip-path="url(#clip-path-24)">
                  <path id="Trazado_1176994" data-name="Trazado 1176994" d="M436.7,394.611v12.247a5.332,5.332,0,0,1-5.333,5.333h-5.862a5.332,5.332,0,0,0,5.333-5.333V394.611a5.332,5.332,0,0,0-5.333-5.333h5.862a5.332,5.332,0,0,1,5.333,5.333" transform="translate(-425.509 -389.278)" fill="#fff"/>
                </g>
              </g>
            </g>
            <path id="Trazado_1176995" data-name="Trazado 1176995" d="M373.75,394.611v12.247a5.336,5.336,0,0,1-5.333,5.333H305.769V389.278h62.648a5.336,5.336,0,0,1,5.333,5.333" transform="translate(-115.487 -147.028)" fill="#918c3c"/>
            <path id="Trazado_1176996" data-name="Trazado 1176996" d="M305.767,410.745h60.678a3.493,3.493,0,0,0,3.493-3.494v-8.565a3.493,3.493,0,0,0-3.493-3.494H305.767Z" transform="translate(-115.486 -149.262)" fill="#f8efe0"/>
            <path id="Trazado_1176997" data-name="Trazado 1176997" d="M364.394,402.614H314.543a.97.97,0,1,1,0-1.939h49.851a.97.97,0,0,1,0,1.939" transform="translate(-118.434 -151.333)" fill="#e3cdbb"/>
            <path id="Trazado_1176998" data-name="Trazado 1176998" d="M364.394,412.989H314.543a.97.97,0,1,1,0-1.939h49.851a.97.97,0,0,1,0,1.939" transform="translate(-118.434 -155.251)" fill="#e3cdbb"/>
            <path id="Trazado_1176999" data-name="Trazado 1176999" d="M284.684,448.424h89.193a5.332,5.332,0,0,0,5.331-5.331V430.847a5.332,5.332,0,0,0-5.331-5.331H284.684Z" transform="translate(-107.523 -160.715)" fill="#7f7d2a"/>
            <path id="Trazado_1177000" data-name="Trazado 1177000" d="M379.208,430.844v12.247a5.332,5.332,0,0,1-5.333,5.333H284.686V425.511h89.189a5.332,5.332,0,0,1,5.333,5.333" transform="translate(-107.524 -160.713)" fill="#ea9b1c"/>
            <g id="Grupo_1223107" data-name="Grupo 1223107" transform="translate(177.162 270.922)" opacity="0.3" style="mix-blend-mode: multiply;isolation: isolate">
              <g id="Grupo_1223106" data-name="Grupo 1223106">
                <g id="Grupo_1223105" data-name="Grupo 1223105" clip-path="url(#clip-path-23)">
                  <path id="Trazado_1177001" data-name="Trazado 1177001" d="M379.208,435.351v11.457a5.332,5.332,0,0,1-5.333,5.333H284.686V440.684h89.189a5.332,5.332,0,0,0,5.333-5.333" transform="translate(-284.686 -435.351)" fill="#ea9b1c"/>
                </g>
              </g>
            </g>
            <g id="Grupo_1223110" data-name="Grupo 1223110" transform="translate(251.677 264.798)" opacity="0.5" style="mix-blend-mode: overlay;isolation: isolate">
              <g id="Grupo_1223109" data-name="Grupo 1223109">
                <g id="Grupo_1223108" data-name="Grupo 1223108" clip-path="url(#clip-path-24)">
                  <path id="Trazado_1177002" data-name="Trazado 1177002" d="M415.621,430.844v12.247a5.332,5.332,0,0,1-5.333,5.333h-5.862a5.332,5.332,0,0,0,5.333-5.333V430.844a5.332,5.332,0,0,0-5.333-5.333h5.862a5.332,5.332,0,0,1,5.333,5.333" transform="translate(-404.426 -425.511)" fill="#fff"/>
                </g>
              </g>
            </g>
            <path id="Trazado_1177003" data-name="Trazado 1177003" d="M352.667,430.844v12.247a5.336,5.336,0,0,1-5.333,5.333H284.686V425.511h62.648a5.336,5.336,0,0,1,5.333,5.333" transform="translate(-107.524 -160.713)" fill="#f9b858"/>
            <path id="Trazado_1177004" data-name="Trazado 1177004" d="M284.684,446.978h60.677a3.493,3.493,0,0,0,3.494-3.494V434.92a3.493,3.493,0,0,0-3.494-3.493H284.684Z" transform="translate(-107.523 -162.947)" fill="#f8efe0"/>
            <path id="Trazado_1177005" data-name="Trazado 1177005" d="M343.311,438.847H293.46a.97.97,0,1,1,0-1.939h49.851a.97.97,0,0,1,0,1.939" transform="translate(-110.471 -165.018)" fill="#e3cdbb"/>
            <path id="Trazado_1177006" data-name="Trazado 1177006" d="M343.311,449.222H293.46a.97.97,0,1,1,0-1.939h49.851a.97.97,0,1,1,0,1.939" transform="translate(-110.471 -168.936)" fill="#e3cdbb"/>
            <path id="Trazado_1177007" data-name="Trazado 1177007" d="M305.767,484.657H394.96a5.331,5.331,0,0,0,5.331-5.331V467.08a5.331,5.331,0,0,0-5.331-5.331H305.767Z" transform="translate(-115.486 -174.4)" fill="#7f7d2a"/>
            <path id="Trazado_1177008" data-name="Trazado 1177008" d="M400.291,467.077v12.247a5.332,5.332,0,0,1-5.333,5.333H305.769V461.744h89.189a5.332,5.332,0,0,1,5.333,5.333" transform="translate(-115.487 -174.398)" fill="#d3492a"/>
            <g id="Grupo_1223113" data-name="Grupo 1223113" transform="translate(190.282 293.47)" opacity="0.3" style="mix-blend-mode: multiply;isolation: isolate">
              <g id="Grupo_1223112" data-name="Grupo 1223112">
                <g id="Grupo_1223111" data-name="Grupo 1223111" clip-path="url(#clip-path-23)">
                  <path id="Trazado_1177009" data-name="Trazado 1177009" d="M400.291,471.584v11.457a5.332,5.332,0,0,1-5.333,5.333H305.769V476.917h89.189a5.332,5.332,0,0,0,5.333-5.333" transform="translate(-305.769 -471.584)" fill="#7f7d2a"/>
                </g>
              </g>
            </g>
            <g id="Grupo_1223116" data-name="Grupo 1223116" transform="translate(264.797 287.346)" opacity="0.5" style="mix-blend-mode: overlay;isolation: isolate">
              <g id="Grupo_1223115" data-name="Grupo 1223115">
                <g id="Grupo_1223114" data-name="Grupo 1223114" clip-path="url(#clip-path-24)">
                  <path id="Trazado_1177010" data-name="Trazado 1177010" d="M436.7,467.077v12.247a5.332,5.332,0,0,1-5.333,5.333h-5.862a5.332,5.332,0,0,0,5.333-5.333V467.077a5.332,5.332,0,0,0-5.333-5.333h5.862a5.332,5.332,0,0,1,5.333,5.333" transform="translate(-425.509 -461.744)" fill="#fff"/>
                </g>
              </g>
            </g>
            <path id="Trazado_1177011" data-name="Trazado 1177011" d="M373.75,467.077v12.247a5.336,5.336,0,0,1-5.333,5.333H305.769V461.744h62.648a5.336,5.336,0,0,1,5.333,5.333" transform="translate(-115.487 -174.398)" fill="#e2543d"/>
            <path id="Trazado_1177012" data-name="Trazado 1177012" d="M305.767,483.211h60.678a3.493,3.493,0,0,0,3.493-3.494v-8.565a3.493,3.493,0,0,0-3.493-3.493H305.767Z" transform="translate(-115.486 -176.632)" fill="#f8efe0"/>
            <path id="Trazado_1177013" data-name="Trazado 1177013" d="M364.394,475.081H314.543a.97.97,0,1,1,0-1.939h49.851a.97.97,0,1,1,0,1.939" transform="translate(-118.434 -178.703)" fill="#e3cdbb"/>
            <path id="Trazado_1177014" data-name="Trazado 1177014" d="M364.394,485.455H314.543a.97.97,0,1,1,0-1.939h49.851a.97.97,0,0,1,0,1.939" transform="translate(-118.434 -182.621)" fill="#e3cdbb"/>
            <path id="Trazado_1177015" data-name="Trazado 1177015" d="M57.456,452.617C78.28,431.253,69.08,402.5,69.08,402.5s-18.832,23.772-11.625,50.113" transform="translate(-21.08 -152.023)" fill="#7f7d2a"/>
            <path id="Trazado_1177016" data-name="Trazado 1177016" d="M58.453,452.617C69.53,420.169,70.078,402.5,70.078,402.5s-5.622,19.526-11.625,50.113" transform="translate(-22.077 -152.023)" fill="#a2a34a"/>
            <path id="Trazado_1177017" data-name="Trazado 1177017" d="M44.3,444.666c17.425-31.545-2.486-62.09-2.486-62.09S27.48,416.289,44.3,444.666" transform="translate(-13.642 -144.497)" fill="#6b671f"/>
            <path id="Trazado_1177018" data-name="Trazado 1177018" d="M47.747,444.666c2.526-41.338-2.486-62.09-2.486-62.09s-.3,24.541,2.486,62.09" transform="translate(-17.091 -144.497)" fill="#a2a34a"/>
            <path id="Trazado_1177019" data-name="Trazado 1177019" d="M32.07,452.036c3.971-29.569-20.562-47.156-20.562-47.156s-.934,30.313,20.562,47.156" transform="translate(-4.344 -152.921)" fill="#7f7d2a"/>
            <path id="Trazado_1177020" data-name="Trazado 1177020" d="M32.073,452.036C21.609,419.385,11.511,404.88,11.511,404.88s7.135,19.025,20.562,47.156" transform="translate(-4.348 -152.921)" fill="#a2a34a"/>
            <rect id="Rectángulo_421474" data-name="Rectángulo 421474" width="29.555" height="50.047" transform="translate(15.842 292.157)" fill="#215681"/>
            <path id="Trazado_1177021" data-name="Trazado 1177021" d="M74.678,73.444h-14.9v-14.2a7.451,7.451,0,1,1,14.9,0Z" transform="translate(-22.577 -19.564)" fill="none" stroke="#cc6017" stroke-miterlimit="10" stroke-width="5"/>
            <path id="Trazado_1177022" data-name="Trazado 1177022" d="M75.557,99.045H47.4A2.845,2.845,0,0,1,44.557,96.2V71.5A2.845,2.845,0,0,1,47.4,68.656H75.557A2.845,2.845,0,0,1,78.4,71.5V96.2a2.845,2.845,0,0,1-2.845,2.845" transform="translate(-16.829 -25.932)" fill="#ea9b1c"/>
            <path id="Trazado_1177023" data-name="Trazado 1177023" d="M73.518,85.038a4.507,4.507,0,0,1-3.591,4.412V95.4H68.1V89.45a4.506,4.506,0,1,1,5.42-4.412" transform="translate(-24.364 -30.417)" fill="#cc6017"/>
            <path id="Trazado_1177024" data-name="Trazado 1177024" d="M143.115,76.748H114.96a2.845,2.845,0,0,1-2.845-2.845V49.2a2.845,2.845,0,0,1,2.845-2.845h28.155a2.845,2.845,0,0,1,2.845,2.845V73.9a2.845,2.845,0,0,1-2.845,2.845" transform="translate(-42.345 -17.51)" fill="#ea9b1c"/>
            <path id="Trazado_1177025" data-name="Trazado 1177025" d="M123.268,66.642l8.035,6.437L143.231,61.36" transform="translate(-46.557 -23.176)" fill="none" stroke="#fff" stroke-miterlimit="10" stroke-width="5"/>
            <path id="Trazado_1177026" data-name="Trazado 1177026" d="M440.384,94.637H412.229a2.845,2.845,0,0,1-2.845-2.845v-24.7a2.845,2.845,0,0,1,2.845-2.845h28.155a2.845,2.845,0,0,1,2.845,2.845v24.7a2.845,2.845,0,0,1-2.845,2.845" transform="translate(-154.621 -24.267)" fill="#cc6017"/>
            <path id="Trazado_1177027" data-name="Trazado 1177027" d="M440.369,84.206V81.412H437.2a6.467,6.467,0,0,0-.911-2.2l2.237-2.242L436.554,75l-2.237,2.242a6.455,6.455,0,0,0-2.2-.911V73.159h-2.793v3.168a6.5,6.5,0,0,0-2.2.911L424.879,75l-1.973,1.974,2.237,2.242a6.467,6.467,0,0,0-.911,2.2h-3.168v2.794h3.168a6.467,6.467,0,0,0,.911,2.2l-2.237,2.237,1.973,1.979,2.242-2.242a6.5,6.5,0,0,0,2.2.91v3.168h2.793V89.291a6.454,6.454,0,0,0,2.2-.91l2.237,2.242,1.973-1.979-2.237-2.237a6.467,6.467,0,0,0,.911-2.2Zm-8.939,1.6a3.087,3.087,0,0,1-3.715-3.7,3.083,3.083,0,1,1,3.715,3.7" transform="translate(-159.033 -27.632)" fill="#ea9b1c"/>
          </g>
        </g>
      </g>
    </g>
  </g>
</svg>
