<svg xmlns="http://www.w3.org/2000/svg" xmlns:xlink="http://www.w3.org/1999/xlink" width="108" height="108" viewBox="0 0 108 108">
  <defs>
    <filter id="Trazado_904820" x="0" y="0" width="108" height="108" filterUnits="userSpaceOnUse">
      <feOffset dy="3" input="SourceAlpha"/>
      <feGaussianBlur stdDeviation="3" result="blur"/>
      <feFlood flood-opacity="0.161"/>
      <feComposite operator="in" in2="blur"/>
      <feComposite in="SourceGraphic"/>
    </filter>
  </defs>
  <g id="Grupo_1222968" data-name="Grupo 1222968" transform="translate(-200 -963.716)">
    <g id="Grupo_1222851" data-name="Grupo 1222851" transform="translate(209 969.716)">
      <g id="Grupo_1173585" data-name="Grupo 1173585" transform="translate(0 0)">
        <g id="Grupo_1173428" data-name="Grupo 1173428">
          <g id="Grupo_1171958" data-name="Grupo 1171958">
            <g id="Grupo_1167341" data-name="Grupo 1167341">
              <g id="Grupo_1166792" data-name="Grupo 1166792">
                <g transform="matrix(1, 0, 0, 1, -9, -6)" filter="url(#Trazado_904820)">
                  <g id="Trazado_904820-2" data-name="Trazado 904820" transform="translate(9 6)" fill="#e7f2f8">
                    <path d="M 44.99996566772461 88.50004577636719 C 39.1268424987793 88.50004577636719 33.43020248413086 87.35012054443359 28.06827735900879 85.08220672607422 C 22.88851547241211 82.891357421875 18.23628997802734 79.75463104248047 14.24084091186523 75.75917816162109 C 10.24540328979492 71.76373291015625 7.108690738677979 67.11149597167969 4.91782808303833 61.93173217773438 C 2.649928092956543 56.56979370117188 1.500003218650818 50.87314224243164 1.500003218650818 45.00001907348633 C 1.500003218650818 39.12689590454102 2.649928092956543 33.43024444580078 4.91782808303833 28.06830596923828 C 7.108690738677979 22.88853073120117 10.24540328979492 18.23630714416504 14.24084091186523 14.24086952209473 C 18.23628997802734 10.2454195022583 22.88850402832031 7.108694076538086 28.06827735900879 4.917831420898438 C 33.43020248413086 2.649931669235229 39.1268424987793 1.500006556510925 44.99996566772461 1.500006556510925 C 50.87308883666992 1.500006556510925 56.56972885131836 2.649931669235229 61.9316520690918 4.917831420898438 C 67.11142730712891 7.108694076538086 71.76364135742188 10.2454195022583 75.75909423828125 14.24086952209473 C 79.75453186035156 18.23630714416504 82.89124298095703 22.88853073120117 85.08209991455078 28.06830596923828 C 87.35000610351562 33.43024444580078 88.49993133544922 39.12689590454102 88.49993133544922 45.00001907348633 C 88.49993133544922 50.87314224243164 87.35000610351562 56.56979370117188 85.08209991455078 61.93173217773438 C 82.89124298095703 67.11149597167969 79.75453186035156 71.76373291015625 75.75909423828125 75.75917816162109 C 71.76364135742188 79.75463104248047 67.11141204833984 82.891357421875 61.9316520690918 85.08220672607422 C 56.56972885131836 87.35012054443359 50.87308883666992 88.50004577636719 44.99996566772461 88.50004577636719 Z" stroke="none"/>
                    <path d="M 44.99996566772461 3.000007629394531 C 39.32867813110352 3.000007629394531 33.82863616943359 4.110061645507812 28.65260696411133 6.299346923828125 C 23.65163421630859 8.414573669433594 19.15968322753906 11.44334411621094 15.30149078369141 15.30152130126953 C 11.44332122802734 19.15969085693359 8.414566040039062 23.65166473388672 6.299324035644531 28.65263366699219 C 4.110054016113281 33.82867431640625 2.999992370605469 39.32873153686523 2.999992370605469 45.00001907348633 C 2.999992370605469 50.67130661010742 4.110054016113281 56.17136383056641 6.299324035644531 61.34738922119141 C 8.414566040039062 66.34837341308594 11.44332122802734 70.84033203125 15.30150604248047 74.69851684570312 C 19.15968322753906 78.55668640136719 23.65163421630859 81.58546447753906 28.65260696411133 83.70069122314453 C 33.82863616943359 85.88997650146484 39.32867813110352 87.00003051757812 44.99996566772461 87.00003051757812 C 50.6712532043457 87.00003051757812 56.17129516601562 85.88997650146484 61.34732055664062 83.70069122314453 C 66.34829711914062 81.58546447753906 70.84025573730469 78.55668640136719 74.69842529296875 74.69851684570312 C 78.55659484863281 70.84033203125 81.58536529541016 66.34837341308594 83.70059204101562 61.34740447998047 C 85.88986206054688 56.17136383056641 86.99992370605469 50.67130661010742 86.99992370605469 45.00001907348633 C 86.99992370605469 39.32873153686523 85.88986206054688 33.82867431640625 83.70059204101562 28.65263366699219 C 81.58536529541016 23.65166473388672 78.55659484863281 19.15969085693359 74.69842529296875 15.30152130126953 C 70.84025573730469 11.44334411621094 66.34829711914062 8.414573669433594 61.34732055664062 6.299346923828125 C 56.17129516601562 4.110061645507812 50.6712532043457 3.000007629394531 44.99996566772461 3.000007629394531 M 44.99996566772461 7.62939453125e-06 C 69.85276794433594 7.62939453125e-06 89.99992370605469 20.14719390869141 89.99992370605469 45.00001907348633 C 89.99992370605469 69.85282897949219 69.85276794433594 90.00003051757812 44.99996566772461 90.00003051757812 C 20.14716339111328 90.00003051757812 -7.62939453125e-06 69.85282897949219 -7.62939453125e-06 45.00001907348633 C -7.62939453125e-06 20.14719390869141 20.14716339111328 7.62939453125e-06 44.99996566772461 7.62939453125e-06 Z" stroke="none" fill="#248abf"/>
                  </g>
                </g>
              </g>
            </g>
          </g>
        </g>
      </g>
    </g>
    <g id="document_5507166" transform="translate(227 983)">
      <path id="Trazado_1176688" data-name="Trazado 1176688" d="M14,1H39a6,6,0,0,1,6,6V53a6,6,0,0,1-6,6H7a6,6,0,0,1-6-6V14Z" fill="#f5f5f5"/>
      <path id="Trazado_1176689" data-name="Trazado 1176689" d="M39,1H36a6,6,0,0,1,6,6V53a6,6,0,0,1-6,6h3a6,6,0,0,0,6-6V7A6,6,0,0,0,39,1Z" fill="#cfd8dc"/>
      <path id="Trazado_1176690" data-name="Trazado 1176690" d="M1,14H8a6,6,0,0,0,6-6V1Z" fill="#9e9e9e"/>
      <path id="Trazado_1176691" data-name="Trazado 1176691" d="M17,29H29V45H17Z" fill="sienna"/>
      <path id="Trazado_1176692" data-name="Trazado 1176692" d="M26,29h3V45H26Z" fill="#783e22"/>
      <path id="Trazado_1176693" data-name="Trazado 1176693" d="M29,35h7v4H29Z" fill="#783e22"/>
      <rect id="Rectángulo_421439" data-name="Rectángulo 421439" width="23" height="8" rx="2" transform="translate(36 33)" fill="#ff9801"/>
      <path id="Trazado_1176694" data-name="Trazado 1176694" d="M57,33H54a2,2,0,0,1,2,2v4a2,2,0,0,1-2,2h3a2,2,0,0,0,2-2V35A2,2,0,0,0,57,33Z" fill="#f57c00"/>
      <rect id="Rectángulo_421440" data-name="Rectángulo 421440" width="18" height="5" rx="1" transform="translate(14 24)" fill="#ff9801"/>
      <path id="Trazado_1176695" data-name="Trazado 1176695" d="M31,24H28a1,1,0,0,1,1,1v3a1,1,0,0,1-1,1h3a1,1,0,0,0,1-1V25A1,1,0,0,0,31,24Z" fill="#f57c00"/>
      <rect id="Rectángulo_421441" data-name="Rectángulo 421441" width="18" height="5" rx="1" transform="translate(14 45)" fill="#ff9801"/>
      <path id="Trazado_1176696" data-name="Trazado 1176696" d="M31,45H28a1,1,0,0,1,1,1v3a1,1,0,0,1-1,1h3a1,1,0,0,0,1-1V46A1,1,0,0,0,31,45Z" fill="#f57c00"/>
      <path id="Trazado_1176697" data-name="Trazado 1176697" d="M14,50H32a4,4,0,0,1,4,4v1H10V54a4,4,0,0,1,4-4Z" fill="sienna"/>
      <path id="Trazado_1176698" data-name="Trazado 1176698" d="M32,50H29a4,4,0,0,1,4,4v1h3V54A4,4,0,0,0,32,50Z" fill="#783e22"/>
      <path id="Trazado_1176699" data-name="Trazado 1176699" d="M38,9h2a1,1,0,0,0,0-2H38a1,1,0,0,0,0,2Z"/>
      <path id="Trazado_1176700" data-name="Trazado 1176700" d="M26,9h8a1,1,0,0,0,0-2H26a1,1,0,0,0,0,2Z"/>
      <path id="Trazado_1176701" data-name="Trazado 1176701" d="M19,19h8a1,1,0,0,0,0-2H19a1,1,0,0,0,0,2Z"/>
      <path id="Trazado_1176702" data-name="Trazado 1176702" d="M40,12H27a1,1,0,0,0,0,2H40a1,1,0,0,0,0-2Z"/>
      <path id="Trazado_1176703" data-name="Trazado 1176703" d="M40,17H32a1,1,0,0,0,0,2h8a1,1,0,0,0,0-2Z"/>
      <path id="Trazado_1176704" data-name="Trazado 1176704" d="M14,19a1,1,0,0,0,0-2H6a1,1,0,0,0,0,2Z"/>
      <path id="Trazado_1176705" data-name="Trazado 1176705" d="M57,32H46V7a7.008,7.008,0,0,0-7-7H14a1,1,0,0,0-.707.293l-13,13A1,1,0,0,0,0,14V53a7.008,7.008,0,0,0,7,7H39a7.008,7.008,0,0,0,7-7V42H57a3,3,0,0,0,3-3V35A3,3,0,0,0,57,32ZM13,3.414V8a5.006,5.006,0,0,1-5,5H3.414ZM44,53a5.006,5.006,0,0,1-5,5H7a5.006,5.006,0,0,1-5-5V15H8a7.008,7.008,0,0,0,7-7V2H39a5.006,5.006,0,0,1,5,5V32H38a3,3,0,0,0-2.816,2H30V30h1a2,2,0,0,0,2-2V25a2,2,0,0,0-2-2H15a2,2,0,0,0-2,2v3a2,2,0,0,0,2,2h1V44H15a2,2,0,0,0-2,2v3c0,.034.008.066.01.1A5.008,5.008,0,0,0,9,54v1a1,1,0,0,0,1,1H36a1,1,0,0,0,1-1V54a5.008,5.008,0,0,0-4.01-4.9c0-.034.01-.066.01-.1V46a2,2,0,0,0-2-2H30V40h5.184A3,3,0,0,0,38,42h6ZM15,49V46H31v3Zm17,2a3,3,0,0,1,3,3H11a3,3,0,0,1,3-3ZM18,44V30H28V44ZM17,28H15V25H31v3Zm13,8h5v2H30Zm28,3a1,1,0,0,1-1,1H38a1,1,0,0,1-1-1V35a1,1,0,0,1,1-1H57a1,1,0,0,1,1,1Z"/>
      <path id="Trazado_1176706" data-name="Trazado 1176706" d="M9.707,48.707a1,1,0,0,0,0-1.414l-2-2a1,1,0,1,0-1.414,1.414l2,2a1,1,0,0,0,1.414,0Z"/>
      <path id="Trazado_1176707" data-name="Trazado 1176707" d="M9.9,40.553a1,1,0,0,0-1.79.894l2,4a1,1,0,1,0,1.79-.894Z"/>
      <path id="Trazado_1176708" data-name="Trazado 1176708" d="M36.293,48.707a1,1,0,0,0,1.414,0l2-2a1,1,0,1,0-1.414-1.414l-2,2A1,1,0,0,0,36.293,48.707Z"/>
    </g>
  </g>
</svg>
