<svg xmlns="http://www.w3.org/2000/svg" xmlns:xlink="http://www.w3.org/1999/xlink" width="400" height="396.898" viewBox="0 0 400 396.898">
  <defs>
    <clipPath id="clip-path">
      <rect id="Rectángulo_421387" data-name="Rectángulo 421387" width="400" height="396.898" transform="translate(180 859.102)" fill="#27454a" stroke="#707070" stroke-width="1" opacity="0.38"/>
    </clipPath>
    <clipPath id="clip-path-2">
      <rect id="Rectángulo_421438" data-name="Rectángulo 421438" width="390.094" height="360.97" fill="none"/>
    </clipPath>
  </defs>
  <g id="Enmascarar_grupo_1211511" data-name="Enmascarar grupo 1211511" transform="translate(-180 -859.102)" clip-path="url(#clip-path)">
    <g id="Grupo_1222848" data-name="Grupo 1222848" transform="translate(180 858.034)">
      <rect id="Rectángulo_421362" data-name="Rectángulo 421362" width="304" height="396.898" fill="#bca78f" opacity="0.52"/>
    </g>
    <g id="Grupo_1222965" data-name="Grupo 1222965" transform="translate(184.953 895.03)">
      <g id="Grupo_1222964" data-name="Grupo 1222964" clip-path="url(#clip-path-2)">
        <path id="Trazado_1176580" data-name="Trazado 1176580" d="M368.613,401.722H3.854a3.853,3.853,0,1,1,0-7.707H368.613a3.853,3.853,0,1,1,0,7.707" transform="translate(0 -40.752)" fill="#d5992f"/>
        <path id="Trazado_1176581" data-name="Trazado 1176581" d="M414.02,264.5c-17.916,27.805-51.312,62.087-61.167,55.736s7.562-50.927,25.479-78.733,29.547-28.31,39.4-21.96,14.2,17.151-3.715,44.956" transform="translate(-36.199 -22.363)" fill="#6a672a"/>
        <path id="Trazado_1176582" data-name="Trazado 1176582" d="M341.9,337.645h0a1.136,1.136,0,0,1-.34-1.572l65.7-101.967a1.137,1.137,0,0,1,1.912,1.232L343.473,337.3a1.137,1.137,0,0,1-1.572.34" transform="translate(-35.308 -24.159)" fill="#f4eddf"/>
        <path id="Trazado_1176583" data-name="Trazado 1176583" d="M388.956,248.661c-9.718,31.619-32.582,73.662-43.79,70.217s-6.51-51.072,3.207-82.69,20.778-35.253,31.984-31.809,18.316,12.664,8.6,44.282" transform="translate(-35.026 -21.029)" fill="#7d7c34"/>
        <path id="Trazado_1176584" data-name="Trazado 1176584" d="M339.739,338.379h0a1.137,1.137,0,0,1-.753-1.421l35.637-115.949a1.137,1.137,0,1,1,2.174.668L341.16,337.626a1.137,1.137,0,0,1-1.421.753" transform="translate(-35.055 -22.775)" fill="#f4eddf"/>
        <path id="Trazado_1176585" data-name="Trazado 1176585" d="M219.387,194.2c17.142,28.29,33.323,73.33,23.3,79.406s-42.463-29.114-59.605-57.4-12.5-38.965-2.473-45.041,21.64-5.25,38.782,23.039" transform="translate(-17.752 -17.387)" fill="#6a672a"/>
        <path id="Trazado_1176586" data-name="Trazado 1176586" d="M254.164,291.278h0a1.137,1.137,0,0,1-1.562-.384L189.738,187.154a1.137,1.137,0,0,1,1.946-1.179l62.863,103.742a1.137,1.137,0,0,1-.383,1.562" transform="translate(-19.607 -19.178)" fill="#f4eddf"/>
        <path id="Trazado_1176587" data-name="Trazado 1176587" d="M193.041,212.016c24.162,22.591,51.934,61.567,43.928,70.131s-48.761-16.528-72.923-39.118-22.583-34.125-14.577-42.689,19.41-10.914,43.572,11.677" transform="translate(-14.912 -20.088)" fill="#7d7c34"/>
        <path id="Trazado_1176588" data-name="Trazado 1176588" d="M252.357,296.66h0a1.137,1.137,0,0,1-1.608.054L162.143,213.87a1.137,1.137,0,1,1,1.553-1.661L252.3,295.052a1.138,1.138,0,0,1,.054,1.608" transform="translate(-16.733 -21.916)" fill="#f4eddf"/>
        <path id="Trazado_1176589" data-name="Trazado 1176589" d="M339.809,47.6,325.8,79.542h28.021Z" transform="translate(-33.696 -4.923)" fill="none" stroke="#d5992f" stroke-miterlimit="10" stroke-width="0.907"/>
        <path id="Trazado_1176590" data-name="Trazado 1176590" d="M355.58,78.832a15.268,15.268,0,0,1-.106,1.847,16,16,0,0,1-31.794,0,15.262,15.262,0,0,1-.106-1.847Z" transform="translate(-33.466 -8.153)" fill="#2a4056"/>
        <path id="Trazado_1176591" data-name="Trazado 1176591" d="M355.58,78.832a15.268,15.268,0,0,1-.106,1.847H323.68a15.262,15.262,0,0,1-.106-1.847Z" transform="translate(-33.466 -8.153)" fill="#d5992f"/>
        <path id="Trazado_1176592" data-name="Trazado 1176592" d="M251.659,47.6,237.648,79.542H265.67Z" transform="translate(-24.579 -4.923)" fill="none" stroke="#d5992f" stroke-miterlimit="10" stroke-width="0.907"/>
        <path id="Trazado_1176593" data-name="Trazado 1176593" d="M267.431,78.832a15.262,15.262,0,0,1-.106,1.847,16,16,0,0,1-31.794,0,15.265,15.265,0,0,1-.106-1.847Z" transform="translate(-24.349 -8.153)" fill="#2a4056"/>
        <path id="Trazado_1176594" data-name="Trazado 1176594" d="M267.431,78.832a15.262,15.262,0,0,1-.106,1.847H235.531a15.265,15.265,0,0,1-.106-1.847Z" transform="translate(-24.349 -8.153)" fill="#d5992f"/>
        <path id="Trazado_1176595" data-name="Trazado 1176595" d="M299.566,98.9c0,24.4-1.123,22.387-2.507,22.387s-2.506,2.018-2.506-22.387,1.122-65.991,2.506-65.991,2.507,41.587,2.507,65.991" transform="translate(-30.465 -3.404)" fill="#39577f"/>
        <path id="Trazado_1176596" data-name="Trazado 1176596" d="M336.109,46.621h-15.3a37.015,37.015,0,0,1-4.32-.237c-4.507-.529-13.649-.891-24.2-.891s-19.691.362-24.2.891a37.01,37.01,0,0,1-4.319.237h-15.3v1.021h15.3a37.2,37.2,0,0,1,4.319.237c4.507.53,13.649.892,24.2.892s19.691-.362,24.2-.892a37.207,37.207,0,0,1,4.319-.237h15.3Z" transform="translate(-25.7 -4.705)" fill="#39577f"/>
        <rect id="Rectángulo_421420" data-name="Rectángulo 421420" width="8.587" height="13.226" transform="translate(262.302 100.716)" fill="#d5992f"/>
        <rect id="Rectángulo_421421" data-name="Rectángulo 421421" width="8.587" height="13.226" transform="translate(262.302 102.196)" fill="#39577f"/>
        <rect id="Rectángulo_421422" data-name="Rectángulo 421422" width="34.379" height="5.476" transform="translate(249.405 111.788)" fill="#d5992f"/>
        <rect id="Rectángulo_421423" data-name="Rectángulo 421423" width="44.019" height="7.453" transform="translate(244.585 113.644)" fill="#39577f"/>
        <path id="Trazado_1176597" data-name="Trazado 1176597" d="M350.97,138.289l-1.383,31.247L341.7,347.631H239.019l-8.734-197.114-.4-9.089-.139-3.138Z" transform="translate(-23.762 -14.303)" fill="#984911"/>
        <path id="Trazado_1176598" data-name="Trazado 1176598" d="M350.986,138.289,349.6,169.536l-119.3-19.02-.4-9.089,2.187-3.138Z" transform="translate(-23.778 -14.303)" fill="#7c3c0e"/>
        <rect id="Rectángulo_421424" data-name="Rectángulo 421424" width="145.964" height="11.594" transform="translate(193.613 120.343)" fill="#b36023"/>
        <rect id="Rectángulo_421425" data-name="Rectángulo 421425" width="145.964" height="3.624" transform="translate(193.613 120.344)" fill="#d9803c"/>
        <rect id="Rectángulo_421426" data-name="Rectángulo 421426" width="118.582" height="11.594" transform="translate(207.304 330.346)" fill="#b36023"/>
        <path id="Trazado_1176599" data-name="Trazado 1176599" d="M223.511,371.154a18.37,18.37,0,0,0,18.362,18.373H355.913V352.792H241.873a18.37,18.37,0,0,0-18.362,18.362" transform="translate(-23.117 -36.488)" fill="#b64a30"/>
        <path id="Trazado_1176600" data-name="Trazado 1176600" d="M229.42,371.767c0,.36.011.71.042,1.061a13.083,13.083,0,0,0,13.019,12.011H356.522V358.706H242.481a13.08,13.08,0,0,0-13.061,13.061" transform="translate(-23.728 -37.1)" fill="#f4eddf"/>
        <path id="Trazado_1176601" data-name="Trazado 1176601" d="M229.467,374.457a13.082,13.082,0,0,0,13.019,12.011H356.527V374.457Z" transform="translate(-23.733 -38.729)" fill="#dbcbb9"/>
        <path id="Trazado_1176602" data-name="Trazado 1176602" d="M253.184,394.15l7.371-2.479,7,2.479v-21.8H253.184Z" transform="translate(-26.186 -38.511)" fill="#b64a30"/>
        <path id="Trazado_1176603" data-name="Trazado 1176603" d="M355.913,333.012a18.37,18.37,0,0,1-18.362,18.373H223.511V314.65H337.552a18.37,18.37,0,0,1,18.362,18.362" transform="translate(-23.117 -32.543)" fill="#39577f"/>
        <path id="Trazado_1176604" data-name="Trazado 1176604" d="M350.616,333.624c0,.36-.011.71-.042,1.06A13.083,13.083,0,0,1,337.555,346.7H223.514V320.563H337.555a13.08,13.08,0,0,1,13.061,13.061" transform="translate(-23.117 -33.155)" fill="#f4eddf"/>
        <path id="Trazado_1176605" data-name="Trazado 1176605" d="M350.574,336.314a13.082,13.082,0,0,1-13.019,12.011H223.515V336.314Z" transform="translate(-23.117 -34.784)" fill="#dbcbb9"/>
        <path id="Trazado_1176606" data-name="Trazado 1176606" d="M339.856,356.007l-7.371-2.479-7,2.479v-21.8h14.368Z" transform="translate(-33.664 -34.566)" fill="#39577f"/>
        <path id="Trazado_1176607" data-name="Trazado 1176607" d="M323.866,243.339c-5.03,11.969-19.805,15.986-26.35,17.205-.61.108-1.148.2-1.6.269-.448-.072-.986-.161-1.6-.269-6.545-1.219-21.32-5.236-26.35-17.205-6.545-15.573,1.058-36.087,1.058-36.087l25.292-6.913,1.6-.43,1.6.43,25.283,6.913s7.612,20.514,1.067,36.087" transform="translate(-27.441 -20.676)" fill="#7c3c0e"/>
        <path id="Trazado_1176608" data-name="Trazado 1176608" d="M321.766,238.671c-5.03,11.969-19.805,15.986-26.35,17.205-.61.108-1.148.2-1.6.269-.448-.072-.986-.161-1.6-.269-6.545-1.219-21.32-5.236-26.35-17.205-6.545-15.573,1.058-36.087,1.058-36.087l25.292-6.913,1.6-.43,1.6.43,25.283,6.913s7.612,20.514,1.067,36.087" transform="translate(-27.223 -20.193)" fill="#d5992f"/>
        <path id="Trazado_1176609" data-name="Trazado 1176609" d="M293.253,252.111c-5.45-1.015-18.642-4.488-22.933-14.7-4.851-11.545-.736-26.606.634-30.933l22.527-6.157.835-.226.844.228,22.511,6.155c1.37,4.323,5.494,19.387.641,30.933-4.29,10.209-17.483,13.683-22.956,14.7-.371.065-.723.126-1.04.177-.319-.051-.675-.113-1.062-.181" transform="translate(-27.72 -20.695)" fill="#b36023"/>
        <path id="Trazado_1176610" data-name="Trazado 1176610" d="M306.77,225.717a10.65,10.65,0,1,1-10.65-10.65,10.65,10.65,0,0,1,10.65,10.65" transform="translate(-29.525 -22.244)" fill="#d5992f"/>
        <path id="Trazado_1176611" data-name="Trazado 1176611" d="M65.675,332.111H27.154V294.764a19.261,19.261,0,1,1,38.521,0Z" transform="translate(-2.808 -28.494)" fill="none" stroke="#d5992f" stroke-miterlimit="10" stroke-width="3.705"/>
        <rect id="Rectángulo_421427" data-name="Rectángulo 421427" width="54.301" height="44.737" transform="translate(16.456 279.525)" fill="#b36023"/>
        <rect id="Rectángulo_421428" data-name="Rectángulo 421428" width="60.512" height="6.072" transform="translate(13.35 276.723)" fill="#d5992f"/>
        <path id="Trazado_1176612" data-name="Trazado 1176612" d="M42.382,348.5l3.308-14.628a4.654,4.654,0,1,1,4.6,0L53.6,348.5Z" transform="translate(-4.383 -33.632)" fill="#7c3c0e"/>
        <path id="Trazado_1176613" data-name="Trazado 1176613" d="M78.992,213.82,46.187,246.87h-1.84l-2.293-4.508L25.888,224.725l4.906-4.5-.585-1.149h1.84l12.682,13.839.808.885,2.2-2.215,3.275-1.45,5.672-5.714,2.871-3.331,3.687-3.275,6.09-6.132.62-.878,1.268-2.878h1.84Z" transform="translate(-2.678 -21.505)" fill="#b36023"/>
        <path id="Trazado_1176614" data-name="Trazado 1176614" d="M76.948,213.82,50.17,240.794l-5.08,5.115-.955.961-20.3-22.144L30,219.074l.843.92,5.909,6.445,6.459,7.052,1.164,1.269.955-.962,2.2-2.215,23.482-23.657.927.92.168.167Z" transform="translate(-2.465 -21.505)" fill="#d5992f"/>
        <path id="Trazado_1176615" data-name="Trazado 1176615" d="M36.4,95.445s-2.795-6.987-5.673-6.576-1.808,7.481-1.808,7.481l4.111,2.137Z" transform="translate(-2.971 -9.19)" fill="#e5a187"/>
        <path id="Trazado_1176616" data-name="Trazado 1176616" d="M57.763,120.194l-1.47,2.313-7.442,11.655-9.719-11.494-5.595-6.608a38.991,38.991,0,0,1-4.232-1,29.112,29.112,0,0,1-3.739-1.363h-.009c-.332-.152-.655-.3-.968-.475a7.72,7.72,0,0,1-3.434-2.986c-2.089-4.106-.1-15.251,1.506-16.739a.839.839,0,0,1,.17-.126,3.891,3.891,0,0,1,1.784-.394c.018.009.027,0,.036,0a18.546,18.546,0,0,1,3.407.26,22.7,22.7,0,0,1,8.213,2.824,5.472,5.472,0,0,1,.816.637,8.471,8.471,0,0,1,2.08,3.864,21.9,21.9,0,0,1,.717,5.765l7.074,5.5,8.831,6.841v.009Z" transform="translate(-2.095 -9.615)" fill="#e5a187"/>
        <path id="Trazado_1176617" data-name="Trazado 1176617" d="M58.47,124.682l-7.442,11.655L41.31,124.844A47.251,47.251,0,0,1,49.137,114l8.831,6.841v.009c.161,1.408.341,2.842.5,3.837" transform="translate(-4.273 -11.79)" fill="#dc786e"/>
        <path id="Trazado_1176618" data-name="Trazado 1176618" d="M134.607,124.441l-.789.61L99.444,151.482l-.663.511L82.31,137.908c5.917-33.254,29.372-62.043,29.372-62.043s1.739,1.99,3.506,4.1a37.7,37.7,0,0,1,3.613,4.743c.314.95,11.62,29.246,14.91,37.495.565,1.417.9,2.241.9,2.241" transform="translate(-8.513 -7.846)" fill="#39577f"/>
        <path id="Trazado_1176619" data-name="Trazado 1176619" d="M100.917,142s-24.985-18.221-47.895-31.371c0,0-12.095,15.03-11.792,32.394,0,0,22.938,10.359,38.436,15.159,7.92,2.453,16.7-1.117,20.037-8.708A14.289,14.289,0,0,0,100.917,142" transform="translate(-4.264 -11.442)" fill="#39577f"/>
        <path id="Trazado_1176620" data-name="Trazado 1176620" d="M135.795,125.524,101.42,151.955l15.744-71.52a37.7,37.7,0,0,1,3.613,4.743c.314.95,11.62,29.246,14.91,37.495.036.977.072,1.937.108,2.851" transform="translate(-10.49 -8.319)" fill="#2a4056"/>
        <path id="Trazado_1176621" data-name="Trazado 1176621" d="M31.76,114.11c-1.408,1.049-8.34.029-9.835-2.412-2.407-3.929-.1-15.251,1.506-16.739a.838.838,0,0,1,.17-.126,11.13,11.13,0,0,1,1.784-.394c.018.009.027,0,.036,0a8.571,8.571,0,0,1,3.407.26,7.081,7.081,0,0,1,1.91.879s5.3,1.539,6.121,6.4-2.606,10.287-5.1,12.134" transform="translate(-2.16 -9.761)" fill="#dc786e"/>
        <path id="Trazado_1176622" data-name="Trazado 1176622" d="M39.668,100.916l-9.862,14.5a29.112,29.112,0,0,1-3.739-1.363h-.009c-.332-.152-.654-.3-.968-.475l11.682-17.16a5.471,5.471,0,0,1,.816.637,8.471,8.471,0,0,1,2.08,3.864" transform="translate(-2.595 -9.972)" fill="#dc786e"/>
        <rect id="Rectángulo_421429" data-name="Rectángulo 421429" width="67.175" height="4.931" transform="translate(13.13 113.254) rotate(-55.761)" fill="#7c3c0e"/>
        <rect id="Rectángulo_421430" data-name="Rectángulo 421430" width="18.719" height="36.799" transform="matrix(0.563, -0.827, 0.827, 0.563, 34.659, 53.303)" fill="#984911"/>
        <rect id="Rectángulo_421431" data-name="Rectángulo 421431" width="4.515" height="16.058" transform="matrix(0.563, -0.827, 0.827, 0.563, 6.711, 112.795)" fill="#984911"/>
        <rect id="Rectángulo_421432" data-name="Rectángulo 421432" width="10.211" height="36.798" transform="matrix(0.563, -0.827, 0.827, 0.563, 34.659, 53.303)" fill="#7c3c0e"/>
        <rect id="Rectángulo_421433" data-name="Rectángulo 421433" width="24.316" height="5.348" transform="matrix(0.563, -0.827, 0.827, 0.563, 30.846, 54.093)" fill="#b36023"/>
        <rect id="Rectángulo_421434" data-name="Rectángulo 421434" width="24.316" height="5.348" transform="translate(61.323 74.837) rotate(-55.761)" fill="#b36023"/>
        <path id="Trazado_1176623" data-name="Trazado 1176623" d="M30.975,112.638c-1.408,1.049-8.34.029-9.835-2.412-2.407-3.929-.1-15.251,1.506-16.739a.838.838,0,0,1,.17-.126,11.13,11.13,0,0,1,1.784-.394c.018.009.027,0,.036,0a8.571,8.571,0,0,1,3.407.26,7.081,7.081,0,0,1,1.91.879s5.3,1.539,6.121,6.4-2.606,10.287-5.1,12.134" transform="translate(-2.079 -9.609)" fill="#e5a187"/>
        <path id="Trazado_1176624" data-name="Trazado 1176624" d="M208.694,393.649H169.636V367.51h16.607v12.919s12.148-.614,18.149,3.531,4.3,9.689,4.3,9.689" transform="translate(-17.545 -38.01)" fill="#2a4056"/>
        <rect id="Rectángulo_421435" data-name="Rectángulo 421435" width="16.606" height="12.919" transform="translate(152.092 329.501)" fill="#e5a187"/>
        <path id="Trazado_1176625" data-name="Trazado 1176625" d="M194.923,274.179l-17.488-.312-17.487.312,0,.2,5.55,90.405h23.869l5.55-90.405Z" transform="translate(-16.543 -28.325)" fill="#2a4056"/>
        <path id="Trazado_1176626" data-name="Trazado 1176626" d="M98.916,393.649h39.058V367.51H121.367v12.919s-12.147-.614-18.149,3.531-4.3,9.689-4.3,9.689" transform="translate(-10.208 -38.01)" fill="#2a4056"/>
        <rect id="Rectángulo_421436" data-name="Rectángulo 421436" width="16.606" height="12.919" transform="translate(111.16 329.501)" fill="#e5a187"/>
        <path id="Trazado_1176627" data-name="Trazado 1176627" d="M113.184,274.179l17.488-.312,17.487.312,0,.2-5.55,90.405H118.737l-5.55-90.405Z" transform="translate(-11.706 -28.325)" fill="#2a4056"/>
        <path id="Trazado_1176628" data-name="Trazado 1176628" d="M164.862,77.526H144.986c.207-6.372,2.309-22.908,2.925-27.652a53.087,53.087,0,0,1,14.027,0c.616,4.744,2.717,21.28,2.925,27.652" transform="translate(-14.995 -5.11)" fill="#dc786e"/>
        <path id="Trazado_1176629" data-name="Trazado 1176629" d="M158.994,68.622s.639-6.468,1.6-7.791,7.223.778,9.4,3.194,2.173,6.469,2.173,6.469l-6.839-.391Z" transform="translate(-16.444 -6.249)" fill="#fff"/>
        <path id="Trazado_1176630" data-name="Trazado 1176630" d="M151.629,68.622s-.639-6.468-1.6-7.791-7.223.778-9.4,3.194-2.173,6.469-2.173,6.469L145.3,70.1Z" transform="translate(-14.321 -6.249)" fill="#fff"/>
        <path id="Trazado_1176631" data-name="Trazado 1176631" d="M130.46,28.95s-2.938-12.144,2.743-20.86,21.056-11.557,27.519-2.645c0,0,3.624-2.938,9.6-.685s8.716,13.319,5.288,25.267c0,0-11.458,2.252-12.045,2.35s-5.876,1.078-5.876,1.078-5.289.294-6.562.2-4.6.2-6.072-.1-14.593-4.6-14.593-4.6" transform="translate(-13.414 0)" fill="#101e1e"/>
        <path id="Trazado_1176632" data-name="Trazado 1176632" d="M177.863,33.032s2.992-5.753,6.214-4.142,1.726,13.924-7.94,13.464a24.845,24.845,0,0,1,1.726-9.322" transform="translate(-18.217 -2.959)" fill="#e5a187"/>
        <path id="Trazado_1176633" data-name="Trazado 1176633" d="M133.186,33.032s-2.992-5.753-6.214-4.142-1.726,13.924,7.94,13.464a24.844,24.844,0,0,0-1.726-9.322" transform="translate(-12.974 -2.959)" fill="#e5a187"/>
        <path id="Trazado_1176634" data-name="Trazado 1176634" d="M173.458,31.692c0,15.079-8.8,23.115-19.649,23.115s-19.65-8.036-19.65-23.115a36.977,36.977,0,0,1,.774-7.584q.149-.714.321-1.4a31.248,31.248,0,0,1,2.518-6.777c3.559-1.669,9.416-2.541,16.037-2.541a63.678,63.678,0,0,1,6.874.347c.137.016.275.032.405.04a29.263,29.263,0,0,1,8.757,2.154,29.28,29.28,0,0,1,1.592,3.7c.352.993.666,2.016.926,3.073a36.726,36.726,0,0,1,1.095,8.988" transform="translate(-13.876 -1.384)" fill="#e5a187"/>
        <path id="Trazado_1176635" data-name="Trazado 1176635" d="M165.175,36.464c0,2.022-1.087,3.661-2.426,3.661s-2.427-1.639-2.427-3.661,1.087-3.661,2.427-3.661,2.426,1.639,2.426,3.661" transform="translate(-16.582 -3.393)" fill="#101e1e"/>
        <path id="Trazado_1176636" data-name="Trazado 1176636" d="M163.7,30.322a4.541,4.541,0,0,1,1.446.592c.11.067.218.139.323.213l.092.067c.015.012.055.043.018.013.054.042.106.086.158.13a5.265,5.265,0,0,1,.594.6.45.45,0,0,0,.634,0,.46.46,0,0,0,0-.634,5.74,5.74,0,0,0-3.027-1.843.448.448,0,0,0-.238.864" transform="translate(-16.897 -3.045)" fill="#101e1e"/>
        <path id="Trazado_1176637" data-name="Trazado 1176637" d="M145.785,36.464c0,2.022,1.087,3.661,2.426,3.661s2.427-1.639,2.427-3.661-1.087-3.661-2.427-3.661-2.426,1.639-2.426,3.661" transform="translate(-15.078 -3.393)" fill="#101e1e"/>
        <path id="Trazado_1176638" data-name="Trazado 1176638" d="M147.157,29.457A5.74,5.74,0,0,0,144.13,31.3a.448.448,0,1,0,.634.634,5.354,5.354,0,0,1,.576-.582c.052-.045.1-.088.158-.131s-.043.032.018-.013c.03-.023.06-.046.091-.068q.165-.12.342-.227c.11-.067.222-.13.337-.189.061-.031.122-.062.185-.091l.1-.048c.07-.031-.051.021.019-.008a5.256,5.256,0,0,1,.8-.256.452.452,0,0,0,.313-.551.459.459,0,0,0-.551-.313" transform="translate(-14.894 -3.045)" fill="#101e1e"/>
        <path id="Trazado_1176639" data-name="Trazado 1176639" d="M154.759,39.869a27.365,27.365,0,0,0-.258,3.489,2.235,2.235,0,0,0,.315,1.586,1.946,1.946,0,0,0,1.493.49.449.449,0,0,0,0-.9c-.273,0-.776.025-.888-.3a2.127,2.127,0,0,1-.023-.632c0-.245,0-.49.008-.735a25.378,25.378,0,0,1,.218-2.76.463.463,0,0,0-.313-.551.452.452,0,0,0-.551.313" transform="translate(-15.979 -4.09)" fill="#dc786e"/>
        <path id="Trazado_1176640" data-name="Trazado 1176640" d="M160.152,49.574c0,1.768-2.223,3.2-4.964,3.2s-4.964-1.434-4.964-3.2Z" transform="translate(-15.537 -5.127)" fill="#fff"/>
        <path id="Trazado_1176641" data-name="Trazado 1176641" d="M181.083,32.945c-1.268,1.766-2.525,3.619-2.753,5.838a.451.451,0,0,0,.448.448.459.459,0,0,0,.448-.448c.21-2.033,1.474-3.775,2.631-5.386a.451.451,0,0,0-.16-.613.457.457,0,0,0-.613.16" transform="translate(-18.444 -3.384)" fill="#dc786e"/>
        <path id="Trazado_1176642" data-name="Trazado 1176642" d="M179.141,39.667a10.773,10.773,0,0,1,1.138-1.212c.1-.091.2-.182.309-.27.049-.042.1-.083.15-.124l.084-.068c.007-.005.094-.074.056-.045s.06-.046.058-.044l.069-.051c.057-.043.116-.085.175-.127q.176-.125.357-.243a.448.448,0,1,0-.452-.774,11.053,11.053,0,0,0-2.579,2.324.459.459,0,0,0,0,.634.453.453,0,0,0,.634,0" transform="translate(-18.449 -3.79)" fill="#dc786e"/>
        <path id="Trazado_1176643" data-name="Trazado 1176643" d="M129.248,33.4c1.157,1.611,2.422,3.352,2.631,5.386a.461.461,0,0,0,.448.448.451.451,0,0,0,.448-.448c-.23-2.219-1.486-4.072-2.754-5.838a.461.461,0,0,0-.613-.16.452.452,0,0,0-.16.613" transform="translate(-13.361 -3.385)" fill="#dc786e"/>
        <path id="Trazado_1176644" data-name="Trazado 1176644" d="M132.623,39.032a11.069,11.069,0,0,0-2.579-2.323.451.451,0,0,0-.613.16.458.458,0,0,0,.16.613c.23.15.454.307.671.474l.029.022c.028.022.056.044.084.067.056.046.112.091.167.138.1.088.208.178.309.27a10.766,10.766,0,0,1,1.138,1.211.448.448,0,0,0,.634,0,.46.46,0,0,0,0-.634" transform="translate(-13.381 -3.79)" fill="#dc786e"/>
        <path id="Trazado_1176645" data-name="Trazado 1176645" d="M161.453,13.773c-.081.089-.169.169-.258.258-4.235,4.163-13.175,10.65-27.311,10.077q.157-.713.339-1.4a30.211,30.211,0,0,1,2.655-6.777c3.751-1.67,9.923-2.542,16.9-2.542a70.7,70.7,0,0,1,7.245.347c.145.016.29.032.428.04" transform="translate(-13.847 -1.384)" fill="#101e1e"/>
        <path id="Trazado_1176646" data-name="Trazado 1176646" d="M175.491,19.671c-6.9-.436-9.916-3.55-11.166-5.6-.065-.1-.121-.2-.169-.3.145.016.29.032.428.04a32.2,32.2,0,0,1,9.229,2.154,28.531,28.531,0,0,1,1.678,3.7" transform="translate(-16.978 -1.424)" fill="#101e1e"/>
        <path id="Trazado_1176647" data-name="Trazado 1176647" d="M225.092,132.158H189.4s-4.824-35.361-4.5-37.611c.287-1.99,8.58-16.255,10.526-19.572.134.134.251.26.377.386v.009c.619.753,28.968,35.8,29.291,56.789" transform="translate(-19.122 -7.754)" fill="#39577f"/>
        <path id="Trazado_1176648" data-name="Trazado 1176648" d="M191.478,89.8l22.806,53.41-26.51,5.067L179,131.905l1.754-23.2Z" transform="translate(-18.514 -9.288)" fill="#2a4056"/>
        <path id="Trazado_1176649" data-name="Trazado 1176649" d="M203.294,306.9H96.53c1.318-51.661,16.622-232.356,16.622-232.356,1.354-1.524,3.766-2.8,6.9-3.855a61.971,61.971,0,0,1,10.194-2.331c1.21-.179,2.457-.35,3.73-.493a146.747,146.747,0,0,1,31.864,0c1.273.143,2.519.314,3.721.493a60.738,60.738,0,0,1,10.185,2.331,17.75,17.75,0,0,1,6.536,3.461c.134.134.251.26.377.386v.009s2.026,23.894,4.662,56.789c4.617,57.56,11.126,142.69,11.969,175.567" transform="translate(-9.984 -6.929)" fill="#39577f"/>
        <path id="Trazado_1176650" data-name="Trazado 1176650" d="M131.58,68.516c-1.844,38.573-7.461,191.483-8.028,238.542H109.424c.845-46.156,9.029-195.34,11.97-236.216a62.119,62.119,0,0,1,10.186-2.327" transform="translate(-11.317 -7.086)" fill="#d5992f"/>
        <path id="Trazado_1176651" data-name="Trazado 1176651" d="M200.161,307.058H186.033c-.579-47.059-6.2-199.969-8.04-238.542a60.947,60.947,0,0,1,10.186,2.326c2.941,40.877,11.138,190.061,11.982,236.217" transform="translate(-18.409 -7.086)" fill="#d5992f"/>
        <path id="Trazado_1176652" data-name="Trazado 1176652" d="M176.038,119.445H130.9c.47-11.886,5.244-42.732,6.642-51.58a146.592,146.592,0,0,1,31.86,0c1.4,8.847,6.172,39.694,6.642,51.58" transform="translate(-13.538 -6.929)" fill="#fff"/>
        <rect id="Rectángulo_421437" data-name="Rectángulo 421437" width="38.03" height="56.752" transform="translate(116.994 88.973)" fill="#f4eddf"/>
        <path id="Trazado_1176653" data-name="Trazado 1176653" d="M165.638,144.556c-2.788.394-5.487.637-8.033.762-10.84.565-18.98-.923-19.725-1.551-.906-.771,6.366-1.318,6.366-1.318s-6.267-.287-7.307-1.452,7.182-1.13,7.182-1.13-7.5-1.148-7.621-2.439c-.126-1.219,7.173-.717,8.087-.654-.879-.134-7.388-1.13-7.271-2.573.134-1.56,13.987.117,13.987.117s-5.666-1.506-5.478-3.1c.188-1.712,7.316-.547,12.579.538,3.1.655,5.55,1.273,5.55,1.273Z" transform="translate(-14.118 -13.481)" fill="#e5a187"/>
        <path id="Trazado_1176654" data-name="Trazado 1176654" d="M168.4,144.718c-2.788.394-5.487.637-8.033.762a66.662,66.662,0,0,1,.8-13.565c3.1.654,5.55,1.273,5.55,1.273Z" transform="translate(-16.577 -13.644)" fill="#dc786e"/>
        <path id="Trazado_1176655" data-name="Trazado 1176655" d="M219.925,129.347s-30.917-.6-57.227,1.766c0,0-1.289,19.249,8.916,33.3,0,0,25.087-4.735,40.511-9.73a16.284,16.284,0,0,0,11.121-18.368,14.339,14.339,0,0,0-3.321-6.969" transform="translate(-16.822 -13.371)" fill="#39577f"/>
      </g>
    </g>
  </g>
</svg>
