<svg xmlns="http://www.w3.org/2000/svg" xmlns:xlink="http://www.w3.org/1999/xlink" width="108" height="108" viewBox="0 0 108 108">
  <defs>
    <filter id="Trazado_904820" x="0" y="0" width="108" height="108" filterUnits="userSpaceOnUse">
      <feOffset dy="3" input="SourceAlpha"/>
      <feGaussianBlur stdDeviation="3" result="blur"/>
      <feFlood flood-opacity="0.161"/>
      <feComposite operator="in" in2="blur"/>
      <feComposite in="SourceGraphic"/>
    </filter>
  </defs>
  <g id="Grupo_1222941" data-name="Grupo 1222941" transform="translate(-620 -614)">
    <g id="Grupo_1222801" data-name="Grupo 1222801" transform="translate(629 620)">
      <g id="Grupo_1173585" data-name="Grupo 1173585" transform="translate(0 0)">
        <g id="Grupo_1173428" data-name="Grupo 1173428">
          <g id="Grupo_1171958" data-name="Grupo 1171958">
            <g id="Grupo_1167341" data-name="Grupo 1167341">
              <g id="Grupo_1166792" data-name="Grupo 1166792">
                <g transform="matrix(1, 0, 0, 1, -9, -6)" filter="url(#Trazado_904820)">
                  <g id="Trazado_904820-2" data-name="Trazado 904820" transform="translate(9 6)" fill="#e7f2f8">
                    <path d="M 44.99999618530273 88.50004577636719 C 39.12687301635742 88.50004577636719 33.43022155761719 87.35012054443359 28.06829643249512 85.08220672607422 C 22.88852119445801 82.89134216308594 18.23629570007324 79.75463104248047 14.24084663391113 75.75917816162109 C 10.24540901184082 71.76371765136719 7.108683586120605 67.11149597167969 4.917821407318115 61.93173217773438 C 2.649921178817749 56.56979370117188 1.499996185302734 50.87314224243164 1.499996185302734 45.00001907348633 C 1.499996185302734 39.12689590454102 2.649921178817749 33.43024444580078 4.917821407318115 28.06830596923828 C 7.108683586120605 22.88853073120117 10.24540901184082 18.23631858825684 14.24084663391113 14.24086952209473 C 18.23629570007324 10.2454195022583 22.88852119445801 7.108694076538086 28.06829643249512 4.917831420898438 C 33.43022155761719 2.649931669235229 39.12687301635742 1.500006556510925 44.99999618530273 1.500006556510925 C 50.87311935424805 1.500006556510925 56.56977081298828 2.649931669235229 61.93169784545898 4.917831420898438 C 67.11147308349609 7.108694076538086 71.76369476318359 10.2454195022583 75.75914764404297 14.24086952209473 C 79.75458526611328 18.23631858825684 82.89131164550781 22.88853073120117 85.08216857910156 28.06830596923828 C 87.35007476806641 33.43024444580078 88.5 39.12689590454102 88.5 45.00001907348633 C 88.5 50.87314224243164 87.35007476806641 56.56979370117188 85.08216857910156 61.93173217773438 C 82.89131164550781 67.11149597167969 79.75458526611328 71.76371765136719 75.75914764404297 75.75917816162109 C 71.76369476318359 79.75463104248047 67.11147308349609 82.89134216308594 61.93169784545898 85.08220672607422 C 56.56977081298828 87.35012054443359 50.87311935424805 88.50004577636719 44.99999618530273 88.50004577636719 Z" stroke="none"/>
                    <path d="M 44.99999618530273 3.000007629394531 C 39.32870864868164 3.000007629394531 33.82865142822266 4.110061645507812 28.65262603759766 6.299346923828125 C 23.65165710449219 8.414573669433594 19.15968322753906 11.44334411621094 15.301513671875 15.30152130126953 C 11.44333648681641 19.15969085693359 8.414566040039062 23.65166473388672 6.299339294433594 28.65263366699219 C 4.110054016113281 33.82867431640625 2.999992370605469 39.32873153686523 2.999992370605469 45.00001907348633 C 2.999992370605469 50.67130661010742 4.110054016113281 56.17136383056641 6.299339294433594 61.34738922119141 C 8.414566040039062 66.34837341308594 11.44333648681641 70.84033203125 15.301513671875 74.69850158691406 C 19.15968322753906 78.55668640136719 23.65165710449219 81.58546447753906 28.65262603759766 83.70069122314453 C 33.82865142822266 85.88997650146484 39.32870864868164 87.00003051757812 44.99999618530273 87.00003051757812 C 50.67128372192383 87.00003051757812 56.17134094238281 85.88997650146484 61.34736633300781 83.70069122314453 C 66.34834289550781 81.58546447753906 70.84030914306641 78.55668640136719 74.69847869873047 74.69850158691406 C 78.55665588378906 70.84033203125 81.58542633056641 66.34837341308594 83.70065307617188 61.34738922119141 C 85.88993835449219 56.17136383056641 87 50.67130661010742 87 45.00001907348633 C 87 39.32873153686523 85.88993835449219 33.82867431640625 83.70065307617188 28.65263366699219 C 81.58542633056641 23.65166473388672 78.55665588378906 19.15969085693359 74.69847869873047 15.30152130126953 C 70.84030914306641 11.44334411621094 66.34834289550781 8.414573669433594 61.34736633300781 6.299346923828125 C 56.17134094238281 4.110061645507812 50.67128372192383 3.000007629394531 44.99999618530273 3.000007629394531 M 44.99999618530273 7.62939453125e-06 C 69.85281372070312 7.62939453125e-06 90 20.14719390869141 90 45.00001907348633 C 90 69.85282897949219 69.85281372070312 90.00003051757812 44.99999618530273 90.00003051757812 C 20.14717864990234 90.00003051757812 -7.62939453125e-06 69.85282897949219 -7.62939453125e-06 45.00001907348633 C -7.62939453125e-06 20.14719390869141 20.14717864990234 7.62939453125e-06 44.99999618530273 7.62939453125e-06 Z" stroke="none" fill="#248abf"/>
                  </g>
                </g>
              </g>
            </g>
          </g>
        </g>
      </g>
    </g>
    <g id="swear_2328393_1_" data-name="swear_2328393 (1)" transform="translate(645.977 636.977)">
      <g id="Grupo_1222939" data-name="Grupo 1222939" transform="translate(1.872 1.872)">
        <path id="Trazado_1176448" data-name="Trazado 1176448" d="M2.872,2H29.023a.874.874,0,0,1,.872.872V19.731a5.268,5.268,0,0,0-1.743-.3,1.749,1.749,0,0,0-1.743,1.743v1.743h-5.23v4.149a1.078,1.078,0,0,1-2.04.488l-2.319-4.638H2.872A.874.874,0,0,1,2,22.049V2.872A.874.874,0,0,1,2.872,2Z" transform="translate(-2 -2)" fill="#e6e9ed"/>
        <g id="Grupo_1222938" data-name="Grupo 1222938" transform="translate(0 10.461)">
          <path id="Trazado_1176449" data-name="Trazado 1176449" d="M28.974,14v2.615a.874.874,0,0,1-.872.872h-5.23A.874.874,0,0,1,22,16.615V14Z" transform="translate(-4.566 -14)" fill="#b27946"/>
          <path id="Trazado_1176450" data-name="Trazado 1176450" d="M12.974,14v2.615a.874.874,0,0,1-.872.872H6.872A.874.874,0,0,1,6,16.615V14Z" transform="translate(-2.513 -14)" fill="#b27946"/>
          <path id="Trazado_1176451" data-name="Trazado 1176451" d="M15.947,34.872v3.487a.874.874,0,0,1-.872.872H2.872A.874.874,0,0,1,2,38.359V34.872A.874.874,0,0,1,2.872,34h12.2A.874.874,0,0,1,15.947,34.872Z" transform="translate(-2 -16.566)" fill="#b27946"/>
          <path id="Trazado_1176452" data-name="Trazado 1176452" d="M15.947,56.872v3.487a.874.874,0,0,1-.872.872H2.872A.874.874,0,0,1,2,60.359V56.872A.874.874,0,0,1,2.872,56h12.2A.874.874,0,0,1,15.947,56.872Z" transform="translate(-2 -19.388)" fill="#b27946"/>
        </g>
        <path id="Trazado_1176453" data-name="Trazado 1176453" d="M14.461,49.589v4.359H4V40H14.461v9.589Z" transform="translate(-2.257 -6.875)" fill="#d3a06c"/>
        <path id="Trazado_1176454" data-name="Trazado 1176454" d="M33.434,46.742v3.487H16V45H32.083l.009-.009A18.648,18.648,0,0,0,33.434,46.742Z" transform="translate(-3.796 -7.515)" fill="#cf9e76"/>
        <path id="Trazado_1176455" data-name="Trazado 1176455" d="M55.178,47V60.076H36V47Z" transform="translate(-6.362 -7.773)" fill="#b4dd7f"/>
        <path id="Trazado_1176456" data-name="Trazado 1176456" d="M52.665,15.076a2.615,2.615,0,0,1,5.23,0V29.712a20.745,20.745,0,0,1-3.487,11.515H35.23a18.648,18.648,0,0,1-1.342-1.752A21.686,21.686,0,0,1,30,27.088v-5.91a1.749,1.749,0,0,1,1.743-1.743,5.268,5.268,0,0,1,1.743.3l1.953,1.238a5.182,5.182,0,0,1,1.534,3.7V8.1a2.615,2.615,0,0,1,5.23,0V4.615a2.615,2.615,0,0,1,5.23,0V8.1a2.615,2.615,0,1,1,5.23,0Z" transform="translate(-5.592 -2)" fill="#f0d0b4"/>
      </g>
      <g id="Grupo_1222940" data-name="Grupo 1222940" transform="translate(1 1)">
        <path id="Trazado_1176457" data-name="Trazado 1176457" d="M55.046,14.947a3.49,3.49,0,0,0-3.487-3.487,3.451,3.451,0,0,0-1.743.485V7.974a3.49,3.49,0,0,0-3.487-3.487,3.451,3.451,0,0,0-1.743.485V4.487a3.487,3.487,0,0,0-6.974,0v.485a3.451,3.451,0,0,0-1.743-.485,3.49,3.49,0,0,0-3.487,3.487v12.3a6.113,6.113,0,0,0-1.743-1.242V2.743A1.745,1.745,0,0,0,28.895,1H2.743A1.745,1.745,0,0,0,1,2.743V21.921a1.745,1.745,0,0,0,1.743,1.743H16.152l2.076,4.153a1.949,1.949,0,0,0,3.693-.872V23.665h3.487v3.3a22.6,22.6,0,0,0,3.165,11.523H14.947V35.869a1.745,1.745,0,0,0,1.743-1.743V30.638a1.745,1.745,0,0,0-1.743-1.743H2.743A1.745,1.745,0,0,0,1,30.638v3.487a1.745,1.745,0,0,0,1.743,1.743v12.2A1.745,1.745,0,0,0,1,49.816V53.3a1.745,1.745,0,0,0,1.743,1.743h12.2A1.745,1.745,0,0,0,16.691,53.3V49.816a1.745,1.745,0,0,0-1.743-1.743V45.458H30.638v9.589H51.56v-13.7a21.557,21.557,0,0,0,3.487-11.761ZM20.178,21.921v5.025a.213.213,0,0,1-.39.092L17.23,21.921H2.743V2.743H28.895V18.5a6.124,6.124,0,0,0-.872-.07,2.618,2.618,0,0,0-2.615,2.615v.872ZM2.743,30.638h12.2v3.487H2.743ZM14.948,53.3H2.743V49.816h12.2ZM4.487,48.073v-12.2H13.2v12.2Zm10.461-4.359V40.227H29.722c.29.4.6.788.916,1.17v2.317ZM32.382,53.3V41.97H49.816V53.3ZM53.3,29.583a19.821,19.821,0,0,1-3.088,10.645h-18.3a20.864,20.864,0,0,1-4.765-13.266V21.049a.873.873,0,0,1,.872-.872,4.364,4.364,0,0,1,4.359,4.359v5.23h1.743V7.974a1.743,1.743,0,1,1,3.487,0V24.8h1.743V4.487a1.743,1.743,0,0,1,3.487,0V24.536h1.743V7.974a1.743,1.743,0,1,1,3.487,0V24.536h1.743V14.947a1.743,1.743,0,0,1,3.487,0Z" transform="translate(-1 -1)"/>
        <path id="Trazado_1176458" data-name="Trazado 1176458" d="M18.947,15.461A1.745,1.745,0,0,0,20.691,17.2h5.23a1.745,1.745,0,0,0,1.743-1.743V12.581L23.772,6.743H17.2V5H15.461V6.743H8.892L5,12.581v2.879A1.745,1.745,0,0,0,6.743,17.2h5.23a1.745,1.745,0,0,0,1.743-1.743V12.581L10.988,8.487h4.473V18.947H11.974v1.743h8.717V18.947H17.2V8.487h4.473l-2.729,4.094Zm-12.2,0V13.717h5.23v1.743Zm4.474-3.487H7.5L9.359,9.187Zm9.474,3.487V13.717h5.23v1.743Zm2.615-6.274,1.858,2.787H21.448Z" transform="translate(-1.513 -1.513)"/>
      </g>
    </g>
  </g>
</svg>
