<svg xmlns="http://www.w3.org/2000/svg" xmlns:xlink="http://www.w3.org/1999/xlink" width="108" height="108" viewBox="0 0 108 108">
  <defs>
    <filter id="Trazado_904820" x="0" y="0" width="108" height="108" filterUnits="userSpaceOnUse">
      <feOffset dy="3" input="SourceAlpha"/>
      <feGaussianBlur stdDeviation="3" result="blur"/>
      <feFlood flood-opacity="0.161"/>
      <feComposite operator="in" in2="blur"/>
      <feComposite in="SourceGraphic"/>
    </filter>
  </defs>
  <g id="Grupo_1222942" data-name="Grupo 1222942" transform="translate(-620 -1664)">
    <g id="Grupo_1222802" data-name="Grupo 1222802" transform="translate(629 1670)">
      <g id="Grupo_1173585" data-name="Grupo 1173585" transform="translate(0 0)">
        <g id="Grupo_1173428" data-name="Grupo 1173428">
          <g id="Grupo_1171958" data-name="Grupo 1171958">
            <g id="Grupo_1167341" data-name="Grupo 1167341">
              <g id="Grupo_1166792" data-name="Grupo 1166792">
                <g transform="matrix(1, 0, 0, 1, -9, -6)" filter="url(#Trazado_904820)">
                  <g id="Trazado_904820-2" data-name="Trazado 904820" transform="translate(9 6)" fill="#f2f4f0">
                    <path d="M 44.99999618530273 88.50003814697266 C 39.12687301635742 88.50003814697266 33.43022155761719 87.35011291503906 28.06829643249512 85.08219909667969 C 22.88852119445801 82.89134979248047 18.23629570007324 79.75462341308594 14.24084663391113 75.75917053222656 C 10.24540901184082 71.76372528076172 7.108683586120605 67.11149597167969 4.917821407318115 61.93172454833984 C 2.649921178817749 56.56979751586914 1.499996185302734 50.87314605712891 1.499996185302734 45.00002288818359 C 1.499996185302734 39.12689971923828 2.649921178817749 33.43024826049805 4.917821407318115 28.06830978393555 C 7.108683586120605 22.88853454589844 10.24540901184082 18.2363224029541 14.24084663391113 14.24087333679199 C 18.23629570007324 10.24542331695557 22.88852119445801 7.108697891235352 28.06829643249512 4.917835235595703 C 33.43022155761719 2.649935483932495 39.12687301635742 1.500010371208191 44.99999618530273 1.500010371208191 C 50.87311935424805 1.500010371208191 56.56977081298828 2.649935483932495 61.93169784545898 4.917835235595703 C 67.11147308349609 7.108697891235352 71.76369476318359 10.24542331695557 75.75914764404297 14.24087333679199 C 79.75458526611328 18.2363224029541 82.89131164550781 22.88853454589844 85.08216857910156 28.06830978393555 C 87.35007476806641 33.43024826049805 88.5 39.12689971923828 88.5 45.00002288818359 C 88.5 50.87314605712891 87.35007476806641 56.56979751586914 85.08216857910156 61.93172454833984 C 82.89131164550781 67.11149597167969 79.75458526611328 71.76372528076172 75.75914764404297 75.75917053222656 C 71.76369476318359 79.75462341308594 67.11147308349609 82.89134979248047 61.93169784545898 85.08219909667969 C 56.56977081298828 87.35011291503906 50.87311935424805 88.50003814697266 44.99999618530273 88.50003814697266 Z" stroke="none"/>
                    <path d="M 44.99999618530273 3.000007629394531 C 39.32870864868164 3.000007629394531 33.82865142822266 4.110069274902344 28.65262603759766 6.299354553222656 C 23.65165710449219 8.414581298828125 19.15968322753906 11.44335174560547 15.301513671875 15.30152130126953 C 11.44333648681641 19.15969085693359 8.414566040039062 23.65166473388672 6.299339294433594 28.65263748168945 C 4.110054016113281 33.82867813110352 2.999992370605469 39.3287353515625 2.999992370605469 45.00002288818359 C 2.999992370605469 50.67131042480469 4.110054016113281 56.17136764526367 6.299339294433594 61.34739685058594 C 8.414566040039062 66.34838104248047 11.44333648681641 70.84033966064453 15.301513671875 74.69850921630859 C 19.15968322753906 78.55669403076172 23.65165710449219 81.58546447753906 28.65262603759766 83.70069122314453 C 33.82865142822266 85.88997650146484 39.32870864868164 87.00003814697266 44.99999618530273 87.00003814697266 C 50.67128372192383 87.00003814697266 56.17134094238281 85.88997650146484 61.34736633300781 83.70069122314453 C 66.34834289550781 81.58546447753906 70.84030914306641 78.55669403076172 74.69847869873047 74.69850921630859 C 78.55665588378906 70.84033966064453 81.58542633056641 66.34838104248047 83.70065307617188 61.34739685058594 C 85.88993835449219 56.17136764526367 87 50.67131042480469 87 45.00002288818359 C 87 39.3287353515625 85.88993835449219 33.82867813110352 83.70065307617188 28.65263748168945 C 81.58542633056641 23.65166473388672 78.55665588378906 19.15969085693359 74.69847869873047 15.30152130126953 C 70.84030914306641 11.44335174560547 66.34834289550781 8.414581298828125 61.34736633300781 6.299354553222656 C 56.17134094238281 4.110069274902344 50.67128372192383 3.000007629394531 44.99999618530273 3.000007629394531 M 44.99999618530273 7.62939453125e-06 C 69.85281372070312 7.62939453125e-06 90 20.14719390869141 90 45.00002288818359 C 90 69.85283660888672 69.85281372070312 90.00003814697266 44.99999618530273 90.00003814697266 C 20.14717864990234 90.00003814697266 -7.62939453125e-06 69.85283660888672 -7.62939453125e-06 45.00002288818359 C -7.62939453125e-06 20.14719390869141 20.14717864990234 7.62939453125e-06 44.99999618530273 7.62939453125e-06 Z" stroke="none" fill="#899e78"/>
                  </g>
                </g>
              </g>
            </g>
          </g>
        </g>
      </g>
    </g>
    <g id="qc_8790387" transform="translate(638.695 1676.695)">
      <path id="Trazado_1176459" data-name="Trazado 1176459" d="M329.114,7.5a10.991,10.991,0,0,0-8.992,17.31v2.671h2.671A10.99,10.99,0,1,0,329.114,7.5Z" transform="translate(-273.992 0)" fill="#f2fbff"/>
      <path id="Trazado_1176460" data-name="Trazado 1176460" d="M382.124,88.909l-.878-.878a.589.589,0,0,1,0-.834l.878-.878a1.832,1.832,0,0,0,0-2.59h0a1.832,1.832,0,0,0-2.59,0l-.878.878a.59.59,0,0,1-.834,0l-.878-.878a1.832,1.832,0,0,0-2.59,0h0a1.832,1.832,0,0,0,0,2.59l.878.878a.59.59,0,0,1,0,.834l-.878.878a1.832,1.832,0,0,0,0,2.59h0a1.832,1.832,0,0,0,2.59,0l.878-.878a.59.59,0,0,1,.834,0l.878.878a1.832,1.832,0,0,0,2.59,0h0A1.831,1.831,0,0,0,382.124,88.909Z" transform="translate(-323.118 -66.766)" fill="#dff6fd"/>
      <path id="Trazado_1176461" data-name="Trazado 1176461" d="M366.973,8.247a10.993,10.993,0,0,1-7.512,20.034,10.99,10.99,0,1,0,7.512-20.034Z" transform="translate(-310.455 -0.659)" fill="#dff6fd"/>
      <path id="Trazado_1176462" data-name="Trazado 1176462" d="M65.1,139.767h-.763a3.538,3.538,0,0,1-3.469-2.844l-.479-2.4a2.318,2.318,0,0,1,3.006-2.654l1.7.568Z" transform="translate(-46.612 -109.597)" fill="#ffe5c2"/>
      <path id="Trazado_1176463" data-name="Trazado 1176463" d="M256,139.767h.763a3.538,3.538,0,0,0,3.469-2.844l.479-2.4a2.318,2.318,0,0,0-3.007-2.654l-1.7.568v7.326Z" transform="translate(-219.196 -109.597)" fill="#fed2a4"/>
      <path id="Trazado_1176464" data-name="Trazado 1176464" d="M101.12,52.336h0a9.748,9.748,0,0,1-9.729-9.14L90.817,34a10.324,10.324,0,0,1,10.3-10.968h0A10.324,10.324,0,0,1,111.425,34l-.575,9.2A9.749,9.749,0,0,1,101.12,52.336Z" transform="translate(-73.473 -13.699)" fill="#fff3de"/>
      <path id="Trazado_1176465" data-name="Trazado 1176465" d="M133.578,30.773a10.374,10.374,0,0,1,1.441,5.979l-.682,10.915a9.748,9.748,0,0,1-9.729,9.14h0a9.784,9.784,0,0,1-1.836-.173,9.72,9.72,0,0,0,6.554,2.532h0a9.748,9.748,0,0,0,9.729-9.14l.575-9.2A10.327,10.327,0,0,0,133.578,30.773Z" transform="translate(-101.678 -20.528)" fill="#ffe5c2"/>
      <path id="Trazado_1176466" data-name="Trazado 1176466" d="M40.13,302.594H15.165A7.665,7.665,0,0,0,7.5,310.259V326.4H47.8V310.259A7.665,7.665,0,0,0,40.13,302.594Z" transform="translate(0 -260.294)" fill="#f2fbff"/>
      <path id="Trazado_1176467" data-name="Trazado 1176467" d="M40.989,303a7.639,7.639,0,0,1,2.089,5.259v9.95a6.2,6.2,0,0,1-6.195,6.195H7.5v2.359H47.8V310.616A7.667,7.667,0,0,0,40.989,303Z" transform="translate(0 -260.65)" fill="#dff6fd"/>
      <path id="Trazado_1176468" data-name="Trazado 1176468" d="M152.776,308.089h-3.663l-1.832-5.495h7.326Z" transform="translate(-123.297 -260.294)" fill="#01d0fb"/>
      <path id="Trazado_1176469" data-name="Trazado 1176469" d="M152.776,349.188h-3.663l-1.832,14.653,3.663,3.663,3.663-3.663Z" transform="translate(-123.297 -301.393)" fill="#01c0fa"/>
      <path id="Trazado_1176470" data-name="Trazado 1176470" d="M158.344,484.5l2.359,2.359,2.359-2.359Z" transform="translate(-133.055 -420.748)" fill="#08a9f1"/>
      <path id="Trazado_1176471" data-name="Trazado 1176471" d="M305.378,367.5H287.062V350.957a1.769,1.769,0,0,1,1.769-1.769h14.778a1.769,1.769,0,0,1,1.769,1.769V367.5Z" transform="translate(-246.593 -301.393)" fill="#fe9738"/>
      <path id="Trazado_1176472" data-name="Trazado 1176472" d="M325.452,339.957a1.832,1.832,0,0,0-3.663,0h-3.663v3.726a1.769,1.769,0,0,0,1.769,1.769h7.452a1.769,1.769,0,0,0,1.769-1.769v-3.726Z" transform="translate(-273.994 -291.635)" fill="#fe860a"/>
      <path id="Trazado_1176473" data-name="Trazado 1176473" d="M303.61,349.188h-2.948v11.76a4.2,4.2,0,0,1-4.2,4.2h-9.4V367.5h18.316V350.957A1.769,1.769,0,0,0,303.61,349.188Z" transform="translate(-246.594 -301.393)" fill="#fe860a"/>
      <path id="Trazado_1176474" data-name="Trazado 1176474" d="M325.452,319.957a1.832,1.832,0,0,0-3.663,0h-3.663v3.726a1.769,1.769,0,0,0,1.769,1.769h7.452a1.769,1.769,0,0,0,1.769-1.769v-3.726Z" transform="translate(-273.994 -273.993)" fill="#b2caec"/>
      <path id="Trazado_1176475" data-name="Trazado 1176475" d="M94.821,17.373V14.826l2.794,2.794a14.742,14.742,0,0,0,6.374,3.75l6.449,1.843.289-4.631A10.432,10.432,0,0,0,100.315,7.5h0A10.432,10.432,0,0,0,89.9,18.582l.479,7.656,2.669-3.559A8.844,8.844,0,0,0,94.821,17.373Z" transform="translate(-72.668 0)" fill="#0067c5"/>
      <path id="Trazado_1176476" data-name="Trazado 1176476" d="M196.591,9.381a10.407,10.407,0,0,1,3.542,8.5l-.352,5.624,4.779,1.366.289-4.631A10.436,10.436,0,0,0,196.591,9.381Z" transform="translate(-166.792 -1.659)" fill="#0055a3"/>
      <path id="Trazado_1176477" data-name="Trazado 1176477" d="M382.124,68.909l-1.3-1.3,1.3-1.3a1.832,1.832,0,0,0,0-2.59h0a1.832,1.832,0,0,0-2.59,0l-1.3,1.3-1.3-1.3a1.832,1.832,0,0,0-2.59,0h0a1.832,1.832,0,0,0,0,2.59l1.3,1.3-1.3,1.3a1.832,1.832,0,0,0,0,2.59h0a1.832,1.832,0,0,0,2.59,0l1.3-1.3,1.3,1.3a1.832,1.832,0,0,0,2.59,0h0A1.831,1.831,0,0,0,382.124,68.909Z" transform="translate(-323.118 -49.125)" fill="#fe0364"/>
      <path id="Trazado_1176478" data-name="Trazado 1176478" d="M162.812,225.27a5.2,5.2,0,0,1,3.663,0" transform="translate(-136.996 -191.795)" fill="none" stroke="#000" stroke-linecap="round" stroke-linejoin="round" stroke-miterlimit="10" stroke-width="1"/>
      <path id="Trazado_1176479" data-name="Trazado 1176479" d="M382.124,68.909l-1.3-1.3,1.3-1.3a1.832,1.832,0,0,0,0-2.59h0a1.832,1.832,0,0,0-2.59,0l-1.3,1.3-1.3-1.3a1.832,1.832,0,0,0-2.59,0h0a1.832,1.832,0,0,0,0,2.59l1.3,1.3-1.3,1.3a1.832,1.832,0,0,0,0,2.59h0a1.832,1.832,0,0,0,2.59,0l1.3-1.3,1.3,1.3a1.832,1.832,0,0,0,2.59,0h0A1.831,1.831,0,0,0,382.124,68.909Z" transform="translate(-323.118 -49.125)" fill="none" stroke="#000" stroke-linecap="round" stroke-linejoin="round" stroke-miterlimit="10" stroke-width="1"/>
      <line id="Línea_3713" data-name="Línea 3713" y2="14.653" transform="translate(14.826 51.458)" fill="none" stroke="#000" stroke-linecap="round" stroke-linejoin="round" stroke-miterlimit="10" stroke-width="1"/>
      <path id="Trazado_1176480" data-name="Trazado 1176480" d="M177.5,162.812V165a1.474,1.474,0,0,1-1.474,1.474h-.715" transform="translate(-148.023 -136.996)" fill="none" stroke="#000" stroke-linecap="round" stroke-linejoin="round" stroke-miterlimit="10" stroke-width="1"/>
      <path id="Trazado_1176481" data-name="Trazado 1176481" d="M152.776,308.089h-3.663l-1.832-5.495h7.326Z" transform="translate(-123.297 -260.294)" fill="none" stroke="#000" stroke-linecap="round" stroke-linejoin="round" stroke-miterlimit="10" stroke-width="1"/>
      <path id="Trazado_1176482" data-name="Trazado 1176482" d="M149.113,349.188l-1.832,14.653,3.663,3.663,3.663-3.663-1.832-14.653" transform="translate(-123.297 -301.393)" fill="none" stroke="#000" stroke-linecap="round" stroke-linejoin="round" stroke-miterlimit="10" stroke-width="1"/>
      <line id="Línea_3714" data-name="Línea 3714" x2="3.663" transform="translate(33.142 53.29)" fill="none" stroke="#000" stroke-linecap="round" stroke-linejoin="round" stroke-miterlimit="10" stroke-width="1"/>
      <path id="Trazado_1176483" data-name="Trazado 1176483" d="M325.452,319.957a1.832,1.832,0,0,0-3.663,0h-3.663v3.726a1.769,1.769,0,0,0,1.769,1.769h7.452a1.769,1.769,0,0,0,1.769-1.769v-3.726Z" transform="translate(-273.994 -273.993)" fill="none" stroke="#000" stroke-linecap="round" stroke-linejoin="round" stroke-miterlimit="10" stroke-width="1"/>
      <path id="Trazado_1176484" data-name="Trazado 1176484" d="M334.877,27.848a10.99,10.99,0,1,0-14.755-3.039v2.671h2.671a10.939,10.939,0,0,0,6.32,2,11.061,11.061,0,0,0,1.895-.163" transform="translate(-273.992 0)" fill="none" stroke="#000" stroke-linecap="round" stroke-linejoin="round" stroke-miterlimit="10" stroke-width="1"/>
      <path id="Trazado_1176485" data-name="Trazado 1176485" d="M64.093,132.1l-.7-.232a2.318,2.318,0,0,0-3.006,2.654l.479,2.4a3.538,3.538,0,0,0,3.469,2.844H64.6" transform="translate(-46.612 -109.597)" fill="none" stroke="#000" stroke-linecap="round" stroke-linejoin="round" stroke-miterlimit="10" stroke-width="1"/>
      <path id="Trazado_1176486" data-name="Trazado 1176486" d="M260.291,139.767h.257a3.538,3.538,0,0,0,3.469-2.844l.479-2.4a2.318,2.318,0,0,0-3.006-2.654l-.7.232" transform="translate(-222.98 -109.598)" fill="none" stroke="#000" stroke-linecap="round" stroke-linejoin="round" stroke-miterlimit="10" stroke-width="1"/>
      <path id="Trazado_1176487" data-name="Trazado 1176487" d="M91.157,12.933A10.375,10.375,0,0,0,89.9,18.582l.479,7.656,2.669-3.559a8.844,8.844,0,0,0,1.769-5.307V14.826l2.794,2.794a14.742,14.742,0,0,0,6.374,3.75l6.449,1.843.289-4.631A10.432,10.432,0,0,0,100.315,7.5h0a10.378,10.378,0,0,0-6.484,2.259" transform="translate(-72.668 0)" fill="none" stroke="#000" stroke-linecap="round" stroke-linejoin="round" stroke-miterlimit="10" stroke-width="1"/>
      <path id="Trazado_1176488" data-name="Trazado 1176488" d="M94.117,143.767l.2,3.258a9.748,9.748,0,0,0,9.729,9.14h0a9.748,9.748,0,0,0,9.729-9.14l.393-6.284" transform="translate(-76.402 -117.529)" fill="none" stroke="#000" stroke-linecap="round" stroke-linejoin="round" stroke-miterlimit="10" stroke-width="1"/>
      <path id="Trazado_1176489" data-name="Trazado 1176489" d="M303.61,349.188h-1.894v1.894a1.769,1.769,0,0,1-1.769,1.769H292.5a1.769,1.769,0,0,1-1.769-1.769v-1.894h-1.894a1.769,1.769,0,0,0-1.769,1.769V367.5h18.316V350.957A1.769,1.769,0,0,0,303.61,349.188Z" transform="translate(-246.594 -301.393)" fill="none" stroke="#000" stroke-linecap="round" stroke-linejoin="round" stroke-miterlimit="10" stroke-width="1"/>
      <path id="Trazado_1176490" data-name="Trazado 1176490" d="M7.5,438.547v7.778H40.469" transform="translate(0 -380.214)" fill="none" stroke="#000" stroke-linecap="round" stroke-linejoin="round" stroke-miterlimit="10" stroke-width="1"/>
      <path id="Trazado_1176491" data-name="Trazado 1176491" d="M46.668,306.257a7.661,7.661,0,0,0-6.539-3.663H15.165A7.665,7.665,0,0,0,7.5,310.259v4.24" transform="translate(0 -260.294)" fill="none" stroke="#000" stroke-linecap="round" stroke-linejoin="round" stroke-miterlimit="10" stroke-width="1"/>
    </g>
  </g>
</svg>
