<svg xmlns="http://www.w3.org/2000/svg" xmlns:xlink="http://www.w3.org/1999/xlink" width="108" height="108" viewBox="0 0 108 108">
  <defs>
    <filter id="Trazado_904820" x="0" y="0" width="108" height="108" filterUnits="userSpaceOnUse">
      <feOffset dy="3" input="SourceAlpha"/>
      <feGaussianBlur stdDeviation="3" result="blur"/>
      <feFlood flood-opacity="0.161"/>
      <feComposite operator="in" in2="blur"/>
      <feComposite in="SourceGraphic"/>
    </filter>
  </defs>
  <g id="Grupo_1222967" data-name="Grupo 1222967" transform="translate(-200 -2647)">
    <g id="Grupo_1222849" data-name="Grupo 1222849" transform="translate(209 2653)">
      <g id="Grupo_1173585" data-name="Grupo 1173585" transform="translate(0 0)">
        <g id="Grupo_1173428" data-name="Grupo 1173428">
          <g id="Grupo_1171958" data-name="Grupo 1171958">
            <g id="Grupo_1167341" data-name="Grupo 1167341">
              <g id="Grupo_1166792" data-name="Grupo 1166792">
                <g transform="matrix(1, 0, 0, 1, -9, -6)" filter="url(#Trazado_904820)">
                  <g id="Trazado_904820-2" data-name="Trazado 904820" transform="translate(9 6)" fill="#e7f2f8">
                    <path d="M 44.99996566772461 88.50004577636719 C 39.1268424987793 88.50004577636719 33.43020248413086 87.35012054443359 28.06827735900879 85.08220672607422 C 22.88851547241211 82.891357421875 18.23628997802734 79.75463104248047 14.24084091186523 75.75917816162109 C 10.24540328979492 71.76373291015625 7.108690738677979 67.11149597167969 4.91782808303833 61.93173217773438 C 2.649928092956543 56.56979370117188 1.500003218650818 50.87314224243164 1.500003218650818 45.00001907348633 C 1.500003218650818 39.12689590454102 2.649928092956543 33.43024444580078 4.91782808303833 28.06830596923828 C 7.108690738677979 22.88853073120117 10.24540328979492 18.23630714416504 14.24084091186523 14.24086952209473 C 18.23628997802734 10.2454195022583 22.88850402832031 7.108694076538086 28.06827735900879 4.917831420898438 C 33.43020248413086 2.649931669235229 39.1268424987793 1.500006556510925 44.99996566772461 1.500006556510925 C 50.87308883666992 1.500006556510925 56.56972885131836 2.649931669235229 61.9316520690918 4.917831420898438 C 67.11142730712891 7.108694076538086 71.76364135742188 10.2454195022583 75.75909423828125 14.24086952209473 C 79.75453186035156 18.23630714416504 82.89124298095703 22.88853073120117 85.08209991455078 28.06830596923828 C 87.35000610351562 33.43024444580078 88.49993133544922 39.12689590454102 88.49993133544922 45.00001907348633 C 88.49993133544922 50.87314224243164 87.35000610351562 56.56979370117188 85.08209991455078 61.93173217773438 C 82.89124298095703 67.11149597167969 79.75453186035156 71.76373291015625 75.75909423828125 75.75917816162109 C 71.76364135742188 79.75463104248047 67.11141204833984 82.891357421875 61.9316520690918 85.08220672607422 C 56.56972885131836 87.35012054443359 50.87308883666992 88.50004577636719 44.99996566772461 88.50004577636719 Z" stroke="none"/>
                    <path d="M 44.99996566772461 3.000007629394531 C 39.32867813110352 3.000007629394531 33.82863616943359 4.110061645507812 28.65260696411133 6.299346923828125 C 23.65163421630859 8.414573669433594 19.15968322753906 11.44334411621094 15.30149078369141 15.30152130126953 C 11.44332122802734 19.15969085693359 8.414566040039062 23.65166473388672 6.299324035644531 28.65263366699219 C 4.110054016113281 33.82867431640625 2.999992370605469 39.32873153686523 2.999992370605469 45.00001907348633 C 2.999992370605469 50.67130661010742 4.110054016113281 56.17136383056641 6.299324035644531 61.34738922119141 C 8.414566040039062 66.34837341308594 11.44332122802734 70.84033203125 15.30150604248047 74.69851684570312 C 19.15968322753906 78.55668640136719 23.65163421630859 81.58546447753906 28.65260696411133 83.70069122314453 C 33.82863616943359 85.88997650146484 39.32867813110352 87.00003051757812 44.99996566772461 87.00003051757812 C 50.6712532043457 87.00003051757812 56.17129516601562 85.88997650146484 61.34732055664062 83.70069122314453 C 66.34829711914062 81.58546447753906 70.84025573730469 78.55668640136719 74.69842529296875 74.69851684570312 C 78.55659484863281 70.84033203125 81.58536529541016 66.34837341308594 83.70059204101562 61.34740447998047 C 85.88986206054688 56.17136383056641 86.99992370605469 50.67130661010742 86.99992370605469 45.00001907348633 C 86.99992370605469 39.32873153686523 85.88986206054688 33.82867431640625 83.70059204101562 28.65263366699219 C 81.58536529541016 23.65166473388672 78.55659484863281 19.15969085693359 74.69842529296875 15.30152130126953 C 70.84025573730469 11.44334411621094 66.34829711914062 8.414573669433594 61.34732055664062 6.299346923828125 C 56.17129516601562 4.110061645507812 50.6712532043457 3.000007629394531 44.99996566772461 3.000007629394531 M 44.99996566772461 7.62939453125e-06 C 69.85276794433594 7.62939453125e-06 89.99992370605469 20.14719390869141 89.99992370605469 45.00001907348633 C 89.99992370605469 69.85282897949219 69.85276794433594 90.00003051757812 44.99996566772461 90.00003051757812 C 20.14716339111328 90.00003051757812 -7.62939453125e-06 69.85282897949219 -7.62939453125e-06 45.00001907348633 C -7.62939453125e-06 20.14719390869141 20.14716339111328 7.62939453125e-06 44.99996566772461 7.62939453125e-06 Z" stroke="none" fill="#248abf"/>
                  </g>
                </g>
              </g>
            </g>
          </g>
        </g>
      </g>
    </g>
    <g id="exclusion_18465386" transform="translate(218.112 2658.444)">
      <path id="Trazado_1176656" data-name="Trazado 1176656" d="M82.259,336.784H74.44v-1.707a2.157,2.157,0,0,1,2.3-1.9h3.223a2.156,2.156,0,0,1,2.3,1.9Z" transform="translate(-58.889 -288.966)" fill="#6ac8eb"/>
      <path id="Trazado_1176657" data-name="Trazado 1176657" d="M218.986,275.338a4.684,4.684,0,1,1,4.682-4.686A4.691,4.691,0,0,1,218.986,275.338Zm0-3.417,1.186,1.186a.893.893,0,0,0,1.266,0,.893.893,0,0,0,0-1.266l-1.186-1.19,1.186-1.186a.893.893,0,0,0,0-1.266c0-.007-.012-.012-.016-.019s-.016-.016-.026-.022a.906.906,0,0,0-.59-.222H220.8a.9.9,0,0,0-.577.216.518.518,0,0,0-.05.048l-1.186,1.186L217.8,268.2a.895.895,0,1,0-1.266,1.266l1.186,1.186-1.186,1.19a.895.895,0,1,0,1.266,1.266Z" transform="translate(-183.097 -229.278)" fill="#f85647"/>
      <path id="Trazado_1176658" data-name="Trazado 1176658" d="M180.472,83.051H176.4a6.471,6.471,0,0,0-11.522,0H160.8a.955.955,0,0,1-.942-.942V58.989a.942.942,0,0,1,.942-.939h3.436v1.525a.9.9,0,0,0,.894.894h11a.893.893,0,0,0,.894-.894V58.05h3.439a.941.941,0,0,1,.939.939v23.12A.951.951,0,0,1,180.472,83.051ZM170.032,74.7a.9.9,0,0,0,.9.9h4.7a.9.9,0,0,0,0-1.792h-4.7A.9.9,0,0,0,170.032,74.7Zm-6.674-1.6a.891.891,0,0,0,.2.562l1.11,1.371a.9.9,0,0,0,.695.334h0a.9.9,0,0,0,.695-.33l2.354-2.887a.9.9,0,0,0-.13-1.259l-.01-.009a.113.113,0,0,0-.016-.009.864.864,0,0,0-.529-.184h-.016a.882.882,0,0,0-.688.33l-1.656,2.03-.419-.51a.89.89,0,0,0-.692-.333h-.01a.9.9,0,0,0-.892.9Zm6.674-1.748a.9.9,0,0,0,.9.9h6.091a.9.9,0,0,0,0-1.792h-6.091A.9.9,0,0,0,170.032,71.361Zm0-3.7a.9.9,0,0,0,.9.894h6.091a.9.9,0,0,0,0-1.792h-6.091A.9.9,0,0,0,170.032,67.659Zm-6.674-1.6a.888.888,0,0,0,.2.558l1.11,1.371a.9.9,0,0,0,.695.333h0a.9.9,0,0,0,.695-.33l2.35-2.884a.867.867,0,0,0,.2-.571.9.9,0,0,0-.33-.692l-.012-.009a.193.193,0,0,1-.022-.016.035.035,0,0,1-.016-.012,0,0,0,0,1,0,0,.9.9,0,0,0-.5-.159h-.013a.9.9,0,0,0-.688.33l-1.656,2.03-.419-.514a.89.89,0,0,0-.692-.334h-.01a.888.888,0,0,0-.558.2A.9.9,0,0,0,163.357,66.063Zm6.674-1.745a.9.9,0,0,0,.9.894h4.7a.9.9,0,0,0,0-1.792h-4.7A.9.9,0,0,0,170.032,64.318Z" transform="translate(-134.75 -44.626)" fill="#e8ecf9"/>
      <path id="Trazado_1176659" data-name="Trazado 1176659" d="M93.884,286.211a1.951,1.951,0,1,1,1.951-1.951A1.954,1.954,0,0,1,93.884,286.211Z" transform="translate(-74.422 -243.789)" fill="#ffddcf"/>
      <path id="Trazado_1176660" data-name="Trazado 1176660" d="M224.219,28.27H215.01V25.3h1.2a.9.9,0,0,0,.894-.9V23.81h5.028V24.4a.9.9,0,0,0,.9.9h1.193Z" transform="translate(-183.728 -14.218)" fill="#ffe177"/>
      <path id="Trazado_1176661" data-name="Trazado 1176661" d="M141.223,459.214H133.4V457.5a2.155,2.155,0,0,1,2.3-1.894h3.226a2.154,2.154,0,0,1,2.3,1.894Z" transform="translate(-111.251 -397.695)" fill="#ffe177"/>
      <path id="Trazado_1176662" data-name="Trazado 1176662" d="M152.871,408.631a1.951,1.951,0,1,1,1.951-1.951A1.953,1.953,0,0,1,152.871,408.631Z" transform="translate(-126.81 -352.509)" fill="#ffddcf"/>
      <path id="Trazado_1176663" data-name="Trazado 1176663" d="M31.973,459.214H24.15V457.5a2.155,2.155,0,0,1,2.3-1.894h3.226a2.154,2.154,0,0,1,2.3,1.894Z" transform="translate(-14.227 -397.695)" fill="#45dea6"/>
      <path id="Trazado_1176664" data-name="Trazado 1176664" d="M328.481,408.631a1.951,1.951,0,1,1,1.951-1.951A1.955,1.955,0,0,1,328.481,408.631Z" transform="translate(-282.767 -352.509)" fill="#ffddcf"/>
      <path id="Trazado_1176665" data-name="Trazado 1176665" d="M43.624,408.631a1.951,1.951,0,1,1,1.947-1.951A1.954,1.954,0,0,1,43.624,408.631Z" transform="translate(-29.786 -352.509)" fill="#ffddcf"/>
      <path id="Trazado_1176666" data-name="Trazado 1176666" d="M375.819,336.784H368v-1.707a2.157,2.157,0,0,1,2.3-1.9h3.223a2.156,2.156,0,0,1,2.3,1.9Z" transform="translate(-319.596 -288.966)" fill="#6ac8eb"/>
      <path id="Trazado_1176667" data-name="Trazado 1176667" d="M316.833,459.214H309.01V457.5a2.155,2.155,0,0,1,2.3-1.894h3.223a2.153,2.153,0,0,1,2.3,1.894Z" transform="translate(-267.208 -397.695)" fill="#45dea6"/>
      <path id="Trazado_1176668" data-name="Trazado 1176668" d="M387.444,286.211a1.951,1.951,0,1,1,1.951-1.951A1.954,1.954,0,0,1,387.444,286.211Z" transform="translate(-335.129 -243.789)" fill="#ffddcf"/>
      <path id="Trazado_1176669" data-name="Trazado 1176669" d="M437.745,408.631a1.951,1.951,0,1,1,1.954-1.951A1.953,1.953,0,0,1,437.745,408.631Z" transform="translate(-379.809 -352.509)" fill="#ffddcf"/>
      <path id="Trazado_1176670" data-name="Trazado 1176670" d="M426.083,459.214H418.26V457.5a2.154,2.154,0,0,1,2.3-1.894h3.23a2.154,2.154,0,0,1,2.3,1.894Z" transform="translate(-364.232 -397.695)" fill="#ffe177"/>
      <g id="Grupo_1222966" data-name="Grupo 1222966" transform="translate(8.13 7.8)">
        <path id="Trazado_1176671" data-name="Trazado 1176671" d="M302.884,401.593H294.51a1.522,1.522,0,0,1-1.52-1.52V398.09a3.733,3.733,0,0,1,2.665-3.455,3.743,3.743,0,1,1,6.079,0,3.733,3.733,0,0,1,2.665,3.455v1.983A1.52,1.52,0,0,1,302.884,401.593Zm-8.1-1.793h7.823v-1.71a2.153,2.153,0,0,0-2.3-1.894h-3.223a2.155,2.155,0,0,0-2.3,1.894Zm1.96-7.347a1.951,1.951,0,1,0,1.951-1.951A1.955,1.955,0,0,0,296.742,392.453Z" transform="translate(-261.111 -346.082)" fill="#0b0b0a"/>
        <path id="Trazado_1176672" data-name="Trazado 1176672" d="M256.359,107.842h-4.7a.9.9,0,1,1,0-1.792h4.7a.9.9,0,0,1,0,1.792Z" transform="translate(-223.607 -95.055)" fill="#0b0b0a"/>
        <path id="Trazado_1176673" data-name="Trazado 1176673" d="M156.438,47.852a6.485,6.485,0,0,1-6.477-6.477,6.419,6.419,0,0,1,.107-1.158H146.6a2.737,2.737,0,0,1-2.734-2.734V14.363a2.737,2.737,0,0,1,2.734-2.732h3.436V10.185a.9.9,0,0,1,.894-.894h1.2V8.7a.9.9,0,0,1,.9-.9h6.82a.894.894,0,0,1,.894.9v.593h1.2a.893.893,0,0,1,.894.894v1.447h3.439A2.734,2.734,0,0,1,169,14.364v23.12a2.734,2.734,0,0,1-2.732,2.734h-3.464a6.6,6.6,0,0,1,.105,1.158,6.485,6.485,0,0,1-6.475,6.476Zm-4.686-6.477a4.684,4.684,0,1,0,4.686-4.682A4.691,4.691,0,0,0,151.752,41.375Zm4.686-6.474a6.483,6.483,0,0,1,5.761,3.524h4.074a.953.953,0,0,0,.939-.942V14.363a.941.941,0,0,0-.939-.939h-3.439v1.525a.893.893,0,0,1-.894.894h-11a.9.9,0,0,1-.894-.894V13.424h-3.436a.942.942,0,0,0-.942.939v23.12a.956.956,0,0,0,.942.942h4.074A6.47,6.47,0,0,1,156.438,34.9Zm-4.606-20.849h9.209V11.082h-1.193a.9.9,0,0,1-.9-.9V9.592h-5.028v.593a.9.9,0,0,1-.894.9h-1.2Z" transform="translate(-128.679 -7.8)" fill="#0b0b0a"/>
        <path id="Trazado_1176674" data-name="Trazado 1176674" d="M127.281,401.593h-8.374a1.519,1.519,0,0,1-1.516-1.52V398.09a3.733,3.733,0,0,1,2.665-3.455,3.743,3.743,0,1,1,6.079,0,3.733,3.733,0,0,1,2.665,3.455v1.983A1.521,1.521,0,0,1,127.281,401.593Zm-8.1-1.793H127v-1.71a2.154,2.154,0,0,0-2.3-1.894h-3.226a2.155,2.155,0,0,0-2.3,1.894Zm1.961-7.347a1.951,1.951,0,1,0,1.951-1.951A1.953,1.953,0,0,0,121.142,392.453Z" transform="translate(-105.162 -346.082)" fill="#0b0b0a"/>
        <path id="Trazado_1176675" data-name="Trazado 1176675" d="M193.119,175.7h0a.9.9,0,0,1-.695-.333L191.31,174a.888.888,0,0,1-.2-.562.9.9,0,0,1,.333-.7.886.886,0,0,1,.558-.2h.01a.892.892,0,0,1,.692.334l.419.51,1.656-2.03a.882.882,0,0,1,.688-.33h.016a.878.878,0,0,1,.529.184.113.113,0,0,0,.016.009l.01.009a.9.9,0,0,1,.13,1.259l-2.354,2.887A.9.9,0,0,1,193.119,175.7Z" transform="translate(-170.632 -152.754)" fill="#0b0b0a"/>
        <path id="Trazado_1176676" data-name="Trazado 1176676" d="M193.119,175.719h0a.9.9,0,0,1-.695-.333l-1.11-1.371a.888.888,0,0,1-.2-.562.891.891,0,0,0,.2.562l1.11,1.371a.9.9,0,0,0,.695.333h0a.9.9,0,0,0,.695-.33l2.354-2.887a.889.889,0,0,0,.2-.571.881.881,0,0,1-.2.571l-2.354,2.887A.9.9,0,0,1,193.119,175.719Zm-1.675-2.962a.886.886,0,0,1,.558-.2A.88.88,0,0,0,191.443,172.757Zm.567-.2H192Zm2.766-1.186a.882.882,0,0,1,.688-.33A.882.882,0,0,0,194.777,171.37Zm1.25-.137a.115.115,0,0,0-.016-.009Zm-.546-.194h-.009Z" transform="translate(-170.632 -152.771)" fill="#0b0b0a"/>
        <path id="Trazado_1176677" data-name="Trazado 1176677" d="M257.739,137.692h-6.091a.9.9,0,1,1,0-1.792h6.091a.9.9,0,0,1,0,1.792Z" transform="translate(-223.598 -121.564)" fill="#0b0b0a"/>
        <path id="Trazado_1176678" data-name="Trazado 1176678" d="M68.312,279.163H59.936a1.519,1.519,0,0,1-1.516-1.52v-1.98a3.735,3.735,0,0,1,2.665-3.458,3.706,3.706,0,0,1-.707-2.182,3.745,3.745,0,1,1,6.786,2.182,3.73,3.73,0,0,1,2.661,3.458v1.98A1.519,1.519,0,0,1,68.312,279.163Zm-8.1-1.793h7.819v-1.707a2.156,2.156,0,0,0-2.3-1.9H62.513a2.157,2.157,0,0,0-2.3,1.9Zm1.957-7.347a1.952,1.952,0,1,0,1.954-1.951A1.954,1.954,0,0,0,62.17,270.023Z" transform="translate(-52.792 -237.353)" fill="#0b0b0a"/>
        <path id="Trazado_1176679" data-name="Trazado 1176679" d="M236.419,288.974a.893.893,0,0,1-.635-.263l-1.186-1.186-1.19,1.186a.9.9,0,1,1-1.266-1.266l1.186-1.19-1.186-1.186a.9.9,0,1,1,1.266-1.266l1.19,1.186,1.186-1.186c.016-.016.031-.031.05-.048a.9.9,0,0,1,.577-.216h.007a.906.906,0,0,1,.59.222c.009.007.016.016.026.022s.012.012.016.019a.893.893,0,0,1,0,1.266l-1.186,1.186,1.186,1.19a.893.893,0,0,1,0,1.266A.887.887,0,0,1,236.419,288.974Z" transform="translate(-206.84 -252.681)" fill="#0b0b0a"/>
        <path id="Trazado_1176680" data-name="Trazado 1176680" d="M236.419,288.974a.893.893,0,0,1-.635-.263l-1.186-1.186-1.19,1.186a.9.9,0,0,1-1.529-.635.895.895,0,0,0,1.529.635l1.19-1.186,1.186,1.186a.893.893,0,0,0,1.266,0,.879.879,0,0,0,.263-.635.9.9,0,0,1-.894.9Zm-.555-2.718,1.186-1.186a.879.879,0,0,0,.263-.635.884.884,0,0,1-.263.635Zm-2.535,0-1.186-1.186a.893.893,0,0,1-.263-.635.893.893,0,0,0,.263.635Zm2.455-2.452c.016-.016.031-.031.05-.048C235.816,283.773,235.8,283.788,235.785,283.8Zm1.25-.019c-.009-.007-.016-.016-.026-.022C237.019,283.769,237.025,283.778,237.035,283.785Zm-1.2-.029a.9.9,0,0,1,.577-.216A.913.913,0,0,0,235.835,283.756Z" transform="translate(-206.84 -252.681)" fill="#0b0b0a"/>
        <path id="Trazado_1176681" data-name="Trazado 1176681" d="M18.025,401.593H9.65a1.522,1.522,0,0,1-1.52-1.52V398.09a3.732,3.732,0,0,1,2.668-3.455,3.742,3.742,0,1,1,6.076,0,3.733,3.733,0,0,1,2.665,3.455v1.983A1.519,1.519,0,0,1,18.025,401.593Zm-8.1-1.793h7.823v-1.71a2.154,2.154,0,0,0-2.3-1.894H12.223a2.155,2.155,0,0,0-2.3,1.894Zm1.961-7.347a1.951,1.951,0,1,0,1.954-1.951A1.954,1.954,0,0,0,11.884,392.453Z" transform="translate(-8.13 -346.082)" fill="#0b0b0a"/>
        <path id="Trazado_1176682" data-name="Trazado 1176682" d="M412.119,401.593h-8.372a1.519,1.519,0,0,1-1.516-1.52V398.09a3.733,3.733,0,0,1,2.665-3.455,3.747,3.747,0,1,1,6.079,0,3.736,3.736,0,0,1,2.668,3.455v1.983A1.523,1.523,0,0,1,412.119,401.593Zm-8.1-1.793h7.823v-1.71a2.154,2.154,0,0,0-2.3-1.894h-3.23a2.154,2.154,0,0,0-2.3,1.894Zm1.964-7.347a1.95,1.95,0,1,0,1.945-1.951A1.952,1.952,0,0,0,405.987,392.453Z" transform="translate(-358.125 -346.082)" fill="#0b0b0a"/>
        <path id="Trazado_1176683" data-name="Trazado 1176683" d="M257.739,170.792h-6.091a.9.9,0,1,1,0-1.792h6.091a.9.9,0,0,1,0,1.792Z" transform="translate(-223.598 -150.96)" fill="#0b0b0a"/>
        <path id="Trazado_1176684" data-name="Trazado 1176684" d="M256.359,200.672h-4.7a.9.9,0,1,1,0-1.792h4.7a.9.9,0,0,1,0,1.792Z" transform="translate(-223.607 -177.496)" fill="#0b0b0a"/>
        <path id="Trazado_1176685" data-name="Trazado 1176685" d="M361.859,279.163h-8.372a1.52,1.52,0,0,1-1.516-1.52v-1.98a3.735,3.735,0,0,1,2.665-3.458,3.706,3.706,0,0,1-.707-2.182,3.745,3.745,0,0,1,7.49,0,3.7,3.7,0,0,1-.7,2.182,3.73,3.73,0,0,1,2.661,3.458v1.98A1.519,1.519,0,0,1,361.859,279.163Zm-8.1-1.793h7.819v-1.707a2.156,2.156,0,0,0-2.3-1.9h-3.223a2.157,2.157,0,0,0-2.3,1.9Zm1.957-7.347a1.952,1.952,0,1,0,1.954-1.951A1.954,1.954,0,0,0,355.72,270.023Z" transform="translate(-313.49 -237.353)" fill="#0b0b0a"/>
        <path id="Trazado_1176686" data-name="Trazado 1176686" d="M193.119,112.747h0a.9.9,0,0,1-.695-.333l-1.11-1.371a.886.886,0,0,1-.2-.558.9.9,0,0,1,.333-.7.886.886,0,0,1,.558-.2h.01a.892.892,0,0,1,.692.333l.419.514,1.656-2.03a.9.9,0,0,1,.688-.33h.013a.9.9,0,0,1,.5.159,0,0,0,0,0,0,0,.025.025,0,0,0,.016.012.129.129,0,0,0,.022.016l.012.009a.9.9,0,0,1,.33.692.871.871,0,0,1-.2.571l-2.35,2.884a.905.905,0,0,1-.7.331Z" transform="translate(-170.632 -96.849)" fill="#0b0b0a"/>
        <path id="Trazado_1176687" data-name="Trazado 1176687" d="M193.119,112.756h0a.9.9,0,0,1-.695-.334l-1.11-1.371a.886.886,0,0,1-.2-.558.888.888,0,0,0,.2.558l1.11,1.371a.9.9,0,0,0,.695.334h0a.9.9,0,0,0,.695-.33l2.35-2.884a.867.867,0,0,0,.2-.571.871.871,0,0,1-.2.571l-2.35,2.884A.9.9,0,0,1,193.119,112.756Zm-1.675-2.962a.886.886,0,0,1,.558-.2A.886.886,0,0,0,191.443,109.793Zm.567-.2H192Zm2.766-1.183a.9.9,0,0,1,.688-.33A.9.9,0,0,0,194.777,108.41Zm1.247-.14a.2.2,0,0,1-.022-.016A.114.114,0,0,0,196.024,108.27Zm-.038-.028a0,0,0,0,1,0,0A0,0,0,0,0,195.986,108.242Zm-.507-.162h-.007Z" transform="translate(-170.632 -96.857)" fill="#0b0b0a"/>
      </g>
    </g>
  </g>
</svg>
