<svg xmlns="http://www.w3.org/2000/svg" xmlns:xlink="http://www.w3.org/1999/xlink" width="103" height="103" viewBox="0 0 103 103">
  <defs>
    <filter id="Trazado_982547" x="0" y="0" width="103" height="103" filterUnits="userSpaceOnUse">
      <feOffset dy="3" input="SourceAlpha"/>
      <feGaussianBlur stdDeviation="3" result="blur"/>
      <feFlood flood-opacity="0.161"/>
      <feComposite operator="in" in2="blur"/>
      <feComposite in="SourceGraphic"/>
    </filter>
  </defs>
  <g id="Grupo_1222946" data-name="Grupo 1222946" transform="translate(-194.13 -2008)">
    <g id="Grupo_1206686" data-name="Grupo 1206686" transform="translate(-2.87 300.583)">
      <g id="Grupo_1201889" data-name="Grupo 1201889" transform="translate(206 1713.417)">
        <g id="Grupo_1201680" data-name="Grupo 1201680">
          <g id="Grupo_1201330" data-name="Grupo 1201330">
            <g id="Grupo_1172010" data-name="Grupo 1172010">
              <g id="Grupo_1171046" data-name="Grupo 1171046">
                <g id="Grupo_1148525" data-name="Grupo 1148525">
                  <g transform="matrix(1, 0, 0, 1, -9, -6)" filter="url(#Trazado_982547)">
                    <g id="Trazado_982547-2" data-name="Trazado 982547" transform="translate(9 6)" fill="#f2f4f0">
                      <path d="M 42.5 83.5 C 36.96437835693359 83.5 31.59512901306152 82.41617584228516 26.54141235351562 80.27863311767578 C 21.65934181213379 78.21369171142578 17.27447128295898 75.25723266601562 13.50862312316895 71.49137878417969 C 9.742764472961426 67.72553253173828 6.786305904388428 63.34066009521484 4.721364498138428 58.45858764648438 C 2.583823442459106 53.40486907958984 1.5 48.03562164306641 1.5 42.5 C 1.5 36.96437835693359 2.583823442459106 31.59512901306152 4.721364498138428 26.54141235351562 C 6.786305904388428 21.65934181213379 9.742764472961426 17.27448272705078 13.50862312316895 13.50862312316895 C 17.27447128295898 9.742776870727539 21.65934181213379 6.786305904388428 26.54141235351562 4.721364498138428 C 31.59512901306152 2.583823442459106 36.96437835693359 1.5 42.5 1.5 C 48.03562164306641 1.5 53.40486907958984 2.583823442459106 58.45858764648438 4.721364498138428 C 63.34066009521484 6.786305904388428 67.72553253173828 9.742776870727539 71.49137878417969 13.50862312316895 C 75.25723266601562 17.27448272705078 78.21369171142578 21.65934181213379 80.27863311767578 26.54141235351562 C 82.41617584228516 31.59512901306152 83.5 36.96437835693359 83.5 42.5 C 83.5 48.03562164306641 82.41617584228516 53.40486907958984 80.27863311767578 58.45858764648438 C 78.21369171142578 63.34066009521484 75.25723266601562 67.72553253173828 71.49137878417969 71.49137878417969 C 67.72553253173828 75.25723266601562 63.34066009521484 78.21369171142578 58.45858764648438 80.27863311767578 C 53.40486907958984 82.41617584228516 48.03562164306641 83.5 42.5 83.5 Z" stroke="none"/>
                      <path d="M 42.5 3 C 37.16621398925781 3 31.99356079101562 4.043960571289062 27.125732421875 6.102882385253906 C 22.42246627807617 8.092185974121094 18.19785308837891 10.94070434570312 14.56928253173828 14.56928253173828 C 10.94070434570312 18.19785308837891 8.092185974121094 22.42246627807617 6.102882385253906 27.125732421875 C 4.043960571289062 31.99356079101562 3 37.16621398925781 3 42.5 C 3 47.83378601074219 4.043960571289062 53.00643920898438 6.102882385253906 57.87425231933594 C 8.092185974121094 62.57753372192383 10.94070434570312 66.80213165283203 14.56928253173828 70.43071746826172 C 18.19786834716797 74.05929565429688 22.42246627807617 76.90781402587891 27.125732421875 78.89711761474609 C 31.99356079101562 80.95603942871094 37.16621398925781 82 42.5 82 C 47.83378601074219 82 53.00642395019531 80.95603942871094 57.87425231933594 78.89711761474609 C 62.57753372192383 76.90781402587891 66.80213165283203 74.05929565429688 70.43071746826172 70.43071746826172 C 74.05929565429688 66.80213165283203 76.90781402587891 62.57753372192383 78.89711761474609 57.87425231933594 C 80.95603942871094 53.00642395019531 82 47.83378601074219 82 42.5 C 82 37.16621398925781 80.95603942871094 31.99356079101562 78.89711761474609 27.125732421875 C 76.90781402587891 22.42246627807617 74.05929565429688 18.19786834716797 70.43071746826172 14.56928253173828 C 66.80213165283203 10.94070434570312 62.57753372192383 8.092185974121094 57.87425231933594 6.102882385253906 C 53.00643920898438 4.043960571289062 47.83378601074219 3 42.5 3 M 42.5 0 C 65.97209167480469 0 85 19.02789306640625 85 42.5 C 85 65.97209167480469 65.97209167480469 85 42.5 85 C 19.02789306640625 85 0 65.97209167480469 0 42.5 C 0 19.02789306640625 19.02789306640625 0 42.5 0 Z" stroke="none" fill="#899e78"/>
                    </g>
                  </g>
                </g>
              </g>
            </g>
          </g>
        </g>
      </g>
    </g>
    <g id="illegal_12153977" transform="translate(179.399 2025.47)">
      <g id="Grupo_1222943" data-name="Grupo 1222943" transform="translate(44.272 4.667)">
        <path id="Trazado_1176492" data-name="Trazado 1176492" d="M94.942,52.6H128.52q.022-21.3.034-42.6H94.978l-.036,42.6Z" transform="translate(-89.897 -10)" fill="#ecba78" fill-rule="evenodd"/>
        <path id="Trazado_1176493" data-name="Trazado 1176493" d="M49.59,97.836H83.168V62.142l-6.921-6.921H49.59Z" transform="translate(-49.59 -50.191)" fill="#f3f5fb" fill-rule="evenodd"/>
        <path id="Trazado_1176494" data-name="Trazado 1176494" d="M296.16,62.142l-6.921-6.921v6.921Z" transform="translate(-262.582 -50.191)" fill="#e5eaf1" fill-rule="evenodd"/>
        <path id="Trazado_1176495" data-name="Trazado 1176495" d="M111.348,326.974a.665.665,0,1,1,0-1.33h15.469a.665.665,0,1,1,0,1.33Zm0,3.738a.665.665,0,1,1,0-1.33h15.469a.665.665,0,1,1,0,1.33Zm0-7.475a.665.665,0,1,1,0-1.33h18.657a.665.665,0,1,1,0,1.33Z" transform="translate(-103.887 -287.212)" fill="#77899b" fill-rule="evenodd"/>
      </g>
      <circle id="Elipse_14681" data-name="Elipse 14681" cx="9.761" cy="9.761" r="9.761" transform="translate(70.669 39.872)" fill="#fb695b"/>
      <path id="Trazado_1176496" data-name="Trazado 1176496" d="M315.249,346.449a9.761,9.761,0,1,0-5.808-2.8A9.719,9.719,0,0,0,315.249,346.449Z" transform="translate(-233.724 -287.117)" fill="#fd7a6e" fill-rule="evenodd"/>
      <path id="Trazado_1176497" data-name="Trazado 1176497" d="M315.623,354.269l7.891,7.891a5.619,5.619,0,0,0-7.891-7.891Zm6.947,8.835a5.62,5.62,0,0,1-7.891-7.891l7.891,7.891Zm-10.427-4.417a6.954,6.954,0,1,1,2.037,4.917A6.932,6.932,0,0,1,312.143,358.686Z" transform="translate(-238.667 -309.053)" fill="#f3f5fb" fill-rule="evenodd"/>
      <g id="Grupo_1222944" data-name="Grupo 1222944" transform="translate(51.078 27.345)">
        <path id="Trazado_1176498" data-name="Trazado 1176498" d="M115.753,213.876a2.485,2.485,0,1,1-4.969,0Z" transform="translate(-110.784 -213.876)" fill="#98d16f" fill-rule="evenodd"/>
        <path id="Trazado_1176499" data-name="Trazado 1176499" d="M123.659,213.876a2.031,2.031,0,1,1-3.98,0Z" transform="translate(-118.69 -213.876)" fill="#a9e082" fill-rule="evenodd"/>
      </g>
      <path id="Trazado_1176500" data-name="Trazado 1176500" d="M194.509,153.726h1.33v12.879h-1.33Z" transform="translate(-134.117 -133.072)" fill="#e3a76f"/>
      <path id="Trazado_1176501" data-name="Trazado 1176501" d="M132.753,147.726H147.83v1.335H132.753Z" transform="translate(-79.231 -127.74)" fill="#ecba78"/>
      <path id="Trazado_1176502" data-name="Trazado 1176502" d="M191.661,128.836a1.1,1.1,0,1,1-1.1,1.1A1.1,1.1,0,0,1,191.661,128.836Z" transform="translate(-130.605 -110.951)" fill="#a9e082" fill-rule="evenodd"/>
      <path id="Trazado_1176503" data-name="Trazado 1176503" d="M162.741,267.733h8.4v-1.513a1.059,1.059,0,0,1-1.055-1.055H163.8a1.059,1.059,0,0,1-1.055,1.055Z" transform="translate(-105.883 -232.114)" fill="#d09561" fill-rule="evenodd"/>
      <path id="Trazado_1176504" data-name="Trazado 1176504" d="M49.59,55.222h2.078V97.837H49.59Z" transform="translate(-5.318 -45.525)" fill="#e5eaf1"/>
      <path id="Trazado_1176505" data-name="Trazado 1176505" d="M95.269,10h2.078v5.03H95.269Z" transform="translate(-45.916 -5.333)" fill="#e3a76f"/>
      <g id="Grupo_1222945" data-name="Grupo 1222945" transform="translate(66.262 27.345)">
        <path id="Trazado_1176506" data-name="Trazado 1176506" d="M252.253,213.876a2.485,2.485,0,1,1-4.969,0h4.969Z" transform="translate(-247.283 -213.876)" fill="#98d16f" fill-rule="evenodd"/>
        <path id="Trazado_1176507" data-name="Trazado 1176507" d="M260.159,213.876a2.031,2.031,0,1,1-3.98,0Z" transform="translate(-255.189 -213.876)" fill="#a9e082" fill-rule="evenodd"/>
      </g>
      <path id="Trazado_1176508" data-name="Trazado 1176508" d="M70.388,39.358H51.735a.668.668,0,1,0,0,1.335H70.388a.668.668,0,1,0,0-1.335Zm.578-11.737H66.238a2.457,2.457,0,0,0,4.728,0Zm-4.415-1.335h4.1L68.6,22.156Zm-8.1,7.43a1.73,1.73,0,0,1-.921.921v.314h7.061v-.314a1.746,1.746,0,0,1-.921-.921H58.448Zm2.171-14.727a.439.439,0,1,0,.441-.436A.438.438,0,0,0,60.618,18.989Zm-7.095,3.167-2.048,4.13h4.1Zm2.362,5.465H51.162a2.453,2.453,0,0,0,4.723,0Zm16.434-.963a.611.611,0,0,1,.074.3,3.792,3.792,0,0,1-7.585,0,.669.669,0,0,1,.074-.3l2.646-5.336h-5.8l-.01,11.06H64.2a.668.668,0,0,1,.666.667.4.4,0,0,0,.387.388.668.668,0,0,1,.671.667v1.514a.669.669,0,0,1-.671.667H56.86a.672.672,0,0,1-.671-.667V34.1a.672.672,0,0,1,.671-.667.392.392,0,0,0,.387-.388.667.667,0,0,1,.666-.667h2.474l0-11.06H54.6l2.641,5.336a.669.669,0,0,1,.074.3,3.792,3.792,0,0,1-7.585,0,.669.669,0,0,1,.074-.3h0l3.126-6.3a.666.666,0,0,1,.6-.37h6.071a1.753,1.753,0,0,1-.309-1,1.771,1.771,0,0,1,3.543,0,1.753,1.753,0,0,1-.309,1H68.6a.666.666,0,0,1,.6.37l3.121,6.3Zm12.088,19a5.627,5.627,0,0,0-7.448-.443L84.847,53.1A5.629,5.629,0,0,0,84.407,45.66Zm-.5,8.389a5.618,5.618,0,0,1-7.889-7.889Zm1.445.5a6.954,6.954,0,1,1,0-9.834,6.923,6.923,0,0,1,0,9.834ZM86.861,43.2a9.048,9.048,0,1,1-4.16-2.379.086.086,0,0,0,.024.008A9.02,9.02,0,0,1,86.861,43.2Zm-13.8-.944A10.425,10.425,0,0,0,70.2,51.644H44.939V10.364H70.261v6.254a.667.667,0,0,0,.666.667h6.257V39.718a10.384,10.384,0,0,0-4.126,2.541ZM71.6,11.308V15.95h4.64ZM50.02,9.029v-3.7h32.24c0,10.918-.01,22-.024,32.733v1.293a10.527,10.527,0,0,0-3.719.02V16.573c0-.029,0-.057-.01-.085h0a.544.544,0,0,0-.024-.083c0-.007,0-.013-.01-.02a.44.44,0,0,0-.029-.076s0,0,0,0a.509.509,0,0,0-.044-.073l-.015-.017a.446.446,0,0,0-.059-.068L71.4,9.225c-.024-.022-.044-.04-.069-.058a.067.067,0,0,0-.02-.013.472.472,0,0,0-.069-.046s0,0,0,0a.477.477,0,0,0-.078-.034l-.02-.007a.536.536,0,0,0-.083-.023h0l-.083-.01H50.02ZM87.807,57.007A10.421,10.421,0,0,1,70.56,52.979H44.272a.667.667,0,0,1-.666-.667V9.7a.668.668,0,0,1,.666-.667h4.41l0-4.363A.667.667,0,0,1,49.353,4H82.931a.668.668,0,0,1,.666.667c0,11.134-.015,22.454-.024,33.4v1.614a10.437,10.437,0,0,1,4.233,17.324ZM67.2,46.834H51.735a.667.667,0,1,0,0,1.335H67.2a.667.667,0,0,0,0-1.335Zm.666-3.07A.667.667,0,0,0,67.2,43.1H51.735a.667.667,0,1,0,0,1.335H67.2a.668.668,0,0,0,.666-.667Z" fill="#242222" fill-rule="evenodd"/>
    </g>
  </g>
</svg>
