<svg xmlns="http://www.w3.org/2000/svg" xmlns:xlink="http://www.w3.org/1999/xlink" width="113" height="113" viewBox="0 0 113 113">
  <defs>
    <filter id="Trazado_982547" x="0" y="0" width="113" height="113" filterUnits="userSpaceOnUse">
      <feOffset dy="3" input="SourceAlpha"/>
      <feGaussianBlur stdDeviation="3" result="blur"/>
      <feFlood flood-opacity="0.161"/>
      <feComposite operator="in" in2="blur"/>
      <feComposite in="SourceGraphic"/>
    </filter>
  </defs>
  <g id="Grupo_1223000" data-name="Grupo 1223000" transform="translate(-1131.51 -2624.678)">
    <g id="Grupo_1222882" data-name="Grupo 1222882" transform="translate(0 -8441.852)">
      <g id="Grupo_1222484" data-name="Grupo 1222484" transform="translate(1140.51 11072.529)">
        <g id="Grupo_1208010" data-name="Grupo 1208010" transform="translate(0 0)">
          <g id="Grupo_1202142" data-name="Grupo 1202142" transform="translate(0 0)">
            <g id="Grupo_1201923" data-name="Grupo 1201923">
              <g id="Grupo_1176928" data-name="Grupo 1176928" transform="translate(0)">
                <g id="Grupo_1172322" data-name="Grupo 1172322">
                  <g id="Grupo_1164700" data-name="Grupo 1164700">
                    <g id="Grupo_1160931" data-name="Grupo 1160931">
                      <g id="Grupo_1160749" data-name="Grupo 1160749">
                        <g id="Grupo_1158891" data-name="Grupo 1158891">
                          <g id="Grupo_1157406" data-name="Grupo 1157406">
                            <g id="Grupo_1155793" data-name="Grupo 1155793">
                              <g id="Grupo_1154704" data-name="Grupo 1154704">
                                <g id="Grupo_1150790" data-name="Grupo 1150790">
                                  <g id="Grupo_1154214" data-name="Grupo 1154214" transform="translate(0)">
                                    <g id="Grupo_1152583" data-name="Grupo 1152583">
                                      <g id="Grupo_1146973" data-name="Grupo 1146973">
                                        <g id="Grupo_1146954" data-name="Grupo 1146954">
                                          <g transform="matrix(1, 0, 0, 1, -9, -6)" filter="url(#Trazado_982547)">
                                            <g id="Trazado_982547-2" data-name="Trazado 982547" transform="translate(9 6)" fill="#f2f4f0">
                                              <path d="M 47.5 93.49984741210938 C 41.28938674926758 93.49984741210938 35.26533508300781 92.2838134765625 29.59519958496094 89.88556671142578 C 24.11773300170898 87.56878662109375 19.19814682006836 84.25181579589844 14.97310638427734 80.02677917480469 C 10.74805355072021 75.80173492431641 7.431079864501953 70.88216400146484 5.114306449890137 65.40470886230469 C 2.716039896011353 59.73457717895508 1.50001335144043 53.71053695678711 1.50001335144043 47.49992370605469 C 1.50001335144043 41.28931045532227 2.716039896011353 35.2652702331543 5.114306449890137 29.59513664245605 C 7.431079864501953 24.11768341064453 10.74805355072021 19.19811058044434 14.97310638427734 14.97307014465332 C 19.19814682006836 10.74803066253662 24.11773300170898 7.431056976318359 29.59519958496094 5.114283561706543 C 35.26533508300781 2.716030359268188 41.28938674926758 1.500003695487976 47.5 1.500003695487976 C 53.71062850952148 1.500003695487976 59.73466491699219 2.716030359268188 65.40481567382812 5.114283561706543 C 70.88227844238281 7.431056976318359 75.80186462402344 10.74803066253662 80.02690887451172 14.97307014465332 C 84.25196075439453 19.19811058044434 87.56893157958984 24.11768341064453 89.88570404052734 29.59513664245605 C 92.28397369384766 35.2652702331543 93.5 41.28931045532227 93.5 47.49992370605469 C 93.5 53.71053695678711 92.28397369384766 59.73457717895508 89.88570404052734 65.40470886230469 C 87.56893157958984 70.88216400146484 84.25196075439453 75.80173492431641 80.02690887451172 80.02677917480469 C 75.80186462402344 84.25181579589844 70.88227844238281 87.56878662109375 65.40481567382812 89.88556671142578 C 59.73466491699219 92.2838134765625 53.71062850952148 93.49984741210938 47.5 93.49984741210938 Z" stroke="none"/>
                                              <path d="M 47.5 3 C 41.49121475219727 3 35.66376876831055 4.176155090332031 30.17951965332031 6.495803833007812 C 24.88084411621094 8.7369384765625 20.12152099609375 11.94596862792969 16.03375244140625 16.03372192382812 C 11.94598388671875 20.12149047851562 8.736953735351562 24.88081359863281 6.495796203613281 30.17947387695312 C 4.176155090332031 35.6637077331543 3 41.49115371704102 3 47.49992370605469 C 3 53.50869369506836 4.176155090332031 59.33613967895508 6.495796203613281 64.82037353515625 C 8.736953735351562 70.11903381347656 11.94598388671875 74.87835693359375 16.03375244140625 78.96612548828125 C 20.12152099609375 83.05387878417969 24.88084411621094 86.26290893554688 30.17951965332031 88.50404357910156 C 35.66376876831055 90.82369232177734 41.49121475219727 91.99984741210938 47.5 91.99984741210938 C 53.50878524780273 91.99984741210938 59.33623123168945 90.82369232177734 64.82049560546875 88.50404357910156 C 70.11915588378906 86.26290893554688 74.87847900390625 83.05387878417969 78.96624755859375 78.96612548828125 C 83.05401611328125 74.87835693359375 86.26304626464844 70.11903381347656 88.50418090820312 64.82037353515625 C 90.82382965087891 59.33613967895508 91.99998474121094 53.50869369506836 91.99998474121094 47.49992370605469 C 91.99998474121094 41.49115371704102 90.82382965087891 35.6637077331543 88.50418090820312 30.17947387695312 C 86.26304626464844 24.88081359863281 83.05401611328125 20.12149047851562 78.96624755859375 16.03372192382812 C 74.87847900390625 11.94596862792969 70.11915588378906 8.7369384765625 64.82049560546875 6.495803833007812 C 59.33623123168945 4.176155090332031 53.50878524780273 3 47.5 3 M 47.5 0 C 73.7335205078125 0 94.99998474121094 21.26644897460938 94.99998474121094 47.49992370605469 C 94.99998474121094 73.7333984375 73.7335205078125 94.99984741210938 47.5 94.99984741210938 C 21.26649475097656 94.99984741210938 0 73.7333984375 0 47.49992370605469 C 0 21.26644897460938 21.26649475097656 0 47.5 0 Z" stroke="none" fill="#899e78"/>
                                            </g>
                                          </g>
                                        </g>
                                      </g>
                                    </g>
                                  </g>
                                </g>
                              </g>
                            </g>
                          </g>
                        </g>
                      </g>
                    </g>
                  </g>
                </g>
              </g>
            </g>
          </g>
        </g>
      </g>
    </g>
    <g id="Page-1" transform="translate(1155.708 2649.198)">
      <g id="_025---Research-Law" data-name="025---Research-Law">
        <g id="Icons" transform="translate(1.093 1.093)">
          <path id="Shape" d="M61.229,8.187V26.862A14.21,14.21,0,1,0,38.006,43.175h-.831a1.093,1.093,0,0,0-1.093,1.093v1.093a2.193,2.193,0,0,1-2.187,2.187h-6.56a2.193,2.193,0,0,1-2.187-2.187V44.268a1.093,1.093,0,0,0-1.093-1.093H2.187A2.193,2.193,0,0,1,0,40.988V8.187A2.193,2.193,0,0,1,2.187,6H59.043a2.193,2.193,0,0,1,2.187,2.187Z" transform="translate(0 0.56)" fill="#91562d"/>
          <path id="Shape-2" data-name="Shape" d="M44.947,19.1A14.2,14.2,0,0,0,32.111,41.961H31.28a1.093,1.093,0,0,0-1.093,1.093v1.093A2.193,2.193,0,0,1,28,46.334h3.28a2.193,2.193,0,0,0,2.187-2.187V43.054a1.093,1.093,0,0,1,1.093-1.093h.831A14.2,14.2,0,0,1,44.947,19.1Z" transform="translate(2.615 1.775)" fill="#6d4122"/>
          <path id="Shape-3" data-name="Shape" d="M54.28,6H51a2.193,2.193,0,0,1,2.187,2.187V23.244a14.238,14.238,0,0,1,3.28,3.618V8.187A2.193,2.193,0,0,0,54.28,6Z" transform="translate(4.762 0.56)" fill="#6d4122"/>
          <path id="Shape-4" data-name="Shape" d="M30.241,36.374H5.093A1.093,1.093,0,0,1,4,35.28V32H25.868A4.374,4.374,0,0,1,30.241,36.374Z" transform="translate(0.374 2.988)" fill="#cfd8dc"/>
          <path id="Shape-5" data-name="Shape" d="M33.062,36.374H28A4.374,4.374,0,0,1,32.374,32,14.138,14.138,0,0,0,33.062,36.374Z" transform="translate(2.615 2.988)" fill="#cfd8dc"/>
          <path id="Shape-6" data-name="Shape" d="M30.241,4.374V39.362a4.374,4.374,0,0,0-4.374-4.374H4V2.187A2.193,2.193,0,0,1,6.187,0H25.868A4.374,4.374,0,0,1,30.241,4.374Z" transform="translate(0.374 0)" fill="#f5f5f5"/>
          <path id="Shape-7" data-name="Shape" d="M24.28,0H21a4.374,4.374,0,0,1,4.374,4.374V35.142a4.361,4.361,0,0,1,3.28,4.219V4.374A4.374,4.374,0,0,0,24.28,0Z" transform="translate(1.961 0)" fill="#cfd8dc"/>
          <path id="Shape-8" data-name="Shape" d="M54.241,2.187V23.016A14.208,14.208,0,0,0,32.374,34.988,4.374,4.374,0,0,0,28,39.362V4.374A4.374,4.374,0,0,1,32.374,0H52.054a2.193,2.193,0,0,1,2.187,2.187Z" transform="translate(2.615 0)" fill="#f5f5f5"/>
          <path id="Shape-9" data-name="Shape" d="M50.28,0H47a2.193,2.193,0,0,1,2.187,2.187V21.469a14.087,14.087,0,0,1,3.28,1.547V2.187A2.193,2.193,0,0,0,50.28,0Z" transform="translate(4.389 0)" fill="#cfd8dc"/>
          <circle id="Oval" cx="2" cy="2" r="2" transform="translate(15.708 3.708)" fill="#ffeb3a"/>
          <path id="Shape-10" data-name="Shape" d="M9.093,11H11.28a1.093,1.093,0,0,1,1.093,1.093v1.093a2.187,2.187,0,0,1-4.374,0V12.093A1.093,1.093,0,0,1,9.093,11Z" transform="translate(0.747 1.027)" fill="#ffdc00"/>
          <path id="Shape-11" data-name="Shape" d="M47.374,44.85V57.041a2.187,2.187,0,0,1-4.374,0V44.85Z" transform="translate(4.015 4.188)" fill="#7f8e94"/>
          <path id="Shape-12" data-name="Shape" d="M21.093,11H23.28a1.093,1.093,0,0,1,1.093,1.093v1.093a2.187,2.187,0,1,1-4.374,0V12.093A1.093,1.093,0,0,1,21.093,11Z" transform="translate(1.868 1.027)" fill="#ffdc00"/>
          <path id="Shape-13" data-name="Shape" d="M60.431,33.214a14.23,14.23,0,1,1-2.187-7.566,14.052,14.052,0,0,1,2.187,7.566Z" transform="translate(2.985 1.774)" fill="#9e9e9e"/>
          <path id="Shape-14" data-name="Shape" d="M57.17,25.648A14.254,14.254,0,0,0,52.8,21.241,14.085,14.085,0,0,0,45.143,19a14.3,14.3,0,0,0-1.64.1,14.047,14.047,0,0,1,6.014,2.139,14.254,14.254,0,0,1,4.374,4.406,14.052,14.052,0,0,1,2.187,7.566,14.214,14.214,0,0,1-12.6,14.117,14.5,14.5,0,0,0,1.669.1A14.214,14.214,0,0,0,59.356,33.214,14.052,14.052,0,0,0,57.17,25.648Z" transform="translate(4.06 1.774)" fill="#707070"/>
          <ellipse id="Oval-2" data-name="Oval" cx="9.5" cy="10" rx="9.5" ry="10" transform="translate(39.708 24.708)" fill="#02a9f4"/>
          <path id="Shape-15" data-name="Shape" d="M45.14,23a9.889,9.889,0,0,0-1.64.148,9.828,9.828,0,0,1,0,19.386A9.84,9.84,0,1,0,45.14,23Z" transform="translate(4.062 2.148)" fill="#0377bc"/>
        </g>
        <g id="Icons_copy">
          <g id="Grupo_1222999" data-name="Grupo 1222999">
            <path id="Shape-16" data-name="Shape" d="M63.416,9.84a3.28,3.28,0,0,0-3.28-3.28H59.043V3.28A3.28,3.28,0,0,0,55.762,0H36.082a5.447,5.447,0,0,0-4.374,2.221A5.447,5.447,0,0,0,27.335,0H7.654a3.28,3.28,0,0,0-3.28,3.28V6.56H3.28A3.28,3.28,0,0,0,0,9.84v32.8a3.28,3.28,0,0,0,3.28,3.28H25.148v1.093a3.28,3.28,0,0,0,3.28,3.28h6.56a3.28,3.28,0,0,0,3.28-3.28V45.922h.319a15.307,15.307,0,0,0,8.428,5.1v11.3a3.28,3.28,0,0,0,6.56,0v-11.3a15.262,15.262,0,0,0,9.84-22.788Zm-3.28-1.093A1.093,1.093,0,0,1,61.229,9.84V25.389a15.4,15.4,0,0,0-2.187-1.852V8.747ZM36.082,2.187H55.762A1.093,1.093,0,0,1,56.856,3.28V22.272A15.254,15.254,0,0,0,35.038,35.1,5.42,5.42,0,0,0,32.8,36.114V5.467a3.28,3.28,0,0,1,3.28-3.28Zm-1.03,35.154a15.326,15.326,0,0,0,.3,2.021H32.988A3.3,3.3,0,0,1,35.052,37.341ZM7.654,2.187H27.335a3.28,3.28,0,0,1,3.28,3.28V36.11a5.41,5.41,0,0,0-3.28-1.122H6.56V3.28A1.093,1.093,0,0,1,7.654,2.187ZM6.56,37.175H27.335a3.287,3.287,0,0,1,3.093,2.187H6.56Zm29.521,8.747v1.093a1.093,1.093,0,0,1-1.093,1.093h-6.56a1.093,1.093,0,0,1-1.093-1.093V45.922a2.187,2.187,0,0,0-2.187-2.187H3.28a1.093,1.093,0,0,1-1.093-1.093V9.84A1.093,1.093,0,0,1,3.28,8.747H4.374V39.362A2.187,2.187,0,0,0,6.56,41.549H36.015a15.23,15.23,0,0,0,1.213,2.462A2.18,2.18,0,0,0,36.082,45.922Zm15.307,16.4a1.093,1.093,0,0,1-2.187,0V51.333c.363.026.724.056,1.093.056s.73-.03,1.093-.056ZM50.3,49.2A13.121,13.121,0,1,1,63.416,36.082,13.121,13.121,0,0,1,50.3,49.2Z"/>
            <path id="Shape-17" data-name="Shape" d="M25.4,23H10.093a1.093,1.093,0,1,0,0,2.187H25.4A1.093,1.093,0,1,0,25.4,23Z" transform="translate(0.84 2.148)"/>
            <path id="Shape-18" data-name="Shape" d="M18.84,27H10.093a1.093,1.093,0,1,0,0,2.187H18.84a1.093,1.093,0,1,0,0-2.187Z" transform="translate(0.84 2.521)"/>
            <path id="Shape-19" data-name="Shape" d="M34.093,7.187H49.4A1.093,1.093,0,0,0,49.4,5H34.093a1.093,1.093,0,1,0,0,2.187Z" transform="translate(3.082 0.467)"/>
            <path id="Shape-20" data-name="Shape" d="M34.093,15.187H49.4A1.093,1.093,0,0,0,49.4,13H34.093a1.093,1.093,0,1,0,0,2.187Z" transform="translate(3.082 1.214)"/>
            <path id="Shape-21" data-name="Shape" d="M34.093,11.187H42.84A1.093,1.093,0,1,0,42.84,9H34.093a1.093,1.093,0,1,0,0,2.187Z" transform="translate(3.082 0.84)"/>
            <path id="Shape-22" data-name="Shape" d="M11.28,18.307a3.28,3.28,0,0,0,3.28-3.28V13.934a2.187,2.187,0,0,0-2.187-2.187V7.374h2.388a3.28,3.28,0,0,0,1.986,1.986V20.494h-3.28a1.093,1.093,0,1,0,0,2.187h8.747a1.093,1.093,0,1,0,0-2.187h-3.28V9.359a3.28,3.28,0,0,0,1.986-1.986h2.388v4.374a2.187,2.187,0,0,0-2.187,2.187v1.093a3.28,3.28,0,1,0,6.56,0V13.934a2.187,2.187,0,0,0-2.187-2.187V7.374h1.093a1.093,1.093,0,1,0,0-2.187H20.919a3.26,3.26,0,0,0-6.158,0H9.093a1.093,1.093,0,1,0,0,2.187h1.093v4.374A2.187,2.187,0,0,0,8,13.934v1.093A3.28,3.28,0,0,0,11.28,18.307Zm14.214-3.28a1.093,1.093,0,1,1-2.187,0V13.934h2.187ZM17.84,5.187A1.093,1.093,0,1,1,16.747,6.28,1.093,1.093,0,0,1,17.84,5.187Zm-7.654,8.747h2.187v1.093a1.093,1.093,0,1,1-2.187,0Z" transform="translate(0.747 0.28)"/>
            <path id="Shape-23" data-name="Shape" d="M46.934,23A10.934,10.934,0,1,0,57.868,33.934,10.934,10.934,0,0,0,46.934,23Zm0,19.681a8.747,8.747,0,1,1,8.747-8.747A8.747,8.747,0,0,1,46.934,42.681Z" transform="translate(3.362 2.148)"/>
          </g>
          <path id="Shape-24" data-name="Shape" d="M48.125,30.03A1.093,1.093,0,0,0,47,28.156l-5.467,3.28a1.093,1.093,0,1,0,1.126,1.874Z" transform="translate(3.827 2.616)" fill="#fff"/>
          <path id="Shape-25" data-name="Shape" d="M50.2,32.143l-7.654,4.374a1.093,1.093,0,0,0,.547,2.042,1.08,1.08,0,0,0,.547-.144l7.654-4.374a1.093,1.093,0,0,0-1.085-1.9Z" transform="translate(3.922 2.989)" fill="#fff"/>
        </g>
      </g>
    </g>
  </g>
</svg>
